<svg width="0" height="0" class="hidden">
    <symbol id="logo" viewBox="0 0 278 55" fill="none" xmlns="http://www.w3.org/2000/svg">
        <path d="M0.404846 44.3053H11.47V9.08447H0.404846V44.3053Z" fill="white"/>
        <path fill-rule="evenodd" clip-rule="evenodd" d="M11.2154 9.33887V44.0505H0.659485V9.33887H11.2154Z" fill="white"/>
        <path d="M31.1799 44.8981C38.145 44.8981 46.4933 41.7367 46.4933 33.3884V24.5461H30.6859V31.7088H35.8233V32.6474C35.8233 35.4137 34.1438 36.5992 31.3281 36.5992C28.2654 36.5992 26.6846 34.5739 26.6846 31.61V21.187C26.6846 18.2231 28.7594 16.6918 31.5751 16.6918C33.798 16.6918 36.0703 18.0255 36.0703 20.7918V21.6316H46.4439V20.1497C46.4439 11.6532 37.9968 8.4917 31.0317 8.4917C23.1774 8.4917 15.5207 12.4929 15.5207 21.434V31.6594C15.5207 41.3909 23.2762 44.8981 31.1799 44.8981Z" fill="white"/>
        <path fill-rule="evenodd" clip-rule="evenodd" d="M31.0317 8.74609C34.8529 8.74609 39.1294 9.70496 42.1702 12.005C44.5682 13.8189 46.1893 16.4723 46.1893 20.1494V21.3767H36.3249V20.7916C36.3249 19.4297 35.8042 18.3961 35.0152 17.6764C34.1069 16.848 32.8347 16.4369 31.5751 16.4369C30.0473 16.4369 28.7321 16.8745 27.8148 17.7177C26.9499 18.5127 26.43 19.6704 26.43 21.1868V31.6098C26.43 33.2051 26.8757 34.5359 27.7331 35.4572C28.5528 36.3379 29.752 36.8536 31.3281 36.8536C32.8513 36.8536 34.0513 36.5112 34.863 35.7975C35.6417 35.1129 36.0779 34.0838 36.0779 32.6472V31.454H30.9405V24.8005H46.2387V33.3881C46.2387 37.0095 44.6282 39.6304 42.2417 41.4241C39.229 43.6885 34.9928 44.6433 31.1799 44.6433C26.9336 44.6433 22.726 43.6246 19.7802 41.1342C17.3386 39.07 15.7753 35.9922 15.7753 31.6592V21.4338C15.7753 17.3898 17.3722 14.3759 19.8534 12.3056C22.7605 9.8799 26.8697 8.74609 31.0317 8.74609Z" fill="white"/>
        <path d="M50.05 44.3053H60.0284V27.016H60.1272L72.3779 44.3053H82.3563V9.08447H72.3779V24.8919H72.2791L60.7694 9.08447H50.05V44.3053Z" fill="white"/>
        <path fill-rule="evenodd" clip-rule="evenodd" d="M60.6398 9.33887L72.5289 25.6673L72.631 9.33887H82.1017V44.0505H72.5096L59.8771 26.2224L59.7752 44.0505H50.3046V9.33887H60.6398Z" fill="white"/>
        <mask id="mask0_56_588" style="mask-type:alpha" maskUnits="userSpaceOnUse" x="201" y="0" width="77" height="55">
        <path d="M276.03 0H203.022C201.976 0 201.129 0.847446 201.129 1.89282V52.7286C201.129 53.774 201.976 54.6215 203.022 54.6215H276.03C277.076 54.6215 277.923 53.774 277.923 52.7286V1.89282C277.923 0.847446 277.076 0 276.03 0Z" fill="white"/>
        </mask>
        <g mask="url(#mask0_56_588)">
        <path d="M276.03 0H203.022C201.976 0 201.129 0.847446 201.129 1.89282V52.7286C201.129 53.774 201.976 54.6215 203.022 54.6215H276.03C277.076 54.6215 277.923 53.774 277.923 52.7286V1.89282C277.923 0.847446 277.076 0 276.03 0Z" fill="#F1AC2B"/>
        <path d="M273.325 3.24463H205.724C204.977 3.24463 204.372 3.84995 204.372 4.59664V50.0244C204.372 50.7711 204.977 51.3764 205.724 51.3764H273.325C274.072 51.3764 274.677 50.7711 274.677 50.0244V4.59664C274.677 3.84995 274.072 3.24463 273.325 3.24463Z" fill="#222727"/>
        <path d="M234.137 44.8871V38.0789H236.826V29.9812H234.137V20.5941L224.777 26.3708V29.9812H219.813L233.103 8.1123H221.312L209.781 30.4454V38.0789H224.777V44.8871H234.137ZM249.349 44.8871V34.4685L252.141 30.497L257.468 44.8871H268.999L260.157 22.6572L268.896 8.1123H258.553L249.349 24.1014V8.1123H238.696V44.8871H249.349Z" fill="#EFC127"/>
        <path opacity="0.0594076" fill-rule="evenodd" clip-rule="evenodd" d="M273.158 0H276.029C277.074 0 277.922 0.847445 277.922 1.89282V59.2183C277.922 60.2637 277.075 61.1111 276.03 61.1111C276.029 61.1111 276.029 61.1111 276.029 61.1102L237.902 61.0916L273.158 0Z" fill="black"/>
        </g>
        <path fill-rule="evenodd" clip-rule="evenodd" d="M148.433 9.33936C152.703 9.33936 155.812 10.4544 157.916 12.2363C160.338 14.2881 161.417 17.2183 161.417 20.2981C161.417 22.5167 160.893 24.6704 159.787 26.5113C158.771 28.2019 157.264 29.6276 155.223 30.5977L154.994 30.7036L162.328 44.051H150.766L145.085 32.393H142.349V44.051H131.793V9.33936H148.433ZM147 17.129H142.349V25.3444H146.951L147.126 25.3416C148.337 25.3037 149.287 24.8711 149.96 24.2146C150.746 23.4489 151.158 22.373 151.158 21.2367C151.158 20.1319 150.772 19.0297 149.978 18.2457C149.297 17.573 148.313 17.129 147 17.129Z" fill="white"/>
        <path fill-rule="evenodd" clip-rule="evenodd" d="M193.426 9.33936V17.376H177.076V22.7263H190.018V30.7135H177.076V35.965H193.426V44.051H166.52V9.33936H193.426Z" fill="white"/>
        <path fill-rule="evenodd" clip-rule="evenodd" d="M102.885 19.7866C102.885 19.7866 102.212 20.2829 102.149 21.3927C102.149 21.3927 101.514 21.9232 100.57 21.7415C100.57 21.7415 100.949 22.6394 102.696 22.6492C102.696 22.6492 102.743 23.2182 103.075 23.4165C103.075 23.4165 102.929 23.5746 102.212 23.3936C102.212 23.3936 103.902 25.1117 106.353 23.2038C106.353 23.2038 102.076 23.1722 102.885 19.7866Z" fill="white"/>
        <path fill-rule="evenodd" clip-rule="evenodd" d="M95.7781 25.3534C95.6598 25.4717 95.6163 25.7908 95.9972 25.9859C96.378 26.1809 96.7407 25.7241 96.7407 25.7241C96.7407 25.7241 97.2866 26.0817 97.6231 26.4091C97.6231 26.4091 96.692 24.4405 95.7781 25.3534Z" fill="white"/>
        <path fill-rule="evenodd" clip-rule="evenodd" d="M106.693 17.3774C103.652 16.9186 102.537 17.4398 102.537 17.4398C102.537 17.4398 102.094 18.764 103.889 18.4931C105.685 18.2222 106.99 17.5652 108.893 19.7214L110.227 21.4101C110.227 21.4101 109.729 17.8351 106.693 17.3774Z" fill="white"/>
        <path fill-rule="evenodd" clip-rule="evenodd" d="M101.754 39.7338C104.173 39.101 105.914 37.9804 105.914 37.9804C103.602 39.138 100.812 39.2416 100.811 39.2416C93.2232 39.2181 93.0998 37.0907 93.0261 35.9926C92.9522 34.8945 94.1259 33.9772 94.1259 33.9772C94.2431 33.5272 94.1373 33.0572 94.0069 32.7066C94.2943 32.9617 94.8891 33.1071 96.1233 32.5958C96.1233 32.5958 94.4667 32.6826 93.7384 32.1501C93.7188 31.4121 94.3894 30.9252 94.5576 30.8149C94.5665 30.8219 94.575 30.8293 94.5839 30.8359C94.5839 30.8359 95.7001 30.9917 96.8055 31.9028C97.7452 32.6772 98.3785 32.7684 98.4165 32.346C98.4961 31.4613 97.6917 32.2726 97.2215 31.8857C96.4118 31.2194 95.8654 29.4328 94.4589 29.5552C94.4589 29.5552 93.9925 29.4314 93.857 29.152C93.8425 29.0643 93.8362 29.011 93.8362 29.011C95.2619 28.2313 95.475 27.136 95.475 27.136C95.475 27.136 93.4481 24.4618 94.2609 23.7599C95.2714 22.8877 96.6958 22.0257 98.2782 20.6955C98.2777 20.6956 98.2774 20.6958 98.2771 20.6959C97.3007 20.9196 96.5156 19.5676 96.5156 19.5676C98.5248 20.3759 99.3178 19.4206 99.3306 19.4049C99.7784 18.3394 99.2999 17.4148 99.2999 17.4148V17.4147C102.199 13.2219 105.278 11.514 107.938 10.9773C107.959 13.2239 108.592 17.1553 111.681 22.6209C117.943 33.2931 107.71 42.5341 103.95 44.0967C104.091 41.7111 102.73 40.3755 101.754 39.7338ZM112.321 7.82347C101.633 5.0416 90.7136 11.4508 87.9318 22.139C85.4802 31.5581 90.1676 41.1558 98.6303 45.2064C98.6303 45.2064 98.8722 45.212 99.2957 45.1955C113.548 44.7831 117.079 32.5958 117.079 32.5958C117.998 39.2788 115.328 43.783 111.924 46.6304C118.878 44.9655 124.71 39.6164 126.637 32.2131C129.419 21.5249 123.01 10.6053 112.321 7.82347Z" fill="white"/>
    </symbol>
    <!-- Home slider -->
    <symbol id="home-slider-prev" viewBox="0 0 10 15" fill="none" xmlns="http://www.w3.org/2000/svg">
        <path d="M0.45459 7.54564L1.32821 8.43854L7.33493 14.5454L9.36368 12.7596L4.23775 7.54541L9.36368 2.3312L7.33493 0.54541L1.32821 6.65228L0.45459 7.54564Z" fill="white"/>
    </symbol>
    <symbol id="home-slider-next" viewBox="0 0 10 15" fill="none" xmlns="http://www.w3.org/2000/svg">
        <path d="M9.54541 7.45436L8.67179 6.56146L2.66507 0.45459L0.636318 2.24038L5.76225 7.45459L0.636319 12.6688L2.66507 14.4546L8.67179 8.34772L9.54541 7.45436Z" fill="white"/>
    </symbol>
    <!-- End Home slider -->

    <symbol id="chapter-arrow" viewBox="0 0 3 6" fill="none" xmlns="http://www.w3.org/2000/svg">
        <path d="M2.99342 2.96517C2.98557 2.88943 2.95451 2.81791 2.90456 2.76037L0.678483 0.163282C0.619305 0.0757225 0.525533 0.0174913 0.420806 0.00334426C0.316079 -0.0108028 0.21023 0.0203386 0.129914 0.0890924C0.0495148 0.157761 0.00232753 0.257484 8.3788e-05 0.363156C-0.00215907 0.468833 0.0407144 0.570453 0.118097 0.642476L2.1393 2.99996L0.118097 5.35743C0.0407166 5.42955 -0.00215775 5.53118 8.3788e-05 5.63684C0.00232665 5.74252 0.0495148 5.84224 0.129914 5.91091C0.210228 5.97966 0.316077 6.0108 0.420806 5.99666C0.525533 5.98242 0.619305 5.92428 0.678483 5.83672L2.90456 3.23963C2.96995 3.16388 3.00204 3.06494 2.99342 2.96521V2.96517Z" fill="white" fill-opacity="0.44"/>
    </symbol>

    <symbol id="arrow-down" viewBox="0 0 6 8" fill="none" xmlns="http://www.w3.org/2000/svg">
        <path d="M0 0L3.04478 0.223788L6 2.93462e-07L3.04478 7.83258L0 0Z" fill="#231F20"/>
    </symbol>
    <symbol id="arrow-down" viewBox="0 0 14 8" fill="none" xmlns="http://www.w3.org/2000/svg">
        <path d="M13.7437 0.260331C13.5795 0.0936581 13.3568 0 13.1246 0C12.8924 0 12.6698 0.0936581 12.5056 0.260331L6.9948 5.85401L1.48401 0.260331C1.26157 0.0422625 0.942389 -0.0406776 0.644106 0.0422625C0.346024 0.125401 0.113043 0.361923 0.0311294 0.664516C-0.0505741 0.967308 0.0311294 1.29134 0.245947 1.51713L6.37572 7.73967C6.5399 7.90634 6.76254 8 6.99475 8C7.22695 8 7.44959 7.90634 7.61378 7.73967L13.7436 1.51713C13.9077 1.35046 14 1.12445 14 0.888731C14 0.653011 13.9077 0.427003 13.7436 0.260331H13.7437Z" fill="#EFD5A4"/>
    </symbol>
    <symbol id="arrow-down-mobile" viewBox="0 0 7 4" fill="none" xmlns="http://www.w3.org/2000/svg">
        <path d="M0.524002 0.606091C0.471586 0.606091 0.424266 0.63749 0.403821 0.685766C0.383505 0.733915 0.393822 0.789897 0.430507 0.827473L3.30007 3.77887C3.32459 3.80409 3.35834 3.81836 3.39356 3.81836C3.42878 3.81836 3.46254 3.80409 3.48706 3.77887L6.35662 0.82741C6.38082 0.802571 6.39355 0.769771 6.39355 0.736462C6.39355 0.71933 6.39018 0.70207 6.3833 0.685702C6.36286 0.637426 6.31554 0.606028 6.26312 0.606028L0.524002 0.606091Z" fill="#EFD5A4"/>
    </symbol>
    <!-- Info icons -->
    <symbol id="video-duration" viewBox="0 0 16 16" fill="none" xmlns="http://www.w3.org/2000/svg">
        <path d="M8 0C3.58106 0 0 3.58106 0 8C0 12.4189 3.58106 16 8 16C12.4189 16 16 12.4189 16 8C16 3.58106 12.4189 0 8 0ZM8 15.2382C4 15.2382 0.761796 12.0001 0.761796 8C0.761796 3.99993 3.99993 0.761796 8 0.761796C12.0001 0.761796 15.2382 3.99993 15.2382 8C15.2382 12.0001 12.0001 15.2382 8 15.2382Z" fill="white" fill-opacity="0.6"/>
        <path d="M8.43819 3.77148H7.67619V8.34291H12.2476V7.58105H8.43832L8.43819 3.77148Z" fill="white" fill-opacity="0.6"/>
    </symbol>
    <symbol id="video-viewed" viewBox="0 0 20 14" fill="none" xmlns="http://www.w3.org/2000/svg">
        <path d="M9.62495 0C2.88745 0 0 7 0 7C0 7 2.88745 14 9.62495 14C16.3625 14 19.2499 7 19.2499 7C19.2499 7 16.3625 0 9.62495 0ZM9.62495 13.1248C4.37505 13.1248 1.62335 8.3211 0.967108 7C1.61896 5.67432 4.35772 0.875234 9.62495 0.875234C14.8749 0.875234 17.6266 5.6789 18.2828 7C17.6309 8.32568 14.8922 13.1248 9.62495 13.1248Z" fill="white" fill-opacity="0.6"/>
        <path d="M9.62494 3.5C7.69125 3.5 6.12505 5.0662 6.12505 6.99989C6.12505 8.93358 7.69125 10.4998 9.62494 10.4998C11.5586 10.4998 13.1248 8.93358 13.1248 6.99989C13.1248 5.0662 11.5586 3.5 9.62494 3.5ZM9.62494 9.62477C8.17683 9.62477 6.99999 8.44792 6.99999 6.99981C6.99999 5.5517 8.17683 4.37486 9.62494 4.37486C11.0731 4.37486 12.2499 5.5517 12.2499 6.99981C12.2499 8.44792 11.0731 9.62477 9.62494 9.62477Z" fill="white" fill-opacity="0.6"/>
        <path d="M10.2812 6.99999C10.2812 7.36239 9.98734 7.65623 9.62494 7.65623C9.26255 7.65623 8.9687 7.36239 8.9687 6.99999C8.9687 6.63759 9.26255 6.34375 9.62494 6.34375C9.98734 6.34375 10.2812 6.63759 10.2812 6.99999Z" fill="white" fill-opacity="0.6"/>
    </symbol>
    <symbol id="video-publisher" viewBox="0 0 14 17" fill="none" xmlns="http://www.w3.org/2000/svg">
        <path d="M0.547492 17H13.1419C13.4157 17 13.6397 16.776 13.6397 16.5022V13.9634C13.6397 12.3953 12.9676 10.9516 11.8974 9.95607C11.9223 9.90624 11.9223 9.85658 11.9223 9.80675L11.9224 5.25184C11.9224 3.85803 11.3749 2.53885 10.3793 1.54315C9.38377 0.54763 8.08939 0 6.6706 0C3.78329 0 1.44365 2.33973 1.44365 5.22695V10.0059C1.44365 10.0805 1.46848 10.1304 1.46848 10.1802C0.572431 11.1757 0 12.4701 0 13.9137V16.4526C0.0498293 16.776 0.273801 17 0.547585 17L0.547492 17ZM6.69538 1.02047C7.81539 1.02047 8.88576 1.46841 9.68216 2.26498C10.4787 3.06156 10.9267 4.13175 10.9267 5.25177V9.20927C10.3044 8.83599 9.60749 8.58701 8.86078 8.48754C9.35854 7.96476 9.68216 7.26788 9.68216 6.49628V5.1771C9.68216 3.60897 8.38783 2.31481 6.81987 2.31481H6.5709C5.00277 2.31481 3.70861 3.60915 3.70861 5.1771V6.49628C3.70861 7.29286 4.03224 8.01458 4.55484 8.53737C3.78328 8.68668 3.08636 8.9853 2.4641 9.40861V5.25181C2.4641 2.91209 4.35571 1.02052 6.6954 1.02052L6.69538 1.02047ZM8.68664 6.49632C8.68664 7.51687 7.84042 8.36309 6.81987 8.36309H6.5709C5.55036 8.36309 4.70413 7.51687 4.70413 6.49632V5.17714C4.70413 4.1566 5.55036 3.31037 6.5709 3.31037H6.81987C7.84042 3.31037 8.68664 4.1566 8.68664 5.17714V6.49632ZM7.61627 9.40848L6.84472 10.5783L6.07317 9.40848H7.61627ZM1.04525 13.9634C1.04525 11.6983 2.7129 9.80672 4.90328 9.48315L6.42159 11.7482C6.52107 11.8975 6.67056 11.9722 6.8447 11.9722C7.01901 11.9722 7.16832 11.8975 7.26781 11.7482L8.78611 9.45831C10.9765 9.78193 12.6441 11.6735 12.6441 13.9385V15.9796L1.0453 15.9795L1.04525 13.9634Z" fill="white" fill-opacity="0.6"/>
    </symbol>
    <symbol id="4k-icon" viewBox="0 0 28 17" fill="none" xmlns="http://www.w3.org/2000/svg">
        <path d="M0.654785 9.36012V13.1626H7.44978V16.8751H11.7923V13.1626H13.7723V9.36012H11.7923V0.495117H7.44978L0.654785 9.09012L0.767285 9.36012H0.654785ZM5.46978 9.36012L7.44978 6.95262V9.36012H5.46978Z" fill="#EFC127"/>
        <path d="M19.3057 16.8751V10.0126L23.0182 16.8751H27.9232L23.2882 8.64012L27.9232 0.495117H23.0182L19.3057 7.31262V0.495117H14.9632V16.8751H19.3057Z" fill="#EFC127"/>
    </symbol>
    <symbol id="video-like" viewBox="0 0 18 17" fill="none" xmlns="http://www.w3.org/2000/svg">
        <path fill-rule="evenodd" clip-rule="evenodd" d="M17.5378 5.91731C17.1738 5.48245 16.6418 5.23235 16.082 5.2328H13.7152L14.312 3.60767C14.561 2.92532 14.5361 2.17006 14.2422 1.50654C13.9711 0.889154 13.4693 0.408345 12.8491 0.171657C12.2947 -0.0446008 11.684 -0.0568573 11.1218 0.136782C10.5595 0.330566 10.0808 0.718116 9.76781 1.23326L8.48848 3.32519C7.86021 4.35831 6.80977 5.04693 5.62908 5.19957C5.49244 4.8263 5.24799 4.50456 4.92801 4.27691C4.60803 4.04927 4.22781 3.9267 3.83801 3.92539H1.91901C1.40998 3.92539 0.921963 4.13201 0.561995 4.49974C0.202179 4.86761 0 5.36636 0 5.88658V15.0388C0 15.559 0.202179 16.0578 0.561995 16.4257C0.921952 16.7934 1.40998 17 1.91901 17H3.83801C4.23168 16.9984 4.61548 16.8732 4.937 16.6412C5.25869 16.4092 5.50272 16.0816 5.63607 15.7031C7.54864 15.727 9.45653 15.899 11.3437 16.2174L12.0564 16.3384C12.303 16.3813 12.5527 16.4032 12.8028 16.4038C13.87 16.401 14.9012 16.0088 15.7103 15.2977C16.5196 14.5868 17.0538 13.6037 17.2166 12.5259L17.9772 7.49557C18.0634 6.92925 17.9028 6.35255 17.5377 5.91758L17.5378 5.91731ZM4.47758 15.0389C4.47758 15.2123 4.41018 15.3786 4.29025 15.5012C4.17031 15.6238 4.00753 15.6926 3.83791 15.6926H1.9189C1.74928 15.6926 1.5865 15.6238 1.46657 15.5012C1.34663 15.3786 1.27923 15.2123 1.27923 15.0389V5.88668C1.27923 5.71333 1.34663 5.54697 1.46657 5.4244C1.5865 5.30183 1.74928 5.23295 1.9189 5.23295H3.83791C4.00753 5.23295 4.17031 5.30183 4.29025 5.4244C4.41018 5.54697 4.47758 5.71333 4.47758 5.88668V15.0389ZM14.6662 14.4735C15.3588 13.9614 15.822 13.1873 15.9525 12.324L16.7137 7.2942C16.7423 7.10568 16.6887 6.9138 16.5673 6.7689C16.4458 6.624 16.2684 6.54053 16.0817 6.54053H12.7931C12.583 6.54126 12.3858 6.43649 12.2657 6.26021C12.1458 6.08378 12.1181 5.85848 12.1919 5.6574L13.113 3.14901C13.2453 2.79208 13.2333 2.39604 13.0797 2.04802C12.95 1.74684 12.7076 1.51146 12.4068 1.39429C12.1281 1.2847 11.8208 1.27755 11.5374 1.37401C11.2541 1.47061 11.0124 1.66468 10.8537 1.92325L9.57438 4.01519C8.7373 5.39299 7.33258 6.30704 5.75684 6.49937V14.3983C7.69924 14.4272 9.63722 14.6042 11.5541 14.9277V14.9279L12.266 15.0494C13.1093 15.1929 13.9737 14.9855 14.6662 14.4735Z" fill="#EFD5A4" fill-opacity="0.6"/>
    </symbol>
    <symbol id="video-download" viewBox="0 0 18 18" fill="none" xmlns="http://www.w3.org/2000/svg">
        <path d="M17.2345 11.5304C17.5583 11.5304 17.8207 11.7929 17.8207 12.1166V14.227C17.8207 16.1048 16.2985 17.627 14.4208 17.627H3.39994C1.5221 17.627 0 16.1047 0 14.227V12.1166C0 11.7929 0.262443 11.5304 0.586271 11.5304C0.909974 11.5304 1.17242 11.7929 1.17242 12.1166V14.227C1.17242 15.4573 2.16978 16.4546 3.4001 16.4546H14.421C15.6513 16.4546 16.6486 15.4573 16.6486 14.227V12.1166C16.6486 11.7929 16.9111 11.5304 17.2348 11.5304H17.2345ZM8.91022 0.626953C9.22102 0.626953 9.47534 0.868743 9.49518 1.17453L9.49649 1.21309V10.8847L12.0276 8.52274C12.254 8.3114 12.6032 8.31391 12.8264 8.52167L12.8561 8.55128C13.0673 8.77767 13.0648 9.12692 12.8571 9.35021L12.8275 9.37982L9.3138 12.6593C9.30329 12.6694 9.29231 12.679 9.28108 12.6882C9.2781 12.6906 9.27499 12.6931 9.27201 12.6955C9.26508 12.7009 9.25804 12.7063 9.25076 12.7114C9.24574 12.715 9.24084 12.7184 9.23571 12.7218C9.23058 12.7251 9.22532 12.7286 9.22007 12.7319C9.21505 12.735 9.21004 12.738 9.20502 12.741C9.19726 12.7454 9.18938 12.7498 9.18138 12.754L9.17195 12.7588C9.16479 12.7624 9.1575 12.7658 9.15022 12.7692C9.1452 12.7714 9.14007 12.7736 9.13494 12.7757C9.12849 12.7784 9.12192 12.781 9.11547 12.7834L9.09852 12.7894C9.09338 12.7911 9.08825 12.7928 9.08312 12.7944C9.07595 12.7965 9.06879 12.7987 9.06162 12.8006C9.0424 12.8057 9.0227 12.8099 9.00276 12.813C8.99774 12.8138 8.99285 12.8146 8.98783 12.8151L8.94891 12.8191L8.91034 12.8203H8.9101C8.88025 12.8203 8.8504 12.818 8.82079 12.8135L8.79321 12.8085C8.61375 12.845 8.41996 12.7971 8.27584 12.6627L4.75851 9.3798C4.52174 9.15891 4.50896 8.78793 4.72986 8.55129C4.95087 8.31463 5.32172 8.30173 5.55849 8.52275L8.32396 11.1041V1.21328C8.32396 0.889578 8.58652 0.627132 8.91023 0.627132L8.91022 0.626953Z" fill="white" fill-opacity="0.6"/>
    </symbol>
    <symbol id="video-heart" viewBox="0 0 18 17" fill="none" xmlns="http://www.w3.org/2000/svg">
        <path d="M8.23555 16.5235L8.71613 16.9093C8.78166 16.9774 8.89091 17 8.97822 17H9.04374H9.06553C9.15285 17 9.2621 16.9546 9.32762 16.9093L9.61165 16.6822C12.539 14.2992 18 9.82777 18 5.10681C18 2.29235 15.7937 0 13.085 0C11.4029 0 9.89555 0.862524 8.97816 2.29235C8.08249 0.88518 6.53159 0 4.8932 0C2.18454 0 0 2.29235 0 5.10681C0 9.80507 5.15534 14.004 8.23544 16.5234L8.23555 16.5235ZM4.89332 0.907962C6.44437 0.907962 7.86419 1.83858 8.54138 3.29118C8.56316 3.33662 8.58511 3.4047 8.58511 3.4047C8.67242 3.58629 8.86914 3.69981 9.04392 3.65437C9.19691 3.63173 9.32795 3.54086 9.37153 3.38206C9.37153 3.38206 9.41526 3.29134 9.43705 3.2459C10.1142 1.7933 11.5123 0.885501 13.0633 0.885501C15.2915 0.885501 17.1046 2.76935 17.1046 5.08443C17.1046 9.37415 11.8618 13.6639 9.02204 15.9563L8.97831 15.9789L8.78159 15.8199C5.81072 13.3913 0.873826 9.35132 0.873826 5.107C0.873826 2.79187 2.66517 0.908063 4.89324 0.908063L4.89332 0.907962Z" fill="white" fill-opacity="0.6"/>
    </symbol>
    <!-- End info icons -->
    <!-- Features -->
    <symbol id="4k-display" viewBox="0 0 45 25" fill="none" xmlns="http://www.w3.org/2000/svg">
        <path d="M0.612 13.396V19.142H10.88V24.752H17.442V19.142H20.434V13.396H17.442V0H10.88L0.612 12.988L0.782 13.396H0.612ZM7.888 13.396L10.88 9.758V13.396H7.888Z" fill="#EFC127"/>
        <path d="M31.5156 24.752V14.382L37.1256 24.752H44.5376L37.5336 12.308L44.5376 0H37.1256L31.5156 10.302V0H24.9536V24.752H31.5156Z" fill="#EFC127"/>
    </symbol>
    <symbol id="hd-definition" viewBox="0 0 48 25" fill="none" xmlns="http://www.w3.org/2000/svg">
        <path d="M7.65 24.752V14.688H14.756V24.752H21.556V0H14.756V9.758H7.65V0H0.884001V24.752H7.65Z" fill="#EFC127"/>
        <path d="M26.0493 0V24.752H36.4533V24.718C42.9813 24.242 47.3333 19.448 47.3333 12.376C47.3333 5.27 42.9813 0.442 36.3853 0.0339994V0H26.0493ZM32.6113 6.12H35.9093C38.3573 6.426 40.0233 8.942 40.0233 12.444C40.0233 15.912 38.3233 18.326 35.9433 18.632H32.6113V6.12Z" fill="#EFC127"/>
    </symbol>
    <symbol id="fast-runtime" viewBox="0 0 26 36" fill="none" xmlns="http://www.w3.org/2000/svg">
        <path d="M16.405 13.5001V0.901707C16.405 0.352056 15.9556 0.00459876 15.4937 4.72613e-05C15.224 -0.00266489 14.95 0.111243 14.7581 0.370401L0.177247 20.1687C0.0384292 20.3558 -0.0137467 20.5676 0.00303045 20.7695C0.0393372 21.2074 0.402106 21.6001 0.91281 21.6001H8.20416C8.70727 21.6001 9.11519 22.003 9.11519 22.4999V35.0983C9.11519 35.6479 9.5643 35.9954 10.0265 36C10.2959 36.0027 10.5702 35.8888 10.7618 35.6299L25.3497 15.8309C25.4729 15.6651 25.5282 15.4801 25.5273 15.2996C25.5254 14.8343 25.152 14.3995 24.6143 14.3995H17.316C16.8129 14.3995 16.405 13.997 16.405 13.5001Z" fill="#EFC127"/>
    </symbol>
    <symbol id="responsive-for-devices" fill="none" xmlns="http://www.w3.org/2000/svg">
        <path d="M23.7116 2.5092V27.88H0V2.5092C0 1.12897 1.12191 0 2.50248 0H21.2025C22.5827 0 23.7117 1.12888 23.7117 2.5092H23.7116Z" fill="#EFC127"/>
        <path d="M0 31.491C0 32.8782 1.12191 34.0002 2.50248 34.0002H21.2025C22.5827 34.0002 23.7117 32.8783 23.7117 31.491V29.2402H8.43048e-05L0 31.491ZM9.86 30.2602H13.8517C14.2255 30.2602 14.5317 30.5664 14.5317 30.9402C14.5317 31.3211 14.2255 31.6202 13.8517 31.6202H9.86C9.47916 31.6202 9.18 31.3211 9.18 30.9402C9.18 30.5664 9.47916 30.2602 9.86 30.2602Z" fill="#EFC127"/>
    </symbol>
    <symbol id="50-mp-photos" viewBox="0 0 44 36" fill="none" xmlns="http://www.w3.org/2000/svg">
        <g clip-path="url(#clip0_54_304)">
        <path d="M13.4216 1.02882C12.158 1.78311 11.2701 3.32596 11.2701 4.69739C11.2701 6.10311 12.4654 7.85168 13.8315 8.43454C15.3341 9.05168 15.8464 9.05168 17.2808 8.36596C20.3545 6.89168 20.2862 2.12596 17.1783 0.823106C15.6757 0.171678 14.7194 0.240249 13.4216 1.02882Z" fill="#EFC127"/>
        <path d="M19.7397 7.85151L18.6127 8.84579L18.442 14.7772L18.2712 20.7087L14.1047 21.4287C8.46966 22.4229 8.53796 22.3544 8.53796 27.3258V31.2001H5.12279C2.15158 31.2001 1.60515 31.3029 1.02457 31.8858C0.136625 32.7772 0.136625 34.0801 1.02457 34.9715C1.6393 35.5887 2.15158 35.6572 6.45471 35.6572C12.5679 35.6572 12.602 35.6572 12.7045 31.3715L12.8069 28.2858L18.7152 28.1829L24.5893 28.1144V31.0287C24.5893 33.7029 24.6576 34.0458 25.4431 34.8001L26.2627 35.6572H33.981H41.6993L42.519 34.8001C43.3386 33.9772 43.5777 32.8458 43.1679 31.7144C42.7922 30.7544 41.1188 30.1715 38.7623 30.1715H36.5424V24.1372C36.5424 19.2001 36.44 17.8972 35.9618 16.9029C35.552 16.0115 33.981 14.6058 30.2585 11.8287C27.4239 9.70294 24.6235 7.71437 24.0087 7.40579C22.3694 6.58294 21.0034 6.72008 19.7397 7.85151ZM27.7313 18.4115C30.8732 20.9144 31.1806 21.6001 31.3514 26.2972C31.488 30.0687 31.488 30.1715 30.7708 30.1715C30.0877 30.1715 30.0536 30.0001 30.0536 26.8115C30.0536 22.9372 29.5413 21.5658 27.663 20.2972C26.6384 19.6115 26.1944 19.5087 24.6918 19.6801L22.8817 19.8858V17.2801V14.6744L24.1795 15.6344C24.8625 16.1487 26.4676 17.4172 27.7313 18.4115Z" fill="#EFC127"/>
        <path d="M2.35648 16.6284C1.36608 17.1427 0.341522 19.0284 0.341522 20.2284C0.341522 23.5884 4.6105 25.6113 7.13773 23.4513C10.0748 20.9827 8.43549 16.0799 4.6788 16.1142C3.89331 16.1484 2.8346 16.3542 2.35648 16.6284Z" fill="#EFC127"/>
        </g>
        <defs>
        <clipPath id="clip0_54_304">
        <rect width="43.7143" height="36" fill="white"/>
        </clipPath>
        </defs>
    </symbol>
    <symbol id="support" viewBox="0 0 36 36" fill="none" xmlns="http://www.w3.org/2000/svg">
        <path fill-rule="evenodd" clip-rule="evenodd" d="M31.6304 6.24213C34.4542 9.51565 36.0054 13.6965 36.0008 18.0196C35.9959 22.3426 34.4355 26.5202 31.6046 29.7867L24.2887 22.4709C25.2132 21.1705 25.7117 19.6153 25.7157 18.0199C25.7197 16.4244 25.2287 14.8669 24.3106 13.5619L31.6304 6.24213ZM29.8164 4.42026L22.5016 11.735C21.1952 10.7962 19.6282 10.2891 18.0193 10.2851C16.4106 10.2808 14.8408 10.7799 13.5298 11.7118L6.21399 4.39595C9.49147 1.55643 13.6835 -0.00461843 18.0198 1.0264e-05C22.3561 0.00431524 26.5454 1.57413 29.8164 4.42026ZM6.24309 31.6296L13.563 24.3098C14.868 25.2278 16.4255 25.7189 18.0209 25.7149C19.6163 25.7109 21.1716 25.2124 22.4719 24.2879L29.7878 31.6038C26.5206 34.4347 22.3437 35.9951 18.0206 36C13.6976 36.0046 9.51697 34.4533 6.24309 31.6296ZM4.42122 29.8155C1.57479 26.5441 0.00493268 22.3553 1.01041e-05 18.019C-0.00458185 13.6827 1.55613 9.49044 4.39565 6.21289L11.713 13.5287C10.781 14.8397 10.2817 16.4099 10.286 18.0185C10.29 19.6273 10.7971 21.1944 11.7359 22.5008L4.42122 29.8155Z" fill="#EFC127"/>
    </symbol>
    <!-- End Features -->

    <!-- Get access icons -->
    <symbol id="14-series" viewBox="0 0 40 33" fill="none" xmlns="http://www.w3.org/2000/svg">
        <path d="M10.2396 31.6196C10.9326 31.4468 11.4524 31.1704 11.7989 30.7903C12.1455 30.4101 12.3187 29.9782 12.3187 29.4944C12.3187 29.0451 12.1628 28.6218 11.8509 28.2244C11.539 27.827 11.0539 27.5419 10.3955 27.3691H8.1605V1.81424C7.84863 0.604747 7.15559 0 6.08139 0C5.76952 0 5.38835 0.0863924 4.93788 0.259177L1.35142 2.59177C1.0049 2.86823 0.753676 3.17924 0.597743 3.52481C0.44181 3.87038 0.363844 4.19867 0.363844 4.50968C0.363844 5.02804 0.545766 5.48592 0.909609 5.88332C1.27345 6.28073 1.74992 6.47943 2.339 6.47943C2.89342 6.47943 3.4132 6.30665 3.89833 5.96108V27.3691H2.39097C1.59398 27.3691 0.996239 27.6024 0.597743 28.0689C0.199248 28.5354 0 29.0106 0 29.4944C0 29.9782 0.181922 30.436 0.545766 30.868C0.909609 31.3 1.4727 31.5505 2.23504 31.6196H10.2396ZM32.4651 32.76C33.0195 32.76 33.5133 32.5527 33.9465 32.138C34.3796 31.7233 34.6135 31.1185 34.6482 30.3237V24.7773C35.1679 24.8119 35.6704 24.8292 36.1555 24.8292H37.5589C38.2519 24.6564 38.7804 24.3713 39.1442 23.9739C39.5081 23.5765 39.69 23.1359 39.69 22.6521C39.69 22.2028 39.5341 21.7882 39.2222 21.408C38.9103 21.0279 38.4079 20.7169 37.7148 20.475H34.6482V14.5139C34.4749 13.8573 34.189 13.3822 33.7905 13.0884C33.392 12.7947 32.9502 12.6478 32.4651 12.6478C31.98 12.6478 31.5555 12.812 31.1917 13.1403C30.8278 13.4686 30.5593 13.9783 30.386 14.6694V20.4232C28.9999 20.3886 27.6572 20.3627 26.3577 20.3454C25.0583 20.3281 23.8195 20.3022 22.6413 20.2677C24.27 17.4685 25.8899 14.6694 27.5012 11.8703L29.1154 9.0712C30.1935 7.20513 31.2754 5.33905 32.3611 3.47297C32.5691 3.05829 32.673 2.69544 32.673 2.38443C32.673 1.72785 32.4564 1.20949 32.0233 0.829367C31.5901 0.449241 31.131 0.259177 30.6459 0.259177C30.2647 0.259177 29.8922 0.362848 29.5284 0.57019C29.1645 0.777532 28.844 1.10582 28.5668 1.55506C26.6263 4.94165 24.6858 8.28503 22.7453 11.5852C20.8048 14.8854 18.8816 18.2461 16.9758 21.6672C16.9065 21.9437 16.8718 22.1683 16.8718 22.3411C16.8718 23.6542 17.6168 24.3972 19.1068 24.57C20.8048 24.6046 22.6153 24.6305 24.5385 24.6478C26.4617 24.665 28.4108 24.6909 30.386 24.7255V30.4792C30.49 31.274 30.7412 31.8529 31.1397 32.2157C31.5382 32.5786 31.98 32.76 32.4651 32.76Z" fill="#EFC127"/>
    </symbol>
    <symbol id="unlim-downloads" viewBox="0 0 40 40" fill="none" xmlns="http://www.w3.org/2000/svg">
        <path d="M11.2376 18.3254C7.32311 18.3254 4.15004 15.1521 4.15004 11.2379C4.15004 7.32347 7.32311 4.15043 11.2376 4.15043C14.9208 4.15043 17.9478 6.95985 18.2927 10.5527L17.1801 9.44016C16.6879 8.9483 15.8902 8.9483 15.3981 9.44016L14.9526 9.8856C14.4604 10.3776 14.4604 11.1754 14.9524 11.6674C14.9524 11.6675 14.9524 11.6675 14.9525 11.6674L19.4549 16.1698C19.7009 16.4158 20.0998 16.4158 20.3458 16.1698L24.8482 11.6674C25.3403 11.1755 25.3403 10.3777 24.8482 9.8856C24.8482 9.88558 24.8482 9.88556 24.8481 9.8856L24.4026 9.44016C23.9105 8.9483 23.1128 8.9483 22.6206 9.44016L21.456 10.6046C21.1291 5.24541 16.6793 1 11.2378 1C5.58355 1 1 5.58339 1 11.2377C1 16.8917 5.58342 21.4748 11.2378 21.4748H28.5625C32.477 21.4748 35.65 24.6481 35.65 28.5623C35.65 32.4767 32.477 35.6498 28.5625 35.6498C24.6483 35.6498 21.4749 32.4767 21.4749 28.5623V26.1998C21.4749 25.33 20.7698 24.6249 19.9 24.6249C19.0302 24.6249 18.3251 25.33 18.3251 26.1998V28.5623C18.3251 34.2165 22.9085 38.8 28.5622 38.8C34.2164 38.8 38.8 34.2166 38.8 28.5623C38.8 22.9083 34.2166 18.3252 28.5622 18.3252L11.2376 18.3254Z" fill="#EFC127" stroke="#EFC127" stroke-width="0.63"/>
    </symbol>
    <symbol id="early-access" viewBox="0 0 34 35" fill="none" xmlns="http://www.w3.org/2000/svg">
        <path d="M0 2.88587C0 1.29155 1.29155 0 2.88587 0H18.9241C20.5112 0 21.8099 1.29155 21.8099 2.88587C21.8099 4.47297 20.5112 5.77174 18.9241 5.77174H2.88587C1.29155 5.77174 0 4.47332 0 2.88587Z" fill="#EFC127"/>
        <path d="M21.8106 31.7452C21.8106 33.3323 20.5117 34.6311 18.9245 34.6311H2.8863C1.29169 34.6311 0.000427246 33.3324 0.000427246 31.7452C0.000427246 30.1509 1.29197 28.8594 2.8863 28.8594H18.9245C20.5119 28.8594 21.8106 30.1509 21.8106 31.7452Z" fill="#EFC127"/>
        <path d="M14.2058 17.3156C16.9402 18.5708 18.8376 21.3268 18.8376 24.5304V27.4163H2.96521V24.5304C2.96521 21.3271 4.86983 18.5639 7.60427 17.3156C4.86983 16.0603 2.96521 13.2971 2.96521 10.1007V7.21484H18.8376V10.1007C18.8376 13.2968 16.9402 16.0601 14.2058 17.3156Z" fill="#EFC127"/>
        <path d="M24.5438 32.9176C29.4874 32.9176 33.495 28.91 33.495 23.9664C33.495 19.0227 29.4874 15.0151 24.5438 15.0151C19.6001 15.0151 15.5925 19.0227 15.5925 23.9664C15.5925 28.91 19.6001 32.9176 24.5438 32.9176Z" fill="#202325"/>
        <path d="M24.5438 31.1851C28.5306 31.1851 31.7625 27.9531 31.7625 23.9663C31.7625 19.9795 28.5306 16.7476 24.5438 16.7476C20.557 16.7476 17.325 19.9795 17.325 23.9663C17.325 27.9531 20.557 31.1851 24.5438 31.1851Z" fill="#EFC127"/>
        <path d="M19.0321 24.6522L20.1524 23.1886L23.1458 25.6994L28.0648 20.2129L29.4271 21.4552L23.3365 28.2979L19.0321 24.6522Z" fill="#35283C" stroke="#35283C" stroke-width="0.5775"/>
    </symbol>
    <symbol id="premium-membership" viewBox="0 0 38 38" fill="none" xmlns="http://www.w3.org/2000/svg">
        <path d="M22.853 29.2116H21.1606L20.6385 27.6022C20.3861 26.8258 19.6623 26.2998 18.8461 26.2998C18.0302 26.2998 17.3065 26.8258 17.0538 27.6022L16.5303 29.2116H14.8398C14.0239 29.2116 13.3002 29.7376 13.0475 30.5122C12.7951 31.2886 13.0721 32.1386 13.7315 32.6191L15.1018 33.6142L14.5777 35.2236C14.3253 35.9982 14.6023 36.85 15.2617 37.3286C15.9233 37.811 16.8165 37.811 17.4763 37.3305L18.8465 36.3376L20.2168 37.3327C20.5465 37.5721 20.9348 37.6908 21.3229 37.6908C21.7128 37.6908 22.1012 37.5721 22.431 37.3308C23.0926 36.8522 23.3677 36.0003 23.115 35.2258L22.5909 33.6164L23.9612 32.6213C24.6228 32.1408 24.8979 31.2908 24.6452 30.5143C24.3931 29.7376 23.6712 29.2116 22.8531 29.2116L22.853 29.2116Z" fill="#EFC127"/>
        <path d="M9.90001 29.2116H8.20765L7.6855 27.6022C7.43309 26.8258 6.70932 26.2998 5.89315 26.2998C5.07722 26.2998 4.35352 26.8258 4.1008 27.6022L3.57706 29.2116H1.8847C1.06877 29.2116 0.345076 29.7376 0.0923491 30.5122C-0.160055 31.2886 0.116959 32.1386 0.776368 32.6191L2.14662 33.6142L1.62256 35.2236C1.37016 35.9982 1.64717 36.85 2.30658 37.3286C2.96819 37.811 3.86139 37.811 4.52111 37.3305L5.89136 36.3354L7.26161 37.3305C7.59321 37.5737 7.9816 37.6924 8.36969 37.6924C8.75965 37.6924 9.14803 37.5737 9.47776 37.3324C10.1394 36.8538 10.4145 36.0019 10.1618 35.2274L9.63772 33.618L11.008 32.6229C11.6696 32.1424 11.9447 31.2924 11.692 30.516C11.4399 29.7376 10.7161 29.2117 9.90021 29.2117L9.90001 29.2116Z" fill="#EFC127"/>
        <path d="M37.5998 30.5122C37.3471 29.7376 36.6233 29.2116 35.8075 29.2116H34.1151L33.593 27.6022C33.3406 26.8258 32.6168 26.2998 31.8006 26.2998C30.9847 26.2998 30.261 26.8258 30.0083 27.6022L29.4845 29.2116H27.7922C26.9762 29.2116 26.2525 29.7376 25.9998 30.5122C25.7474 31.2886 26.0244 32.1386 26.6838 32.6191L28.0541 33.6142L27.53 35.2236C27.2776 35.9982 27.5546 36.85 28.2141 37.3286C28.8757 37.811 29.7689 37.811 30.4286 37.3305L31.7988 36.3354L33.1691 37.3305C33.4988 37.57 33.8872 37.6886 34.2752 37.6886C34.6652 37.6886 35.0536 37.57 35.3833 37.3286C36.0449 36.85 36.3201 35.9981 36.0673 35.2236L35.5433 33.6142L36.9135 32.6191C37.5754 32.1405 37.8524 31.2905 37.6 30.5122L37.5998 30.5122Z" fill="#EFC127"/>
        <path d="M28.2694 13.1926V17.303L21.9258 18.5714C21.2415 17.6008 20.1202 16.9619 18.8462 16.9619C16.7674 16.9619 15.0769 18.6524 15.0769 20.7313C15.0769 22.8101 16.7674 24.5006 18.8462 24.5006C20.3426 24.5006 21.6261 23.6169 22.2347 22.352L30.5232 20.6934C31.4051 20.518 32.0383 19.7453 32.0383 18.8464C33.0785 18.8464 33.9228 18.004 33.9228 16.9619L33.9231 13.1926C33.9231 12.1505 33.0789 11.3081 32.0386 11.3081C31.9878 11.3081 31.9424 11.3346 31.8916 11.3384C30.9848 4.94187 25.4893 0 18.8458 0C12.2022 0 6.70695 4.94146 5.80071 11.3376C5.7496 11.3338 5.70449 11.3076 5.65369 11.3076C4.61314 11.3076 3.76886 12.15 3.76886 13.1921V16.9615C3.76886 18.0035 4.61314 18.846 5.65337 18.846C5.65337 19.888 6.49765 20.7305 7.53788 20.7305C8.5781 20.7305 9.42238 19.888 9.42238 18.846L9.4227 13.1921C9.4227 7.99639 13.6498 3.76877 18.846 3.76877C24.0418 3.76877 28.2694 7.99623 28.2694 13.1921L28.2694 13.1926Z" fill="#EFC127"/>
    </symbol>
    <symbol id="special-offer" viewBox="0 0 33 31" fill="none" xmlns="http://www.w3.org/2000/svg">
        <path d="M32.13 15.12C32.13 13.5867 28.9508 12.5535 28.4773 11.1537C28.0038 9.72061 29.9655 7.0207 29.0522 5.82077C28.139 4.58762 24.9598 5.62082 23.7085 4.72088C22.4909 3.85436 22.4572 0.521364 21.0027 0.0548046C19.5823 -0.411803 17.6206 2.25464 16.031 2.25464C14.4751 2.25464 12.4797 -0.411815 11.0593 0.0548046C9.60512 0.521412 9.57112 3.82115 8.35356 4.72088C7.10224 5.62085 3.92305 4.58766 3.00981 5.82077C2.13052 7.02064 4.05821 9.72037 3.58474 11.1537C3.1792 12.5535 0 13.5867 0 15.12C0 16.6533 3.17925 17.6865 3.65269 19.0863C4.12617 20.5194 2.1645 23.2193 3.07776 24.4192C3.99099 25.6524 7.17024 24.6192 8.4215 25.5191C9.63907 26.3856 9.67283 29.7186 11.1273 30.1852C12.5477 30.6518 14.5094 27.9854 16.099 27.9854C17.6549 27.9854 19.6503 30.6518 21.0707 30.1852C22.5249 29.7186 22.5589 26.4189 23.7764 25.5191C25.0278 24.6192 28.207 25.6523 29.1202 24.4192C29.9995 23.2194 28.0718 20.5196 28.5453 19.0863C28.9508 17.6865 32.13 16.6533 32.13 15.12ZM11.9049 8.78731C13.1563 8.78731 14.171 9.78727 14.171 11.0204C14.171 12.2536 13.1563 13.2535 11.9049 13.2535C10.6536 13.2535 9.63892 12.2536 9.63892 11.0204C9.63892 9.78703 10.6534 8.78731 11.9049 8.78731ZM20.2249 21.4527C18.9736 21.4527 17.9589 20.4527 17.9589 19.2196C17.9589 17.9864 18.9736 16.9865 20.2249 16.9865C21.4763 16.9865 22.491 17.9864 22.491 19.2196C22.491 20.453 21.4765 21.4527 20.2249 21.4527ZM22.1189 11.2537L12.1416 21.0861C11.8373 21.386 11.4653 21.5194 11.0592 21.5194C10.6872 21.5194 10.2814 21.3862 9.97683 21.0861C9.4019 20.5195 9.4019 19.5528 9.97683 18.9862L19.9541 9.15388C20.529 8.5873 21.51 8.5873 22.0849 9.15388C22.694 9.75394 22.694 10.6872 22.1188 11.2537H22.1189Z" fill="#EFC127"/>
    </symbol>
    <!-- End Get access icons -->

    <!-- Hamburger -->
    <symbol id="hamburger" viewBox="0 0 27 20" fill="none" xmlns="http://www.w3.org/2000/svg">
        <path d="M24.9997 0H1.66674C0.74617 0 0 0.746169 0 1.66674C0 2.58731 0.74617 3.33348 1.66674 3.33348H24.9997C25.9203 3.33348 26.6665 2.58731 26.6665 1.66674C26.6665 0.746169 25.9203 0 24.9997 0Z" fill="white"/>
        <path d="M24.9997 8.3335H1.66674C0.74617 8.3335 0 9.07967 0 10.0002C0 10.9208 0.74617 11.667 1.66674 11.667H24.9997C25.9203 11.667 26.6665 10.9208 26.6665 10.0002C26.6665 9.07967 25.9203 8.3335 24.9997 8.3335Z" fill="white"/>
        <path d="M1.66674 16.6665H24.9997C25.9203 16.6665 26.6665 17.4127 26.6665 18.3332C26.6665 19.2538 25.9203 20 24.9997 20H1.66674C0.74617 20 0 19.2538 0 18.3332C0 17.4127 0.74617 16.6665 1.66674 16.6665Z" fill="white"/>
    </symbol>
    <!-- End hamburger -->

    <!-- Download icons -->
    <symbol id="download-4k" viewBox="0 0 40 22" fill="none" xmlns="http://www.w3.org/2000/svg">
        <path d="M0.54 11.98V17.05H9.6V22H15.39V17.05H18.03V11.98H15.39V0.159999H9.6L0.54 11.62L0.69 11.98H0.54ZM6.96 11.98L9.6 8.77V11.98H6.96ZM27.8079 22V12.85L32.7579 22H39.2979L33.1179 11.02L39.2979 0.159999H32.7579L27.8079 9.25V0.159999H22.0179V22H27.8079Z" fill="white"/>
    </symbol>
    <symbol id="download-hd-sm" viewBox="0 0 54 42" fill="none" xmlns="http://www.w3.org/2000/svg">
        <path d="M12.75 31V22.12H19.02V31H25.02V9.16H19.02V17.77H12.75V9.16H6.78V31H12.75ZM28.9847 9.16V31H38.1647V30.97C43.9247 30.55 47.7647 26.32 47.7647 20.08C47.7647 13.81 43.9247 9.55 38.1047 9.19V9.16H28.9847ZM34.7747 14.56H37.6847C39.8447 14.83 41.3147 17.05 41.3147 20.14C41.3147 23.2 39.8147 25.33 37.7147 25.6H34.7747V14.56Z" fill="white"/>
        <path d="M3.96 40H3.024V37.432H1.472V40H0.536V34.288H1.472V36.616H3.024V34.288H3.96V40ZM6.72419 40H4.74019V39.488L5.26819 39.296V34.992L4.74019 34.8V34.288H6.72419V34.8L6.20419 34.992V39.296L6.72419 39.488V40ZM9.39275 36.856H11.0568V39.776C10.8008 39.8773 10.5368 39.952 10.2648 40C9.99275 40.0533 9.71542 40.08 9.43275 40.08C8.96342 40.08 8.57142 39.9573 8.25675 39.712C7.94742 39.4613 7.71542 39.1147 7.56075 38.672C7.41142 38.2293 7.33675 37.7147 7.33675 37.128C7.33675 36.5413 7.42208 36.032 7.59275 35.6C7.76342 35.1627 8.01675 34.8213 8.35275 34.576C8.69408 34.3307 9.11275 34.208 9.60875 34.208C9.87008 34.208 10.1154 34.24 10.3448 34.304C10.5794 34.368 10.7928 34.456 10.9848 34.568L10.6888 35.352C10.5234 35.24 10.3528 35.1573 10.1768 35.104C10.0008 35.0507 9.82208 35.024 9.64075 35.024C9.34742 35.024 9.10208 35.1067 8.90475 35.272C8.70742 35.432 8.55808 35.672 8.45675 35.992C8.35542 36.3067 8.30475 36.6933 8.30475 37.152C8.30475 37.568 8.34742 37.936 8.43275 38.256C8.51808 38.5707 8.64608 38.816 8.81675 38.992C8.99275 39.168 9.21942 39.256 9.49675 39.256C9.57675 39.256 9.65408 39.2533 9.72875 39.248C9.80342 39.2373 9.87542 39.224 9.94475 39.208C10.0141 39.192 10.0808 39.176 10.1448 39.16V37.664H9.39275V36.856ZM15.4366 40H14.5006V37.432H12.9486V40H12.0126V34.288H12.9486V36.616H14.5006V34.288H15.4366V40ZM21.3981 37.056C21.3981 37.696 21.3127 38.2347 21.1421 38.672C20.9767 39.1093 20.7341 39.44 20.4141 39.664C20.0941 39.888 19.6967 40 19.2221 40H17.9501V34.288H19.2941C19.7474 34.288 20.1287 34.3947 20.4381 34.608C20.7527 34.816 20.9901 35.1253 21.1501 35.536C21.3154 35.9467 21.3981 36.4533 21.3981 37.056ZM20.4301 37.096C20.4301 36.6427 20.3847 36.2693 20.2941 35.976C20.2087 35.6827 20.0807 35.464 19.9101 35.32C19.7394 35.176 19.5261 35.104 19.2701 35.104H18.8861V39.176H19.2141C19.6301 39.176 19.9367 39.0053 20.1341 38.664C20.3314 38.3173 20.4301 37.7947 20.4301 37.096ZM24.7498 40H22.2938V34.288H24.7498V35.096H23.2298V36.624H24.6538V37.432H23.2298V39.176H24.7498V40ZM26.5736 40H25.6376V34.288H28.0856V35.096H26.5736V36.84H27.9896V37.656H26.5736V40ZM30.5445 40H28.5605V39.488L29.0885 39.296V34.992L28.5605 34.8V34.288H30.5445V34.8L30.0245 34.992V39.296L30.5445 39.488V40ZM35.0691 40H33.9571L32.1811 35.76H32.1491C32.1597 35.888 32.1677 36.0107 32.1731 36.128C32.1837 36.2453 32.1891 36.3573 32.1891 36.464C32.1944 36.5707 32.1971 36.672 32.1971 36.768C32.2024 36.864 32.2051 36.952 32.2051 37.032V40H31.3251V34.288H32.4371L34.2051 38.44H34.2371C34.2317 38.3173 34.2237 38.1973 34.2131 38.08C34.2077 37.9627 34.2024 37.8533 34.1971 37.752C34.1917 37.6453 34.1864 37.5467 34.1811 37.456C34.1811 37.36 34.1811 37.2747 34.1811 37.2V34.288H35.0691V40ZM37.8336 40H35.8496V39.488L36.3776 39.296V34.992L35.8496 34.8V34.288H37.8336V34.8L37.3136 34.992V39.296L37.8336 39.488V40ZM40.1821 40H39.2541V35.112H38.1741V34.288H41.2541V35.112H40.1821V40ZM43.5992 40H41.6152V39.488L42.1432 39.296V34.992L41.6152 34.8V34.288H43.5992V34.8L43.0792 34.992V39.296L43.5992 39.488V40ZM48.0998 37.136C48.0998 37.5733 48.0598 37.9733 47.9798 38.336C47.9051 38.6933 47.7878 39.0027 47.6278 39.264C47.4678 39.5253 47.2651 39.728 47.0198 39.872C46.7798 40.0107 46.4918 40.08 46.1558 40.08C45.8198 40.08 45.5291 40.008 45.2838 39.864C45.0384 39.72 44.8358 39.5173 44.6758 39.256C44.5158 38.9947 44.3984 38.6853 44.3238 38.328C44.2491 37.9653 44.2118 37.5653 44.2118 37.128C44.2118 36.4827 44.2838 35.944 44.4278 35.512C44.5771 35.08 44.7958 34.7547 45.0838 34.536C45.3718 34.312 45.7291 34.2 46.1558 34.2C46.6038 34.2 46.9691 34.3253 47.2518 34.576C47.5398 34.8213 47.7531 35.1627 47.8918 35.6C48.0304 36.0373 48.0998 36.5493 48.0998 37.136ZM45.1798 37.136C45.1798 37.6 45.2171 37.9893 45.2918 38.304C45.3664 38.6133 45.4758 38.848 45.6198 39.008C45.7638 39.168 45.9424 39.248 46.1558 39.248C46.3691 39.248 46.5451 39.1707 46.6838 39.016C46.8278 38.8613 46.9371 38.6293 47.0118 38.32C47.0864 38.0053 47.1238 37.6107 47.1238 37.136C47.1238 36.4267 47.0438 35.8987 46.8838 35.552C46.7238 35.2 46.4811 35.024 46.1558 35.024C45.9424 35.024 45.7611 35.104 45.6118 35.264C45.4678 35.424 45.3584 35.6613 45.2838 35.976C45.2144 36.2853 45.1798 36.672 45.1798 37.136ZM52.7409 40H51.6289L49.8529 35.76H49.8209C49.8316 35.888 49.8396 36.0107 49.8449 36.128C49.8556 36.2453 49.8609 36.3573 49.8609 36.464C49.8663 36.5707 49.8689 36.672 49.8689 36.768C49.8743 36.864 49.8769 36.952 49.8769 37.032V40H48.9969V34.288H50.1089L51.8769 38.44H51.9089C51.9036 38.3173 51.8956 38.1973 51.8849 38.08C51.8796 37.9627 51.8743 37.8533 51.8689 37.752C51.8636 37.6453 51.8583 37.5467 51.8529 37.456C51.8529 37.36 51.8529 37.2747 51.8529 37.2V34.288H52.7409V40Z" fill="white"/>
    </symbol>
    <symbol id="download-hd" viewBox="0 0 42 22" fill="none" xmlns="http://www.w3.org/2000/svg">
        <path d="M6.75 22V13.12H13.02V22H19.02V0.159999H13.02V8.77H6.75V0.159999H0.78V22H6.75ZM22.9847 0.159999V22H32.1647V21.97C37.9247 21.55 41.7647 17.32 41.7647 11.08C41.7647 4.81 37.9247 0.549999 32.1047 0.189998V0.159999H22.9847ZM28.7747 5.56H31.6847C33.8447 5.83 35.3147 8.05 35.3147 11.14C35.3147 14.2 33.8147 16.33 31.7147 16.6H28.7747V5.56Z" fill="white"/>
    </symbol>
    <symbol id="download-sd" viewBox="0 0 39 24" fill="none" xmlns="http://www.w3.org/2000/svg">
        <path d="M0.21 21.08C1.8 22.79 5.52 23.42 8.01 23.42C12.39 23.42 16.35 20.54 16.11 15.98C15.9 11.9 11.85 10.16 8.85 8.75C7.29 8 8.76 6.5 9.81 6.32C11.7 5.96 13.47 7.13 13.92 7.76L15.9 2.3C14.4 1.4 11.88 0.769998 10.02 0.769998C5.19 0.769998 1.29 3.17 1.32 7.82C1.35 12.5 7.92 13.31 9.33 16.01C9.93 17.15 8.97 18.05 7.5 18.02C5.76 17.99 3.66 16.82 2.31 15.56L0.21 21.08ZM19.7327 1.16V23H28.9127V22.97C34.6727 22.55 38.5127 18.32 38.5127 12.08C38.5127 5.81 34.6727 1.55 28.8527 1.19V1.16H19.7327ZM25.5227 6.56H28.4327C30.5927 6.83 32.0627 9.05 32.0627 12.14C32.0627 15.2 30.5627 17.33 28.4627 17.6H25.5227V6.56Z" fill="white"/>
    </symbol>
    <symbol id="download-mobile-video" viewBox="0 0 21 30" fill="none" xmlns="http://www.w3.org/2000/svg">
        <path d="M20.922 2.214V24.6H0V2.214C0 0.99615 0.989925 0 2.20807 0H18.7081C19.9259 0 20.9221 0.996075 20.9221 2.214H20.922Z" fill="white"/>
        <path d="M0 27.7858C0 29.0098 0.989925 29.9998 2.20807 29.9998H18.7081C19.9259 29.9998 20.9221 29.0099 20.9221 27.7858V25.7998H7.43866e-05L0 27.7858ZM8.7 26.6998H12.2221C12.552 26.6998 12.8221 26.9699 12.8221 27.2998C12.8221 27.6358 12.552 27.8998 12.2221 27.8998H8.7C8.36396 27.8998 8.1 27.6358 8.1 27.2998C8.1 26.9699 8.36396 26.6998 8.7 26.6998Z" fill="white"/>
    </symbol>
    <symbol id="download-images" viewBox="0 0 37 30" fill="none" xmlns="http://www.w3.org/2000/svg">
        <g clip-path="url(#clip0_41_12)">
        <path d="M11.1847 0.856944C10.1317 1.48552 9.39175 2.77123 9.39175 3.91409C9.39175 5.08552 10.3878 6.54266 11.5262 7.02837C12.7785 7.54266 13.2054 7.54266 14.4007 6.97123C16.9621 5.74266 16.9051 1.77123 14.3153 0.685515C13.0631 0.142658 12.2662 0.199801 11.1847 0.856944Z" fill="white"/>
        <path d="M16.4498 6.54244L15.5106 7.37101L15.3683 12.3139L15.226 17.2567L11.7539 17.8567C7.05804 18.6853 7.11496 18.6282 7.11496 22.771V25.9996H4.26897C1.79297 25.9996 1.33761 26.0853 0.853795 26.571C0.113839 27.3139 0.113839 28.3996 0.853795 29.1424C1.36607 29.6567 1.79297 29.7139 5.37891 29.7139C10.4732 29.7139 10.5017 29.7139 10.5871 26.1424L10.6724 23.571L15.596 23.4853L20.4911 23.4282V25.8567C20.4911 28.0853 20.548 28.371 21.2026 28.9996L21.8856 29.7139H28.3175H34.7494L35.4325 28.9996C36.1155 28.3139 36.3147 27.371 35.9732 26.4282C35.6602 25.6282 34.2656 25.1424 32.3019 25.1424H30.452V20.1139C30.452 15.9996 30.3666 14.9139 29.9682 14.0853C29.6267 13.3424 28.3175 12.171 25.2154 9.85672C22.8532 8.08529 20.5195 6.42815 20.0073 6.17101C18.6412 5.48529 17.5028 5.59958 16.4498 6.54244ZM23.1094 15.3424C25.7277 17.4282 25.9838 17.9996 26.1261 21.9139C26.24 25.0567 26.24 25.1424 25.6423 25.1424C25.0731 25.1424 25.0446 24.9996 25.0446 22.3424C25.0446 19.1139 24.6178 17.971 23.0525 16.9139C22.1987 16.3424 21.8287 16.2567 20.5765 16.3996L19.0681 16.571V14.3996V12.2282L20.1496 13.0282C20.7188 13.4567 22.0564 14.5139 23.1094 15.3424Z" fill="white"/>
        <path d="M1.96374 13.8569C1.1384 14.2854 0.284607 15.8569 0.284607 16.8569C0.284607 19.6569 3.84208 21.3426 5.94811 19.5426C8.39566 17.4854 7.02958 13.3997 3.899 13.4283C3.24443 13.4569 2.36217 13.6283 1.96374 13.8569Z" fill="white"/>
        </g>
        <defs>
        <clipPath id="clip0_41_12">
        <rect width="36.4286" height="30" fill="white"/>
        </clipPath>
        </defs>
    </symbol>
    <symbol id="download-subtitles" viewBox="0 0 35 31" fill="none" xmlns="http://www.w3.org/2000/svg">
        <path d="M31.7306 1.21578e-05H2.60383C1.91326 1.21578e-05 1.25092 0.274318 0.762496 0.76251C0.274332 1.25094 0 1.91328 0 2.60385V27.4662C0 28.1567 0.274305 28.8191 0.762496 29.3075C1.25093 29.7957 1.91326 30.07 2.60383 30.07H31.7306C32.4225 30.0721 33.0867 29.7986 33.5767 29.3101C34.0667 28.8215 34.3421 28.1581 34.3421 27.4662V2.60385C34.3421 1.91198 34.0668 1.24855 33.5767 0.759851C33.0867 0.27142 32.4225 -0.00210135 31.7306 1.21578e-05ZM5.17685 19.7122H13.1032C13.4765 19.6922 13.8419 19.827 14.1133 20.0842C14.3844 20.3415 14.5383 20.6992 14.5383 21.0731C14.5383 21.4473 14.3844 21.8046 14.1133 22.0622C13.8419 22.3195 13.4765 22.4539 13.1032 22.4342H5.17685C4.70786 22.4095 4.28441 22.1448 4.05669 21.7339C3.82898 21.323 3.82899 20.8235 4.05669 20.4126C4.28439 20.0017 4.70784 19.737 5.17685 19.7123V19.7122ZM21.5442 26.2522H5.17685C4.70786 26.2274 4.28441 25.9627 4.05669 25.5518C3.82898 25.1409 3.82899 24.6415 4.05669 24.2306C4.28439 23.8197 4.70784 23.5549 5.17685 23.5302H21.5442C21.9176 23.5102 22.2827 23.645 22.5541 23.9022C22.8254 24.1595 22.9791 24.5172 22.9791 24.8911C22.9791 25.2653 22.8254 25.6226 22.5541 25.8802C22.2827 26.1375 21.9176 26.272 21.5442 26.2523V26.2522Z" fill="white"/>
    </symbol>
    <!-- End download icons -->
</svg>