<svg width="31" height="20" viewBox="0 0 31 20" fill="none" xmlns="http://www.w3.org/2000/svg">
<g id="Group">
<path id="Vector" d="M28.24 0H2.28618C1.02352 0 0 1.02352 0 2.28618V17.7138C0 18.9764 1.02352 19.9999 2.28618 19.9999H28.24C29.5026 19.9999 30.5262 18.9764 30.5262 17.7138V2.28618C30.5262 1.02352 29.5026 0 28.24 0Z" fill="#41479B"/>
<path id="Vector_2" d="M30.4945 1.9083C30.3143 0.825637 29.3738 0 28.24 0H27.6451L17.8946 6.38825V5.95887e-05H12.6315V6.38831L2.88103 5.95887e-05H2.28618C1.15236 5.95887e-05 0.211835 0.825637 0.031659 1.90836L8.36542 7.36849H0V12.6316H8.36542L0.031659 18.0916C0.211835 19.1743 1.15236 19.9999 2.28618 19.9999H2.88103L12.6315 13.6117V19.9999H17.8946V13.6117L27.6451 19.9999H28.24C29.3738 19.9999 30.3143 19.1744 30.4945 18.0916L22.1607 12.6315H30.5262V7.36837H22.1607L30.4945 1.9083Z" fill="#F5F5F5"/>
<path id="Vector_3" d="M16.842 0H13.6841V8.42099H0V11.5789H13.6841V19.9999H16.842V11.5789H30.5262V8.42099H16.842V0Z" fill="#FF4B55"/>
<path id="Vector_4" d="M1.47849 19.8529L12.6028 12.632H10.6694L0.55024 19.2006C0.800007 19.4925 1.11923 19.7168 1.47849 19.8529ZM20.6524 12.632H18.719L29.4936 19.6259C29.7957 19.4273 30.0467 19.1602 30.2261 18.8463L20.6524 12.632ZM0.241699 1.26437L9.64578 7.36882H11.5792L0.922933 0.451551C0.635518 0.665597 0.402214 0.943966 0.241699 1.26437ZM19.8283 7.36882L29.9661 0.788113C29.7135 0.496939 29.3916 0.274228 29.0301 0.140625L17.8949 7.36882H19.8283Z" fill="#FF4B55"/>
</g>
</svg>
