<svg xmlns="http://www.w3.org/2000/svg" width="38" height="25" viewBox="0 0 38 25">
  <g fill="none" transform="translate(0 .19)">
    <path fill="#F5F5F5" d="M36.5398714,24.3599869 L0.641080952,24.3599869 C0.287063095,24.3599869 0,24.0729238 0,23.718906 L0,0.641080952 C0,0.287063095 0.287063095,0 0.641080952,0 L36.539944,0 C36.8939619,0 37.181025,0.287063095 37.181025,0.641080952 L37.181025,23.718906 C37.181025,24.0729964 36.8938893,24.3599869 36.5398714,24.3599869 Z"/>
    <g fill="#FF4B55">
      <path d="M37.181025,1.87393452 L0,1.87393452 L0,0.641080952 C0,0.287063095 0.287063095,0 0.641080952,0 L36.539944,0 C36.8939619,0 37.181025,0.287063095 37.181025,0.641080952 L37.181025,1.87393452 L37.181025,1.87393452 Z"/>
      <rect width="37.181" height="1.874" y="7.495"/>
      <rect width="37.181" height="1.874" y="3.748"/>
      <path d="M37.1809524,13.1169607 L0.641080952,13.1169607 C0.287063095,13.1169607 0,12.8298976 0,12.4758798 L0,11.2430262 L37.1809524,11.2430262 L37.1809524,13.1169607 Z"/>
      <rect width="37.181" height="1.874" y="18.739"/>
      <path d="M36.5398714,24.3599869 L0.641080952,24.3599869 C0.287063095,24.3599869 0,24.0729238 0,23.718906 L0,22.486125 L37.1809524,22.486125 L37.1809524,23.7189786 C37.1809524,24.0729964 36.8938893,24.3599869 36.5398714,24.3599869 Z"/>
      <rect width="37.181" height="1.874" y="14.991"/>
    </g>
    <path fill="#41479B" d="M16.667306,7.26190483e-05 L0.641080952,7.26190483e-05 C0.287063095,7.26190483e-05 0,0.287063095 0,0.641080952 L0,12.4758071 C0,12.829825 0.287063095,13.1168881 0.641080952,13.1168881 L16.6673786,13.1168881 C17.0213964,13.1168881 17.3084595,12.829825 17.3084595,12.4758071 L17.3084595,0.641080952 C17.3084595,0.287063095 17.0213238,7.26190483e-05 16.667306,7.26190483e-05 Z"/>
    <g fill="#F5F5F5" transform="translate(1.017 1.36)">
      <path d="M.783486905.111688095L.925384524.537235714 1.37395238.54064881C1.43204762.541157143 1.45608452.615228571 1.40939048.649722619L1.04854643.916234524 1.18390833 1.3438881C1.20148214 1.39922381 1.13837619 1.44511905 1.09110119 1.41127857L.726190476 1.15050357.361279762 1.41135119C.314004762 1.44511905.251044048 1.39929643.268472619 1.34396071L.403834524.916307143.0429904762.649795238C-.00370357143.615228571.0203333333.541229762.0784285714.540721429L.526996429.537308333.668894048.111760714C.687194048.0565702381.765041667.0565702381.783486905.111688095zM.783486905 2.33775238L.925384524 2.7633 1.37395238 2.7667131C1.43204762 2.76722143 1.45608452 2.84129286 1.40939048 2.8757869L1.04854643 3.14229881 1.18390833 3.56995238C1.20148214 3.6252881 1.13837619 3.67118333 1.09110119 3.63734286L.726190476 3.37656786.361279762 3.63741548C.314004762 3.67118333.251044048 3.62536071.268472619 3.570025L.403834524 3.14237143.0429904762 2.87585952C-.00370357143 2.84129286.0203333333 2.76729405.0784285714 2.76678571L.526996429 2.76337262.668894048 2.337825C.687194048 2.28270714.765041667 2.28270714.783486905 2.33775238zM.783486905 4.56381667L.925384524 4.98936429 1.37395238 4.99277738C1.43204762 4.99328571 1.45608452 5.06735714 1.40939048 5.10185119L1.04854643 5.3683631 1.18390833 5.79601667C1.20148214 5.85135238 1.13837619 5.89724762 1.09110119 5.86340714L.726190476 5.60263214.361279762 5.86347976C.314004762 5.89724762.251044048 5.851425.268472619 5.79608929L.403834524 5.36843571.0429904762 5.10192381C-.00370357143 5.06735714.0203333333 4.99335833.0784285714 4.99285L.526996429 4.9894369.668894048 4.56388929C.687194048 4.50877143.765041667 4.50877143.783486905 4.56381667zM.783486905 6.78995357L.925384524 7.21550119 1.37395238 7.21891429C1.43204762 7.21942262 1.45608452 7.29349405 1.40939048 7.3279881L1.04854643 7.5945 1.18390833 8.02215357C1.20148214 8.07748929 1.13837619 8.12338452 1.09110119 8.08954405L.726190476 7.82876905.361279762 8.08961667C.314004762 8.12338452.251044048 8.0775619.268472619 8.02222619L.403834524 7.59457262.0429904762 7.32806071C-.00370357143 7.29349405.0203333333 7.21949524.0784285714 7.2189869L.526996429 7.21557381.668894048 6.79002619C.687194048 6.73483571.765041667 6.73483571.783486905 6.78995357zM.783486905 9.01601786L.925384524 9.44156548 1.37395238 9.44497857C1.43204762 9.4454869 1.45608452 9.51955833 1.40939048 9.55405238L1.04854643 9.82056429 1.18390833 10.2482179C1.20148214 10.3035536 1.13837619 10.3494488 1.09110119 10.3156083L.726190476 10.0548333.361279762 10.315681C.314004762 10.3494488.251044048 10.3036262.268472619 10.2482905L.403834524 9.8206369.0429904762 9.554125C-.00370357143 9.51955833.0203333333 9.44555952.0784285714 9.44505119L.526996429 9.4416381.668894048 9.01609048C.687194048 8.96082738.765041667 8.96082738.783486905 9.01601786zM2.5113119 1.20307976L2.65320952 1.62862738 3.10177738 1.63204048C3.15987262 1.63254881 3.18390952 1.70662024 3.13721548 1.74111429L2.77637143 2.00762619 2.91173333 2.43527976C2.92930714 2.49061548 2.86620119 2.53651071 2.81892619 2.50267024L2.45401548 2.24182262 2.08910476 2.50267024C2.04182976 2.5364381 1.97886905 2.49061548 1.99629762 2.43527976L2.13165952 2.00762619 1.77081548 1.74111429C1.72412143 1.70654762 1.74815833 1.63254881 1.80625357 1.63204048L2.25482143 1.62862738 2.39671905 1.20307976C2.41494643 1.14803452 2.49293929 1.14803452 2.5113119 1.20307976zM2.5113119 3.42921667L2.65320952 3.85476429 3.10177738 3.85817738C3.15987262 3.85868571 3.18390952 3.93275714 3.13721548 3.96725119L2.77637143 4.2337631 2.91173333 4.66141667C2.92930714 4.71675238 2.86620119 4.76264762 2.81892619 4.72880714L2.45401548 4.46795952 2.08910476 4.72880714C2.04182976 4.762575 1.97886905 4.716825 1.99629762 4.66141667L2.13165952 4.2337631 1.77081548 3.96725119C1.72412143 3.93268452 1.74815833 3.85868571 1.80625357 3.85817738L2.25482143 3.85476429 2.39671905 3.42921667C2.41494643 3.37409881 2.49293929 3.37409881 2.5113119 3.42921667zM2.5113119 5.65528095L2.65320952 6.08082857 3.10177738 6.08424167C3.15987262 6.08475 3.18390952 6.15882143 3.13721548 6.19331548L2.77637143 6.45982738 2.91173333 6.88748095C2.92930714 6.94281667 2.86620119 6.9887119 2.81892619 6.95487143L2.45401548 6.69402381 2.08910476 6.95487143C2.04182976 6.98863929 1.97886905 6.94281667 1.99629762 6.88748095L2.13165952 6.45982738 1.77081548 6.19331548C1.72412143 6.15874881 1.74815833 6.08475 1.80625357 6.08424167L2.25482143 6.08082857 2.39671905 5.65528095C2.41494643 5.6001631 2.49293929 5.6001631 2.5113119 5.65528095zM2.5113119 7.88134524L2.65320952 8.30689286 3.10177738 8.31030595C3.15987262 8.31081429 3.18390952 8.38488571 3.13721548 8.41937976L2.77637143 8.68589167 2.91173333 9.11354524C2.92930714 9.16888095 2.86620119 9.21477619 2.81892619 9.18093571L2.45401548 8.9200881 2.08910476 9.18093571C2.04182976 9.21470357 1.97886905 9.16888095 1.99629762 9.11354524L2.13165952 8.68589167 1.77081548 8.41937976C1.72412143 8.3848131 1.74815833 8.31081429 1.80625357 8.31030595L2.25482143 8.30689286 2.39671905 7.88134524C2.41494643 7.8263 2.49293929 7.8263 2.5113119 7.88134524zM4.2391369.111688095L4.38103452.537235714 4.82960238.54064881C4.88769762.541157143 4.91173452.615228571 4.86504048.649722619L4.50419643.916234524 4.63955833 1.3438881C4.65713214 1.39922381 4.59402619 1.44511905 4.54675119 1.41127857L4.18184048 1.15043095 3.81692976 1.41127857C3.76965476 1.44504643 3.70669405 1.39922381 3.72412262 1.3438881L3.85948452.916234524 3.49864048.649722619C3.45194643.615155952 3.47598333.541157143 3.53407857.54064881L3.98264643.537235714 4.12454405.111688095C4.14284405.0565702381 4.22076429.0565702381 4.2391369.111688095zM4.2391369 2.33775238L4.38103452 2.7633 4.82960238 2.7667131C4.88769762 2.76722143 4.91173452 2.84129286 4.86504048 2.8757869L4.50419643 3.14229881 4.63955833 3.56995238C4.65713214 3.6252881 4.59402619 3.67118333 4.54675119 3.63734286L4.18184048 3.37649524 3.81692976 3.63734286C3.76965476 3.67111071 3.70669405 3.6252881 3.72412262 3.56995238L3.85948452 3.14229881 3.49864048 2.8757869C3.45194643 2.84122024 3.47598333 2.76722143 3.53407857 2.7667131L3.98264643 2.7633 4.12454405 2.33775238C4.14284405 2.28270714 4.22076429 2.28270714 4.2391369 2.33775238zM4.2391369 4.56381667L4.38103452 4.98936429 4.82960238 4.99277738C4.88769762 4.99328571 4.91173452 5.06735714 4.86504048 5.10185119L4.50419643 5.3683631 4.63955833 5.79601667C4.65713214 5.85135238 4.59402619 5.89724762 4.54675119 5.86340714L4.18184048 5.60255952 3.81692976 5.86340714C3.76965476 5.897175 3.70669405 5.85135238 3.72412262 5.79601667L3.85948452 5.3683631 3.49864048 5.10185119C3.45194643 5.06728452 3.47598333 4.99328571 3.53407857 4.99277738L3.98264643 4.98936429 4.12454405 4.56381667C4.14284405 4.50877143 4.22076429 4.50877143 4.2391369 4.56381667zM4.2391369 6.78995357L4.38103452 7.21550119 4.82960238 7.21891429C4.88769762 7.21942262 4.91173452 7.29349405 4.86504048 7.3279881L4.50419643 7.5945 4.63955833 8.02215357C4.65713214 8.07748929 4.59402619 8.12338452 4.54675119 8.08954405L4.18184048 7.82869643 3.81692976 8.08954405C3.76965476 8.1233119 3.70669405 8.07748929 3.72412262 8.02215357L3.85948452 7.5945 3.49864048 7.3279881C3.45194643 7.29342143 3.47598333 7.21942262 3.53407857 7.21891429L3.98264643 7.21550119 4.12454405 6.78995357C4.14284405 6.73483571 4.22076429 6.73483571 4.2391369 6.78995357zM4.2391369 9.01601786L4.38103452 9.44156548 4.82960238 9.44497857C4.88769762 9.4454869 4.91173452 9.51955833 4.86504048 9.55405238L4.50419643 9.82056429 4.63955833 10.2482179C4.65713214 10.3035536 4.59402619 10.3494488 4.54675119 10.3156083L4.18184048 10.0547607 3.81692976 10.3156083C3.76965476 10.3493762 3.70669405 10.3035536 3.72412262 10.2482179L3.85948452 9.82056429 3.49864048 9.55405238C3.45194643 9.51948571 3.47598333 9.4454869 3.53407857 9.44497857L3.98264643 9.44156548 4.12454405 9.01601786C4.14284405 8.96082738 4.22076429 8.96082738 4.2391369 9.01601786zM5.96703452 1.20307976L6.10893214 1.62862738 6.5575 1.63204048C6.61559524 1.63254881 6.63963214 1.70662024 6.5929381 1.74111429L6.23209405 2.00762619 6.36745595 2.43527976C6.38502976 2.49061548 6.32192381 2.53651071 6.27464881 2.50267024L5.9097381 2.24182262 5.54482738 2.50267024C5.49755238 2.5364381 5.43459167 2.49061548 5.45202024 2.43527976L5.58738214 2.00762619 5.2265381 1.74111429C5.17984405 1.70654762 5.20388095 1.63254881 5.26197619 1.63204048L5.71054405 1.62862738 5.85244167 1.20307976C5.87066905 1.14803452 5.9486619 1.14803452 5.96703452 1.20307976zM5.96703452 3.42921667L6.10893214 3.85476429 6.5575 3.85817738C6.61559524 3.85868571 6.63963214 3.93275714 6.5929381 3.96725119L6.23209405 4.2337631 6.36745595 4.66141667C6.38502976 4.71675238 6.32192381 4.76264762 6.27464881 4.72880714L5.9097381 4.46795952 5.54482738 4.72880714C5.49755238 4.762575 5.43459167 4.716825 5.45202024 4.66141667L5.58738214 4.2337631 5.2265381 3.96725119C5.17984405 3.93268452 5.20388095 3.85868571 5.26197619 3.85817738L5.71054405 3.85476429 5.85244167 3.42921667C5.87066905 3.37409881 5.9486619 3.37409881 5.96703452 3.42921667zM5.96703452 5.65528095L6.10893214 6.08082857 6.5575 6.08424167C6.61559524 6.08475 6.63963214 6.15882143 6.5929381 6.19331548L6.23209405 6.45982738 6.36745595 6.88748095C6.38502976 6.94281667 6.32192381 6.9887119 6.27464881 6.95487143L5.9097381 6.69402381 5.54482738 6.95487143C5.49755238 6.98863929 5.43459167 6.94281667 5.45202024 6.88748095L5.58738214 6.45982738 5.2265381 6.19331548C5.17984405 6.15874881 5.20388095 6.08475 5.26197619 6.08424167L5.71054405 6.08082857 5.85244167 5.65528095C5.87066905 5.6001631 5.9486619 5.6001631 5.96703452 5.65528095zM5.96703452 7.88134524L6.10893214 8.30689286 6.5575 8.31030595C6.61559524 8.31081429 6.63963214 8.38488571 6.5929381 8.41937976L6.23209405 8.68589167 6.36745595 9.11354524C6.38502976 9.16888095 6.32192381 9.21477619 6.27464881 9.18093571L5.9097381 8.9200881 5.54482738 9.18093571C5.49755238 9.21470357 5.43459167 9.16888095 5.45202024 9.11354524L5.58738214 8.68589167 5.2265381 8.41937976C5.17984405 8.3848131 5.20388095 8.31081429 5.26197619 8.31030595L5.71054405 8.30689286 5.85244167 7.88134524C5.87066905 7.8263 5.9486619 7.8263 5.96703452 7.88134524zM7.69485952.111688095L7.83675714.537235714 8.285325.54064881C8.34342024.541157143 8.36745714.615228571 8.3207631.649722619L7.95991905.916234524 8.09528095 1.3438881C8.11285476 1.39922381 8.04974881 1.44511905 8.00247381 1.41127857L7.63749048 1.15043095 7.27257976 1.41127857C7.22530476 1.44504643 7.16234405 1.39922381 7.17977262 1.3438881L7.31513452.916234524 6.95429048.649722619C6.90759643.615155952 6.93163333.541157143 6.98972857.54064881L7.43829643.537235714 7.58019405.111688095C7.59856667.0565702381 7.6764869.0565702381 7.69485952.111688095zM7.69485952 2.33775238L7.83675714 2.7633 8.285325 2.7667131C8.34342024 2.76722143 8.36745714 2.84129286 8.3207631 2.8757869L7.95991905 3.14229881 8.09528095 3.56995238C8.11285476 3.6252881 8.04974881 3.67118333 8.00247381 3.63734286L7.63749048 3.37649524 7.27257976 3.63734286C7.22530476 3.67111071 7.16234405 3.6252881 7.17977262 3.56995238L7.31513452 3.14229881 6.95429048 2.8757869C6.90759643 2.84122024 6.93163333 2.76722143 6.98972857 2.7667131L7.43829643 2.7633 7.58019405 2.33775238C7.59856667 2.28270714 7.6764869 2.28270714 7.69485952 2.33775238zM7.69485952 4.56381667L7.83675714 4.98936429 8.285325 4.99277738C8.34342024 4.99328571 8.36745714 5.06735714 8.3207631 5.10185119L7.95991905 5.3683631 8.09528095 5.79601667C8.11285476 5.85135238 8.04974881 5.89724762 8.00247381 5.86340714L7.63749048 5.60255952 7.27257976 5.86340714C7.22530476 5.897175 7.16234405 5.85135238 7.17977262 5.79601667L7.31513452 5.3683631 6.95429048 5.10185119C6.90759643 5.06728452 6.93163333 4.99328571 6.98972857 4.99277738L7.43829643 4.98936429 7.58019405 4.56381667C7.59856667 4.50877143 7.6764869 4.50877143 7.69485952 4.56381667zM7.69485952 6.78995357L7.83675714 7.21550119 8.285325 7.21891429C8.34342024 7.21942262 8.36745714 7.29349405 8.3207631 7.3279881L7.95991905 7.5945 8.09528095 8.02215357C8.11285476 8.07748929 8.04974881 8.12338452 8.00247381 8.08954405L7.63749048 7.82869643 7.27257976 8.08954405C7.22530476 8.1233119 7.16234405 8.07748929 7.17977262 8.02215357L7.31513452 7.5945 6.95429048 7.3279881C6.90759643 7.29342143 6.93163333 7.21942262 6.98972857 7.21891429L7.43829643 7.21550119 7.58019405 6.78995357C7.59856667 6.73483571 7.6764869 6.73483571 7.69485952 6.78995357zM7.69485952 9.01601786L7.83675714 9.44156548 8.285325 9.44497857C8.34342024 9.4454869 8.36745714 9.51955833 8.3207631 9.55405238L7.95991905 9.82056429 8.09528095 10.2482179C8.11285476 10.3035536 8.04974881 10.3494488 8.00247381 10.3156083L7.63749048 10.0547607 7.27257976 10.3156083C7.22530476 10.3493762 7.16234405 10.3035536 7.17977262 10.2482179L7.31513452 9.82056429 6.95429048 9.55405238C6.90759643 9.51948571 6.93163333 9.4454869 6.98972857 9.44497857L7.43829643 9.44156548 7.58019405 9.01601786C7.59856667 8.96082738 7.6764869 8.96082738 7.69485952 9.01601786zM9.42268452 1.20307976L9.56458214 1.62862738 10.01315 1.63204048C10.0712452 1.63254881 10.0952821 1.70662024 10.0485881 1.74111429L9.68774405 2.00762619 9.82310595 2.43527976C9.84067976 2.49061548 9.77757381 2.53651071 9.73029881 2.50267024L9.3653881 2.24182262 9.00047738 2.50267024C8.95320238 2.5364381 8.89024167 2.49061548 8.90767024 2.43527976L9.04303214 2.00762619 8.6821881 1.74111429C8.63549405 1.70654762 8.65953095 1.63254881 8.71762619 1.63204048L9.16619405 1.62862738 9.30809167 1.20307976C9.32646429 1.14803452 9.4043119 1.14803452 9.42268452 1.20307976zM9.42268452 3.42921667L9.56458214 3.85476429 10.01315 3.85817738C10.0712452 3.85868571 10.0952821 3.93275714 10.0485881 3.96725119L9.68774405 4.2337631 9.82310595 4.66141667C9.84067976 4.71675238 9.77757381 4.76264762 9.73029881 4.72880714L9.3653881 4.46795952 9.00047738 4.72880714C8.95320238 4.762575 8.89024167 4.716825 8.90767024 4.66141667L9.04303214 4.2337631 8.6821881 3.96725119C8.63549405 3.93268452 8.65953095 3.85868571 8.71762619 3.85817738L9.16619405 3.85476429 9.30809167 3.42921667C9.32646429 3.37409881 9.4043119 3.37409881 9.42268452 3.42921667zM9.42268452 5.65528095L9.56458214 6.08082857 10.01315 6.08424167C10.0712452 6.08475 10.0952821 6.15882143 10.0485881 6.19331548L9.68774405 6.45982738 9.82310595 6.88748095C9.84067976 6.94281667 9.77757381 6.9887119 9.73029881 6.95487143L9.3653881 6.69402381 9.00047738 6.95487143C8.95320238 6.98863929 8.89024167 6.94281667 8.90767024 6.88748095L9.04303214 6.45982738 8.6821881 6.19331548C8.63549405 6.15874881 8.65953095 6.08475 8.71762619 6.08424167L9.16619405 6.08082857 9.30809167 5.65528095C9.32646429 5.6001631 9.4043119 5.6001631 9.42268452 5.65528095zM9.42268452 7.88134524L9.56458214 8.30689286 10.01315 8.31030595C10.0712452 8.31081429 10.0952821 8.38488571 10.0485881 8.41937976L9.68774405 8.68589167 9.82310595 9.11354524C9.84067976 9.16888095 9.77757381 9.21477619 9.73029881 9.18093571L9.3653881 8.9200881 9.00047738 9.18093571C8.95320238 9.21470357 8.89024167 9.16888095 8.90767024 9.11354524L9.04303214 8.68589167 8.6821881 8.41937976C8.63549405 8.3848131 8.65953095 8.31081429 8.71762619 8.31030595L9.16619405 8.30689286 9.30809167 7.88134524C9.32646429 7.8263 9.4043119 7.8263 9.42268452 7.88134524zM11.1505821.111688095L11.2924798.537235714 11.7410476.54064881C11.7991429.541157143 11.8231798.615228571 11.7764857.649722619L11.4156417.916234524 11.5510036 1.3438881C11.5685774 1.39922381 11.5054714 1.44511905 11.4581964 1.41127857L11.0932857 1.15043095 10.728375 1.41127857C10.6811 1.44504643 10.6181393 1.39922381 10.6355679 1.3438881L10.7709298.916234524 10.4100857.649722619C10.3633917.615155952 10.3874286.541157143 10.4455238.54064881L10.8940917.537235714 11.0359893.111688095C11.0542167.0565702381 11.1322095.0565702381 11.1505821.111688095zM11.1505821 2.33775238L11.2924798 2.7633 11.7410476 2.7667131C11.7991429 2.76722143 11.8231798 2.84129286 11.7764857 2.8757869L11.4156417 3.14229881 11.5510036 3.56995238C11.5685774 3.6252881 11.5054714 3.67118333 11.4581964 3.63734286L11.0932857 3.37649524 10.728375 3.63734286C10.6811 3.67111071 10.6181393 3.6252881 10.6355679 3.56995238L10.7709298 3.14229881 10.4100857 2.8757869C10.3633917 2.84122024 10.3874286 2.76722143 10.4455238 2.7667131L10.8940917 2.7633 11.0359893 2.33775238C11.0542167 2.28270714 11.1322095 2.28270714 11.1505821 2.33775238zM11.1505821 4.56381667L11.2924798 4.98936429 11.7410476 4.99277738C11.7991429 4.99328571 11.8231798 5.06735714 11.7764857 5.10185119L11.4156417 5.3683631 11.5510036 5.79601667C11.5685774 5.85135238 11.5054714 5.89724762 11.4581964 5.86340714L11.0932857 5.60255952 10.728375 5.86340714C10.6811 5.897175 10.6181393 5.85135238 10.6355679 5.79601667L10.7709298 5.3683631 10.4100857 5.10185119C10.3633917 5.06728452 10.3874286 4.99328571 10.4455238 4.99277738L10.8940917 4.98936429 11.0359893 4.56381667C11.0542167 4.50877143 11.1322095 4.50877143 11.1505821 4.56381667zM11.1505821 6.78995357L11.2924798 7.21550119 11.7410476 7.21891429C11.7991429 7.21942262 11.8231798 7.29349405 11.7764857 7.3279881L11.4156417 7.5945 11.5510036 8.02215357C11.5685774 8.07748929 11.5054714 8.12338452 11.4581964 8.08954405L11.0932857 7.82869643 10.728375 8.08954405C10.6811 8.1233119 10.6181393 8.07748929 10.6355679 8.02215357L10.7709298 7.5945 10.4100857 7.3279881C10.3633917 7.29342143 10.3874286 7.21942262 10.4455238 7.21891429L10.8940917 7.21550119 11.0359893 6.78995357C11.0542167 6.73483571 11.1322095 6.73483571 11.1505821 6.78995357zM11.1505821 9.01601786L11.2924798 9.44156548 11.7410476 9.44497857C11.7991429 9.4454869 11.8231798 9.51955833 11.7764857 9.55405238L11.4156417 9.82056429 11.5510036 10.2482179C11.5685774 10.3035536 11.5054714 10.3494488 11.4581964 10.3156083L11.0932857 10.0547607 10.728375 10.3156083C10.6811 10.3493762 10.6181393 10.3035536 10.6355679 10.2482179L10.7709298 9.82056429 10.4100857 9.55405238C10.3633917 9.51948571 10.3874286 9.4454869 10.4455238 9.44497857L10.8940917 9.44156548 11.0359893 9.01601786C11.0542167 8.96082738 11.1322095 8.96082738 11.1505821 9.01601786zM12.8784071 1.20307976L13.0203048 1.62862738 13.4688726 1.63204048C13.5269679 1.63254881 13.5510048 1.70662024 13.5043107 1.74111429L13.1434667 2.00762619 13.2788286 2.43527976C13.2964024 2.49061548 13.2332964 2.53651071 13.1860214 2.50267024L12.8211107 2.24182262 12.4562 2.50267024C12.408925 2.5364381 12.3459643 2.49061548 12.3633929 2.43527976L12.4987548 2.00762619 12.1379107 1.74111429C12.0912167 1.70654762 12.1152536 1.63254881 12.1733488 1.63204048L12.6219167 1.62862738 12.7638143 1.20307976C12.7821143 1.14803452 12.8601071 1.14803452 12.8784071 1.20307976zM12.8784071 3.42921667L13.0203048 3.85476429 13.4688726 3.85817738C13.5269679 3.85868571 13.5510048 3.93275714 13.5043107 3.96725119L13.1434667 4.2337631 13.2788286 4.66141667C13.2964024 4.71675238 13.2332964 4.76264762 13.1860214 4.72880714L12.8211107 4.46795952 12.4562 4.72880714C12.408925 4.762575 12.3459643 4.716825 12.3633929 4.66141667L12.4987548 4.2337631 12.1379107 3.96725119C12.0912167 3.93268452 12.1152536 3.85868571 12.1733488 3.85817738L12.6219167 3.85476429 12.7638143 3.42921667C12.7821143 3.37409881 12.8601071 3.37409881 12.8784071 3.42921667zM12.8784071 5.65528095L13.0203048 6.08082857 13.4688726 6.08424167C13.5269679 6.08475 13.5510048 6.15882143 13.5043107 6.19331548L13.1434667 6.45982738 13.2788286 6.88748095C13.2964024 6.94281667 13.2332964 6.9887119 13.1860214 6.95487143L12.8211107 6.69402381 12.4562 6.95487143C12.408925 6.98863929 12.3459643 6.94281667 12.3633929 6.88748095L12.4987548 6.45982738 12.1379107 6.19331548C12.0912167 6.15874881 12.1152536 6.08475 12.1733488 6.08424167L12.6219167 6.08082857 12.7638143 5.65528095C12.7821143 5.6001631 12.8601071 5.6001631 12.8784071 5.65528095zM12.8784071 7.88134524L13.0203048 8.30689286 13.4688726 8.31030595C13.5269679 8.31081429 13.5510048 8.38488571 13.5043107 8.41937976L13.1434667 8.68589167 13.2788286 9.11354524C13.2964024 9.16888095 13.2332964 9.21477619 13.1860214 9.18093571L12.8211107 8.9200881 12.4562 9.18093571C12.408925 9.21470357 12.3459643 9.16888095 12.3633929 9.11354524L12.4987548 8.68589167 12.1379107 8.41937976C12.0912167 8.3848131 12.1152536 8.31081429 12.1733488 8.31030595L12.6219167 8.30689286 12.7638143 7.88134524C12.7821143 7.8263 12.8601071 7.8263 12.8784071 7.88134524zM14.6063048.111688095L14.7482024.537235714 15.1967702.54064881C15.2548655.541157143 15.2789024.615228571 15.2322083.649722619L14.8713643.916234524 15.0067262 1.3438881C15.0243 1.39922381 14.961194 1.44511905 14.913919 1.41127857L14.5490083 1.15043095 14.1840976 1.41127857C14.1368226 1.44504643 14.0738619 1.39922381 14.0912905 1.3438881L14.2266524.916234524 13.8658083.649722619C13.8191143.615155952 13.8431512.541157143 13.9012464.54064881L14.3498143.537235714 14.4917119.111688095C14.5100119.0565702381 14.5878595.0565702381 14.6063048.111688095zM14.6063048 2.33775238L14.7482024 2.7633 15.1967702 2.7667131C15.2548655 2.76722143 15.2789024 2.84129286 15.2322083 2.8757869L14.8713643 3.14229881 15.0067262 3.56995238C15.0243 3.6252881 14.961194 3.67118333 14.913919 3.63734286L14.5490083 3.37649524 14.1840976 3.63734286C14.1368226 3.67111071 14.0738619 3.6252881 14.0912905 3.56995238L14.2266524 3.14229881 13.8658083 2.8757869C13.8191143 2.84122024 13.8431512 2.76722143 13.9012464 2.7667131L14.3498143 2.7633 14.4917119 2.33775238C14.5100119 2.28270714 14.5878595 2.28270714 14.6063048 2.33775238zM14.6063048 4.56381667L14.7482024 4.98936429 15.1967702 4.99277738C15.2548655 4.99328571 15.2789024 5.06735714 15.2322083 5.10185119L14.8713643 5.3683631 15.0067262 5.79601667C15.0243 5.85135238 14.961194 5.89724762 14.913919 5.86340714L14.5490083 5.60255952 14.1840976 5.86340714C14.1368226 5.897175 14.0738619 5.85135238 14.0912905 5.79601667L14.2266524 5.3683631 13.8658083 5.10185119C13.8191143 5.06728452 13.8431512 4.99328571 13.9012464 4.99277738L14.3498143 4.98936429 14.4917119 4.56381667C14.5100119 4.50877143 14.5878595 4.50877143 14.6063048 4.56381667zM14.6063048 6.78995357L14.7482024 7.21550119 15.1967702 7.21891429C15.2548655 7.21942262 15.2789024 7.29349405 15.2322083 7.3279881L14.8713643 7.5945 15.0067262 8.02215357C15.0243 8.07748929 14.961194 8.12338452 14.913919 8.08954405L14.5490083 7.82869643 14.1840976 8.08954405C14.1368226 8.1233119 14.0738619 8.07748929 14.0912905 8.02215357L14.2266524 7.5945 13.8658083 7.3279881C13.8191143 7.29342143 13.8431512 7.21942262 13.9012464 7.21891429L14.3498143 7.21550119 14.4917119 6.78995357C14.5100119 6.73483571 14.5878595 6.73483571 14.6063048 6.78995357zM14.6063048 9.01601786L14.7482024 9.44156548 15.1967702 9.44497857C15.2548655 9.4454869 15.2789024 9.51955833 15.2322083 9.55405238L14.8713643 9.82056429 15.0067262 10.2482179C15.0243 10.3035536 14.961194 10.3494488 14.913919 10.3156083L14.5490083 10.0547607 14.1840976 10.3156083C14.1368226 10.3493762 14.0738619 10.3035536 14.0912905 10.2482179L14.2266524 9.82056429 13.8658083 9.55405238C13.8191143 9.51948571 13.8431512 9.4454869 13.9012464 9.44497857L14.3498143 9.44156548 14.4917119 9.01601786C14.5100119 8.96082738 14.5878595 8.96082738 14.6063048 9.01601786z"/>
    </g>
  </g>
</svg>
