<svg width="46" height="30" viewBox="0 0 46 30" fill="none" xmlns="http://www.w3.org/2000/svg">
<g id="Group">
<path id="Vector" d="M0 26.5707C0 28.4646 1.53529 30 3.42929 30H42.3602C44.2541 30 45.7895 28.4647 45.7895 26.5707V23.6842H0V26.5707ZM42.3602 0H3.42929C1.53529 0 0 1.53529 0 3.42929V6.31582H45.7895V3.42929C45.7895 1.53529 44.2542 0 42.3602 0Z" fill="#C8414B"/>
<path id="Vector_2" d="M0 6.31592H45.7895V23.6846H0V6.31592Z" fill="#FFD250"/>
<path id="Vector_3" d="M19.3422 15L20.0116 11.9878C20.0733 11.7104 19.8622 11.4473 19.5779 11.4473H19.1065C18.8223 11.4473 18.6113 11.7105 18.6728 11.9878L19.3422 15Z" fill="#C8414B"/>
<path id="Vector_4" d="M18.5527 13.4207H20.1317V20.1308H18.5527V13.4207Z" fill="#F5F5F5"/>
<path id="Vector_5" d="M18.1574 12.6318H20.5259V13.4213H18.1574V12.6318Z" fill="#FAB446"/>
<path id="Vector_6" d="M16.5791 15H20.5267V15.7895H16.5791V15ZM20.5264 18.1578L18.1579 17.3684V16.5789L20.5264 17.3684V18.1578ZM7.50007 15L8.16948 11.9878C8.23118 11.7104 8.02003 11.4473 7.73582 11.4473H7.26433C6.9802 11.4473 6.76914 11.7105 6.83067 11.9878L7.50007 15Z" fill="#C8414B"/>
<path id="Vector_7" d="M10.2633 12.6316C10.0539 12.6316 9.85308 12.7148 9.70502 12.8629C9.55697 13.0109 9.47378 13.2117 9.47375 13.4211V18.5527C9.47375 19.5118 10.369 21.3159 13.4211 21.3159C16.4733 21.3159 17.3685 19.5119 17.3685 18.5527V13.4211C17.3685 13.2117 17.2853 13.0109 17.1372 12.8629C16.9892 12.7148 16.7884 12.6316 16.579 12.6316H10.2633Z" fill="#F5F5F5"/>
<path id="Vector_8" d="M13.4211 16.579H9.47375V13.4211C9.47378 13.2117 9.55697 13.0109 9.70502 12.8629C9.85308 12.7148 10.0539 12.6316 10.2633 12.6316H13.4211V16.579ZM13.4211 16.579H17.3685V18.5527C17.3685 19.6428 16.4849 20.5263 15.3948 20.5263C14.3047 20.5263 13.4211 19.6428 13.4211 18.5527V16.579Z" fill="#C8414B"/>
<path id="Vector_9" d="M9.47375 16.5789H13.4211V18.5525C13.4211 19.6426 12.5375 20.5262 11.4474 20.5262C10.3573 20.5262 9.47375 19.6426 9.47375 18.5525V16.5789Z" fill="#FAB446"/>
<path id="Vector_10" d="M12.6315 20.1226V16.5789H11.842V20.4864C12.1357 20.4269 12.4011 20.2968 12.6315 20.1226ZM11.0526 20.4864V16.5789H10.2631V20.1226C10.4936 20.2968 10.759 20.4269 11.0526 20.4864Z" fill="#C8414B"/>
<path id="Vector_11" d="M10.2633 15H12.6317V15.7895H10.2633V15Z" fill="#FFB441"/>
<path id="Vector_12" d="M10.2633 13.4207H12.6317V14.2102H10.2633V13.4207Z" fill="#FAB446"/>
<path id="Vector_13" d="M10.6577 13.8901H12.2366V15.3203H10.6577V13.8901Z" fill="#FAB446"/>
<path id="Vector_14" d="M6.71008 13.4207H8.28902V20.1308H6.71008V13.4207Z" fill="#F5F5F5"/>
<path id="Vector_15" d="M6.31564 19.7373H8.68409V20.5268H6.31564V19.7373ZM6.31564 12.6318H8.68409V13.4213H6.31564V12.6318Z" fill="#FAB446"/>
<path id="Vector_16" d="M5.92142 20.5261H9.07928V21.3156H5.92142V20.5261Z" fill="#5064AA"/>
<path id="Vector_17" d="M18.5527 19.7373H20.9212V20.5268H18.5527V19.7373Z" fill="#FAB446"/>
<path id="Vector_18" d="M17.763 20.5261H20.9209V21.3156H17.763V20.5261Z" fill="#5064AA"/>
<path id="Vector_19" d="M11.053 11.842H15.7899V12.6316H11.053V11.842Z" fill="#FAB446"/>
<path id="Vector_20" d="M13.0268 9.47388H13.8163V11.8423H13.0268V9.47388Z" fill="#FFB441"/>
<path id="Vector_21" d="M12.6316 10.6579C11.9785 10.6579 11.4474 10.1267 11.4474 9.47373C11.4474 8.82069 11.9786 8.28955 12.6316 8.28955C13.2846 8.28955 13.8157 8.82078 13.8157 9.47373C13.8158 10.1267 13.2846 10.6579 12.6316 10.6579ZM12.6316 9.07897C12.5269 9.07904 12.4265 9.12066 12.3525 9.19467C12.2785 9.26869 12.2369 9.36905 12.2368 9.47373C12.2368 9.6915 12.4137 9.86848 12.6316 9.86848C12.8494 9.86848 13.0263 9.69159 13.0263 9.47373C13.0262 9.36905 12.9846 9.26869 12.9106 9.19467C12.8366 9.12066 12.7362 9.07904 12.6316 9.07897Z" fill="#F5F5F5"/>
<path id="Vector_22" d="M14.2106 10.6579C13.5576 10.6579 13.0264 10.1267 13.0264 9.47373C13.0264 8.82069 13.5577 8.28955 14.2106 8.28955C14.8636 8.28955 15.3948 8.82078 15.3948 9.47373C15.3948 10.1267 14.8636 10.6579 14.2106 10.6579ZM14.2106 9.07897C14.1059 9.07904 14.0056 9.12066 13.9315 9.19467C13.8575 9.26869 13.8159 9.36905 13.8158 9.47373C13.8159 9.5784 13.8575 9.67877 13.9315 9.75278C14.0056 9.8268 14.1059 9.86841 14.2106 9.86848C14.3153 9.86841 14.4156 9.8268 14.4897 9.75278C14.5637 9.67877 14.6053 9.5784 14.6054 9.47373C14.6053 9.36906 14.5636 9.26871 14.4896 9.1947C14.4156 9.12069 14.3153 9.07907 14.2106 9.07897Z" fill="#F5F5F5"/>
<path id="Vector_23" d="M15.7896 11.4475C15.1365 11.4475 14.6054 10.9162 14.6054 10.2633C14.6054 9.61024 15.1366 9.0791 15.7896 9.0791C16.4426 9.0791 16.9737 9.61033 16.9737 10.2633C16.9737 10.9162 16.4425 11.4475 15.7896 11.4475ZM15.7896 9.86852C15.6849 9.86859 15.5845 9.91021 15.5105 9.98422C15.4365 10.0582 15.3949 10.1586 15.3948 10.2633C15.3949 10.368 15.4365 10.4683 15.5105 10.5423C15.5845 10.6163 15.6849 10.658 15.7896 10.658C16.0073 10.658 16.1843 10.4811 16.1843 10.2633C16.1843 10.0454 16.0073 9.86852 15.7896 9.86852ZM11.0527 11.4475C10.3996 11.4475 9.8685 10.9162 9.8685 10.2633C9.8685 9.61024 10.3997 9.0791 11.0527 9.0791C11.7057 9.0791 12.2369 9.61033 12.2369 10.2633C12.2369 10.9162 11.7057 11.4475 11.0527 11.4475ZM11.0527 9.86852C10.948 9.86859 10.8476 9.91021 10.7736 9.98422C10.6996 10.0582 10.658 10.1586 10.6579 10.2633C10.6579 10.481 10.8348 10.658 11.0527 10.658C11.2705 10.658 11.4474 10.481 11.4474 10.2632C11.4474 10.1585 11.4057 10.0582 11.3317 9.98416C11.2577 9.91016 11.1573 9.86857 11.0527 9.86852Z" fill="#F5F5F5"/>
<path id="Vector_24" d="M15.7896 18.1578V18.5526C15.7896 18.7703 15.6125 18.9473 15.3948 18.9473C15.1771 18.9473 15.0001 18.7703 15.0001 18.5526V18.1578H15.7896ZM16.579 17.3684H14.2105V18.5526C14.2105 19.2056 14.7418 19.7368 15.3947 19.7368C16.0478 19.7368 16.5789 19.2055 16.5789 18.5526L16.579 17.3684Z" fill="#FAB446"/>
<path id="Vector_25" d="M15.3948 15.7894C15.1854 15.7893 14.9846 15.7061 14.8366 15.5581C14.6885 15.41 14.6053 15.2092 14.6053 14.9998V14.2103C14.6084 14.003 14.693 13.8052 14.8407 13.6597C14.9884 13.5142 15.1874 13.4326 15.3948 13.4326C15.6022 13.4326 15.8012 13.5142 15.9489 13.6597C16.0966 13.8052 16.1812 14.003 16.1843 14.2103V14.9998C16.1843 15.2092 16.1011 15.41 15.953 15.5581C15.805 15.7061 15.6042 15.7893 15.3948 15.7894Z" fill="#FFA0D2"/>
<path id="Vector_26" d="M13.4211 17.7626C14.0751 17.7626 14.6053 17.2325 14.6053 16.5785C14.6053 15.9245 14.0751 15.3943 13.4211 15.3943C12.7671 15.3943 12.2369 15.9245 12.2369 16.5785C12.2369 17.2325 12.7671 17.7626 13.4211 17.7626Z" fill="#5064AA"/>
<path id="Vector_27" d="M13.0268 7.89453H13.8163V10.263H13.0268V7.89453Z" fill="#FAB446"/>
<path id="Vector_28" d="M11.0526 11.842L10.2631 11.0525L10.7255 10.59C11.4405 9.87521 12.4101 9.47363 13.421 9.47363C14.432 9.47363 15.4016 9.87521 16.1165 10.59L16.579 11.0525L15.7895 11.842H11.0526Z" fill="#C8414B"/>
<path id="Vector_29" d="M13.4212 11.4472C13.6392 11.4472 13.8159 11.2705 13.8159 11.0525C13.8159 10.8345 13.6392 10.6577 13.4212 10.6577C13.2032 10.6577 13.0264 10.8345 13.0264 11.0525C13.0264 11.2705 13.2032 11.4472 13.4212 11.4472Z" fill="#FFD250"/>
<path id="Vector_30" d="M11.8418 11.4472C12.0598 11.4472 12.2365 11.2705 12.2365 11.0525C12.2365 10.8345 12.0598 10.6577 11.8418 10.6577C11.6238 10.6577 11.447 10.8345 11.447 11.0525C11.447 11.2705 11.6238 11.4472 11.8418 11.4472Z" fill="#FFD250"/>
<path id="Vector_31" d="M14.9997 11.4472C15.2177 11.4472 15.3945 11.2705 15.3945 11.0525C15.3945 10.8345 15.2177 10.6577 14.9997 10.6577C14.7817 10.6577 14.6049 10.8345 14.6049 11.0525C14.6049 11.2705 14.7817 11.4472 14.9997 11.4472Z" fill="#FFD250"/>
<path id="Vector_32" d="M6.31564 15H10.2632V15.7895H6.31564V15ZM6.31573 18.1579L8.68409 17.3684V16.5789L6.31573 17.3684V18.1579Z" fill="#C8414B"/>
</g>
</svg>
