<svg width="0" height="0" class="hidden sprite" xmlns="http://www.w3.org/2000/svg" xmlns:xlink="http://www.w3.org/1999/xlink">
    <defs>
        <symbol id="logo" viewBox="0 0 270 54" fill="none">
            <g clip-path="url(#clip0_78_29744)">
            <path d="M267.945 0H196.383C195.358 0 194.527 0.832037 194.527 1.85841V51.7699C194.527 52.7963 195.358 53.6283 196.383 53.6283H267.945C268.97 53.6283 269.801 52.7963 269.801 51.7699V1.85841C269.801 0.832037 268.97 0 267.945 0Z" fill="#F1AC2B"/>
            <mask id="mask0_78_29744" style="mask-type:luminance" maskUnits="userSpaceOnUse" x="194" y="0" width="76" height="54">
            <path d="M267.945 0H196.383C195.358 0 194.527 0.832037 194.527 1.85841V51.7699C194.527 52.7963 195.358 53.6283 196.383 53.6283H267.945C268.97 53.6283 269.801 52.7963 269.801 51.7699V1.85841C269.801 0.832037 268.97 0 267.945 0Z" fill="white"/>
            </mask>
            <g mask="url(#mask0_78_29744)">
            <path d="M265.295 3.18555H199.033C198.301 3.18555 197.708 3.77986 197.708 4.51298V49.1148C197.708 49.8479 198.301 50.4422 199.033 50.4422H265.295C266.027 50.4422 266.62 49.8479 266.62 49.1148V4.51298C266.62 3.77986 266.027 3.18555 265.295 3.18555Z" fill="#222727"/>
            </g>
            <mask id="mask1_78_29744" style="mask-type:luminance" maskUnits="userSpaceOnUse" x="194" y="0" width="76" height="54">
            <path d="M267.945 0H196.383C195.358 0 194.527 0.832037 194.527 1.85841V51.7699C194.527 52.7963 195.358 53.6283 196.383 53.6283H267.945C268.97 53.6283 269.801 52.7963 269.801 51.7699V1.85841C269.801 0.832037 268.97 0 267.945 0Z" fill="white"/>
            </mask>
            <g mask="url(#mask1_78_29744)">
            <path d="M226.882 44.071V37.3866H229.518V29.4361H226.882V20.2197L217.708 25.8913V29.4361H212.842L225.869 7.96484H214.312L203.009 29.8919V37.3866H217.708V44.071H226.882ZM241.793 44.071V33.8418L244.53 29.9425L249.751 44.071H261.054L252.387 22.2453L260.953 7.96484H250.815L241.793 23.6632V7.96484H231.352V44.071H241.793Z" fill="#EFC127"/>
            </g>
            <mask id="mask2_78_29744" style="mask-type:luminance" maskUnits="userSpaceOnUse" x="194" y="0" width="76" height="54">
            <path d="M267.945 0H196.383C195.358 0 194.527 0.832037 194.527 1.85841V51.7699C194.527 52.7963 195.358 53.6283 196.383 53.6283H267.945C268.97 53.6283 269.801 52.7963 269.801 51.7699V1.85841C269.801 0.832037 268.97 0 267.945 0Z" fill="white"/>
            </mask>
            <g mask="url(#mask2_78_29744)">
            <path opacity="0.0594076" fill-rule="evenodd" clip-rule="evenodd" d="M265.132 0H267.945C268.97 0 269.8 0.832037 269.8 1.85841V58.1416C269.801 59.168 268.971 60 267.946 60L267.945 59.9991L230.573 59.9808L265.132 0Z" fill="black"/>
            </g>
            <path d="M59.6912 44.0827C66.3731 44.0827 74.2655 40.8332 74.2655 32.1517C74.2655 27.5442 71.3119 24.1007 65.5984 22.5002L60.6111 21.0937C58.1417 20.4147 56.3018 20.2207 56.3018 18.6202C56.3018 17.0197 57.9481 16.5347 60.1754 16.5347C62.2574 16.5347 65.5015 17.4562 67.3415 18.9112L73.055 11.7817C69.133 9.45372 66.0342 8.38672 59.6428 8.38672C50.9756 8.38672 45.601 13.9157 45.601 20.3177C45.601 25.3617 48.942 28.7082 53.6871 30.0177L59.788 31.7152C61.4343 32.1517 62.79 32.5397 62.79 34.1887C62.79 35.8377 60.4659 36.1772 58.7712 36.1772C55.3818 36.1772 51.7988 34.3342 49.5715 32.6367L44.439 40.2027C49.1841 43.5007 53.9292 44.0827 59.6912 44.0827Z" fill="#18303D"/>
            <path fill-rule="evenodd" clip-rule="evenodd" d="M59.6426 8.13672C66.2289 8.13672 69.3509 9.26172 73.429 11.7142L67.3778 19.2651C65.6192 17.7505 62.2861 16.7847 60.1752 16.7847C59.0331 16.7847 58.0471 16.9091 57.3794 17.2686C57.1109 17.4131 56.8968 17.5962 56.7542 17.8298C56.6206 18.0486 56.5512 18.3106 56.5512 18.6202C56.5512 19.1244 56.77 19.4614 57.1494 19.7171C57.7093 20.0943 58.5801 20.3095 59.6267 20.577C59.9605 20.6624 60.312 20.7522 60.6787 20.8531L65.6655 22.2595C68.5527 23.0682 70.7446 24.3434 72.2239 25.9908C73.7415 27.6807 74.515 29.7637 74.515 32.1517C74.515 36.1063 72.9109 38.9569 70.532 40.9043C67.5915 43.3115 63.4538 44.3327 59.691 44.3327C53.7916 44.3327 48.9513 43.72 44.0942 40.2659L49.5141 32.2763C51.6851 33.9877 55.3279 35.9272 58.7711 35.9272C59.7099 35.9272 60.8516 35.8253 61.6503 35.4301C61.9312 35.2912 62.1683 35.1159 62.3277 34.8889C62.4638 34.6951 62.5403 34.4636 62.5403 34.1887C62.5403 33.5668 62.3244 33.1468 61.9556 32.843C61.4262 32.4068 60.617 32.1937 59.7211 31.9561L53.6207 30.2587C51.1123 29.5665 48.9909 28.3137 47.5254 26.5557C46.1519 24.9081 45.3513 22.8163 45.3513 20.3177C45.3513 16.9321 46.8209 13.7847 49.4676 11.5357C51.9216 9.45064 55.391 8.13672 59.6426 8.13672Z" fill="white"/>
            <path d="M83.6585 43.5489H93.3909L98.3781 24.2459H98.5718L103.414 43.5489H113.679L122.104 8.91992H112.081L108.062 26.9134H108.014L104.092 8.91992H94.3593L90.0983 26.9134H89.9531L85.8374 8.91992H75.1851L83.6585 43.5489Z" fill="#18303D"/>
            <path fill-rule="evenodd" clip-rule="evenodd" d="M86.036 8.66992L89.9611 25.8302L94.1633 8.66992H104.292L108.018 25.7617L111.881 8.66992H122.421L113.875 43.7989H103.219L98.5634 25.2393L93.582 43.7989H83.4625L74.8667 8.66992H86.036Z" fill="white"/>
            <path d="M119.877 43.5001H129.948L131.595 37.9711H143.07L144.716 43.5001H155.611L144.184 8.87109H131.546L119.877 43.5001ZM133.967 29.9686L137.26 18.7651H137.405L140.697 29.9686H133.967Z" fill="#18303D"/>
            <path fill-rule="evenodd" clip-rule="evenodd" d="M144.364 8.62109L155.956 43.7501H144.53L142.884 38.2211H131.781L130.134 43.7501H119.529L131.367 8.62109H144.364ZM137.265 19.6328L134.301 29.7186H140.36L137.265 19.6328Z" fill="white"/>
            <path d="M158.322 43.5004H169.168V32.5394H175.511C184.468 32.5394 187.906 26.3314 187.906 20.3174C187.906 14.5459 184.129 8.91992 175.511 8.91992H158.322V43.5004ZM169.168 24.6339V17.0679H173.526C176.14 17.0679 177.351 18.9594 177.351 20.8509C177.351 22.7909 175.995 24.6339 173.477 24.6339H169.168Z" fill="#18303D"/>
            <path fill-rule="evenodd" clip-rule="evenodd" d="M175.511 8.66992C179.565 8.66992 182.564 9.89841 184.622 11.7906C187.032 14.0062 188.156 17.139 188.156 20.3174C188.156 23.6695 187.103 27.0769 184.665 29.4811C182.683 31.4351 179.784 32.7333 175.774 32.7876L175.511 32.7894H169.417V43.7504H158.072V8.66992H175.511ZM173.526 17.3179H169.417V24.3839H173.477L173.642 24.3811C174.673 24.3456 175.488 23.9766 176.066 23.4116C176.749 22.7446 177.101 21.8097 177.101 20.8509C177.101 19.9 176.778 18.9466 176.094 18.2701C175.506 17.6891 174.654 17.3179 173.526 17.3179Z" fill="white"/>
            </g>
            <path d="M14.7188 11.1074H22.0295C22.285 11.1074 22.538 11.1577 22.7741 11.2555C23.0101 11.3533 23.2246 11.4966 23.4053 11.6773C23.586 11.858 23.7293 12.0725 23.8271 12.3085C23.9249 12.5446 23.9752 12.7976 23.9752 13.0531V25.5599L21.1718 25.0198C20.2015 25.0198 19.7125 26.19 20.3975 26.8788L22.3503 28.8317L26.1156 32.597C26.3323 32.8098 26.6092 32.9204 26.8899 32.9204C27.179 32.918 27.4556 32.8018 27.6596 32.597L31.4249 28.8317L33.3778 26.8788C34.0628 26.19 33.5738 25.0198 32.6035 25.0198L29.8001 25.5599V10.7348C29.8001 9.28897 29.2257 7.90232 28.2033 6.87995C27.1809 5.85757 25.7943 5.2832 24.3484 5.2832H14.5972C14.2073 5.28328 13.8214 5.36165 13.4623 5.51365C13.1032 5.66566 12.7783 5.88821 12.5069 6.16811C12.2354 6.44802 12.0229 6.77957 11.882 7.14313C11.7411 7.50668 11.6745 7.89484 11.6864 8.28457C11.7343 9.8784 13.1243 11.1074 14.7188 11.1074Z" fill="white"/>
            <path d="M18.978 42.5454H11.6673C11.1513 42.5454 10.6564 42.3404 10.2915 41.9755C9.92658 41.6106 9.72159 41.1157 9.72159 40.5997V28.0929L12.525 28.633C13.4953 28.633 13.9843 27.4629 13.2993 26.774L11.3465 24.8211L7.58117 21.0558C7.37577 20.8502 7.09752 20.734 6.80689 20.7324C6.51777 20.7348 6.24123 20.851 6.03715 21.0558L2.27185 24.8211L0.319667 26.774C-0.365344 27.4629 0.123672 28.633 1.09394 28.633L3.89738 28.0929V42.9186C3.89738 44.3645 4.47174 45.7511 5.49412 46.7735C6.5165 47.7959 7.90314 48.3703 9.349 48.3703H19.0996C19.4895 48.3702 19.8754 48.2918 20.2345 48.1398C20.5936 47.9878 20.9184 47.7653 21.1899 47.4854C21.4614 47.2054 21.6739 46.8739 21.8148 46.5103C21.9557 46.1468 22.0222 45.7586 22.0104 45.3689C21.9625 43.7744 20.5724 42.5454 18.978 42.5454Z" fill="#FFCB1E"/>
            <defs>
            <clipPath id="clip0_78_29744">
            <rect width="226.125" height="54" fill="white" transform="translate(43.6975)"/>
            </clipPath>
            </defs>
        </symbol>
        <symbol id="user" viewBox="0 0 12 13">
            <path d="M5.99999 5.8335C6.35451 5.84037 6.70683 5.77647 7.03636 5.64555C7.36589 5.51463 7.666 5.31931 7.91914 5.07102C8.17228 4.82274 8.37337 4.52646 8.51065 4.19953C8.64793 3.8726 8.71863 3.52158 8.71863 3.167C8.71863 2.81242 8.64793 2.4614 8.51065 2.13447C8.37337 1.80754 8.17228 1.51126 7.91914 1.26298C7.666 1.01469 7.36589 0.819372 7.03636 0.688451C6.70683 0.557531 6.35451 0.493634 5.99999 0.5005C5.30173 0.514023 4.63664 0.8009 4.14761 1.29949C3.65858 1.79809 3.38463 2.46861 3.38463 3.167C3.38463 3.86539 3.65858 4.53591 4.14761 5.03451C4.63664 5.5331 5.30173 5.81998 5.99999 5.8335ZM5.99999 7.1675C7.03498 7.16672 8.05589 7.40728 8.98165 7.87007C9.9074 8.33286 10.7125 9.00514 11.333 9.8335V12.5005H0.666992V9.8335C1.28749 9.00514 2.09258 8.33286 3.01834 7.87007C3.94409 7.40728 4.96501 7.16672 5.99999 7.1675Z"/>
        </symbol>
        <symbol id="arrow-down" viewBox="0 0 11 6" fill="none">
            <path d="M5.50096 5.99944C5.68534 5.9951 5.86156 5.922 5.99552 5.7943L10.6503 1.29294C10.7923 1.15444 10.8741 0.964852 10.8776 0.765738C10.8811 0.566625 10.8061 0.374234 10.669 0.230727C10.532 0.0872206 10.344 0.0043015 10.1463 0.000162538C9.94869 -0.00397595 9.75747 0.071 9.6146 0.208645L5.47769 4.2118L1.34077 0.208644C1.1979 0.0709993 1.00669 -0.00397673 0.809034 0.000161721C0.611382 0.00430065 0.423421 0.0872198 0.286353 0.230726C0.149283 0.374233 0.0742869 0.566624 0.0778041 0.765738C0.0813202 0.964851 0.163062 1.15444 0.305111 1.29294L4.95986 5.7943C5.03192 5.8631 5.11692 5.91669 5.20984 5.95192C5.30277 5.98715 5.40175 6.0033 5.50096 5.99944Z" fill="white"/>
          </symbol>
          <svg id="rta-logo" fill="none" viewBox="0 0 46 22">
            <g fill="#A3A0A4" clip-path="url(#a)">
              <path d="M40.25 16.795c-.285-.867-.57-1.75-.855-2.664h-5.82c-.286.914-.57 1.78-.854 2.68h-4.875c.103-.373.224-.698.33-1.008C29.48 12.207 30.74 8.63 32.045 5.02c.105-.28.166-.575.27-.93-2.325 0-4.635.015-6.975.015 0 .465-.03 12.21-.045 12.534-.645.047-3.795.047-4.846.047-.045-4.121.016-8.274-.03-12.502h-5.144c-.015 1.209-.18 2.402-.93 3.408-.736.976-1.74 1.486-2.91 1.828.6.45 1.17.76 1.575 1.209.496.54.9 1.178 1.26 1.812.736 1.38 1.425 2.912 2.13 4.307-.525.047-4.2.016-5.43.016-.134-.233-.3-.48-.435-.744-.824-1.565-1.635-3.13-2.46-4.696-.48-.896-1.184-1.379-2.206-1.285-.045 0-.09.031-.238.094-.092.324-.092.59-.092.914-.014 1.58.076 5.437.06 5.717-.599 0-4.048-.016-4.98-.016C.62 16.019.65 1.086.65.138h38.625c1.995 5.485 4.02 11.063 6.045 16.67-1.74-.013-3.36-.013-5.07-.013Zm-1.86-6.276c-.615-2.076-1.2-4.027-1.816-6.087-.375.992-1.724 5.406-1.92 6.088h3.737ZM5.6 6.974c1.275.076 2.925.154 3.9-.157.682-.216.81-.93.81-1.765 0-.776-.42-1.303-1.11-1.489-1.17-.324-2.444-.2-3.6-.154v3.565Z"/>
              <path fill-rule="evenodd" d="M.5 19.44c.174-.03.35-.05.527-.055.057-.002.11-.004.157-.004.113 0 .222.01.33.031.103.02.2.057.29.11a.58.58 0 0 1 .206.212c.05.092.078.205.078.342a.823.823 0 0 1-.139.494.693.693 0 0 1-.365.266l.168.11.547.943h-.54l-.544-.967-.246-.047v1.014H.5v-2.45Zm.719.37c-.05 0-.096.003-.143.005a.642.642 0 0 0-.107.013v.719h.199a.483.483 0 0 0 .31-.094c.079-.058.118-.16.118-.303a.332.332 0 0 0-.098-.25c-.062-.058-.156-.09-.28-.09Zm1.867-.394h1.42v.43h-.951v.578h.865v.43h-.865v.603h.966v.432H3.086v-2.473Zm3.344 1.809a.233.233 0 0 0-.08-.184.912.912 0 0 0-.202-.13c-.087-.042-.175-.08-.263-.12a1.46 1.46 0 0 1-.264-.15.744.744 0 0 1-.201-.227.632.632 0 0 1-.08-.342c0-.119.02-.224.056-.312a.594.594 0 0 1 .167-.22.738.738 0 0 1 .255-.132c.098-.027.207-.043.328-.043.14 0 .27.014.393.037.123.026.225.06.305.11l-.147.406a.788.788 0 0 0-.226-.092c-.1-.025-.21-.039-.325-.039a.409.409 0 0 0-.251.067.217.217 0 0 0-.086.18c0 .07.025.13.08.177.052.047.119.09.2.13.08.04.169.083.265.124.093.043.181.094.261.154.082.06.15.135.203.223a.63.63 0 0 1 .08.33.881.881 0 0 1-.062.34.696.696 0 0 1-.178.24.778.778 0 0 1-.277.14c-.11.03-.229.046-.358.046-.171 0-.322-.016-.45-.05a1.301 1.301 0 0 1-.29-.099l.15-.412a1.364 1.364 0 0 0 .393.127 1 1 0 0 0 .172.014.58.58 0 0 0 .32-.073.247.247 0 0 0 .112-.22Zm3.006-1.377h-.698v2.04H8.27v-2.04h-.702v-.432h1.868v.432Zm.77-.409c.175-.029.349-.048.526-.054.057-.002.11-.004.157-.004.113 0 .222.01.33.031.103.02.2.057.29.11a.579.579 0 0 1 .206.212.675.675 0 0 1 .078.342.822.822 0 0 1-.139.494.693.693 0 0 1-.365.266l.168.11.547.943h-.54l-.544-.967-.246-.047v1.014h-.469v-2.45Zm.718.372c-.049 0-.096.002-.143.003a.67.67 0 0 0-.107.014v.719h.197c.131 0 .234-.031.313-.094.078-.058.117-.16.117-.303a.332.332 0 0 0-.098-.25c-.062-.058-.156-.09-.28-.09Zm1.914-.395h.469v2.473h-.47v-2.473Zm3.074 2.37a.659.659 0 0 1-.277.116c-.115.024-.23.035-.348.035-.144 0-.28-.023-.408-.068a.886.886 0 0 1-.342-.223 1.1 1.1 0 0 1-.232-.4 1.751 1.751 0 0 1-.088-.594c0-.242.031-.447.098-.609.064-.164.15-.297.251-.396.106-.1.221-.172.348-.215.123-.043.252-.065.383-.067.137 0 .254.012.348.03.093.02.171.04.234.068l-.094.408a.676.676 0 0 0-.185-.056 1.928 1.928 0 0 0-.262-.018.56.56 0 0 0-.455.209c-.117.139-.174.353-.174.646 0 .127.014.242.041.348a.77.77 0 0 0 .125.27.586.586 0 0 0 .498.234c.102 0 .19-.012.26-.031a.775.775 0 0 0 .183-.082l.096.394Zm2.367-1.94h-.697v2.043h-.469v-2.041h-.7v-.432h1.866v.43Zm.77-.43h1.42v.43h-.951v.578h.865v.43h-.865v.603h.966v.432H19.05v-2.473Zm2.31 0c.178-.021.358-.033.535-.033l.165-.002c.21 0 .392.03.543.092a.932.932 0 0 1 .572.654c.043.152.064.32.064.504 0 .168-.02.33-.062.484a1.03 1.03 0 0 1-.582.703c-.157.073-.352.11-.58.11l-.147-.004a14.948 14.948 0 0 1-.508-.031v-2.477Zm.737.395-.153.003a1.15 1.15 0 0 0-.115.01v1.658l.047.006c.064.004.129.006.193.008a.668.668 0 0 0 .33-.072.577.577 0 0 0 .21-.192.795.795 0 0 0 .107-.279c.039-.201.039-.41.004-.613a.748.748 0 0 0-.102-.264.545.545 0 0 0-.199-.19.619.619 0 0 0-.322-.075Zm4.927.037h-.697v2.04h-.469v-2.04h-.7v-.432h1.866v.432Zm.559.804c0-.412.09-.73.266-.953.175-.222.425-.334.752-.334.17 0 .32.032.449.092.125.06.234.15.316.262.084.113.149.25.19.408.04.156.06.332.06.525 0 .412-.088.73-.263.951-.178.223-.428.334-.752.334-.174 0-.325-.029-.452-.091a.834.834 0 0 1-.316-.26 1.22 1.22 0 0 1-.188-.406 2.093 2.093 0 0 1-.06-.528h-.002Zm.494 0c0 .125.01.24.031.344.02.106.051.195.094.272.04.07.094.132.162.175a.427.427 0 0 0 .237.065.443.443 0 0 0 .386-.201c.09-.135.137-.354.137-.655 0-.12-.01-.232-.03-.336a.967.967 0 0 0-.09-.271.434.434 0 0 0-.404-.248.437.437 0 0 0-.386.207c-.092.139-.137.353-.137.648Zm4.791.69h-.734l-.182.547h-.469l.862-2.49h.346l.86 2.49h-.491l-.192-.547Zm-.615-.39h.514l-.178-.55-.072-.39h-.018l-.072.392-.174.547Zm2.031-1.536a3.952 3.952 0 0 1 .535-.033l.163-.002c.212 0 .392.03.544.092a.91.91 0 0 1 .366.258c.093.109.162.242.205.396.043.152.064.32.064.504 0 .168-.02.33-.06.484a1.033 1.033 0 0 1-.584.703 1.38 1.38 0 0 1-.58.11l-.145-.004c-.17-.008-.34-.018-.508-.031v-2.477Zm.735.395-.153.003a1.108 1.108 0 0 0-.113.01v1.658c.01.002.023.004.047.006.062.004.127.006.191.008a.663.663 0 0 0 .33-.072.548.548 0 0 0 .21-.192.8.8 0 0 0 .107-.279c.039-.201.04-.41.004-.613a.713.713 0 0 0-.102-.264.545.545 0 0 0-.2-.19.614.614 0 0 0-.321-.075Zm3.304-.395h.446v1.598c0 .16-.022.297-.063.412a.78.78 0 0 1-.17.287.66.66 0 0 1-.267.166c-.106.033-.221.053-.346.053-.607 0-.91-.287-.91-.86v-1.656h.468v1.56c0 .098.008.18.026.247.014.06.04.115.08.162a.34.34 0 0 0 .137.09.635.635 0 0 0 .191.025c.145 0 .248-.041.313-.123.062-.082.095-.217.095-.4v-1.561Zm2.885 2.473h-1.514v-2.473h.47v2.041h1.044v.432Zm2.021-2.041h-.697v2.04h-.468v-2.04h-.702v-.432h1.867v.432Zm1.803 1.377a.233.233 0 0 0-.08-.184.88.88 0 0 0-.203-.13c-.086-.042-.174-.08-.262-.12a1.35 1.35 0 0 1-.263-.15.767.767 0 0 1-.201-.227.65.65 0 0 1-.08-.342c0-.119.019-.224.056-.312a.594.594 0 0 1 .166-.22.722.722 0 0 1 .256-.132c.098-.027.207-.043.326-.043.14 0 .272.014.395.037.123.026.224.06.304.11l-.146.406a.788.788 0 0 0-.227-.092 1.32 1.32 0 0 0-.326-.039.406.406 0 0 0-.25.067.218.218 0 0 0-.088.18c0 .07.027.13.08.177.055.047.121.09.203.13.08.04.168.083.262.124.096.043.184.094.266.154.08.06.146.135.2.223a.63.63 0 0 1 .081.33.815.815 0 0 1-.063.34.696.696 0 0 1-.177.24.779.779 0 0 1-.278.14c-.109.03-.228.046-.359.046-.17 0-.32-.016-.45-.05a1.356 1.356 0 0 1-.286-.099l.148-.412a1.364 1.364 0 0 0 .393.127c.056.01.113.014.172.014a.58.58 0 0 0 .32-.073.247.247 0 0 0 .111-.22Z" clip-rule="evenodd"/>
            </g>
            <defs>
              <clipPath id="a">
                <path fill="#fff" d="M.5 0h45v22H.5z"/>
              </clipPath>
            </defs>
          </svg>
          
        <!-- Home slider -->
        <symbol id="home-slider-prev" viewBox="0 0 10 15" fill="none" xmlns="http://www.w3.org/2000/svg">
            <path d="M0.45459 7.54564L1.32821 8.43854L7.33493 14.5454L9.36368 12.7596L4.23775 7.54541L9.36368 2.3312L7.33493 0.54541L1.32821 6.65228L0.45459 7.54564Z" fill="white"/>
        </symbol>
        <symbol id="home-slider-next" viewBox="0 0 10 15" fill="none" xmlns="http://www.w3.org/2000/svg">
            <path d="M9.54541 7.45436L8.67179 6.56146L2.66507 0.45459L0.636318 2.24038L5.76225 7.45459L0.636319 12.6688L2.66507 14.4546L8.67179 8.34772L9.54541 7.45436Z" fill="white"/>
        </symbol>
        <!-- End Home slider -->
    
        <symbol id="chapter-arrow" viewBox="0 0 3 6" fill="none" xmlns="http://www.w3.org/2000/svg">
            <path d="M2.99342 2.96517C2.98557 2.88943 2.95451 2.81791 2.90456 2.76037L0.678483 0.163282C0.619305 0.0757225 0.525533 0.0174913 0.420806 0.00334426C0.316079 -0.0108028 0.21023 0.0203386 0.129914 0.0890924C0.0495148 0.157761 0.00232753 0.257484 8.3788e-05 0.363156C-0.00215907 0.468833 0.0407144 0.570453 0.118097 0.642476L2.1393 2.99996L0.118097 5.35743C0.0407166 5.42955 -0.00215775 5.53118 8.3788e-05 5.63684C0.00232665 5.74252 0.0495148 5.84224 0.129914 5.91091C0.210228 5.97966 0.316077 6.0108 0.420806 5.99666C0.525533 5.98242 0.619305 5.92428 0.678483 5.83672L2.90456 3.23963C2.96995 3.16388 3.00204 3.06494 2.99342 2.96521V2.96517Z" fill="white" fill-opacity="0.44"/>
        </symbol>
    
        <symbol id="arrow-down" viewBox="0 0 6 8" fill="none" xmlns="http://www.w3.org/2000/svg">
            <path d="M0 0L3.04478 0.223788L6 2.93462e-07L3.04478 7.83258L0 0Z" fill="#231F20"/>
        </symbol>
        <symbol id="arrow-down" viewBox="0 0 14 8" fill="none" xmlns="http://www.w3.org/2000/svg">
            <path d="M13.7437 0.260331C13.5795 0.0936581 13.3568 0 13.1246 0C12.8924 0 12.6698 0.0936581 12.5056 0.260331L6.9948 5.85401L1.48401 0.260331C1.26157 0.0422625 0.942389 -0.0406776 0.644106 0.0422625C0.346024 0.125401 0.113043 0.361923 0.0311294 0.664516C-0.0505741 0.967308 0.0311294 1.29134 0.245947 1.51713L6.37572 7.73967C6.5399 7.90634 6.76254 8 6.99475 8C7.22695 8 7.44959 7.90634 7.61378 7.73967L13.7436 1.51713C13.9077 1.35046 14 1.12445 14 0.888731C14 0.653011 13.9077 0.427003 13.7436 0.260331H13.7437Z" fill="#EFD5A4"/>
        </symbol>
        <symbol id="arrow-down-mobile" viewBox="0 0 7 4" fill="none" xmlns="http://www.w3.org/2000/svg">
            <path d="M0.524002 0.606091C0.471586 0.606091 0.424266 0.63749 0.403821 0.685766C0.383505 0.733915 0.393822 0.789897 0.430507 0.827473L3.30007 3.77887C3.32459 3.80409 3.35834 3.81836 3.39356 3.81836C3.42878 3.81836 3.46254 3.80409 3.48706 3.77887L6.35662 0.82741C6.38082 0.802571 6.39355 0.769771 6.39355 0.736462C6.39355 0.71933 6.39018 0.70207 6.3833 0.685702C6.36286 0.637426 6.31554 0.606028 6.26312 0.606028L0.524002 0.606091Z" fill="#EFD5A4"/>
        </symbol>
        <!-- Info icons -->
        <symbol id="video-duration" viewBox="0 0 16 16" fill="none" xmlns="http://www.w3.org/2000/svg">
            <path d="M8 0C3.58106 0 0 3.58106 0 8C0 12.4189 3.58106 16 8 16C12.4189 16 16 12.4189 16 8C16 3.58106 12.4189 0 8 0ZM8 15.2382C4 15.2382 0.761796 12.0001 0.761796 8C0.761796 3.99993 3.99993 0.761796 8 0.761796C12.0001 0.761796 15.2382 3.99993 15.2382 8C15.2382 12.0001 12.0001 15.2382 8 15.2382Z" fill="white" fill-opacity="0.6"/>
            <path d="M8.43819 3.77148H7.67619V8.34291H12.2476V7.58105H8.43832L8.43819 3.77148Z" fill="white" fill-opacity="0.6"/>
        </symbol>
        <symbol id="video-viewed" viewBox="0 0 20 14" fill="none" xmlns="http://www.w3.org/2000/svg">
            <path d="M9.62495 0C2.88745 0 0 7 0 7C0 7 2.88745 14 9.62495 14C16.3625 14 19.2499 7 19.2499 7C19.2499 7 16.3625 0 9.62495 0ZM9.62495 13.1248C4.37505 13.1248 1.62335 8.3211 0.967108 7C1.61896 5.67432 4.35772 0.875234 9.62495 0.875234C14.8749 0.875234 17.6266 5.6789 18.2828 7C17.6309 8.32568 14.8922 13.1248 9.62495 13.1248Z" fill="white" fill-opacity="0.6"/>
            <path d="M9.62494 3.5C7.69125 3.5 6.12505 5.0662 6.12505 6.99989C6.12505 8.93358 7.69125 10.4998 9.62494 10.4998C11.5586 10.4998 13.1248 8.93358 13.1248 6.99989C13.1248 5.0662 11.5586 3.5 9.62494 3.5ZM9.62494 9.62477C8.17683 9.62477 6.99999 8.44792 6.99999 6.99981C6.99999 5.5517 8.17683 4.37486 9.62494 4.37486C11.0731 4.37486 12.2499 5.5517 12.2499 6.99981C12.2499 8.44792 11.0731 9.62477 9.62494 9.62477Z" fill="white" fill-opacity="0.6"/>
            <path d="M10.2812 6.99999C10.2812 7.36239 9.98734 7.65623 9.62494 7.65623C9.26255 7.65623 8.9687 7.36239 8.9687 6.99999C8.9687 6.63759 9.26255 6.34375 9.62494 6.34375C9.98734 6.34375 10.2812 6.63759 10.2812 6.99999Z" fill="white" fill-opacity="0.6"/>
        </symbol>
        <symbol id="video-publisher" viewBox="0 0 14 17" fill="none" xmlns="http://www.w3.org/2000/svg">
            <path d="M0.547492 17H13.1419C13.4157 17 13.6397 16.776 13.6397 16.5022V13.9634C13.6397 12.3953 12.9676 10.9516 11.8974 9.95607C11.9223 9.90624 11.9223 9.85658 11.9223 9.80675L11.9224 5.25184C11.9224 3.85803 11.3749 2.53885 10.3793 1.54315C9.38377 0.54763 8.08939 0 6.6706 0C3.78329 0 1.44365 2.33973 1.44365 5.22695V10.0059C1.44365 10.0805 1.46848 10.1304 1.46848 10.1802C0.572431 11.1757 0 12.4701 0 13.9137V16.4526C0.0498293 16.776 0.273801 17 0.547585 17L0.547492 17ZM6.69538 1.02047C7.81539 1.02047 8.88576 1.46841 9.68216 2.26498C10.4787 3.06156 10.9267 4.13175 10.9267 5.25177V9.20927C10.3044 8.83599 9.60749 8.58701 8.86078 8.48754C9.35854 7.96476 9.68216 7.26788 9.68216 6.49628V5.1771C9.68216 3.60897 8.38783 2.31481 6.81987 2.31481H6.5709C5.00277 2.31481 3.70861 3.60915 3.70861 5.1771V6.49628C3.70861 7.29286 4.03224 8.01458 4.55484 8.53737C3.78328 8.68668 3.08636 8.9853 2.4641 9.40861V5.25181C2.4641 2.91209 4.35571 1.02052 6.6954 1.02052L6.69538 1.02047ZM8.68664 6.49632C8.68664 7.51687 7.84042 8.36309 6.81987 8.36309H6.5709C5.55036 8.36309 4.70413 7.51687 4.70413 6.49632V5.17714C4.70413 4.1566 5.55036 3.31037 6.5709 3.31037H6.81987C7.84042 3.31037 8.68664 4.1566 8.68664 5.17714V6.49632ZM7.61627 9.40848L6.84472 10.5783L6.07317 9.40848H7.61627ZM1.04525 13.9634C1.04525 11.6983 2.7129 9.80672 4.90328 9.48315L6.42159 11.7482C6.52107 11.8975 6.67056 11.9722 6.8447 11.9722C7.01901 11.9722 7.16832 11.8975 7.26781 11.7482L8.78611 9.45831C10.9765 9.78193 12.6441 11.6735 12.6441 13.9385V15.9796L1.0453 15.9795L1.04525 13.9634Z" fill="white" fill-opacity="0.6"/>
        </symbol>
        <symbol id="4k-icon" viewBox="0 0 28 17" fill="none" xmlns="http://www.w3.org/2000/svg">
            <path d="M0.654785 9.36012V13.1626H7.44978V16.8751H11.7923V13.1626H13.7723V9.36012H11.7923V0.495117H7.44978L0.654785 9.09012L0.767285 9.36012H0.654785ZM5.46978 9.36012L7.44978 6.95262V9.36012H5.46978Z" fill="#EFC127"/>
            <path d="M19.3057 16.8751V10.0126L23.0182 16.8751H27.9232L23.2882 8.64012L27.9232 0.495117H23.0182L19.3057 7.31262V0.495117H14.9632V16.8751H19.3057Z" fill="#EFC127"/>
        </symbol>
        <symbol id="video-like" viewBox="0 0 18 17" fill="none" xmlns="http://www.w3.org/2000/svg">
            <path fill-rule="evenodd" clip-rule="evenodd" d="M17.5378 5.91731C17.1738 5.48245 16.6418 5.23235 16.082 5.2328H13.7152L14.312 3.60767C14.561 2.92532 14.5361 2.17006 14.2422 1.50654C13.9711 0.889154 13.4693 0.408345 12.8491 0.171657C12.2947 -0.0446008 11.684 -0.0568573 11.1218 0.136782C10.5595 0.330566 10.0808 0.718116 9.76781 1.23326L8.48848 3.32519C7.86021 4.35831 6.80977 5.04693 5.62908 5.19957C5.49244 4.8263 5.24799 4.50456 4.92801 4.27691C4.60803 4.04927 4.22781 3.9267 3.83801 3.92539H1.91901C1.40998 3.92539 0.921963 4.13201 0.561995 4.49974C0.202179 4.86761 0 5.36636 0 5.88658V15.0388C0 15.559 0.202179 16.0578 0.561995 16.4257C0.921952 16.7934 1.40998 17 1.91901 17H3.83801C4.23168 16.9984 4.61548 16.8732 4.937 16.6412C5.25869 16.4092 5.50272 16.0816 5.63607 15.7031C7.54864 15.727 9.45653 15.899 11.3437 16.2174L12.0564 16.3384C12.303 16.3813 12.5527 16.4032 12.8028 16.4038C13.87 16.401 14.9012 16.0088 15.7103 15.2977C16.5196 14.5868 17.0538 13.6037 17.2166 12.5259L17.9772 7.49557C18.0634 6.92925 17.9028 6.35255 17.5377 5.91758L17.5378 5.91731ZM4.47758 15.0389C4.47758 15.2123 4.41018 15.3786 4.29025 15.5012C4.17031 15.6238 4.00753 15.6926 3.83791 15.6926H1.9189C1.74928 15.6926 1.5865 15.6238 1.46657 15.5012C1.34663 15.3786 1.27923 15.2123 1.27923 15.0389V5.88668C1.27923 5.71333 1.34663 5.54697 1.46657 5.4244C1.5865 5.30183 1.74928 5.23295 1.9189 5.23295H3.83791C4.00753 5.23295 4.17031 5.30183 4.29025 5.4244C4.41018 5.54697 4.47758 5.71333 4.47758 5.88668V15.0389ZM14.6662 14.4735C15.3588 13.9614 15.822 13.1873 15.9525 12.324L16.7137 7.2942C16.7423 7.10568 16.6887 6.9138 16.5673 6.7689C16.4458 6.624 16.2684 6.54053 16.0817 6.54053H12.7931C12.583 6.54126 12.3858 6.43649 12.2657 6.26021C12.1458 6.08378 12.1181 5.85848 12.1919 5.6574L13.113 3.14901C13.2453 2.79208 13.2333 2.39604 13.0797 2.04802C12.95 1.74684 12.7076 1.51146 12.4068 1.39429C12.1281 1.2847 11.8208 1.27755 11.5374 1.37401C11.2541 1.47061 11.0124 1.66468 10.8537 1.92325L9.57438 4.01519C8.7373 5.39299 7.33258 6.30704 5.75684 6.49937V14.3983C7.69924 14.4272 9.63722 14.6042 11.5541 14.9277V14.9279L12.266 15.0494C13.1093 15.1929 13.9737 14.9855 14.6662 14.4735Z" fill="#EFD5A4" fill-opacity="0.6"/>
        </symbol>
        <symbol id="video-download" viewBox="0 0 18 18" fill="none" xmlns="http://www.w3.org/2000/svg">
            <path d="M17.2345 11.5304C17.5583 11.5304 17.8207 11.7929 17.8207 12.1166V14.227C17.8207 16.1048 16.2985 17.627 14.4208 17.627H3.39994C1.5221 17.627 0 16.1047 0 14.227V12.1166C0 11.7929 0.262443 11.5304 0.586271 11.5304C0.909974 11.5304 1.17242 11.7929 1.17242 12.1166V14.227C1.17242 15.4573 2.16978 16.4546 3.4001 16.4546H14.421C15.6513 16.4546 16.6486 15.4573 16.6486 14.227V12.1166C16.6486 11.7929 16.9111 11.5304 17.2348 11.5304H17.2345ZM8.91022 0.626953C9.22102 0.626953 9.47534 0.868743 9.49518 1.17453L9.49649 1.21309V10.8847L12.0276 8.52274C12.254 8.3114 12.6032 8.31391 12.8264 8.52167L12.8561 8.55128C13.0673 8.77767 13.0648 9.12692 12.8571 9.35021L12.8275 9.37982L9.3138 12.6593C9.30329 12.6694 9.29231 12.679 9.28108 12.6882C9.2781 12.6906 9.27499 12.6931 9.27201 12.6955C9.26508 12.7009 9.25804 12.7063 9.25076 12.7114C9.24574 12.715 9.24084 12.7184 9.23571 12.7218C9.23058 12.7251 9.22532 12.7286 9.22007 12.7319C9.21505 12.735 9.21004 12.738 9.20502 12.741C9.19726 12.7454 9.18938 12.7498 9.18138 12.754L9.17195 12.7588C9.16479 12.7624 9.1575 12.7658 9.15022 12.7692C9.1452 12.7714 9.14007 12.7736 9.13494 12.7757C9.12849 12.7784 9.12192 12.781 9.11547 12.7834L9.09852 12.7894C9.09338 12.7911 9.08825 12.7928 9.08312 12.7944C9.07595 12.7965 9.06879 12.7987 9.06162 12.8006C9.0424 12.8057 9.0227 12.8099 9.00276 12.813C8.99774 12.8138 8.99285 12.8146 8.98783 12.8151L8.94891 12.8191L8.91034 12.8203H8.9101C8.88025 12.8203 8.8504 12.818 8.82079 12.8135L8.79321 12.8085C8.61375 12.845 8.41996 12.7971 8.27584 12.6627L4.75851 9.3798C4.52174 9.15891 4.50896 8.78793 4.72986 8.55129C4.95087 8.31463 5.32172 8.30173 5.55849 8.52275L8.32396 11.1041V1.21328C8.32396 0.889578 8.58652 0.627132 8.91023 0.627132L8.91022 0.626953Z" fill="white" fill-opacity="0.6"/>
        </symbol>
        <symbol id="video-heart" viewBox="0 0 18 17" fill="none" xmlns="http://www.w3.org/2000/svg">
            <path d="M8.23555 16.5235L8.71613 16.9093C8.78166 16.9774 8.89091 17 8.97822 17H9.04374H9.06553C9.15285 17 9.2621 16.9546 9.32762 16.9093L9.61165 16.6822C12.539 14.2992 18 9.82777 18 5.10681C18 2.29235 15.7937 0 13.085 0C11.4029 0 9.89555 0.862524 8.97816 2.29235C8.08249 0.88518 6.53159 0 4.8932 0C2.18454 0 0 2.29235 0 5.10681C0 9.80507 5.15534 14.004 8.23544 16.5234L8.23555 16.5235ZM4.89332 0.907962C6.44437 0.907962 7.86419 1.83858 8.54138 3.29118C8.56316 3.33662 8.58511 3.4047 8.58511 3.4047C8.67242 3.58629 8.86914 3.69981 9.04392 3.65437C9.19691 3.63173 9.32795 3.54086 9.37153 3.38206C9.37153 3.38206 9.41526 3.29134 9.43705 3.2459C10.1142 1.7933 11.5123 0.885501 13.0633 0.885501C15.2915 0.885501 17.1046 2.76935 17.1046 5.08443C17.1046 9.37415 11.8618 13.6639 9.02204 15.9563L8.97831 15.9789L8.78159 15.8199C5.81072 13.3913 0.873826 9.35132 0.873826 5.107C0.873826 2.79187 2.66517 0.908063 4.89324 0.908063L4.89332 0.907962Z" fill="white" fill-opacity="0.6"/>
        </symbol>
        <!-- End info icons -->
        <!-- Features -->
        <symbol id="4k-display" viewBox="0 0 45 25" fill="none" xmlns="http://www.w3.org/2000/svg">
            <path d="M0.612 13.396V19.142H10.88V24.752H17.442V19.142H20.434V13.396H17.442V0H10.88L0.612 12.988L0.782 13.396H0.612ZM7.888 13.396L10.88 9.758V13.396H7.888Z" fill="#EFC127"/>
            <path d="M31.5156 24.752V14.382L37.1256 24.752H44.5376L37.5336 12.308L44.5376 0H37.1256L31.5156 10.302V0H24.9536V24.752H31.5156Z" fill="#EFC127"/>
        </symbol>
        <symbol id="hd-definition" viewBox="0 0 48 25" fill="none" xmlns="http://www.w3.org/2000/svg">
            <path d="M7.65 24.752V14.688H14.756V24.752H21.556V0H14.756V9.758H7.65V0H0.884001V24.752H7.65Z" fill="#EFC127"/>
            <path d="M26.0493 0V24.752H36.4533V24.718C42.9813 24.242 47.3333 19.448 47.3333 12.376C47.3333 5.27 42.9813 0.442 36.3853 0.0339994V0H26.0493ZM32.6113 6.12H35.9093C38.3573 6.426 40.0233 8.942 40.0233 12.444C40.0233 15.912 38.3233 18.326 35.9433 18.632H32.6113V6.12Z" fill="#EFC127"/>
        </symbol>
        <symbol id="fast-runtime" viewBox="0 0 26 36" fill="none" xmlns="http://www.w3.org/2000/svg">
            <path d="M16.405 13.5001V0.901707C16.405 0.352056 15.9556 0.00459876 15.4937 4.72613e-05C15.224 -0.00266489 14.95 0.111243 14.7581 0.370401L0.177247 20.1687C0.0384292 20.3558 -0.0137467 20.5676 0.00303045 20.7695C0.0393372 21.2074 0.402106 21.6001 0.91281 21.6001H8.20416C8.70727 21.6001 9.11519 22.003 9.11519 22.4999V35.0983C9.11519 35.6479 9.5643 35.9954 10.0265 36C10.2959 36.0027 10.5702 35.8888 10.7618 35.6299L25.3497 15.8309C25.4729 15.6651 25.5282 15.4801 25.5273 15.2996C25.5254 14.8343 25.152 14.3995 24.6143 14.3995H17.316C16.8129 14.3995 16.405 13.997 16.405 13.5001Z" fill="#EFC127"/>
        </symbol>
        <symbol id="responsive-for-devices" fill="none" xmlns="http://www.w3.org/2000/svg">
            <path d="M23.7116 2.5092V27.88H0V2.5092C0 1.12897 1.12191 0 2.50248 0H21.2025C22.5827 0 23.7117 1.12888 23.7117 2.5092H23.7116Z" fill="#EFC127"/>
            <path d="M0 31.491C0 32.8782 1.12191 34.0002 2.50248 34.0002H21.2025C22.5827 34.0002 23.7117 32.8783 23.7117 31.491V29.2402H8.43048e-05L0 31.491ZM9.86 30.2602H13.8517C14.2255 30.2602 14.5317 30.5664 14.5317 30.9402C14.5317 31.3211 14.2255 31.6202 13.8517 31.6202H9.86C9.47916 31.6202 9.18 31.3211 9.18 30.9402C9.18 30.5664 9.47916 30.2602 9.86 30.2602Z" fill="#EFC127"/>
        </symbol>
        <symbol id="50-mp-photos" viewBox="0 0 44 36" fill="none" xmlns="http://www.w3.org/2000/svg">
            <g clip-path="url(#clip0_54_304)">
            <path d="M13.4216 1.02882C12.158 1.78311 11.2701 3.32596 11.2701 4.69739C11.2701 6.10311 12.4654 7.85168 13.8315 8.43454C15.3341 9.05168 15.8464 9.05168 17.2808 8.36596C20.3545 6.89168 20.2862 2.12596 17.1783 0.823106C15.6757 0.171678 14.7194 0.240249 13.4216 1.02882Z" fill="#EFC127"/>
            <path d="M19.7397 7.85151L18.6127 8.84579L18.442 14.7772L18.2712 20.7087L14.1047 21.4287C8.46966 22.4229 8.53796 22.3544 8.53796 27.3258V31.2001H5.12279C2.15158 31.2001 1.60515 31.3029 1.02457 31.8858C0.136625 32.7772 0.136625 34.0801 1.02457 34.9715C1.6393 35.5887 2.15158 35.6572 6.45471 35.6572C12.5679 35.6572 12.602 35.6572 12.7045 31.3715L12.8069 28.2858L18.7152 28.1829L24.5893 28.1144V31.0287C24.5893 33.7029 24.6576 34.0458 25.4431 34.8001L26.2627 35.6572H33.981H41.6993L42.519 34.8001C43.3386 33.9772 43.5777 32.8458 43.1679 31.7144C42.7922 30.7544 41.1188 30.1715 38.7623 30.1715H36.5424V24.1372C36.5424 19.2001 36.44 17.8972 35.9618 16.9029C35.552 16.0115 33.981 14.6058 30.2585 11.8287C27.4239 9.70294 24.6235 7.71437 24.0087 7.40579C22.3694 6.58294 21.0034 6.72008 19.7397 7.85151ZM27.7313 18.4115C30.8732 20.9144 31.1806 21.6001 31.3514 26.2972C31.488 30.0687 31.488 30.1715 30.7708 30.1715C30.0877 30.1715 30.0536 30.0001 30.0536 26.8115C30.0536 22.9372 29.5413 21.5658 27.663 20.2972C26.6384 19.6115 26.1944 19.5087 24.6918 19.6801L22.8817 19.8858V17.2801V14.6744L24.1795 15.6344C24.8625 16.1487 26.4676 17.4172 27.7313 18.4115Z" fill="#EFC127"/>
            <path d="M2.35648 16.6284C1.36608 17.1427 0.341522 19.0284 0.341522 20.2284C0.341522 23.5884 4.6105 25.6113 7.13773 23.4513C10.0748 20.9827 8.43549 16.0799 4.6788 16.1142C3.89331 16.1484 2.8346 16.3542 2.35648 16.6284Z" fill="#EFC127"/>
            </g>
            <defs>
            <clipPath id="clip0_54_304">
            <rect width="43.7143" height="36" fill="white"/>
            </clipPath>
            </defs>
        </symbol>
        <symbol id="support" viewBox="0 0 36 36" fill="none" xmlns="http://www.w3.org/2000/svg">
            <path fill-rule="evenodd" clip-rule="evenodd" d="M31.6304 6.24213C34.4542 9.51565 36.0054 13.6965 36.0008 18.0196C35.9959 22.3426 34.4355 26.5202 31.6046 29.7867L24.2887 22.4709C25.2132 21.1705 25.7117 19.6153 25.7157 18.0199C25.7197 16.4244 25.2287 14.8669 24.3106 13.5619L31.6304 6.24213ZM29.8164 4.42026L22.5016 11.735C21.1952 10.7962 19.6282 10.2891 18.0193 10.2851C16.4106 10.2808 14.8408 10.7799 13.5298 11.7118L6.21399 4.39595C9.49147 1.55643 13.6835 -0.00461843 18.0198 1.0264e-05C22.3561 0.00431524 26.5454 1.57413 29.8164 4.42026ZM6.24309 31.6296L13.563 24.3098C14.868 25.2278 16.4255 25.7189 18.0209 25.7149C19.6163 25.7109 21.1716 25.2124 22.4719 24.2879L29.7878 31.6038C26.5206 34.4347 22.3437 35.9951 18.0206 36C13.6976 36.0046 9.51697 34.4533 6.24309 31.6296ZM4.42122 29.8155C1.57479 26.5441 0.00493268 22.3553 1.01041e-05 18.019C-0.00458185 13.6827 1.55613 9.49044 4.39565 6.21289L11.713 13.5287C10.781 14.8397 10.2817 16.4099 10.286 18.0185C10.29 19.6273 10.7971 21.1944 11.7359 22.5008L4.42122 29.8155Z" fill="#EFC127"/>
        </symbol>
        <!-- End Features -->
    
        <!-- Get access icons -->
        <symbol id="14-series" viewBox="0 0 40 33" fill="none" xmlns="http://www.w3.org/2000/svg">
            <path d="M10.2396 31.6196C10.9326 31.4468 11.4524 31.1704 11.7989 30.7903C12.1455 30.4101 12.3187 29.9782 12.3187 29.4944C12.3187 29.0451 12.1628 28.6218 11.8509 28.2244C11.539 27.827 11.0539 27.5419 10.3955 27.3691H8.1605V1.81424C7.84863 0.604747 7.15559 0 6.08139 0C5.76952 0 5.38835 0.0863924 4.93788 0.259177L1.35142 2.59177C1.0049 2.86823 0.753676 3.17924 0.597743 3.52481C0.44181 3.87038 0.363844 4.19867 0.363844 4.50968C0.363844 5.02804 0.545766 5.48592 0.909609 5.88332C1.27345 6.28073 1.74992 6.47943 2.339 6.47943C2.89342 6.47943 3.4132 6.30665 3.89833 5.96108V27.3691H2.39097C1.59398 27.3691 0.996239 27.6024 0.597743 28.0689C0.199248 28.5354 0 29.0106 0 29.4944C0 29.9782 0.181922 30.436 0.545766 30.868C0.909609 31.3 1.4727 31.5505 2.23504 31.6196H10.2396ZM32.4651 32.76C33.0195 32.76 33.5133 32.5527 33.9465 32.138C34.3796 31.7233 34.6135 31.1185 34.6482 30.3237V24.7773C35.1679 24.8119 35.6704 24.8292 36.1555 24.8292H37.5589C38.2519 24.6564 38.7804 24.3713 39.1442 23.9739C39.5081 23.5765 39.69 23.1359 39.69 22.6521C39.69 22.2028 39.5341 21.7882 39.2222 21.408C38.9103 21.0279 38.4079 20.7169 37.7148 20.475H34.6482V14.5139C34.4749 13.8573 34.189 13.3822 33.7905 13.0884C33.392 12.7947 32.9502 12.6478 32.4651 12.6478C31.98 12.6478 31.5555 12.812 31.1917 13.1403C30.8278 13.4686 30.5593 13.9783 30.386 14.6694V20.4232C28.9999 20.3886 27.6572 20.3627 26.3577 20.3454C25.0583 20.3281 23.8195 20.3022 22.6413 20.2677C24.27 17.4685 25.8899 14.6694 27.5012 11.8703L29.1154 9.0712C30.1935 7.20513 31.2754 5.33905 32.3611 3.47297C32.5691 3.05829 32.673 2.69544 32.673 2.38443C32.673 1.72785 32.4564 1.20949 32.0233 0.829367C31.5901 0.449241 31.131 0.259177 30.6459 0.259177C30.2647 0.259177 29.8922 0.362848 29.5284 0.57019C29.1645 0.777532 28.844 1.10582 28.5668 1.55506C26.6263 4.94165 24.6858 8.28503 22.7453 11.5852C20.8048 14.8854 18.8816 18.2461 16.9758 21.6672C16.9065 21.9437 16.8718 22.1683 16.8718 22.3411C16.8718 23.6542 17.6168 24.3972 19.1068 24.57C20.8048 24.6046 22.6153 24.6305 24.5385 24.6478C26.4617 24.665 28.4108 24.6909 30.386 24.7255V30.4792C30.49 31.274 30.7412 31.8529 31.1397 32.2157C31.5382 32.5786 31.98 32.76 32.4651 32.76Z" fill="#EFC127"/>
        </symbol>
        <symbol id="unlim-downloads" viewBox="0 0 40 40" fill="none" xmlns="http://www.w3.org/2000/svg">
            <path d="M11.2376 18.3254C7.32311 18.3254 4.15004 15.1521 4.15004 11.2379C4.15004 7.32347 7.32311 4.15043 11.2376 4.15043C14.9208 4.15043 17.9478 6.95985 18.2927 10.5527L17.1801 9.44016C16.6879 8.9483 15.8902 8.9483 15.3981 9.44016L14.9526 9.8856C14.4604 10.3776 14.4604 11.1754 14.9524 11.6674C14.9524 11.6675 14.9524 11.6675 14.9525 11.6674L19.4549 16.1698C19.7009 16.4158 20.0998 16.4158 20.3458 16.1698L24.8482 11.6674C25.3403 11.1755 25.3403 10.3777 24.8482 9.8856C24.8482 9.88558 24.8482 9.88556 24.8481 9.8856L24.4026 9.44016C23.9105 8.9483 23.1128 8.9483 22.6206 9.44016L21.456 10.6046C21.1291 5.24541 16.6793 1 11.2378 1C5.58355 1 1 5.58339 1 11.2377C1 16.8917 5.58342 21.4748 11.2378 21.4748H28.5625C32.477 21.4748 35.65 24.6481 35.65 28.5623C35.65 32.4767 32.477 35.6498 28.5625 35.6498C24.6483 35.6498 21.4749 32.4767 21.4749 28.5623V26.1998C21.4749 25.33 20.7698 24.6249 19.9 24.6249C19.0302 24.6249 18.3251 25.33 18.3251 26.1998V28.5623C18.3251 34.2165 22.9085 38.8 28.5622 38.8C34.2164 38.8 38.8 34.2166 38.8 28.5623C38.8 22.9083 34.2166 18.3252 28.5622 18.3252L11.2376 18.3254Z" fill="#EFC127" stroke="#EFC127" stroke-width="0.63"/>
        </symbol>
        <symbol id="early-access" viewBox="0 0 34 35" fill="none" xmlns="http://www.w3.org/2000/svg">
            <path d="M0 2.88587C0 1.29155 1.29155 0 2.88587 0H18.9241C20.5112 0 21.8099 1.29155 21.8099 2.88587C21.8099 4.47297 20.5112 5.77174 18.9241 5.77174H2.88587C1.29155 5.77174 0 4.47332 0 2.88587Z" fill="#EFC127"/>
            <path d="M21.8106 31.7452C21.8106 33.3323 20.5117 34.6311 18.9245 34.6311H2.8863C1.29169 34.6311 0.000427246 33.3324 0.000427246 31.7452C0.000427246 30.1509 1.29197 28.8594 2.8863 28.8594H18.9245C20.5119 28.8594 21.8106 30.1509 21.8106 31.7452Z" fill="#EFC127"/>
            <path d="M14.2058 17.3156C16.9402 18.5708 18.8376 21.3268 18.8376 24.5304V27.4163H2.96521V24.5304C2.96521 21.3271 4.86983 18.5639 7.60427 17.3156C4.86983 16.0603 2.96521 13.2971 2.96521 10.1007V7.21484H18.8376V10.1007C18.8376 13.2968 16.9402 16.0601 14.2058 17.3156Z" fill="#EFC127"/>
            <path d="M24.5438 32.9176C29.4874 32.9176 33.495 28.91 33.495 23.9664C33.495 19.0227 29.4874 15.0151 24.5438 15.0151C19.6001 15.0151 15.5925 19.0227 15.5925 23.9664C15.5925 28.91 19.6001 32.9176 24.5438 32.9176Z" fill="#202325"/>
            <path d="M24.5438 31.1851C28.5306 31.1851 31.7625 27.9531 31.7625 23.9663C31.7625 19.9795 28.5306 16.7476 24.5438 16.7476C20.557 16.7476 17.325 19.9795 17.325 23.9663C17.325 27.9531 20.557 31.1851 24.5438 31.1851Z" fill="#EFC127"/>
            <path d="M19.0321 24.6522L20.1524 23.1886L23.1458 25.6994L28.0648 20.2129L29.4271 21.4552L23.3365 28.2979L19.0321 24.6522Z" fill="#35283C" stroke="#35283C" stroke-width="0.5775"/>
        </symbol>
        <symbol id="premium-membership" viewBox="0 0 38 38" fill="none" xmlns="http://www.w3.org/2000/svg">
            <path d="M22.853 29.2116H21.1606L20.6385 27.6022C20.3861 26.8258 19.6623 26.2998 18.8461 26.2998C18.0302 26.2998 17.3065 26.8258 17.0538 27.6022L16.5303 29.2116H14.8398C14.0239 29.2116 13.3002 29.7376 13.0475 30.5122C12.7951 31.2886 13.0721 32.1386 13.7315 32.6191L15.1018 33.6142L14.5777 35.2236C14.3253 35.9982 14.6023 36.85 15.2617 37.3286C15.9233 37.811 16.8165 37.811 17.4763 37.3305L18.8465 36.3376L20.2168 37.3327C20.5465 37.5721 20.9348 37.6908 21.3229 37.6908C21.7128 37.6908 22.1012 37.5721 22.431 37.3308C23.0926 36.8522 23.3677 36.0003 23.115 35.2258L22.5909 33.6164L23.9612 32.6213C24.6228 32.1408 24.8979 31.2908 24.6452 30.5143C24.3931 29.7376 23.6712 29.2116 22.8531 29.2116L22.853 29.2116Z" fill="#EFC127"/>
            <path d="M9.90001 29.2116H8.20765L7.6855 27.6022C7.43309 26.8258 6.70932 26.2998 5.89315 26.2998C5.07722 26.2998 4.35352 26.8258 4.1008 27.6022L3.57706 29.2116H1.8847C1.06877 29.2116 0.345076 29.7376 0.0923491 30.5122C-0.160055 31.2886 0.116959 32.1386 0.776368 32.6191L2.14662 33.6142L1.62256 35.2236C1.37016 35.9982 1.64717 36.85 2.30658 37.3286C2.96819 37.811 3.86139 37.811 4.52111 37.3305L5.89136 36.3354L7.26161 37.3305C7.59321 37.5737 7.9816 37.6924 8.36969 37.6924C8.75965 37.6924 9.14803 37.5737 9.47776 37.3324C10.1394 36.8538 10.4145 36.0019 10.1618 35.2274L9.63772 33.618L11.008 32.6229C11.6696 32.1424 11.9447 31.2924 11.692 30.516C11.4399 29.7376 10.7161 29.2117 9.90021 29.2117L9.90001 29.2116Z" fill="#EFC127"/>
            <path d="M37.5998 30.5122C37.3471 29.7376 36.6233 29.2116 35.8075 29.2116H34.1151L33.593 27.6022C33.3406 26.8258 32.6168 26.2998 31.8006 26.2998C30.9847 26.2998 30.261 26.8258 30.0083 27.6022L29.4845 29.2116H27.7922C26.9762 29.2116 26.2525 29.7376 25.9998 30.5122C25.7474 31.2886 26.0244 32.1386 26.6838 32.6191L28.0541 33.6142L27.53 35.2236C27.2776 35.9982 27.5546 36.85 28.2141 37.3286C28.8757 37.811 29.7689 37.811 30.4286 37.3305L31.7988 36.3354L33.1691 37.3305C33.4988 37.57 33.8872 37.6886 34.2752 37.6886C34.6652 37.6886 35.0536 37.57 35.3833 37.3286C36.0449 36.85 36.3201 35.9981 36.0673 35.2236L35.5433 33.6142L36.9135 32.6191C37.5754 32.1405 37.8524 31.2905 37.6 30.5122L37.5998 30.5122Z" fill="#EFC127"/>
            <path d="M28.2694 13.1926V17.303L21.9258 18.5714C21.2415 17.6008 20.1202 16.9619 18.8462 16.9619C16.7674 16.9619 15.0769 18.6524 15.0769 20.7313C15.0769 22.8101 16.7674 24.5006 18.8462 24.5006C20.3426 24.5006 21.6261 23.6169 22.2347 22.352L30.5232 20.6934C31.4051 20.518 32.0383 19.7453 32.0383 18.8464C33.0785 18.8464 33.9228 18.004 33.9228 16.9619L33.9231 13.1926C33.9231 12.1505 33.0789 11.3081 32.0386 11.3081C31.9878 11.3081 31.9424 11.3346 31.8916 11.3384C30.9848 4.94187 25.4893 0 18.8458 0C12.2022 0 6.70695 4.94146 5.80071 11.3376C5.7496 11.3338 5.70449 11.3076 5.65369 11.3076C4.61314 11.3076 3.76886 12.15 3.76886 13.1921V16.9615C3.76886 18.0035 4.61314 18.846 5.65337 18.846C5.65337 19.888 6.49765 20.7305 7.53788 20.7305C8.5781 20.7305 9.42238 19.888 9.42238 18.846L9.4227 13.1921C9.4227 7.99639 13.6498 3.76877 18.846 3.76877C24.0418 3.76877 28.2694 7.99623 28.2694 13.1921L28.2694 13.1926Z" fill="#EFC127"/>
        </symbol>
        <symbol id="special-offer" viewBox="0 0 33 31" fill="none" xmlns="http://www.w3.org/2000/svg">
            <path d="M32.13 15.12C32.13 13.5867 28.9508 12.5535 28.4773 11.1537C28.0038 9.72061 29.9655 7.0207 29.0522 5.82077C28.139 4.58762 24.9598 5.62082 23.7085 4.72088C22.4909 3.85436 22.4572 0.521364 21.0027 0.0548046C19.5823 -0.411803 17.6206 2.25464 16.031 2.25464C14.4751 2.25464 12.4797 -0.411815 11.0593 0.0548046C9.60512 0.521412 9.57112 3.82115 8.35356 4.72088C7.10224 5.62085 3.92305 4.58766 3.00981 5.82077C2.13052 7.02064 4.05821 9.72037 3.58474 11.1537C3.1792 12.5535 0 13.5867 0 15.12C0 16.6533 3.17925 17.6865 3.65269 19.0863C4.12617 20.5194 2.1645 23.2193 3.07776 24.4192C3.99099 25.6524 7.17024 24.6192 8.4215 25.5191C9.63907 26.3856 9.67283 29.7186 11.1273 30.1852C12.5477 30.6518 14.5094 27.9854 16.099 27.9854C17.6549 27.9854 19.6503 30.6518 21.0707 30.1852C22.5249 29.7186 22.5589 26.4189 23.7764 25.5191C25.0278 24.6192 28.207 25.6523 29.1202 24.4192C29.9995 23.2194 28.0718 20.5196 28.5453 19.0863C28.9508 17.6865 32.13 16.6533 32.13 15.12ZM11.9049 8.78731C13.1563 8.78731 14.171 9.78727 14.171 11.0204C14.171 12.2536 13.1563 13.2535 11.9049 13.2535C10.6536 13.2535 9.63892 12.2536 9.63892 11.0204C9.63892 9.78703 10.6534 8.78731 11.9049 8.78731ZM20.2249 21.4527C18.9736 21.4527 17.9589 20.4527 17.9589 19.2196C17.9589 17.9864 18.9736 16.9865 20.2249 16.9865C21.4763 16.9865 22.491 17.9864 22.491 19.2196C22.491 20.453 21.4765 21.4527 20.2249 21.4527ZM22.1189 11.2537L12.1416 21.0861C11.8373 21.386 11.4653 21.5194 11.0592 21.5194C10.6872 21.5194 10.2814 21.3862 9.97683 21.0861C9.4019 20.5195 9.4019 19.5528 9.97683 18.9862L19.9541 9.15388C20.529 8.5873 21.51 8.5873 22.0849 9.15388C22.694 9.75394 22.694 10.6872 22.1188 11.2537H22.1189Z" fill="#EFC127"/>
        </symbol>
        <!-- End Get access icons -->
    
        <!-- Hamburger -->
        <symbol id="hamburger" viewBox="0 0 24 20" fill="none">
            <path fill-rule="evenodd" clip-rule="evenodd" d="M10 18.3333C10 17.8913 10.1756 17.4674 10.4882 17.1548C10.8007 16.8423 11.2246 16.6667 11.6667 16.6667H21.6667C22.1087 16.6667 22.5326 16.8423 22.8452 17.1548C23.1577 17.4674 23.3333 17.8913 23.3333 18.3333C23.3333 18.7754 23.1577 19.1993 22.8452 19.5118C22.5326 19.8244 22.1087 20 21.6667 20H11.6667C11.2246 20 10.8007 19.8244 10.4882 19.5118C10.1756 19.1993 10 18.7754 10 18.3333ZM0 1.66667C0 1.22464 0.175595 0.800716 0.488155 0.488156C0.800716 0.175595 1.22464 0 1.66667 0H21.6667C22.1087 0 22.5326 0.175595 22.8452 0.488156C23.1577 0.800716 23.3333 1.22464 23.3333 1.66667C23.3333 2.10869 23.1577 2.53262 22.8452 2.84518C22.5326 3.15774 22.1087 3.33333 21.6667 3.33333H1.66667C1.22464 3.33333 0.800716 3.15774 0.488155 2.84518C0.175595 2.53262 0 2.10869 0 1.66667ZM0 10C0 9.55797 0.175595 9.13405 0.488155 8.82149C0.800716 8.50893 1.22464 8.33333 1.66667 8.33333H21.6667C22.1087 8.33333 22.5326 8.50893 22.8452 8.82149C23.1577 9.13405 23.3333 9.55797 23.3333 10C23.3333 10.442 23.1577 10.8659 22.8452 11.1785C22.5326 11.4911 22.1087 11.6667 21.6667 11.6667H1.66667C1.22464 11.6667 0.800716 11.4911 0.488155 11.1785C0.175595 10.8659 0 10.442 0 10Z" fill="white"/>
          </symbol>
        <!-- End hamburger -->
    
        <!-- Download icons -->
        <symbol id="download-4k" viewBox="0 0 40 22" fill="none" xmlns="http://www.w3.org/2000/svg">
            <path d="M0.54 11.98V17.05H9.6V22H15.39V17.05H18.03V11.98H15.39V0.159999H9.6L0.54 11.62L0.69 11.98H0.54ZM6.96 11.98L9.6 8.77V11.98H6.96ZM27.8079 22V12.85L32.7579 22H39.2979L33.1179 11.02L39.2979 0.159999H32.7579L27.8079 9.25V0.159999H22.0179V22H27.8079Z" fill="white"/>
        </symbol>
        <symbol id="download-hd-sm" viewBox="0 0 54 42" fill="none" xmlns="http://www.w3.org/2000/svg">
            <path d="M12.75 31V22.12H19.02V31H25.02V9.16H19.02V17.77H12.75V9.16H6.78V31H12.75ZM28.9847 9.16V31H38.1647V30.97C43.9247 30.55 47.7647 26.32 47.7647 20.08C47.7647 13.81 43.9247 9.55 38.1047 9.19V9.16H28.9847ZM34.7747 14.56H37.6847C39.8447 14.83 41.3147 17.05 41.3147 20.14C41.3147 23.2 39.8147 25.33 37.7147 25.6H34.7747V14.56Z" fill="white"/>
            <path d="M3.96 40H3.024V37.432H1.472V40H0.536V34.288H1.472V36.616H3.024V34.288H3.96V40ZM6.72419 40H4.74019V39.488L5.26819 39.296V34.992L4.74019 34.8V34.288H6.72419V34.8L6.20419 34.992V39.296L6.72419 39.488V40ZM9.39275 36.856H11.0568V39.776C10.8008 39.8773 10.5368 39.952 10.2648 40C9.99275 40.0533 9.71542 40.08 9.43275 40.08C8.96342 40.08 8.57142 39.9573 8.25675 39.712C7.94742 39.4613 7.71542 39.1147 7.56075 38.672C7.41142 38.2293 7.33675 37.7147 7.33675 37.128C7.33675 36.5413 7.42208 36.032 7.59275 35.6C7.76342 35.1627 8.01675 34.8213 8.35275 34.576C8.69408 34.3307 9.11275 34.208 9.60875 34.208C9.87008 34.208 10.1154 34.24 10.3448 34.304C10.5794 34.368 10.7928 34.456 10.9848 34.568L10.6888 35.352C10.5234 35.24 10.3528 35.1573 10.1768 35.104C10.0008 35.0507 9.82208 35.024 9.64075 35.024C9.34742 35.024 9.10208 35.1067 8.90475 35.272C8.70742 35.432 8.55808 35.672 8.45675 35.992C8.35542 36.3067 8.30475 36.6933 8.30475 37.152C8.30475 37.568 8.34742 37.936 8.43275 38.256C8.51808 38.5707 8.64608 38.816 8.81675 38.992C8.99275 39.168 9.21942 39.256 9.49675 39.256C9.57675 39.256 9.65408 39.2533 9.72875 39.248C9.80342 39.2373 9.87542 39.224 9.94475 39.208C10.0141 39.192 10.0808 39.176 10.1448 39.16V37.664H9.39275V36.856ZM15.4366 40H14.5006V37.432H12.9486V40H12.0126V34.288H12.9486V36.616H14.5006V34.288H15.4366V40ZM21.3981 37.056C21.3981 37.696 21.3127 38.2347 21.1421 38.672C20.9767 39.1093 20.7341 39.44 20.4141 39.664C20.0941 39.888 19.6967 40 19.2221 40H17.9501V34.288H19.2941C19.7474 34.288 20.1287 34.3947 20.4381 34.608C20.7527 34.816 20.9901 35.1253 21.1501 35.536C21.3154 35.9467 21.3981 36.4533 21.3981 37.056ZM20.4301 37.096C20.4301 36.6427 20.3847 36.2693 20.2941 35.976C20.2087 35.6827 20.0807 35.464 19.9101 35.32C19.7394 35.176 19.5261 35.104 19.2701 35.104H18.8861V39.176H19.2141C19.6301 39.176 19.9367 39.0053 20.1341 38.664C20.3314 38.3173 20.4301 37.7947 20.4301 37.096ZM24.7498 40H22.2938V34.288H24.7498V35.096H23.2298V36.624H24.6538V37.432H23.2298V39.176H24.7498V40ZM26.5736 40H25.6376V34.288H28.0856V35.096H26.5736V36.84H27.9896V37.656H26.5736V40ZM30.5445 40H28.5605V39.488L29.0885 39.296V34.992L28.5605 34.8V34.288H30.5445V34.8L30.0245 34.992V39.296L30.5445 39.488V40ZM35.0691 40H33.9571L32.1811 35.76H32.1491C32.1597 35.888 32.1677 36.0107 32.1731 36.128C32.1837 36.2453 32.1891 36.3573 32.1891 36.464C32.1944 36.5707 32.1971 36.672 32.1971 36.768C32.2024 36.864 32.2051 36.952 32.2051 37.032V40H31.3251V34.288H32.4371L34.2051 38.44H34.2371C34.2317 38.3173 34.2237 38.1973 34.2131 38.08C34.2077 37.9627 34.2024 37.8533 34.1971 37.752C34.1917 37.6453 34.1864 37.5467 34.1811 37.456C34.1811 37.36 34.1811 37.2747 34.1811 37.2V34.288H35.0691V40ZM37.8336 40H35.8496V39.488L36.3776 39.296V34.992L35.8496 34.8V34.288H37.8336V34.8L37.3136 34.992V39.296L37.8336 39.488V40ZM40.1821 40H39.2541V35.112H38.1741V34.288H41.2541V35.112H40.1821V40ZM43.5992 40H41.6152V39.488L42.1432 39.296V34.992L41.6152 34.8V34.288H43.5992V34.8L43.0792 34.992V39.296L43.5992 39.488V40ZM48.0998 37.136C48.0998 37.5733 48.0598 37.9733 47.9798 38.336C47.9051 38.6933 47.7878 39.0027 47.6278 39.264C47.4678 39.5253 47.2651 39.728 47.0198 39.872C46.7798 40.0107 46.4918 40.08 46.1558 40.08C45.8198 40.08 45.5291 40.008 45.2838 39.864C45.0384 39.72 44.8358 39.5173 44.6758 39.256C44.5158 38.9947 44.3984 38.6853 44.3238 38.328C44.2491 37.9653 44.2118 37.5653 44.2118 37.128C44.2118 36.4827 44.2838 35.944 44.4278 35.512C44.5771 35.08 44.7958 34.7547 45.0838 34.536C45.3718 34.312 45.7291 34.2 46.1558 34.2C46.6038 34.2 46.9691 34.3253 47.2518 34.576C47.5398 34.8213 47.7531 35.1627 47.8918 35.6C48.0304 36.0373 48.0998 36.5493 48.0998 37.136ZM45.1798 37.136C45.1798 37.6 45.2171 37.9893 45.2918 38.304C45.3664 38.6133 45.4758 38.848 45.6198 39.008C45.7638 39.168 45.9424 39.248 46.1558 39.248C46.3691 39.248 46.5451 39.1707 46.6838 39.016C46.8278 38.8613 46.9371 38.6293 47.0118 38.32C47.0864 38.0053 47.1238 37.6107 47.1238 37.136C47.1238 36.4267 47.0438 35.8987 46.8838 35.552C46.7238 35.2 46.4811 35.024 46.1558 35.024C45.9424 35.024 45.7611 35.104 45.6118 35.264C45.4678 35.424 45.3584 35.6613 45.2838 35.976C45.2144 36.2853 45.1798 36.672 45.1798 37.136ZM52.7409 40H51.6289L49.8529 35.76H49.8209C49.8316 35.888 49.8396 36.0107 49.8449 36.128C49.8556 36.2453 49.8609 36.3573 49.8609 36.464C49.8663 36.5707 49.8689 36.672 49.8689 36.768C49.8743 36.864 49.8769 36.952 49.8769 37.032V40H48.9969V34.288H50.1089L51.8769 38.44H51.9089C51.9036 38.3173 51.8956 38.1973 51.8849 38.08C51.8796 37.9627 51.8743 37.8533 51.8689 37.752C51.8636 37.6453 51.8583 37.5467 51.8529 37.456C51.8529 37.36 51.8529 37.2747 51.8529 37.2V34.288H52.7409V40Z" fill="white"/>
        </symbol>
        <symbol id="download-hd" viewBox="0 0 42 22" fill="none" xmlns="http://www.w3.org/2000/svg">
            <path d="M6.75 22V13.12H13.02V22H19.02V0.159999H13.02V8.77H6.75V0.159999H0.78V22H6.75ZM22.9847 0.159999V22H32.1647V21.97C37.9247 21.55 41.7647 17.32 41.7647 11.08C41.7647 4.81 37.9247 0.549999 32.1047 0.189998V0.159999H22.9847ZM28.7747 5.56H31.6847C33.8447 5.83 35.3147 8.05 35.3147 11.14C35.3147 14.2 33.8147 16.33 31.7147 16.6H28.7747V5.56Z" fill="white"/>
        </symbol>
        <symbol id="download-sd" viewBox="0 0 39 24" fill="none" xmlns="http://www.w3.org/2000/svg">
            <path d="M0.21 21.08C1.8 22.79 5.52 23.42 8.01 23.42C12.39 23.42 16.35 20.54 16.11 15.98C15.9 11.9 11.85 10.16 8.85 8.75C7.29 8 8.76 6.5 9.81 6.32C11.7 5.96 13.47 7.13 13.92 7.76L15.9 2.3C14.4 1.4 11.88 0.769998 10.02 0.769998C5.19 0.769998 1.29 3.17 1.32 7.82C1.35 12.5 7.92 13.31 9.33 16.01C9.93 17.15 8.97 18.05 7.5 18.02C5.76 17.99 3.66 16.82 2.31 15.56L0.21 21.08ZM19.7327 1.16V23H28.9127V22.97C34.6727 22.55 38.5127 18.32 38.5127 12.08C38.5127 5.81 34.6727 1.55 28.8527 1.19V1.16H19.7327ZM25.5227 6.56H28.4327C30.5927 6.83 32.0627 9.05 32.0627 12.14C32.0627 15.2 30.5627 17.33 28.4627 17.6H25.5227V6.56Z" fill="white"/>
        </symbol>
        <symbol id="download-mobile-video" viewBox="0 0 21 30" fill="none" xmlns="http://www.w3.org/2000/svg">
            <path d="M20.922 2.214V24.6H0V2.214C0 0.99615 0.989925 0 2.20807 0H18.7081C19.9259 0 20.9221 0.996075 20.9221 2.214H20.922Z" fill="white"/>
            <path d="M0 27.7858C0 29.0098 0.989925 29.9998 2.20807 29.9998H18.7081C19.9259 29.9998 20.9221 29.0099 20.9221 27.7858V25.7998H7.43866e-05L0 27.7858ZM8.7 26.6998H12.2221C12.552 26.6998 12.8221 26.9699 12.8221 27.2998C12.8221 27.6358 12.552 27.8998 12.2221 27.8998H8.7C8.36396 27.8998 8.1 27.6358 8.1 27.2998C8.1 26.9699 8.36396 26.6998 8.7 26.6998Z" fill="white"/>
        </symbol>
        <symbol id="download-images" viewBox="0 0 37 30" fill="none" xmlns="http://www.w3.org/2000/svg">
            <g clip-path="url(#clip0_41_12)">
            <path d="M11.1847 0.856944C10.1317 1.48552 9.39175 2.77123 9.39175 3.91409C9.39175 5.08552 10.3878 6.54266 11.5262 7.02837C12.7785 7.54266 13.2054 7.54266 14.4007 6.97123C16.9621 5.74266 16.9051 1.77123 14.3153 0.685515C13.0631 0.142658 12.2662 0.199801 11.1847 0.856944Z" fill="white"/>
            <path d="M16.4498 6.54244L15.5106 7.37101L15.3683 12.3139L15.226 17.2567L11.7539 17.8567C7.05804 18.6853 7.11496 18.6282 7.11496 22.771V25.9996H4.26897C1.79297 25.9996 1.33761 26.0853 0.853795 26.571C0.113839 27.3139 0.113839 28.3996 0.853795 29.1424C1.36607 29.6567 1.79297 29.7139 5.37891 29.7139C10.4732 29.7139 10.5017 29.7139 10.5871 26.1424L10.6724 23.571L15.596 23.4853L20.4911 23.4282V25.8567C20.4911 28.0853 20.548 28.371 21.2026 28.9996L21.8856 29.7139H28.3175H34.7494L35.4325 28.9996C36.1155 28.3139 36.3147 27.371 35.9732 26.4282C35.6602 25.6282 34.2656 25.1424 32.3019 25.1424H30.452V20.1139C30.452 15.9996 30.3666 14.9139 29.9682 14.0853C29.6267 13.3424 28.3175 12.171 25.2154 9.85672C22.8532 8.08529 20.5195 6.42815 20.0073 6.17101C18.6412 5.48529 17.5028 5.59958 16.4498 6.54244ZM23.1094 15.3424C25.7277 17.4282 25.9838 17.9996 26.1261 21.9139C26.24 25.0567 26.24 25.1424 25.6423 25.1424C25.0731 25.1424 25.0446 24.9996 25.0446 22.3424C25.0446 19.1139 24.6178 17.971 23.0525 16.9139C22.1987 16.3424 21.8287 16.2567 20.5765 16.3996L19.0681 16.571V14.3996V12.2282L20.1496 13.0282C20.7188 13.4567 22.0564 14.5139 23.1094 15.3424Z" fill="white"/>
            <path d="M1.96374 13.8569C1.1384 14.2854 0.284607 15.8569 0.284607 16.8569C0.284607 19.6569 3.84208 21.3426 5.94811 19.5426C8.39566 17.4854 7.02958 13.3997 3.899 13.4283C3.24443 13.4569 2.36217 13.6283 1.96374 13.8569Z" fill="white"/>
            </g>
            <defs>
            <clipPath id="clip0_41_12">
            <rect width="36.4286" height="30" fill="white"/>
            </clipPath>
            </defs>
        </symbol>
        <symbol id="download-subtitles" viewBox="0 0 35 31" fill="none" xmlns="http://www.w3.org/2000/svg">
            <path d="M31.7306 1.21578e-05H2.60383C1.91326 1.21578e-05 1.25092 0.274318 0.762496 0.76251C0.274332 1.25094 0 1.91328 0 2.60385V27.4662C0 28.1567 0.274305 28.8191 0.762496 29.3075C1.25093 29.7957 1.91326 30.07 2.60383 30.07H31.7306C32.4225 30.0721 33.0867 29.7986 33.5767 29.3101C34.0667 28.8215 34.3421 28.1581 34.3421 27.4662V2.60385C34.3421 1.91198 34.0668 1.24855 33.5767 0.759851C33.0867 0.27142 32.4225 -0.00210135 31.7306 1.21578e-05ZM5.17685 19.7122H13.1032C13.4765 19.6922 13.8419 19.827 14.1133 20.0842C14.3844 20.3415 14.5383 20.6992 14.5383 21.0731C14.5383 21.4473 14.3844 21.8046 14.1133 22.0622C13.8419 22.3195 13.4765 22.4539 13.1032 22.4342H5.17685C4.70786 22.4095 4.28441 22.1448 4.05669 21.7339C3.82898 21.323 3.82899 20.8235 4.05669 20.4126C4.28439 20.0017 4.70784 19.737 5.17685 19.7123V19.7122ZM21.5442 26.2522H5.17685C4.70786 26.2274 4.28441 25.9627 4.05669 25.5518C3.82898 25.1409 3.82899 24.6415 4.05669 24.2306C4.28439 23.8197 4.70784 23.5549 5.17685 23.5302H21.5442C21.9176 23.5102 22.2827 23.645 22.5541 23.9022C22.8254 24.1595 22.9791 24.5172 22.9791 24.8911C22.9791 25.2653 22.8254 25.6226 22.5541 25.8802C22.2827 26.1375 21.9176 26.272 21.5442 26.2523V26.2522Z" fill="white"/>
        </symbol>
        <!-- End download icons -->
    </defs>
</svg>