<svg width="0" height="0" class="hidden sprite" xmlns="http://www.w3.org/2000/svg" xmlns:xlink="http://www.w3.org/1999/xlink">
    <defs>
        <symbol id="logo" viewBox="0 0 270 54" fill="none">
            <g clip-path="url(#clip0_78_29744)">
            <path d="M267.945 0H196.383C195.358 0 194.527 0.832037 194.527 1.85841V51.7699C194.527 52.7963 195.358 53.6283 196.383 53.6283H267.945C268.97 53.6283 269.801 52.7963 269.801 51.7699V1.85841C269.801 0.832037 268.97 0 267.945 0Z" fill="#F1AC2B"/>
            <mask id="mask0_78_29744" style="mask-type:luminance" maskUnits="userSpaceOnUse" x="194" y="0" width="76" height="54">
            <path d="M267.945 0H196.383C195.358 0 194.527 0.832037 194.527 1.85841V51.7699C194.527 52.7963 195.358 53.6283 196.383 53.6283H267.945C268.97 53.6283 269.801 52.7963 269.801 51.7699V1.85841C269.801 0.832037 268.97 0 267.945 0Z" fill="white"/>
            </mask>
            <g mask="url(#mask0_78_29744)">
            <path d="M265.295 3.18555H199.033C198.301 3.18555 197.708 3.77986 197.708 4.51298V49.1148C197.708 49.8479 198.301 50.4422 199.033 50.4422H265.295C266.027 50.4422 266.62 49.8479 266.62 49.1148V4.51298C266.62 3.77986 266.027 3.18555 265.295 3.18555Z" fill="#222727"/>
            </g>
            <mask id="mask1_78_29744" style="mask-type:luminance" maskUnits="userSpaceOnUse" x="194" y="0" width="76" height="54">
            <path d="M267.945 0H196.383C195.358 0 194.527 0.832037 194.527 1.85841V51.7699C194.527 52.7963 195.358 53.6283 196.383 53.6283H267.945C268.97 53.6283 269.801 52.7963 269.801 51.7699V1.85841C269.801 0.832037 268.97 0 267.945 0Z" fill="white"/>
            </mask>
            <g mask="url(#mask1_78_29744)">
            <path d="M226.882 44.071V37.3866H229.518V29.4361H226.882V20.2197L217.708 25.8913V29.4361H212.842L225.869 7.96484H214.312L203.009 29.8919V37.3866H217.708V44.071H226.882ZM241.793 44.071V33.8418L244.53 29.9425L249.751 44.071H261.054L252.387 22.2453L260.953 7.96484H250.815L241.793 23.6632V7.96484H231.352V44.071H241.793Z" fill="#EFC127"/>
            </g>
            <mask id="mask2_78_29744" style="mask-type:luminance" maskUnits="userSpaceOnUse" x="194" y="0" width="76" height="54">
            <path d="M267.945 0H196.383C195.358 0 194.527 0.832037 194.527 1.85841V51.7699C194.527 52.7963 195.358 53.6283 196.383 53.6283H267.945C268.97 53.6283 269.801 52.7963 269.801 51.7699V1.85841C269.801 0.832037 268.97 0 267.945 0Z" fill="white"/>
            </mask>
            <g mask="url(#mask2_78_29744)">
            <path opacity="0.0594076" fill-rule="evenodd" clip-rule="evenodd" d="M265.132 0H267.945C268.97 0 269.8 0.832037 269.8 1.85841V58.1416C269.801 59.168 268.971 60 267.946 60L267.945 59.9991L230.573 59.9808L265.132 0Z" fill="black"/>
            </g>
            <path d="M59.6912 44.0827C66.3731 44.0827 74.2655 40.8332 74.2655 32.1517C74.2655 27.5442 71.3119 24.1007 65.5984 22.5002L60.6111 21.0937C58.1417 20.4147 56.3018 20.2207 56.3018 18.6202C56.3018 17.0197 57.9481 16.5347 60.1754 16.5347C62.2574 16.5347 65.5015 17.4562 67.3415 18.9112L73.055 11.7817C69.133 9.45372 66.0342 8.38672 59.6428 8.38672C50.9756 8.38672 45.601 13.9157 45.601 20.3177C45.601 25.3617 48.942 28.7082 53.6871 30.0177L59.788 31.7152C61.4343 32.1517 62.79 32.5397 62.79 34.1887C62.79 35.8377 60.4659 36.1772 58.7712 36.1772C55.3818 36.1772 51.7988 34.3342 49.5715 32.6367L44.439 40.2027C49.1841 43.5007 53.9292 44.0827 59.6912 44.0827Z" fill="#18303D"/>
            <path fill-rule="evenodd" clip-rule="evenodd" d="M59.6426 8.13672C66.2289 8.13672 69.3509 9.26172 73.429 11.7142L67.3778 19.2651C65.6192 17.7505 62.2861 16.7847 60.1752 16.7847C59.0331 16.7847 58.0471 16.9091 57.3794 17.2686C57.1109 17.4131 56.8968 17.5962 56.7542 17.8298C56.6206 18.0486 56.5512 18.3106 56.5512 18.6202C56.5512 19.1244 56.77 19.4614 57.1494 19.7171C57.7093 20.0943 58.5801 20.3095 59.6267 20.577C59.9605 20.6624 60.312 20.7522 60.6787 20.8531L65.6655 22.2595C68.5527 23.0682 70.7446 24.3434 72.2239 25.9908C73.7415 27.6807 74.515 29.7637 74.515 32.1517C74.515 36.1063 72.9109 38.9569 70.532 40.9043C67.5915 43.3115 63.4538 44.3327 59.691 44.3327C53.7916 44.3327 48.9513 43.72 44.0942 40.2659L49.5141 32.2763C51.6851 33.9877 55.3279 35.9272 58.7711 35.9272C59.7099 35.9272 60.8516 35.8253 61.6503 35.4301C61.9312 35.2912 62.1683 35.1159 62.3277 34.8889C62.4638 34.6951 62.5403 34.4636 62.5403 34.1887C62.5403 33.5668 62.3244 33.1468 61.9556 32.843C61.4262 32.4068 60.617 32.1937 59.7211 31.9561L53.6207 30.2587C51.1123 29.5665 48.9909 28.3137 47.5254 26.5557C46.1519 24.9081 45.3513 22.8163 45.3513 20.3177C45.3513 16.9321 46.8209 13.7847 49.4676 11.5357C51.9216 9.45064 55.391 8.13672 59.6426 8.13672Z" fill="white"/>
            <path d="M83.6585 43.5489H93.3909L98.3781 24.2459H98.5718L103.414 43.5489H113.679L122.104 8.91992H112.081L108.062 26.9134H108.014L104.092 8.91992H94.3593L90.0983 26.9134H89.9531L85.8374 8.91992H75.1851L83.6585 43.5489Z" fill="#18303D"/>
            <path fill-rule="evenodd" clip-rule="evenodd" d="M86.036 8.66992L89.9611 25.8302L94.1633 8.66992H104.292L108.018 25.7617L111.881 8.66992H122.421L113.875 43.7989H103.219L98.5634 25.2393L93.582 43.7989H83.4625L74.8667 8.66992H86.036Z" fill="white"/>
            <path d="M119.877 43.5001H129.948L131.595 37.9711H143.07L144.716 43.5001H155.611L144.184 8.87109H131.546L119.877 43.5001ZM133.967 29.9686L137.26 18.7651H137.405L140.697 29.9686H133.967Z" fill="#18303D"/>
            <path fill-rule="evenodd" clip-rule="evenodd" d="M144.364 8.62109L155.956 43.7501H144.53L142.884 38.2211H131.781L130.134 43.7501H119.529L131.367 8.62109H144.364ZM137.265 19.6328L134.301 29.7186H140.36L137.265 19.6328Z" fill="white"/>
            <path d="M158.322 43.5004H169.168V32.5394H175.511C184.468 32.5394 187.906 26.3314 187.906 20.3174C187.906 14.5459 184.129 8.91992 175.511 8.91992H158.322V43.5004ZM169.168 24.6339V17.0679H173.526C176.14 17.0679 177.351 18.9594 177.351 20.8509C177.351 22.7909 175.995 24.6339 173.477 24.6339H169.168Z" fill="#18303D"/>
            <path fill-rule="evenodd" clip-rule="evenodd" d="M175.511 8.66992C179.565 8.66992 182.564 9.89841 184.622 11.7906C187.032 14.0062 188.156 17.139 188.156 20.3174C188.156 23.6695 187.103 27.0769 184.665 29.4811C182.683 31.4351 179.784 32.7333 175.774 32.7876L175.511 32.7894H169.417V43.7504H158.072V8.66992H175.511ZM173.526 17.3179H169.417V24.3839H173.477L173.642 24.3811C174.673 24.3456 175.488 23.9766 176.066 23.4116C176.749 22.7446 177.101 21.8097 177.101 20.8509C177.101 19.9 176.778 18.9466 176.094 18.2701C175.506 17.6891 174.654 17.3179 173.526 17.3179Z" fill="white"/>
            </g>
            <path d="M14.7188 11.1074H22.0295C22.285 11.1074 22.538 11.1577 22.7741 11.2555C23.0101 11.3533 23.2246 11.4966 23.4053 11.6773C23.586 11.858 23.7293 12.0725 23.8271 12.3085C23.9249 12.5446 23.9752 12.7976 23.9752 13.0531V25.5599L21.1718 25.0198C20.2015 25.0198 19.7125 26.19 20.3975 26.8788L22.3503 28.8317L26.1156 32.597C26.3323 32.8098 26.6092 32.9204 26.8899 32.9204C27.179 32.918 27.4556 32.8018 27.6596 32.597L31.4249 28.8317L33.3778 26.8788C34.0628 26.19 33.5738 25.0198 32.6035 25.0198L29.8001 25.5599V10.7348C29.8001 9.28897 29.2257 7.90232 28.2033 6.87995C27.1809 5.85757 25.7943 5.2832 24.3484 5.2832H14.5972C14.2073 5.28328 13.8214 5.36165 13.4623 5.51365C13.1032 5.66566 12.7783 5.88821 12.5069 6.16811C12.2354 6.44802 12.0229 6.77957 11.882 7.14313C11.7411 7.50668 11.6745 7.89484 11.6864 8.28457C11.7343 9.8784 13.1243 11.1074 14.7188 11.1074Z" fill="white"/>
            <path d="M18.978 42.5454H11.6673C11.1513 42.5454 10.6564 42.3404 10.2915 41.9755C9.92658 41.6106 9.72159 41.1157 9.72159 40.5997V28.0929L12.525 28.633C13.4953 28.633 13.9843 27.4629 13.2993 26.774L11.3465 24.8211L7.58117 21.0558C7.37577 20.8502 7.09752 20.734 6.80689 20.7324C6.51777 20.7348 6.24123 20.851 6.03715 21.0558L2.27185 24.8211L0.319667 26.774C-0.365344 27.4629 0.123672 28.633 1.09394 28.633L3.89738 28.0929V42.9186C3.89738 44.3645 4.47174 45.7511 5.49412 46.7735C6.5165 47.7959 7.90314 48.3703 9.349 48.3703H19.0996C19.4895 48.3702 19.8754 48.2918 20.2345 48.1398C20.5936 47.9878 20.9184 47.7653 21.1899 47.4854C21.4614 47.2054 21.6739 46.8739 21.8148 46.5103C21.9557 46.1468 22.0222 45.7586 22.0104 45.3689C21.9625 43.7744 20.5724 42.5454 18.978 42.5454Z" fill="#FFCB1E"/>
            <defs>
            <clipPath id="clip0_78_29744">
            <rect width="226.125" height="54" fill="white" transform="translate(43.6975)"/>
            </clipPath>
            </defs>
        </symbol>
        <symbol id="user" viewBox="0 0 12 13">
            <path d="M5.99999 5.8335C6.35451 5.84037 6.70683 5.77647 7.03636 5.64555C7.36589 5.51463 7.666 5.31931 7.91914 5.07102C8.17228 4.82274 8.37337 4.52646 8.51065 4.19953C8.64793 3.8726 8.71863 3.52158 8.71863 3.167C8.71863 2.81242 8.64793 2.4614 8.51065 2.13447C8.37337 1.80754 8.17228 1.51126 7.91914 1.26298C7.666 1.01469 7.36589 0.819372 7.03636 0.688451C6.70683 0.557531 6.35451 0.493634 5.99999 0.5005C5.30173 0.514023 4.63664 0.8009 4.14761 1.29949C3.65858 1.79809 3.38463 2.46861 3.38463 3.167C3.38463 3.86539 3.65858 4.53591 4.14761 5.03451C4.63664 5.5331 5.30173 5.81998 5.99999 5.8335ZM5.99999 7.1675C7.03498 7.16672 8.05589 7.40728 8.98165 7.87007C9.9074 8.33286 10.7125 9.00514 11.333 9.8335V12.5005H0.666992V9.8335C1.28749 9.00514 2.09258 8.33286 3.01834 7.87007C3.94409 7.40728 4.96501 7.16672 5.99999 7.1675Z"/>
        </symbol>
        <symbol id="arrow-down" viewBox="0 0 11 6" fill="none">
            <path d="M5.50096 5.99944C5.68534 5.9951 5.86156 5.922 5.99552 5.7943L10.6503 1.29294C10.7923 1.15444 10.8741 0.964852 10.8776 0.765738C10.8811 0.566625 10.8061 0.374234 10.669 0.230727C10.532 0.0872206 10.344 0.0043015 10.1463 0.000162538C9.94869 -0.00397595 9.75747 0.071 9.6146 0.208645L5.47769 4.2118L1.34077 0.208644C1.1979 0.0709993 1.00669 -0.00397673 0.809034 0.000161721C0.611382 0.00430065 0.423421 0.0872198 0.286353 0.230726C0.149283 0.374233 0.0742869 0.566624 0.0778041 0.765738C0.0813202 0.964851 0.163062 1.15444 0.305111 1.29294L4.95986 5.7943C5.03192 5.8631 5.11692 5.91669 5.20984 5.95192C5.30277 5.98715 5.40175 6.0033 5.50096 5.99944Z" fill="white"/>
          </symbol>
          <symbol id="rta-logo" viewBox="0 0 46 22" fill="none">
            <g clip-path="url(#clip0_43_35106)">
              <path d="M30.25 16.7949C29.9648 15.9277 29.6797 15.0449 29.3945 14.1309H23.5742C23.2891 15.0449 23.0059 15.9102 22.7207 16.8105H17.8457C17.9492 16.4375 18.0703 16.1133 18.1758 15.8027C19.4805 12.207 20.7402 8.63086 22.0449 5.01953C22.1504 4.74023 22.2109 4.44531 22.3145 4.08984C19.9902 4.08984 17.6797 4.10547 15.3398 4.10547C15.3398 4.57031 15.3105 16.3145 15.2949 16.6387C14.6504 16.6855 11.5 16.6855 10.4492 16.6855C10.4043 12.5645 10.4648 8.41211 10.4199 4.18359H5.27539C5.25977 5.39258 5.0957 6.58594 4.3457 7.5918C3.60938 8.56836 2.60547 9.07812 1.43555 9.41992C2.03516 9.86914 2.60547 10.1797 3.00977 10.6289C3.50586 11.1699 3.91016 11.8066 4.26953 12.4414C5.00586 13.8203 5.69531 15.3535 6.40039 16.748C5.875 16.7949 2.19922 16.7637 0.970703 16.7637C0.835938 16.5312 0.669922 16.2832 0.535156 16.0195C-0.289062 14.4551 -1.09961 12.8906 -1.92578 11.3242C-2.4043 10.4277 -3.10938 9.94531 -4.13086 10.0391C-4.17578 10.0391 -4.2207 10.0703 -4.36914 10.1328C-4.46094 10.457 -4.46094 10.7227 -4.46094 11.0469C-4.47461 12.627 -4.38477 16.4844 -4.40039 16.7637C-5 16.7637 -8.44922 16.748 -9.38086 16.748C-9.38086 16.0195 -9.34961 1.08594 -9.34961 0.138672H29.2754C31.2695 5.62305 33.2949 11.2012 35.3203 16.8086C33.5801 16.7949 31.9609 16.7949 30.25 16.7949ZM28.3906 10.5195C27.7754 8.44336 27.1895 6.49219 26.5742 4.43164C26.1992 5.42383 24.8496 9.83789 24.6543 10.5195H28.3906ZM-4.40039 6.97266C-3.125 7.04883 -1.47461 7.12695 -0.5 6.81641C0.181641 6.59961 0.310547 5.88672 0.310547 5.05078C0.310547 4.27539 -0.109375 3.74805 -0.800781 3.5625C-1.9707 3.23828 -3.24414 3.36133 -4.40039 3.4082V6.97266Z" fill="white" fill-opacity="0.4"/>
              <path fill-rule="evenodd" clip-rule="evenodd" d="M-9.5 19.4395C-9.32617 19.4102 -9.15039 19.3906 -8.97266 19.3848C-8.91602 19.3828 -8.86328 19.3809 -8.81641 19.3809C-8.70312 19.3809 -8.59375 19.3906 -8.48633 19.4121C-8.38281 19.4316 -8.28516 19.4687 -8.19531 19.5215C-8.10938 19.5742 -8.03906 19.6465 -7.99023 19.7344C-7.93945 19.8262 -7.91211 19.9395 -7.91211 20.0762C-7.9043 20.252 -7.95312 20.4238 -8.05078 20.5703C-8.14062 20.6973 -8.26758 20.791 -8.41602 20.8359L-8.24805 20.9453L-7.70117 21.8887H-8.24023L-8.78516 20.9219L-9.03125 20.875V21.8887H-9.5V19.4395ZM-8.78125 19.8105C-8.83008 19.8105 -8.87695 19.8125 -8.92383 19.8145C-8.96094 19.8164 -8.99609 19.8203 -9.03125 19.8281V20.5469H-8.83203C-8.70312 20.5469 -8.59961 20.5156 -8.52148 20.4531C-8.44336 20.3945 -8.4043 20.293 -8.4043 20.1504C-8.40039 20.0566 -8.43555 19.9668 -8.50195 19.9004C-8.56445 19.8418 -8.6582 19.8105 -8.78125 19.8105ZM-6.91406 19.416H-5.49414V19.8457H-6.44531V20.4238H-5.58008V20.8535H-6.44531V21.457H-5.47852V21.8887H-6.91406V19.416ZM-3.57031 21.2246C-3.56836 21.1543 -3.59766 21.0859 -3.65039 21.041C-3.71094 20.9883 -3.7793 20.9453 -3.85156 20.9102C-3.93945 20.8691 -4.02734 20.8301 -4.11523 20.791C-4.20898 20.75 -4.29688 20.6992 -4.37891 20.6406C-4.46094 20.5801 -4.5293 20.502 -4.58008 20.4141C-4.63867 20.3105 -4.66602 20.1914 -4.66016 20.0723C-4.66016 19.9531 -4.64062 19.8477 -4.60352 19.7598C-4.56641 19.6738 -4.50977 19.5996 -4.4375 19.5391C-4.36133 19.4785 -4.27539 19.4355 -4.18164 19.4082C-4.08398 19.3809 -3.97461 19.3652 -3.85352 19.3652C-3.71484 19.3652 -3.58398 19.3789 -3.46094 19.4023C-3.33789 19.4277 -3.23633 19.4629 -3.15625 19.5117L-3.30273 19.918C-3.37305 19.875 -3.44922 19.8457 -3.5293 19.8262C-3.62891 19.8008 -3.73828 19.7871 -3.85352 19.7871C-3.94336 19.7812 -4.03125 19.8047 -4.10547 19.8535C-4.16211 19.8965 -4.19336 19.9629 -4.19141 20.0332C-4.19141 20.1035 -4.16602 20.1641 -4.11133 20.2109C-4.05859 20.2578 -3.99219 20.3008 -3.91016 20.3418C-3.83008 20.3809 -3.74219 20.4238 -3.64648 20.4648C-3.55273 20.5078 -3.46484 20.5586 -3.38477 20.6191C-3.30273 20.6797 -3.23438 20.7539 -3.18164 20.8418C-3.12891 20.9297 -3.10156 21.0391 -3.10156 21.1719C-3.09961 21.2871 -3.12109 21.4043 -3.16406 21.5117C-3.20508 21.6035 -3.26562 21.6855 -3.3418 21.752C-3.42383 21.8164 -3.51758 21.8652 -3.61914 21.8926C-3.72852 21.9219 -3.84766 21.9375 -3.97656 21.9375C-4.14844 21.9375 -4.29883 21.9219 -4.42773 21.8887C-4.52734 21.8672 -4.62305 21.834 -4.7168 21.7891L-4.56641 21.377C-4.49219 21.4141 -4.41406 21.4453 -4.33203 21.4688C-4.2832 21.4824 -4.23047 21.4941 -4.17383 21.5039C-4.11719 21.5137 -4.06055 21.5176 -4.00195 21.5176C-3.86133 21.5176 -3.75586 21.4941 -3.68164 21.4453C-3.60742 21.3965 -3.57031 21.3223 -3.57031 21.2246ZM-0.564453 19.8477H-1.26172V21.8887H-1.73047V19.8477H-2.43164V19.416H-0.564453V19.8477ZM0.205078 19.4395C0.380859 19.4102 0.554688 19.3906 0.732422 19.3848C0.789062 19.3828 0.841797 19.3809 0.888672 19.3809C1.00195 19.3809 1.11133 19.3906 1.21875 19.4121C1.32227 19.4316 1.41992 19.4687 1.50977 19.5215C1.5957 19.5742 1.66602 19.6465 1.71484 19.7344C1.76758 19.8262 1.79297 19.9395 1.79297 20.0762C1.80078 20.252 1.75195 20.4238 1.6543 20.5703C1.56445 20.6973 1.4375 20.791 1.28906 20.8359L1.45703 20.9453L2.00391 21.8887H1.46484L0.919922 20.9219L0.673828 20.875V21.8887H0.205078V19.4395ZM0.923828 19.8105C0.875 19.8105 0.828125 19.8125 0.78125 19.8145C0.746094 19.8164 0.708984 19.8203 0.673828 19.8281V20.5469H0.871094C1.00195 20.5469 1.10547 20.5156 1.18359 20.4531C1.26172 20.3945 1.30078 20.293 1.30078 20.1504C1.30469 20.0566 1.26953 19.9668 1.20312 19.9004C1.14062 19.8418 1.04688 19.8105 0.923828 19.8105ZM2.83789 19.416H3.30664V21.8887H2.83789V19.416ZM5.91211 21.7852C5.83008 21.8457 5.73438 21.8848 5.63477 21.9023C5.51953 21.9258 5.4043 21.9375 5.28711 21.9375C5.14258 21.9375 5.00781 21.9141 4.87891 21.8691C4.74805 21.8223 4.63281 21.7461 4.53711 21.6465C4.43164 21.5312 4.35352 21.3945 4.30469 21.2461C4.24219 21.0547 4.21094 20.8535 4.2168 20.6523C4.2168 20.4102 4.24805 20.2051 4.31445 20.043C4.37891 19.8789 4.46484 19.7461 4.56641 19.6465C4.67188 19.5469 4.78711 19.4746 4.91406 19.4316C5.03711 19.3887 5.16602 19.3672 5.29688 19.3652C5.43359 19.3652 5.55078 19.377 5.64453 19.3945C5.73828 19.4141 5.81641 19.4355 5.87891 19.4629L5.78516 19.8711C5.72656 19.8437 5.66406 19.8242 5.59961 19.8145C5.51367 19.8027 5.42578 19.7969 5.33789 19.7969C5.14844 19.7969 4.99609 19.8672 4.88281 20.0059C4.76562 20.1445 4.70898 20.3594 4.70898 20.6523C4.70898 20.7793 4.72266 20.8945 4.75 21C4.77344 21.0977 4.81641 21.1875 4.875 21.2695C4.92969 21.3418 5.00195 21.4023 5.08203 21.4414C5.16797 21.4824 5.26367 21.5039 5.37305 21.5039C5.47461 21.5039 5.5625 21.4922 5.63281 21.4727C5.69727 21.4531 5.75977 21.4258 5.81641 21.3906L5.91211 21.7852ZM8.2793 19.8457H7.58203V21.8887H7.11328V19.8477H6.41211V19.416H8.2793V19.8457ZM9.04883 19.416H10.4688V19.8457H9.51758V20.4238H10.3828V20.8535H9.51758V21.457H10.4844V21.8887H9.04883V19.416ZM11.3594 19.416C11.5371 19.3945 11.7168 19.3828 11.8945 19.3828L12.0586 19.3809C12.2695 19.3809 12.4512 19.4102 12.6016 19.4727C12.752 19.5332 12.873 19.6191 12.9688 19.7305C13.0605 19.8398 13.1309 19.9727 13.1738 20.127C13.2168 20.2793 13.2383 20.4473 13.2383 20.6309C13.2383 20.7988 13.2188 20.9609 13.1758 21.1152C13.1016 21.4277 12.8867 21.6875 12.5938 21.8184C12.4375 21.8906 12.2422 21.9277 12.0137 21.9277L11.8672 21.9238C11.6992 21.916 11.5293 21.9063 11.3594 21.8926V19.416ZM12.0957 19.8105C12.0469 19.8105 11.9941 19.8125 11.9434 19.8145C11.9043 19.8164 11.8672 19.8184 11.8281 19.8242V21.4824C11.8379 21.4844 11.8535 21.4863 11.875 21.4883C11.9395 21.4922 12.0039 21.4941 12.0684 21.4961C12.1816 21.5 12.2969 21.4766 12.3984 21.4238C12.4824 21.3789 12.5547 21.3125 12.6074 21.2324C12.6602 21.1465 12.6973 21.0527 12.7148 20.9531C12.7539 20.752 12.7539 20.543 12.7188 20.3398C12.7012 20.2461 12.668 20.1562 12.6172 20.0762C12.5684 19.998 12.5 19.9316 12.418 19.8867C12.3184 19.832 12.209 19.8066 12.0957 19.8105ZM17.0234 19.8477H16.3262V21.8887H15.8574V19.8477H15.1562V19.416H17.0234V19.8477ZM17.582 20.6523C17.582 20.2402 17.6719 19.9219 17.8477 19.6992C18.0234 19.4766 18.2734 19.3652 18.5996 19.3652C18.7695 19.3652 18.9199 19.3965 19.0488 19.457C19.1738 19.5176 19.2832 19.6074 19.3652 19.7188C19.4492 19.832 19.5137 19.9688 19.5547 20.127C19.5957 20.2832 19.6152 20.459 19.6152 20.6523C19.6152 21.0645 19.5273 21.3828 19.3516 21.6035C19.1738 21.8262 18.9238 21.9375 18.5996 21.9375C18.4258 21.9375 18.2754 21.9082 18.1484 21.8457C18.0234 21.7871 17.9141 21.6973 17.832 21.5859C17.7441 21.4629 17.6816 21.3242 17.6445 21.1797C17.6016 21.0059 17.582 20.8301 17.584 20.6523H17.582ZM18.0762 20.6523C18.0762 20.7773 18.0859 20.8926 18.1074 20.9961C18.127 21.1016 18.1582 21.1914 18.2012 21.2676C18.2402 21.3379 18.2949 21.4004 18.3633 21.4434C18.4355 21.4883 18.5176 21.5098 18.5996 21.5078C18.7559 21.5137 18.9023 21.4355 18.9863 21.3066C19.0762 21.1719 19.123 20.9531 19.123 20.6523C19.123 20.5312 19.1133 20.4199 19.0938 20.3164C19.0781 20.2227 19.0469 20.1309 19.0039 20.0449C18.9668 19.9707 18.9121 19.9082 18.8438 19.8633C18.7695 19.8164 18.6855 19.7949 18.5996 19.7969C18.4434 19.791 18.2949 19.8711 18.2129 20.0039C18.1211 20.1426 18.0762 20.3574 18.0762 20.6523ZM22.8672 21.3418H22.1328L21.9512 21.8887H21.4824L22.3438 19.3984H22.6895L23.5508 21.8887H23.0586L22.8672 21.3418ZM22.252 20.9512H22.7656L22.5879 20.4023L22.5156 20.0117H22.498L22.4258 20.4043L22.252 20.9512ZM24.2832 19.416C24.3301 19.4082 24.3848 19.4023 24.4453 19.3984C24.5684 19.3867 24.6934 19.3828 24.8184 19.3828L24.9805 19.3809C25.1934 19.3809 25.373 19.4102 25.5254 19.4727C25.6758 19.5332 25.7969 19.6191 25.8906 19.7305C25.9844 19.8398 26.0527 19.9727 26.0957 20.127C26.1387 20.2793 26.1602 20.4473 26.1602 20.6309C26.1602 20.7988 26.1406 20.9609 26.0996 21.1152C26.0254 21.4277 25.8086 21.6875 25.5156 21.8184C25.3594 21.8906 25.166 21.9277 24.9355 21.9277L24.791 21.9238C24.6211 21.916 24.4512 21.9063 24.2832 21.8926V19.416ZM25.0176 19.8105C24.9688 19.8105 24.918 19.8125 24.8652 19.8145C24.8281 19.8164 24.7891 19.8184 24.752 19.8242V21.4824C24.7617 21.4844 24.7754 21.4863 24.7988 21.4883C24.8613 21.4922 24.9258 21.4941 24.9902 21.4961C25.1055 21.5 25.2188 21.4766 25.3203 21.4238C25.4062 21.3789 25.4785 21.3125 25.5293 21.2324C25.582 21.1465 25.6191 21.0527 25.6367 20.9531C25.6758 20.752 25.6777 20.543 25.6406 20.3398C25.625 20.2461 25.5898 20.1562 25.5391 20.0762C25.4902 19.998 25.4219 19.9316 25.3398 19.8867C25.2422 19.832 25.1309 19.8066 25.0176 19.8105ZM28.3223 19.416H28.7676V21.0137C28.7676 21.1738 28.7461 21.3105 28.7051 21.4258C28.6699 21.5332 28.6113 21.6309 28.5352 21.7129C28.4609 21.7891 28.3691 21.8457 28.2676 21.8789C28.1621 21.9121 28.0469 21.9316 27.9219 21.9316C27.3145 21.9316 27.0117 21.6445 27.0117 21.0723V19.416H27.4805V20.9766C27.4805 21.0742 27.4883 21.1563 27.5059 21.2227C27.5195 21.2832 27.5469 21.3379 27.5859 21.3848C27.623 21.4258 27.6699 21.4551 27.7227 21.4746C27.7852 21.4922 27.8496 21.502 27.9141 21.5C28.0586 21.5 28.1621 21.459 28.2266 21.377C28.2891 21.2949 28.3223 21.1602 28.3223 20.9766V19.416ZM31.207 21.8887H29.6934V19.416H30.1621V21.457H31.207V21.8887ZM33.2285 19.8477H32.5312V21.8887H32.0625V19.8477H31.3613V19.416H33.2285V19.8477ZM35.0312 21.2246C35.0332 21.1543 35.0039 21.0859 34.9512 21.041C34.8906 20.9883 34.8223 20.9453 34.748 20.9102C34.6621 20.8691 34.5742 20.8301 34.4863 20.791C34.3926 20.75 34.3047 20.7012 34.2227 20.6406C34.1406 20.5781 34.0723 20.502 34.0215 20.4141C33.9648 20.3105 33.9355 20.1914 33.9414 20.0723C33.9414 19.9531 33.9609 19.8477 33.998 19.7598C34.0352 19.6738 34.0918 19.5996 34.1641 19.5391C34.2383 19.4785 34.3262 19.4355 34.4199 19.4082C34.5176 19.3809 34.627 19.3652 34.7461 19.3652C34.8867 19.3652 35.0176 19.3789 35.1406 19.4023C35.2637 19.4277 35.3652 19.4629 35.4453 19.5117L35.2988 19.918C35.2285 19.875 35.1523 19.8457 35.0723 19.8262C34.9727 19.8008 34.8633 19.7871 34.7461 19.7871C34.6582 19.7812 34.5703 19.8047 34.4961 19.8535C34.4395 19.8965 34.4062 19.9629 34.4082 20.0332C34.4082 20.1035 34.4355 20.1641 34.4883 20.2109C34.543 20.2578 34.6094 20.3008 34.6914 20.3418C34.7715 20.3809 34.8594 20.4238 34.9531 20.4648C35.0488 20.5078 35.1367 20.5586 35.2188 20.6191C35.2988 20.6797 35.3652 20.7539 35.4199 20.8418C35.4727 20.9297 35.5 21.0391 35.5 21.1719C35.5039 21.2871 35.4824 21.4043 35.4375 21.5117C35.3965 21.6035 35.3359 21.6855 35.2598 21.752C35.1777 21.8164 35.084 21.8652 34.9824 21.8926C34.873 21.9219 34.7539 21.9375 34.623 21.9375C34.4531 21.9375 34.3027 21.9219 34.1738 21.8887C34.0742 21.8652 33.9785 21.834 33.8867 21.7891L34.0352 21.377C34.1094 21.4141 34.1875 21.4453 34.2695 21.4688C34.3184 21.4824 34.3711 21.4941 34.4277 21.5039C34.4844 21.5137 34.541 21.5176 34.5996 21.5176C34.7402 21.5176 34.8457 21.4941 34.9199 21.4453C34.9941 21.3965 35.0312 21.3223 35.0312 21.2246Z" fill="white" fill-opacity="0.4"/>
            </g>
            <defs>
              <clipPath id="clip0_43_35106">
                <rect width="45" height="22" fill="white" transform="translate(0.5)"/>
              </clipPath>
            </defs>
          </symbol>
        <symbol id="btn-arrow-right" viewBox="0 0 15 15">
            <path d="M9.95289 7.99114L5.95239 11.9736C5.82942 12.0909 5.66634 12.1569 5.49639 12.1581C5.32414 12.1605 5.158 12.0944 5.03451 11.9742C4.91103 11.8541 4.8403 11.6899 4.83789 11.5176L4.83789 11.5086C4.83871 11.4202 4.85702 11.3328 4.89177 11.2514C4.92653 11.1701 4.97704 11.0964 5.04039 11.0346L8.58789 7.49914L5.04039 3.96514C4.91393 3.83941 4.84131 3.66944 4.83789 3.49114C4.83789 3.40585 4.85469 3.32139 4.88733 3.24259C4.91997 3.16379 4.96781 3.09219 5.02812 3.03188C5.08844 2.97156 5.16004 2.92372 5.23884 2.89108C5.31764 2.85844 5.4021 2.84164 5.48739 2.84164L5.49639 2.84164C5.57989 2.84095 5.6627 2.85691 5.73996 2.88859C5.81723 2.92027 5.88741 2.96703 5.94639 3.02614L9.95289 7.00864C10.0197 7.07157 10.0729 7.14761 10.109 7.232C10.1452 7.3164 10.1635 7.40734 10.1629 7.49914C10.1621 7.59095 10.1431 7.68168 10.107 7.76612C10.071 7.85056 10.0186 7.92704 9.95289 7.99114Z" />
        </symbol>
          
        <!-- Home slider -->
        <symbol id="home-slider-prev" viewBox="0 0 10 15" fill="none" xmlns="http://www.w3.org/2000/svg">
            <path d="M0.45459 7.54564L1.32821 8.43854L7.33493 14.5454L9.36368 12.7596L4.23775 7.54541L9.36368 2.3312L7.33493 0.54541L1.32821 6.65228L0.45459 7.54564Z" fill="white"/>
        </symbol>
        <symbol id="home-slider-next" viewBox="0 0 10 15" fill="none" xmlns="http://www.w3.org/2000/svg">
            <path d="M9.54541 7.45436L8.67179 6.56146L2.66507 0.45459L0.636318 2.24038L5.76225 7.45459L0.636319 12.6688L2.66507 14.4546L8.67179 8.34772L9.54541 7.45436Z" fill="white"/>
        </symbol>
        <!-- End Home slider -->
    
        <!-- <symbol id="arrow-down" viewBox="0 0 6 8" fill="none" xmlns="http://www.w3.org/2000/svg">
            <path d="M0 0L3.04478 0.223788L6 2.93462e-07L3.04478 7.83258L0 0Z" fill="#231F20"/>
        </symbol>
        <symbol id="arrow-down" viewBox="0 0 14 8" fill="none" xmlns="http://www.w3.org/2000/svg">
            <path d="M13.7437 0.260331C13.5795 0.0936581 13.3568 0 13.1246 0C12.8924 0 12.6698 0.0936581 12.5056 0.260331L6.9948 5.85401L1.48401 0.260331C1.26157 0.0422625 0.942389 -0.0406776 0.644106 0.0422625C0.346024 0.125401 0.113043 0.361923 0.0311294 0.664516C-0.0505741 0.967308 0.0311294 1.29134 0.245947 1.51713L6.37572 7.73967C6.5399 7.90634 6.76254 8 6.99475 8C7.22695 8 7.44959 7.90634 7.61378 7.73967L13.7436 1.51713C13.9077 1.35046 14 1.12445 14 0.888731C14 0.653011 13.9077 0.427003 13.7436 0.260331H13.7437Z" fill="#EFD5A4"/>
        </symbol> -->
        <symbol id="arrow-down-mobile" viewBox="0 0 7 4" fill="none" xmlns="http://www.w3.org/2000/svg">
            <path d="M0.524002 0.606091C0.471586 0.606091 0.424266 0.63749 0.403821 0.685766C0.383505 0.733915 0.393822 0.789897 0.430507 0.827473L3.30007 3.77887C3.32459 3.80409 3.35834 3.81836 3.39356 3.81836C3.42878 3.81836 3.46254 3.80409 3.48706 3.77887L6.35662 0.82741C6.38082 0.802571 6.39355 0.769771 6.39355 0.736462C6.39355 0.71933 6.39018 0.70207 6.3833 0.685702C6.36286 0.637426 6.31554 0.606028 6.26312 0.606028L0.524002 0.606091Z" fill="#EFD5A4"/>
        </symbol>

        <!-- Info icons -->
        <symbol id="video-duration" viewBox="0 0 21 20" fill="none">
            <path d="M10.5 20C16.0133 20 20.5 15.5133 20.5 10C20.5 4.48668 16.0134 0 10.5 0C4.98662 0 0.5 4.48668 0.5 10C0.5 15.5133 4.98668 20 10.5 20ZM10.5 1.33331C15.28 1.33331 19.1667 5.21996 19.1667 10C19.1667 14.78 15.28 18.6667 10.5 18.6667C5.71996 18.6667 1.83331 14.78 1.83331 10C1.83331 5.21996 5.72002 1.33331 10.5 1.33331Z" fill="white"/>
            <path d="M13.4166 13.1867C13.5399 13.2866 13.6866 13.3333 13.8332 13.3333C13.9331 13.3335 14.0318 13.3112 14.1218 13.2679C14.2119 13.2246 14.291 13.1615 14.3532 13.0833C14.5832 12.7967 14.5365 12.3767 14.2499 12.1467L11.1666 9.67999V4.66666C11.1666 4.29998 10.8666 4 10.4999 4C10.1332 4 9.83325 4.29998 9.83325 4.66666V10C9.83325 10.2034 9.9266 10.3933 10.0832 10.52L13.4166 13.1867Z" fill="white"/>
        </symbol>
        <symbol id="video-viewed" viewBox="0 0 21 20" fill="none">
            <path d="M10.5272 16.5C4.73134 16.5 1.49759 10.5092 1.36217 10.2329C1.32137 10.1552 1.30005 10.0688 1.30005 9.98104C1.30005 9.89329 1.32137 9.80685 1.36217 9.72917C1.49759 9.49625 4.73134 3.5 10.5272 3.5C16.323 3.5 19.5188 9.49625 19.6543 9.75083C19.6951 9.82852 19.7164 9.91496 19.7164 10.0027C19.7164 10.0905 19.6951 10.1769 19.6543 10.2546C19.5188 10.5092 16.2851 16.5 10.5272 16.5ZM2.48342 10C3.14967 11.0833 6.04217 15.4167 10.5272 15.4167C15.0122 15.4167 17.8993 11.0833 18.5655 10C17.8993 8.91667 15.0122 4.58333 10.5272 4.58333C6.04217 4.58333 3.13342 8.90042 2.46717 10H2.48342Z" fill="white"/>
            <path d="M10.5267 12.7788C9.77281 12.7948 9.04335 12.5113 8.49813 11.9905C7.95291 11.4696 7.63639 10.7539 7.61792 10.0001C7.63779 9.2472 7.95493 8.53284 8.5 8.01315C9.04507 7.49346 9.77373 7.21071 10.5267 7.22672C11.2787 7.21216 12.006 7.49555 12.5498 8.01509C13.0937 8.53463 13.4101 9.24816 13.43 10.0001C13.4115 10.7529 13.0958 11.4678 12.5517 11.9885C12.0077 12.5092 11.2796 12.7933 10.5267 12.7788ZM10.5267 8.31005C10.061 8.29391 9.60779 8.46249 9.26586 8.77906C8.92393 9.09562 8.72098 9.5345 8.70125 10.0001C8.71959 10.4666 8.92193 10.9068 9.26401 11.2245C9.6061 11.5423 10.0601 11.7116 10.5267 11.6955C10.9927 11.7116 11.4461 11.5421 11.7873 11.2242C12.1286 10.9063 12.3297 10.4661 12.3467 10.0001C12.3283 9.53498 12.1266 9.0961 11.7855 8.77939C11.4444 8.46269 10.9918 8.29394 10.5267 8.31005Z" fill="white"/>
          </symbol>
        <symbol id="video-publisher" viewBox="0 0 21 20" fill="none">
            <path d="M10.5 18.2259C10.0209 18.2264 9.55181 18.0891 9.14851 17.8305C8.00435 17.0951 5.80389 15.5857 3.94256 13.7427C1.65835 11.479 0.5 9.34723 0.5 7.40489C0.5 6.05524 0.899085 4.81862 1.65423 3.82915C2.37033 2.88831 3.38189 2.21547 4.52641 1.91874C5.67093 1.62201 6.88197 1.7186 7.96499 2.19299C8.93433 2.6113 9.79886 3.31656 10.5 4.25249C11.2011 3.31428 12.0657 2.60901 13.035 2.19299C14.118 1.7186 15.3291 1.62201 16.4736 1.91874C17.6181 2.21547 18.6297 2.88831 19.3458 3.82915C20.1009 4.81862 20.5 6.05524 20.5 7.40489C20.5 9.34723 19.3416 11.4781 17.0574 13.7408C15.1961 15.5838 12.9966 17.0932 11.8515 17.8287C11.4484 18.0879 10.9793 18.2258 10.5 18.2259ZM5.83913 2.89688C5.47714 2.89656 5.11671 2.94427 4.76728 3.03876C3.89022 3.27955 3.1162 3.80103 2.56362 4.52343C1.96224 5.31153 1.64416 6.30833 1.64416 7.40672C1.64416 9.03235 2.6881 10.8905 4.7476 12.9298C6.53249 14.6992 8.65927 16.1564 9.76682 16.8658C9.9855 17.0055 10.2396 17.0797 10.4991 17.0797C10.7586 17.0797 11.0127 17.0055 11.2314 16.8658C12.3389 16.1545 14.4638 14.6973 16.2506 12.9298C18.3101 10.8905 19.354 9.03235 19.354 7.40672C19.354 6.30833 19.0359 5.31336 18.4346 4.52343C17.882 3.80103 17.1079 3.27955 16.2309 3.03876C14.667 2.61405 12.4698 3.05798 10.9915 5.57789C10.9411 5.66401 10.8691 5.73543 10.7825 5.78507C10.696 5.8347 10.5979 5.86082 10.4982 5.86082C10.3984 5.86082 10.3004 5.8347 10.2138 5.78507C10.1273 5.73543 10.0552 5.66401 10.0048 5.57789C8.84325 3.59437 7.2341 2.89688 5.83913 2.89688Z" fill="white"/>
          </symbol>
        <symbol id="4k-icon" viewBox="0 0 45 24" fill="none">
            <path d="M23.1506 23.2727V0H29.4688V9.40909H29.787L36.787 0H44.1506L36.287 10.3636L44.3325 23.2727H36.787L31.5597 14.5455L29.4688 17.2727V23.2727H23.1506Z" fill="black"/>
            <path d="M0.5 19.6364V14.7273L9.86364 0H14.3182V6.54545H11.7727L6.72727 14.5455V14.7273H20.5455V19.6364H0.5ZM11.8182 23.2727V18.1364L11.9545 16V0H17.8636V23.2727H11.8182Z" fill="black"/>
        </symbol>
        <symbol id="video-like" viewBox="0 0 19 18" fill="none">
            <path d="M17.7321 7.61086C17.172 6.88542 16.2312 6.41665 15.3352 6.41665H12.767L14.2966 3.20863C14.7543 2.24869 14.3663 1.14618 13.3311 0.465216C12.3587 -0.174442 11.2694 -0.152446 10.6823 0.51871L5.29221 6.67932C4.99044 6.29679 4.52326 6.05056 3.99941 6.05056H1.64647C0.73862 6.05056 0 6.78918 0 7.69707V16.3515C0 17.2593 0.73862 17.998 1.64647 17.998H3.99941C4.4625 17.998 4.88125 17.8055 5.18071 17.4967C5.9071 17.9575 7.01965 18 7.94435 18C8.05164 18 8.15658 17.9994 8.25789 17.9989C8.34675 17.9984 8.43219 17.9979 8.51336 17.9979H13.896C15.2409 17.9979 16.2496 16.9729 16.7365 15.1117L18.1757 9.60941C18.3551 8.92349 18.1976 8.21372 17.7321 7.61086ZM4.43441 16.3514C4.43441 16.5913 4.23928 16.7864 3.99941 16.7864H1.64647C1.4066 16.7864 1.21147 16.5913 1.21147 16.3514V7.69703C1.21147 7.45716 1.4066 7.262 1.64647 7.262H3.99941C4.23928 7.262 4.43441 7.45716 4.43441 7.69703V16.3514ZM17.0036 9.30287L15.5644 14.8052C15.328 15.709 14.8466 16.7864 13.896 16.7864H8.51336C8.43011 16.7864 8.34243 16.7869 8.2513 16.7874C7.51189 16.7913 6.13607 16.7989 5.73655 16.4016C5.68946 16.3548 5.64584 16.2932 5.64584 16.1612V8.11491L11.5941 1.31643C11.7577 1.12933 12.2483 1.203 12.6654 1.47733C12.807 1.57053 13.4989 2.0669 13.203 2.68721L11.2603 6.76166C11.2163 6.85399 11.1964 6.95596 11.2025 7.05806C11.2085 7.16017 11.2403 7.25908 11.2949 7.34558C11.3495 7.43208 11.4251 7.50335 11.5146 7.55275C11.6042 7.60215 11.7048 7.62806 11.8071 7.62809H15.3352C15.8614 7.62809 16.4392 7.91865 16.7731 8.35119C16.9366 8.56278 17.1091 8.8996 17.0036 9.30287Z" fill="white"/>
          </symbol>
        <symbol id="video-download" viewBox="0 0 19 18" fill="none">
            <path d="M18.2478 14.1429V16.7143C18.2478 17.4234 17.6712 18 16.9621 18H1.53352C0.824446 18 0.247803 17.4234 0.247803 16.7143V14.1429C0.247803 13.9724 0.315532 13.8088 0.436091 13.6883C0.55665 13.5677 0.720164 13.5 0.89066 13.5C1.06116 13.5 1.22467 13.5677 1.34523 13.6883C1.46579 13.8088 1.53352 13.9724 1.53352 14.1429V16.7143H16.9621V14.1429C16.9621 13.9724 17.0298 13.8088 17.1504 13.6883C17.2709 13.5677 17.4344 13.5 17.6049 13.5C17.7754 13.5 17.939 13.5677 18.0595 13.6883C18.1801 13.8088 18.2478 13.9724 18.2478 14.1429Z" fill="white"/>
            <path d="M4.29324 9.4545C4.1727 9.33396 4.10498 9.17047 4.10498 9C4.10498 8.82953 4.1727 8.66604 4.29324 8.5455C4.41378 8.42496 4.57727 8.35724 4.74774 8.35724C4.91821 8.35724 5.0817 8.42496 5.20224 8.5455L8.60488 11.9481V0.642857C8.60488 0.472361 8.67261 0.308848 8.79317 0.188288C8.91373 0.0677294 9.07724 0 9.24774 0C9.41824 0 9.58175 0.0677294 9.70231 0.188288C9.82287 0.308848 9.8906 0.472361 9.8906 0.642857V11.9481L13.2932 8.5455C13.3529 8.48581 13.4238 8.43847 13.5018 8.40617C13.5798 8.37387 13.6633 8.35724 13.7477 8.35724C13.8321 8.35724 13.9157 8.37387 13.9937 8.40617C14.0717 8.43847 14.1426 8.48581 14.2022 8.5455C14.2619 8.60519 14.3093 8.67604 14.3416 8.75403C14.3739 8.83201 14.3905 8.91559 14.3905 9C14.3905 9.08441 14.3739 9.16799 14.3416 9.24597C14.3093 9.32396 14.2619 9.39481 14.2022 9.4545L9.70224 13.9545C9.58158 14.0751 9.41799 14.1428 9.24742 14.1428C9.07685 14.1428 8.91326 14.0751 8.7926 13.9545L4.29324 9.4545Z" fill="white"/>
        </symbol>
        <symbol id="video-heart" viewBox="0 0 18 17" fill="none" xmlns="http://www.w3.org/2000/svg">
            <path d="M8.23555 16.5235L8.71613 16.9093C8.78166 16.9774 8.89091 17 8.97822 17H9.04374H9.06553C9.15285 17 9.2621 16.9546 9.32762 16.9093L9.61165 16.6822C12.539 14.2992 18 9.82777 18 5.10681C18 2.29235 15.7937 0 13.085 0C11.4029 0 9.89555 0.862524 8.97816 2.29235C8.08249 0.88518 6.53159 0 4.8932 0C2.18454 0 0 2.29235 0 5.10681C0 9.80507 5.15534 14.004 8.23544 16.5234L8.23555 16.5235ZM4.89332 0.907962C6.44437 0.907962 7.86419 1.83858 8.54138 3.29118C8.56316 3.33662 8.58511 3.4047 8.58511 3.4047C8.67242 3.58629 8.86914 3.69981 9.04392 3.65437C9.19691 3.63173 9.32795 3.54086 9.37153 3.38206C9.37153 3.38206 9.41526 3.29134 9.43705 3.2459C10.1142 1.7933 11.5123 0.885501 13.0633 0.885501C15.2915 0.885501 17.1046 2.76935 17.1046 5.08443C17.1046 9.37415 11.8618 13.6639 9.02204 15.9563L8.97831 15.9789L8.78159 15.8199C5.81072 13.3913 0.873826 9.35132 0.873826 5.107C0.873826 2.79187 2.66517 0.908063 4.89324 0.908063L4.89332 0.907962Z" fill="white" fill-opacity="0.6"/>
        </symbol>
        <symbol id="rating-star" viewBox="0 0 22 20" fill="none">
            <path d="M21.3052 8.10074L15.3482 12.4168L17.6419 19.4342C17.7786 19.8517 17.2736 20.1786 16.9472 19.8892L11.0232 15.5621L5.06844 19.9157C4.71997 20.1697 4.25903 19.8053 4.41561 19.4099L6.69829 12.4168L0.72584 8.08749C0.370761 7.83125 0.586894 7.27243 1.01697 7.31219L8.3502 7.32544L10.6152 0.296963C10.7498 -0.118296 11.3408 -0.0895805 11.4423 0.330101L13.6963 7.32544L21.0692 7.30998C21.4993 7.30777 21.6603 7.86881 21.3052 8.10074Z" fill="#FFCC00"/>
          </symbol>
        <!-- End info icons -->
        <!-- Features -->
        <symbol id="4k-display" viewBox="0 0 30 16">
            <path d="M26.9229 7.75012L30.0002 15.9561H23.8685L22.1817 9.98397H21.2471V15.9561H15.5713V0H21.2471V5.69862H22.1817L23.7089 0H29.7494L26.9229 7.75012Z" />
            <path d="M7.11187 15.956V13.745H0V9.8927L6.76996 0.273438H12.537V9.57358H14.087V13.745H12.537V15.956H7.11187ZM4.96919 9.57358H7.11187V6.63309L4.96919 9.57358Z"/>
        </symbol>
        <symbol id="hd-definition" viewBox="0 0 31 16">
            <path d="M23.4318 0C25.7694 0 27.5596 0.540022 28.8024 1.62007C30.0452 2.68531 30.6666 4.20182 30.6666 6.16957V9.38751C30.6666 11.3553 30.0452 12.8718 28.8024 13.937C27.5596 15.0023 25.7694 15.5349 23.4318 15.5349H16.5742V0H23.4318ZM25.074 9.29873V6.21395C25.074 5.62215 24.9483 5.20788 24.6967 4.97116C24.4452 4.71964 24.0236 4.59389 23.4318 4.59389H22.1002V10.8966H23.4318C24.0236 10.8966 24.4452 10.7782 24.6967 10.5415C24.9483 10.29 25.074 9.87574 25.074 9.29873Z" />
            <path d="M9.14411 0H14.6479V15.5349H9.14411V9.85355H6.19248V15.5349H0.666504V0H6.19248V5.39282H9.14411V0Z" />
        </symbol>
        <symbol id="responsive-for-devices" viewBox="0 0 26 25" >
            <g clip-path="url(#clip0_82_54334)">
            <path d="M17.0001 0H2.41693C1.2713 0 0.333496 0.93689 0.333496 2.08344V22.9166C0.333496 24.0622 1.2713 25 2.41693 25H12.8335V10.4166C12.8335 8.11847 14.7019 6.25 17.0001 6.25H19.0835V2.08344C19.0835 0.93689 18.1457 0 17.0001 0ZM9.7085 22.9166H7.62506C7.04944 22.9166 6.5835 22.4509 6.5835 21.875C6.5835 21.2991 7.04944 20.8334 7.62506 20.8334H9.7085C10.2844 20.8334 10.7501 21.2991 10.7501 21.875C10.7501 22.4509 10.2844 22.9166 9.7085 22.9166Z" />
            <path d="M23.2501 8.33203H17.0001C15.8548 8.33203 14.917 9.26984 14.917 10.4152V22.9152C14.917 24.0608 15.8548 24.9986 17.0001 24.9986H23.2501C24.3958 24.9986 25.3336 24.0608 25.3336 22.9152V10.4152C25.3336 9.26984 24.3958 8.33203 23.2501 8.33203ZM20.1251 22.9152C19.5495 22.9152 19.0836 22.4495 19.0836 21.8736C19.0836 21.2977 19.5495 20.832 20.1251 20.832C20.7011 20.832 21.167 21.2977 21.167 21.8736C21.167 22.4495 20.7011 22.9152 20.1251 22.9152Z" />
            </g>
            <defs>
            <clipPath id="clip0_82_54334">
            <rect width="25" height="25" fill="white" transform="translate(0.333496)"/>
            </clipPath>
            </defs>
        </symbol>
        <symbol id="50-mp-photos" viewBox="0 0 45 40" fill="none">
            <path d="M11.001 31.8768C9.62229 31.8743 8.27909 31.4396 7.16036 30.6338C6.04162 29.8281 5.20365 28.6919 4.76435 27.3851L4.70272 27.1826C4.50549 26.5654 4.40279 25.9219 4.39811 25.2739V13.269L0.126495 27.5277C-0.134941 28.5423 0.0122817 29.619 0.536496 30.5261C1.06071 31.4333 1.92003 32.0985 2.92963 32.3786L30.1563 39.6699C30.4961 39.758 30.836 39.8002 31.1705 39.8002C32.9242 39.8002 34.5265 38.6364 34.9755 36.9214L36.562 31.8768H11.001Z" fill="#FFCC00"/>
            <rect x="9.67559" y="1.7" width="33.5895" height="25.1965" rx="2.1" stroke="#FFCC00" stroke-width="2.6"/>
            <path d="M24.031 16.0132C25.0095 15.0441 25.5504 13.7551 25.5553 12.382C25.5565 12.0273 25.826 11.7213 26.1801 11.7015C26.5634 11.6802 26.8809 11.9846 26.8809 12.3633C26.8809 15.1994 29.1925 17.5067 32.0339 17.5067C36.2353 17.5427 38.7039 12.5756 36.133 9.25599C36.1267 9.24764 36.1211 9.23845 36.1151 9.2297C36.1077 9.21896 36.0999 9.2084 36.0932 9.1974C34.9434 7.31493 34.4645 5.20769 34.2656 3.83642C34.1967 3.36189 33.7885 3.01083 33.309 3.01043L19.1571 3C18.6778 2.99965 18.2701 3.34988 18.1995 3.82396C17.9958 5.38399 17.2885 7.88093 16.1168 9.51776C15.5555 10.3613 15.2588 11.3452 15.2588 12.3632C15.2588 13.7314 15.7863 15.0178 16.7444 15.9854C17.7024 16.9531 18.9833 17.4933 20.3512 17.5065C21.738 17.5178 23.0451 16.9895 24.031 16.0132ZM30.6352 12.3064C30.3763 12.0475 30.3763 11.6279 30.6352 11.369C30.894 11.1102 31.3137 11.1102 31.5725 11.369L32.3383 12.1348L33.1041 11.369C33.3629 11.1102 33.7826 11.1102 34.0415 11.369C34.3003 11.6278 34.3003 12.0475 34.0415 12.3064L33.2757 13.0722L34.0415 13.838C34.3003 14.0968 34.3003 14.5165 34.0415 14.7753C33.7826 15.0342 33.363 15.0342 33.1041 14.7753L32.3383 14.0095L31.5725 14.7753C31.3137 15.0342 30.894 15.0342 30.6352 14.7753C30.3763 14.5165 30.3763 14.0968 30.6352 13.838L31.401 13.0722L30.6352 12.3064ZM19.4384 14.7753C19.1796 15.0342 18.7599 15.0342 18.5011 14.7753C18.2422 14.5165 18.2422 14.0968 18.5011 13.838L19.2669 13.0722L18.5011 12.3064C18.2422 12.0475 18.2422 11.6279 18.5011 11.369C18.7599 11.1102 19.1796 11.1102 19.4384 11.369L20.2042 12.1348L20.97 11.369C21.2288 11.1102 21.6485 11.1102 21.9074 11.369C22.1662 11.6278 22.1662 12.0475 21.9074 12.3064L21.1416 13.0722L21.9074 13.838C22.1662 14.0968 22.1662 14.5165 21.9074 14.7753C21.6485 15.0342 21.2289 15.0342 20.97 14.7753L20.2042 14.0095L19.4384 14.7753Z" fill="#FFCC00"/>
            <path d="M32.0344 18.8316C29.4866 18.8316 27.2779 17.3552 26.2204 15.2144C25.1639 17.393 22.8331 18.8595 20.4035 18.8316C20.3819 18.8316 20.3605 18.8315 20.3389 18.8313C19.1055 18.8193 17.9281 18.4662 16.916 17.8183C17.3372 19.143 17.9407 21.5438 18.0448 24.6618C18.0622 25.1827 18.4905 25.5957 19.0117 25.5957H33.6274C34.1488 25.5957 34.5773 25.1825 34.5944 24.6614C34.6975 21.5197 35.298 19.0468 35.7143 17.6798C34.6689 18.4055 33.4006 18.8316 32.0344 18.8316Z" fill="#FFCC00"/>
          </symbol>
        <symbol id="fast-runtime" viewBox="0 0 26 19">
            <path d="M25.4527 8.60901L17.9535 0.276635C17.7935 0.0999883 17.5702 0 17.3336 0H12.3342C12.1732 0.000174419 12.0157 0.0468136 11.8806 0.134316C11.7455 0.221818 11.6386 0.346463 11.5726 0.493277C11.4393 0.794909 11.4943 1.14653 11.7142 1.38984L18.7118 9.16561L11.7142 16.9397C11.4943 17.1847 11.4376 17.5363 11.5726 17.8363C11.7076 18.1379 12.0059 18.3312 12.3342 18.3312H17.3336C17.5702 18.3312 17.7935 18.2296 17.9535 18.0563L25.4527 9.72388C25.7376 9.40725 25.7376 8.92397 25.4527 8.60901Z" />
            <path d="M14.6192 8.60901L7.12003 0.276635C6.96005 0.0999883 6.73674 0 6.50011 0H1.50068C1.33972 0.000174419 1.18223 0.0468136 1.04714 0.134316C0.912041 0.221818 0.805079 0.346463 0.739099 0.493277C0.605781 0.794909 0.660775 1.14653 0.88075 1.38984L7.87828 9.16561L0.88075 16.9397C0.660775 17.1847 0.604115 17.5363 0.739099 17.8363C0.874084 18.1379 1.17238 18.3312 1.50068 18.3312H6.50011C6.73674 18.3312 6.96005 18.2296 7.12003 18.0563L14.6192 9.72388C14.9041 9.40725 14.9041 8.92397 14.6192 8.60901Z"/>
        </symbol>
        <symbol id="support"  viewBox="0 0 26 25" >
            <path d="M23.9163 10.9552C23.0486 10.6716 22.373 10.018 22.0636 9.1619C21.7608 8.32523 21.8516 7.40717 22.3127 6.64327C22.8122 5.81633 22.7352 4.80299 22.1211 4.12159L22.0252 4.01659C21.401 3.33937 20.3938 3.15659 19.5771 3.57103C18.7627 3.98409 17.8235 3.99937 16.9994 3.61298C16.1752 3.22686 15.586 2.49464 15.3827 1.60463C15.1785 0.711571 14.3938 0.0549006 13.4743 0.00795587L13.3304 0.00156701C12.4085 -0.0342665 11.5724 0.547681 11.2885 1.41713C11.0049 2.28519 10.3515 2.96047 9.49542 3.2702C8.65847 3.57242 7.74041 3.48187 6.97652 3.02103C6.1504 2.52186 5.1365 2.59797 4.45595 3.21186L4.35011 3.30825C3.67316 3.93242 3.48983 4.9391 3.90455 5.75632C4.31733 6.5705 4.33289 7.50995 3.9465 8.3344C3.56011 9.15857 2.82816 9.74774 1.93815 9.95107C1.04481 10.1552 0.388143 10.94 0.341476 11.8597L0.335087 12.0036C0.298976 12.9216 0.880924 13.7614 1.75065 14.0453C2.61843 14.3289 3.29399 14.9825 3.60344 15.8386C3.90622 16.6753 3.81539 17.5933 3.35427 18.3572C2.8551 19.1842 2.93177 20.1975 3.54594 20.8789L3.64177 20.9839C4.26594 21.6609 5.27289 21.8436 6.08984 21.4295C6.90346 21.0164 7.84291 21.0011 8.66764 21.3875C9.49181 21.7736 10.081 22.5059 10.2843 23.3959C10.4885 24.2892 11.2732 24.9456 12.1927 24.9923L12.3365 24.9987C12.3638 24.9995 12.3904 25.0001 12.4171 25.0001C13.3032 25.0001 14.1027 24.427 14.3782 23.5828C14.6618 22.715 15.3152 22.0398 16.1713 21.7298C17.008 21.427 17.926 21.5178 18.6902 21.9792C19.5174 22.4781 20.5308 22.4017 21.2116 21.7875L21.3166 21.6917C21.9936 21.0675 22.1769 20.0609 21.7622 19.2436C21.3494 18.4297 21.3338 17.49 21.7202 16.6658C22.1066 15.8417 22.8388 15.2525 23.7286 15.0492C24.6219 14.8453 25.2786 14.0605 25.3252 13.1405L25.3319 12.9966C25.368 12.0789 24.7861 11.2391 23.9163 10.9552ZM12.8335 6.47744C14.4841 6.47744 15.8271 7.82023 15.8271 9.47079C15.8271 11.1214 14.4843 12.4644 12.8335 12.4644C11.1829 12.4644 9.84014 11.1216 9.84014 9.47079C9.84014 7.8205 11.1829 6.47744 12.8335 6.47744ZM17.8252 18.027V18.0397C17.8252 18.3064 17.6091 18.5228 17.3421 18.5228H16.8594H8.80736H8.32458C8.05791 18.5228 7.84152 18.3067 7.84152 18.0397V18.027V17.2908C7.84152 15.2572 9.46153 13.5989 11.4785 13.5289C11.5227 13.5272 11.5657 13.5222 11.6102 13.5222H14.056C14.1004 13.5222 14.1435 13.5272 14.1877 13.5289C16.2046 13.5992 17.8249 15.2572 17.8249 17.2911L17.8252 18.027Z" />
        </symbol>
        <!-- End Features -->
    
        <!-- Get access icons -->
        <symbol id="19-series" viewBox="0 0 24 18" fill="none">
            <path d="M16.1011 0.673828C17.5884 0.673828 18.8688 0.980494 19.9421 1.59383C21.0154 2.20716 21.8434 3.10416 22.4261 4.28483C23.0088 5.45016 23.3001 6.90683 23.3001 8.65483C23.3001 10.5102 22.9474 12.0818 22.2421 13.3698C21.5521 14.6578 20.5938 15.6392 19.3671 16.3138C18.1404 16.9885 16.7144 17.3258 15.0891 17.3258C14.2458 17.3258 13.4331 17.2338 12.6511 17.0498C11.8691 16.8658 11.1944 16.5898 10.6271 16.2218L12.0071 13.4848C12.4518 13.7915 12.9271 14.0062 13.4331 14.1288C13.9391 14.2362 14.4681 14.2898 15.0201 14.2898C16.4001 14.2898 17.4964 13.8682 18.3091 13.0248C19.1371 12.1815 19.5511 10.9318 19.5511 9.27583C19.5511 8.99983 19.5434 8.69316 19.5281 8.35583C19.5128 8.0185 19.4744 7.68116 19.4131 7.34383L20.4251 8.30983C20.1644 8.90783 19.7964 9.41383 19.3211 9.82783C18.8458 10.2265 18.2938 10.5332 17.6651 10.7478C17.0364 10.9472 16.3311 11.0468 15.5491 11.0468C14.5218 11.0468 13.5864 10.8398 12.7431 10.4258C11.9151 10.0118 11.2481 9.42916 10.7421 8.67783C10.2514 7.92649 10.0061 7.04483 10.0061 6.03283C10.0061 4.92883 10.2744 3.97816 10.8111 3.18083C11.3631 2.38349 12.0991 1.77016 13.0191 1.34083C13.9544 0.896162 14.9818 0.673828 16.1011 0.673828ZM16.3311 3.45683C15.7944 3.45683 15.3268 3.55649 14.9281 3.75583C14.5294 3.93983 14.2151 4.21583 13.9851 4.58383C13.7551 4.93649 13.6401 5.35816 13.6401 5.84883C13.6401 6.58483 13.8854 7.17516 14.3761 7.61983C14.8821 8.04916 15.5491 8.26383 16.3771 8.26383C16.9138 8.26383 17.3891 8.16416 17.8031 7.96483C18.2324 7.75016 18.5621 7.45883 18.7921 7.09083C19.0221 6.72283 19.1371 6.30883 19.1371 5.84883C19.1371 5.38883 19.0221 4.9825 18.7921 4.62983C18.5774 4.26183 18.2631 3.97816 17.8491 3.77883C17.4351 3.56416 16.9291 3.45683 16.3311 3.45683Z" fill="#FFCC00"/>
            <path d="M3.9202 17.0492V2.32922L5.5302 3.93922H0.700195V0.949219H7.6462V17.0492H3.9202Z" fill="#FFCC00"/>
        </symbol>
        <symbol id="unlim-downloads" viewBox="0 0 24 22" fill="none">
            <path d="M21.1336 12.9129C19.8955 14.1596 18.2589 14.9318 16.5095 15.0947C16.2728 15.0947 16.0321 15.1263 15.7875 15.1263H15.7165C14.3581 15.1188 13.0277 14.7395 11.8696 14.0294C11.5155 13.8183 11.1814 13.5753 10.8714 13.3035C10.7268 13.1825 10.5847 13.0509 10.4453 12.9089C10.1316 12.5956 9.84643 12.2549 9.59312 11.891C9.23774 11.6963 8.84505 11.5793 8.44104 11.5477H8.18064C7.60536 11.5472 7.04283 11.7173 6.56424 12.0365C6.08565 12.3557 5.71251 12.8097 5.49202 13.3411C5.27154 13.8724 5.21362 14.4573 5.3256 15.0215C5.43759 15.5858 5.71444 16.1042 6.12112 16.5111C6.52604 16.921 7.04347 17.2015 7.6079 17.3172C8.17234 17.4329 8.7584 17.3785 9.29192 17.161C9.82544 16.9434 10.2824 16.5725 10.605 16.0951C10.9276 15.6177 11.1014 15.0554 11.1042 14.4792C12.434 15.3833 13.9982 15.881 15.606 15.9114C15.334 17.2855 14.6854 18.5569 13.7327 19.5837C12.7799 20.6105 11.5605 21.3522 10.2105 21.726C8.86058 22.0998 7.43331 22.091 6.08809 21.7005C4.74288 21.3101 3.53269 20.5533 2.59268 19.5149C1.65267 18.4764 1.01985 17.197 0.764887 15.8197C0.509929 14.4424 0.642872 13.0213 1.14887 11.7151C1.65487 10.409 2.514 9.26919 3.63031 8.42308C4.74662 7.57697 6.07617 7.05784 7.47046 6.92366C7.71113 6.89999 7.95181 6.88815 8.19642 6.88815H8.26744C9.63838 6.89615 10.9805 7.28253 12.1458 8.00471C12.5114 8.22382 12.8561 8.47608 13.1756 8.75829C13.3018 8.86482 13.4281 8.98318 13.5465 9.10155C13.8359 9.39705 14.0999 9.71645 14.3356 10.0563C14.6952 10.2755 15.0999 10.4104 15.5192 10.4509C15.9188 10.49 16.3221 10.445 16.7033 10.3188C17.0844 10.1927 17.4349 9.98807 17.7322 9.71826C18.0295 9.44845 18.2671 9.11938 18.4295 8.75223C18.592 8.38508 18.6758 7.98798 18.6756 7.58649C18.648 6.84159 18.3327 6.13639 17.7959 5.61914C17.2591 5.1019 16.5428 4.8129 15.7973 4.8129C15.0519 4.8129 14.3355 5.1019 13.7988 5.61914C13.262 6.13639 12.9467 6.84159 12.9191 7.58649C11.5853 6.66344 10.0077 6.15678 8.38581 6.13062C8.60888 4.96904 9.10154 3.87606 9.82415 2.93965C10.5468 2.00324 11.4791 1.24956 12.5462 0.739285C13.6133 0.229005 14.7852 -0.0236224 15.9678 0.001737C17.1503 0.0270964 18.3104 0.329734 19.3546 0.885291C20.3988 1.44085 21.298 2.2338 21.9798 3.20033C22.6616 4.16686 23.1069 5.27995 23.28 6.45003C23.4531 7.6201 23.349 8.81446 22.9762 9.93698C22.6034 11.0595 21.9722 12.0788 21.1336 12.9129Z" fill="#FFCB1E"/>
        </symbol>
        <symbol id="premium-membership" viewBox="0 0 24 24" fill="none">
            <path d="M14.5513 18.6001H13.4737L13.1413 17.5754C12.9805 17.081 12.5197 16.7461 12 16.7461C11.4805 16.7461 11.0197 17.081 10.8588 17.5754L10.5255 18.6001H9.44908C8.92954 18.6001 8.46875 18.935 8.30783 19.4282C8.14711 19.9226 8.32349 20.4639 8.74336 20.7698L9.61585 21.4034L9.28216 22.4282C9.12145 22.9214 9.29783 23.4638 9.7177 23.7685C10.139 24.0757 10.7077 24.0757 11.1278 23.7697L12.0003 23.1375L12.8727 23.7711C13.0827 23.9236 13.33 23.9991 13.5771 23.9991C13.8254 23.9991 14.0727 23.9236 14.2826 23.7699C14.7039 23.4651 14.8791 22.9227 14.7181 22.4296L14.3845 21.4048L15.2569 20.7712C15.6782 20.4652 15.8534 19.924 15.6925 19.4296C15.532 18.935 15.0723 18.6001 14.5514 18.6001L14.5513 18.6001Z" fill="#FFCC00"/>
            <path d="M6.30368 18.6001H5.22609L4.89362 17.5754C4.73291 17.081 4.27205 16.7461 3.75237 16.7461C3.23284 16.7461 2.77204 17.081 2.61112 17.5754L2.27763 18.6001H1.20005C0.680521 18.6001 0.219722 18.935 0.0588019 19.4282C-0.101912 19.9226 0.0744716 20.4639 0.49434 20.7698L1.36683 21.4034L1.03314 22.4282C0.872427 22.9214 1.04881 23.4638 1.46868 23.7685C1.88995 24.0757 2.45868 24.0757 2.87875 23.7697L3.75123 23.1361L4.62372 23.7697C4.83486 23.9246 5.08216 24.0001 5.32927 24.0001C5.57757 24.0001 5.82487 23.9246 6.03481 23.7709C6.45609 23.4662 6.63128 22.9237 6.47035 22.4306L6.13667 21.4058L7.00915 20.7722C7.43043 20.4663 7.60562 19.925 7.44469 19.4307C7.28418 18.9351 6.82333 18.6002 6.3038 18.6002L6.30368 18.6001Z" fill="#FFCC00"/>
            <path d="M23.941 19.4282C23.7801 18.9351 23.3193 18.6001 22.7998 18.6001H21.7222L21.3897 17.5754C21.229 17.081 20.7681 16.7461 20.2485 16.7461C19.7289 16.7461 19.2681 17.081 19.1072 17.5754L18.7737 18.6001H17.6961C17.1766 18.6001 16.7158 18.935 16.5549 19.4282C16.3942 19.9226 16.5706 20.4639 16.9904 20.7698L17.8629 21.4034L17.5292 22.4282C17.3685 22.9214 17.5449 23.4638 17.9648 23.7685C18.386 24.0757 18.9548 24.0757 19.3748 23.7697L20.2473 23.1361L21.1198 23.7697C21.3297 23.9222 21.577 23.9977 21.8241 23.9977C22.0724 23.9977 22.3197 23.9222 22.5297 23.7685C22.9509 23.4638 23.1261 22.9213 22.9652 22.4282L22.6315 21.4034L23.504 20.7698C23.9255 20.4651 24.1019 19.9239 23.9412 19.4282L23.941 19.4282Z" fill="#FFCC00"/>
            <path d="M17.9997 8.40018V11.0174L13.9606 11.825C13.5248 11.2071 12.8109 10.8003 11.9997 10.8003C10.676 10.8003 9.5996 11.8766 9.5996 13.2003C9.5996 14.524 10.676 15.6004 11.9997 15.6004C12.9525 15.6004 13.7697 15.0377 14.1572 14.2323L19.4348 13.1762C19.9963 13.0645 20.3995 12.5725 20.3995 12.0002C21.0619 12.0002 21.5995 11.4638 21.5995 10.8003L21.5997 8.40018C21.5997 7.73665 21.0621 7.20025 20.3997 7.20025C20.3674 7.20025 20.3385 7.21713 20.3061 7.21954C19.7287 3.14666 16.2296 0 11.9994 0C7.76919 0 4.27019 3.1464 3.69317 7.21902C3.66062 7.21661 3.63189 7.19994 3.59955 7.19994C2.937 7.19994 2.39941 7.73634 2.39941 8.39987V10.7999C2.39941 11.4635 2.937 11.9999 3.59934 11.9999C3.59934 12.6634 4.13693 13.1998 4.79928 13.1998C5.46162 13.1998 5.99921 12.6634 5.99921 11.9999L5.99941 8.39987C5.99941 5.09158 8.69097 2.3997 11.9996 2.3997C15.3079 2.3997 17.9997 5.09147 17.9997 8.39987L17.9997 8.40018Z" fill="#FFCC00"/>
        </symbol>
        <symbol id="special-offer" viewBox="0 0 26 24" fill="none">
            <path d="M25.75 12C25.75 10.7831 23.2268 9.96312 22.851 8.85213C22.4753 7.71477 24.0321 5.57199 23.3073 4.61966C22.5825 3.64097 20.0593 4.46097 19.0663 3.74673C18.0999 3.05902 18.0732 0.413781 16.9188 0.0434957C15.7915 -0.326828 14.2346 1.7894 12.973 1.7894C11.7382 1.7894 10.1546 -0.326837 9.02723 0.0434957C7.87312 0.413819 7.84613 3.03266 6.87981 3.74673C5.8867 4.46099 3.36353 3.641 2.63874 4.61966C1.94089 5.57194 3.4708 7.71458 3.09503 8.85213C2.77318 9.96312 0.25 10.7831 0.25 12C0.25 13.2169 2.77322 14.0369 3.14896 15.1479C3.52474 16.2852 1.96785 18.428 2.69266 19.3803C3.41745 20.359 5.94067 19.539 6.93373 20.2533C7.90005 20.941 7.92685 23.5862 9.08116 23.9565C10.2085 24.3268 11.7654 22.2106 13.027 22.2106C14.2618 22.2106 15.8454 24.3268 16.9728 23.9565C18.1269 23.5862 18.1539 20.9673 19.1202 20.2533C20.1133 19.539 22.6365 20.359 23.3613 19.3803C24.0591 18.4281 22.5292 16.2854 22.905 15.1479C23.2268 14.0369 25.75 13.2169 25.75 12ZM9.69836 6.97406C10.6915 6.97406 11.4968 7.76767 11.4968 8.74636C11.4968 9.72505 10.6915 10.5187 9.69836 10.5187C8.70525 10.5187 7.89993 9.72505 7.89993 8.74636C7.89993 7.76748 8.70506 6.97406 9.69836 6.97406ZM16.3015 17.0259C15.3084 17.0259 14.5031 16.2323 14.5031 15.2536C14.5031 14.2749 15.3084 13.4813 16.3015 13.4813C17.2947 13.4813 18.1 14.2749 18.1 15.2536C18.1 16.2325 17.2948 17.0259 16.3015 17.0259ZM17.8047 8.93153L9.88621 16.735C9.64467 16.973 9.34941 17.0789 9.02716 17.0789C8.73189 17.0789 8.40984 16.9732 8.16812 16.735C7.71182 16.2853 7.71182 15.5181 8.16812 15.0684L16.0866 7.26498C16.5429 6.81532 17.3214 6.81532 17.7777 7.26498C18.2611 7.74122 18.2611 8.48189 17.8046 8.93153H17.8047Z" fill="#FFCC00"/>
        </symbol>
        <symbol id="early-access" viewBox="0 0 24 22" fill="none">
            <path fill-rule="evenodd" clip-rule="evenodd" d="M1.50103 9.30244C1.42531 9.30382 1.35018 9.2889 1.28074 9.25869C1.21129 9.22848 1.14916 9.18368 1.09856 9.12734C1.04795 9.071 1.01006 9.00443 0.987455 8.93215C0.964847 8.85987 0.958052 8.78357 0.967531 8.70844C1.27733 6.50918 2.29437 4.47045 3.86504 2.90019C5.4357 1.32992 7.47468 0.313398 9.67402 0.00414999C9.74906 -0.00531452 9.82526 0.00145432 9.89746 0.0239981C9.96966 0.0465419 10.0362 0.0843345 10.0925 0.134817C10.1488 0.1853 10.1936 0.247295 10.2239 0.316605C10.2542 0.385915 10.2692 0.460922 10.268 0.536549V1.27135C10.268 1.49103 10.3553 1.70171 10.5106 1.85704C10.666 2.01238 10.8766 2.09965 11.0963 2.09965C11.316 2.09965 11.5267 2.01238 11.682 1.85704C11.8373 1.70171 11.9246 1.49103 11.9246 1.27135V0.536549C11.9234 0.460922 11.9384 0.385915 11.9687 0.316605C11.999 0.247295 12.0438 0.1853 12.1001 0.134817C12.1565 0.0843345 12.223 0.0465419 12.2952 0.0239981C12.3674 0.00145432 12.4436 -0.00531452 12.5186 0.00414999C17.4917 0.697149 21.3186 4.96734 21.3186 10.1307V10.2803C21.3131 10.6818 20.8731 10.9106 20.5024 10.7555C19.2737 10.2396 17.9191 10.1012 16.6114 10.358C15.3037 10.6148 14.1021 11.2552 13.1598 12.1975C12.2175 13.1399 11.5771 14.3415 11.3202 15.6492C11.0634 16.9568 11.2018 18.3114 11.7178 19.5401C11.874 19.9097 11.6452 20.3497 11.2448 20.3541C11.1942 20.3563 11.1447 20.3563 11.0941 20.3563C5.92963 20.3563 1.65833 16.5261 0.967531 11.5519C0.958067 11.4769 0.964835 11.4007 0.987379 11.3285C1.00992 11.2563 1.04772 11.1898 1.0982 11.1335C1.14868 11.0771 1.21068 11.0323 1.27999 11.002C1.3493 10.9717 1.4243 10.9567 1.49993 10.9579H2.23803C2.45785 10.9579 2.66868 10.8706 2.82411 10.7152C2.97955 10.5597 3.06688 10.3489 3.06688 10.1291C3.06688 9.90926 2.97955 9.69844 2.82411 9.543C2.66868 9.38756 2.45785 9.30024 2.23803 9.30024L1.50103 9.30244ZM11.9235 6.01784C11.9235 5.79816 11.8363 5.58748 11.6809 5.43215C11.5256 5.27681 11.3149 5.18954 11.0952 5.18954C10.8755 5.18954 10.6649 5.27681 10.5095 5.43215C10.3542 5.58748 10.2669 5.79816 10.2669 6.01784V9.81394C10.2669 9.96684 10.2042 10.112 10.0931 10.2165L7.99432 12.1877C7.91502 12.2622 7.85116 12.3516 7.80638 12.4507C7.76161 12.5499 7.73681 12.6568 7.73339 12.7656C7.72996 12.8743 7.74799 12.9827 7.78644 13.0844C7.82489 13.1862 7.88301 13.2794 7.95747 13.3587C8.03194 13.438 8.1213 13.5019 8.22044 13.5466C8.31959 13.5914 8.42658 13.6162 8.53532 13.6196C8.64405 13.623 8.75239 13.605 8.85415 13.5666C8.95592 13.5281 9.04912 13.47 9.12842 13.3955L11.4879 11.179C11.7662 10.9183 11.9235 10.5531 11.9235 10.1725V6.01784Z" fill="#FFCB1E"/>
            <path fill-rule="evenodd" clip-rule="evenodd" d="M17.9088 21.9988C18.5786 22.0087 19.2437 21.8853 19.8654 21.6358C20.4871 21.3863 21.053 21.0157 21.5302 20.5455C22.0073 20.0753 22.3862 19.515 22.6449 18.897C22.9035 18.2791 23.0367 17.6159 23.0367 16.946C23.0367 16.2761 22.9035 15.6129 22.6449 14.9949C22.3862 14.377 22.0073 13.8166 21.5302 13.3464C21.053 12.8762 20.4871 12.5056 19.8654 12.2561C19.2437 12.0066 18.5786 11.8832 17.9088 11.8931C16.5816 11.9127 15.3154 12.4537 14.3838 13.3991C13.4522 14.3446 12.9299 15.6186 12.9299 16.946C12.9299 18.2733 13.4522 19.5473 14.3838 20.4928C15.3154 21.4383 16.5816 21.9792 17.9088 21.9988ZM20.595 16.2535C20.7338 16.0839 20.7997 15.8662 20.7784 15.6481C20.757 15.43 20.65 15.2292 20.4809 15.0898C20.3118 14.9503 20.0943 14.8836 19.8761 14.9042C19.6579 14.9248 19.4568 15.0311 19.3168 15.1997L18.0232 16.7672C17.9757 16.825 17.9169 16.8726 17.8505 16.9069C17.7841 16.9413 17.7113 16.9618 17.6367 16.9672C17.5621 16.9725 17.4872 16.9626 17.4165 16.9381C17.3458 16.9135 17.2809 16.8749 17.2257 16.8244L16.7879 16.4251C16.6247 16.2831 16.4125 16.2106 16.1966 16.223C15.9806 16.2354 15.7781 16.3318 15.6323 16.4915C15.4865 16.6513 15.409 16.8617 15.4163 17.0779C15.4236 17.294 15.5151 17.4988 15.6714 17.6483L16.8044 18.6823C17.3346 19.1663 18.2157 19.1388 18.6942 18.558L20.595 16.2535Z" fill="#FFCB1E"/>
        </symbol>
        <!-- End Get access icons -->
    
        <!-- Hamburger -->
        <symbol id="hamburger" viewBox="0 0 24 20" fill="none">
            <path fill-rule="evenodd" clip-rule="evenodd" d="M10 18.3333C10 17.8913 10.1756 17.4674 10.4882 17.1548C10.8007 16.8423 11.2246 16.6667 11.6667 16.6667H21.6667C22.1087 16.6667 22.5326 16.8423 22.8452 17.1548C23.1577 17.4674 23.3333 17.8913 23.3333 18.3333C23.3333 18.7754 23.1577 19.1993 22.8452 19.5118C22.5326 19.8244 22.1087 20 21.6667 20H11.6667C11.2246 20 10.8007 19.8244 10.4882 19.5118C10.1756 19.1993 10 18.7754 10 18.3333ZM0 1.66667C0 1.22464 0.175595 0.800716 0.488155 0.488156C0.800716 0.175595 1.22464 0 1.66667 0H21.6667C22.1087 0 22.5326 0.175595 22.8452 0.488156C23.1577 0.800716 23.3333 1.22464 23.3333 1.66667C23.3333 2.10869 23.1577 2.53262 22.8452 2.84518C22.5326 3.15774 22.1087 3.33333 21.6667 3.33333H1.66667C1.22464 3.33333 0.800716 3.15774 0.488155 2.84518C0.175595 2.53262 0 2.10869 0 1.66667ZM0 10C0 9.55797 0.175595 9.13405 0.488155 8.82149C0.800716 8.50893 1.22464 8.33333 1.66667 8.33333H21.6667C22.1087 8.33333 22.5326 8.50893 22.8452 8.82149C23.1577 9.13405 23.3333 9.55797 23.3333 10C23.3333 10.442 23.1577 10.8659 22.8452 11.1785C22.5326 11.4911 22.1087 11.6667 21.6667 11.6667H1.66667C1.22464 11.6667 0.800716 11.4911 0.488155 11.1785C0.175595 10.8659 0 10.442 0 10Z" fill="white"/>
          </symbol>
        <!-- End hamburger -->
    
        <!-- Download icons -->
        <symbol id="download-4k" viewBox="0 0 25 13" fill="none">
            <path d="M21.6564 6.18641L24.0864 12.6664H19.2444L17.9124 7.95041H17.1744V12.6664H12.6924V0.0664062H17.1744V4.56641H17.9124L19.1184 0.0664062H23.8884L21.6564 6.18641Z" fill="#FFCB1E"/>
            <path d="M6.01249 12.6672V10.9212H0.396484V7.8792L5.74248 0.283203H10.2965V7.6272H11.5205V10.9212H10.2965V12.6672H6.01249ZM4.32048 7.6272H6.01249V5.3052L4.32048 7.6272Z" fill="#FFCB1E"/>
            </symbol>
        <symbol id="download-hd-sm" viewBox="0 0 34 20" fill="none">
            <path d="M23.5718 0.0664062C25.4678 0.0664062 26.9198 0.504407 27.9278 1.38041C28.9358 2.24441 29.4398 3.47441 29.4398 5.07041V7.68041C29.4398 9.27641 28.9358 10.5064 27.9278 11.3704C26.9198 12.2344 25.4678 12.6664 23.5718 12.6664H18.0098V0.0664062H23.5718ZM24.9038 7.60841V5.10641C24.9038 4.62641 24.8018 4.29041 24.5978 4.09841C24.3938 3.89441 24.0518 3.79241 23.5718 3.79241H22.4918V8.90441H23.5718C24.0518 8.90441 24.3938 8.80841 24.5978 8.61641C24.8018 8.41241 24.9038 8.07641 24.9038 7.60841Z" fill="#FFCB1E"/>
            <path d="M11.9834 0.0664062H16.4474V12.6664H11.9834V8.05841H9.58942V12.6664H5.10742V0.0664062H9.58942V4.44041H11.9834V0.0664062Z" fill="#FFCB1E"/>
            <path d="M31.5146 19.3331V16.0664H31.804L33.4466 18.6704H33.484C33.4684 18.5522 33.4606 18.4153 33.4606 18.2597V16.0664H33.7686V19.3331H33.484L31.832 16.7104H31.7946C31.8133 16.8286 31.8226 16.9655 31.8226 17.1211V19.3331H31.5146Z" fill="#FFCB1E"/>
            <path d="M29.6567 19.3795C29.2833 19.3795 29.0018 19.2784 28.812 19.0762C28.6222 18.8709 28.5273 18.5691 28.5273 18.1709V17.2095C28.5273 16.9482 28.5693 16.7289 28.6533 16.5515C28.7405 16.3742 28.8665 16.242 29.0313 16.1549C29.1993 16.0646 29.4078 16.0195 29.6567 16.0195C30.0269 16.0195 30.3069 16.1206 30.4967 16.3229C30.6896 16.522 30.786 16.8175 30.786 17.2095V18.1709C30.786 18.4353 30.7425 18.6578 30.6553 18.8382C30.5713 19.0186 30.4453 19.154 30.2773 19.2442C30.1093 19.3344 29.9025 19.3795 29.6567 19.3795ZM29.6567 19.0809C29.8371 19.0809 29.9865 19.0482 30.1047 18.9829C30.226 18.9144 30.3162 18.8118 30.3753 18.6749C30.4345 18.538 30.464 18.3653 30.464 18.1569V17.2235C30.464 17.0182 30.4345 16.8486 30.3753 16.7149C30.3162 16.5811 30.226 16.4815 30.1047 16.4162C29.9865 16.3509 29.8371 16.3182 29.6567 16.3182C29.1185 16.3182 28.8493 16.62 28.8493 17.2235V18.1569C28.8493 18.7729 29.1185 19.0809 29.6567 19.0809Z" fill="#FFCB1E"/>
            <path d="M27.4727 19.3331V16.0664H27.7993V19.3331H27.4727Z" fill="#FFCB1E"/>
            <path d="M26.9989 16.0664V16.3651H26.0469V19.3331H25.7342V16.3651H24.7822V16.0664H26.9989Z" fill="#FFCB1E"/>
            <path d="M23.9814 19.3331V16.0664H24.3081V19.3331H23.9814Z" fill="#FFCB1E"/>
            <path d="M20.9053 19.3331V16.0664H21.1946L22.8373 18.6704H22.8746C22.8591 18.5522 22.8513 18.4153 22.8513 18.2597V16.0664H23.1593V19.3331H22.8746L21.2226 16.7104H21.1853C21.2039 16.8286 21.2133 16.9655 21.2133 17.1211V19.3331H20.9053Z" fill="#FFCB1E"/>
            <path d="M19.7568 19.3331V16.0664H20.0835V19.3331H19.7568Z" fill="#FFCB1E"/>
            <path d="M19.2693 16.3511H17.664V17.6297H19.1013V17.9097H17.664V19.3331H17.3467V16.0664H19.2693V16.3511Z" fill="#FFCB1E"/>
            <path d="M15.1796 19.0437H16.8036V19.3331H14.8623V16.0664H16.743V16.3511H15.1796V17.5271H16.5703V17.8071H15.1796V19.0437Z" fill="#FFCB1E"/>
            <path d="M13.0062 16.0664C13.3826 16.0664 13.6657 16.1675 13.8555 16.3697C14.0453 16.5689 14.1402 16.8644 14.1402 17.2564V18.1197C14.1402 18.9286 13.7622 19.3331 13.0062 19.3331H11.8955V16.0664H13.0062ZM13.8228 18.1197V17.2611C13.8228 16.9562 13.756 16.7306 13.6222 16.5844C13.4884 16.4351 13.2831 16.3604 13.0062 16.3604H12.2128V19.0391H13.0062C13.2831 19.0391 13.4884 18.9644 13.6222 18.8151C13.756 18.6626 13.8228 18.4309 13.8228 18.1197Z" fill="#FFCB1E"/>
            <path d="M9.72171 16.0664H10.039V19.3331H9.72171V17.8117H8.12104V19.3331H7.80371V16.0664H8.12104V17.5271H9.72171V16.0664Z" fill="#FFCB1E"/>
            <path d="M5.93542 19.3795C5.58698 19.3795 5.31942 19.2769 5.13276 19.0715C4.9492 18.8631 4.85742 18.5629 4.85742 18.1709V17.2515C4.85742 16.4302 5.26342 16.0195 6.07542 16.0195C6.22476 16.0195 6.37098 16.0351 6.51409 16.0662C6.6572 16.0973 6.76453 16.1284 6.83609 16.1595L6.93876 16.2062L6.86409 16.5095C6.85787 16.5064 6.85009 16.5033 6.84076 16.5002C6.83453 16.494 6.81742 16.4846 6.78942 16.4722C6.76142 16.4598 6.73187 16.4473 6.70076 16.4349C6.67276 16.4224 6.63542 16.41 6.58876 16.3975C6.54209 16.382 6.49387 16.3695 6.44409 16.3602C6.39742 16.3478 6.34298 16.3384 6.28076 16.3322C6.22164 16.3229 6.16098 16.3182 6.09876 16.3182C5.78764 16.3182 5.55587 16.396 5.40342 16.5515C5.25409 16.7071 5.17942 16.9466 5.17942 17.2702V18.1475C5.17942 18.7666 5.44387 19.0762 5.97276 19.0762C6.23098 19.0762 6.42698 19.0015 6.56076 18.8522C6.69764 18.6998 6.76609 18.4789 6.76609 18.1895V17.8162H5.91209V17.5269H7.08342V19.3329H6.90142L6.82676 18.8989H6.79876C6.65564 19.2193 6.36787 19.3795 5.93542 19.3795Z" fill="#FFCB1E"/>
            <path d="M3.80176 19.3331V16.0664H4.12842V19.3331H3.80176Z" fill="#FFCB1E"/>
            <path d="M2.66214 16.0664H2.97947V19.3331H2.66214V17.8117H1.06147V19.3331H0.744141V16.0664H1.06147V17.5271H2.66214V16.0664Z" fill="#FFCB1E"/>
        </symbol>
        <symbol id="download-hd" viewBox="0 0 25 13" fill="none">
            <path d="M18.5718 0.398438C20.4678 0.398438 21.9198 0.836438 22.9278 1.71244C23.9358 2.57644 24.4398 3.80644 24.4398 5.40244V8.01244C24.4398 9.60844 23.9358 10.8384 22.9278 11.7024C21.9198 12.5664 20.4678 12.9984 18.5718 12.9984H13.0098V0.398438H18.5718ZM19.9038 7.94044V5.43844C19.9038 4.95844 19.8018 4.62244 19.5978 4.43044C19.3938 4.22644 19.0518 4.12444 18.5718 4.12444H17.4918V9.23644H18.5718C19.0518 9.23644 19.3938 9.14044 19.5978 8.94844C19.8018 8.74444 19.9038 8.40844 19.9038 7.94044Z" fill="#FFCB1E"/>
            <path d="M6.98342 0.398438H11.4474V12.9984H6.98342V8.39044H4.58942V12.9984H0.107422V0.398438H4.58942V4.77244H6.98342V0.398438Z" fill="#FFCB1E"/>
        </symbol>
        <symbol id="download-sd" viewBox="0 0 24 14" fill="none">
            <path d="M17.5337 0.398438C19.4297 0.398438 20.8817 0.836438 21.8897 1.71244C22.8977 2.57644 23.4017 3.80644 23.4017 5.40244V8.01244C23.4017 9.60844 22.8977 10.8384 21.8897 11.7024C20.8817 12.5664 19.4297 12.9984 17.5337 12.9984H11.9717V0.398438H17.5337ZM18.8657 7.94044V5.43844C18.8657 4.95844 18.7637 4.62244 18.5597 4.43044C18.3557 4.22644 18.0137 4.12444 17.5337 4.12444H16.4537V9.23644H17.5337C18.0137 9.23644 18.3557 9.14044 18.5597 8.94844C18.7637 8.74444 18.8657 8.40844 18.8657 7.94044Z" fill="#FFCB1E"/>
            <path d="M5.16648 13.1788C4.30248 13.1788 3.46848 13.1368 2.66448 13.0527C1.87248 12.9688 1.29648 12.8848 0.936484 12.8008L0.396484 12.6748L0.846484 8.96675C0.990484 9.01475 1.18248 9.07475 1.42248 9.14675C1.67448 9.20675 2.14848 9.29075 2.84448 9.39875C3.55248 9.50675 4.23048 9.56075 4.87849 9.56075C5.51448 9.56075 5.94048 9.52475 6.15648 9.45275C6.38449 9.36875 6.49849 9.21875 6.49849 9.00275C6.49849 8.82275 6.39648 8.69075 6.19248 8.60675C5.98848 8.51075 5.59848 8.41475 5.02248 8.31875L4.17648 8.15675C2.88048 7.94075 1.95048 7.55675 1.38648 7.00475C0.822484 6.44075 0.540484 5.58875 0.540484 4.44875C0.540484 1.62875 2.43648 0.21875 6.22848 0.21875C6.92448 0.21875 7.61448 0.26075 8.29848 0.344751C8.98248 0.416751 9.49249 0.48875 9.82849 0.56075L10.3145 0.66875L9.79249 4.35875C9.69648 4.31075 9.55249 4.25675 9.36049 4.19675C9.16848 4.12475 8.78448 4.03475 8.20849 3.92675C7.63249 3.81875 7.05648 3.76475 6.48048 3.76475C5.89248 3.76475 5.49648 3.80075 5.29248 3.87275C5.08848 3.94475 4.98648 4.07075 4.98648 4.25075C4.98648 4.31075 5.00448 4.37075 5.04048 4.43075C5.07648 4.47875 5.13048 4.52675 5.20248 4.57475C5.28648 4.61075 5.40049 4.65275 5.54449 4.70075C5.70049 4.73675 5.86848 4.77275 6.04848 4.80875C6.22848 4.84475 6.46248 4.89275 6.75049 4.95275L7.65049 5.15075C8.87449 5.39075 9.73848 5.79875 10.2425 6.37475C10.7585 6.93875 11.0165 7.78475 11.0165 8.91275C11.0165 11.7568 9.06649 13.1788 5.16648 13.1788Z" fill="#FFCB1E"/>
            </symbol>
        <symbol id="download-mobile-video" viewBox="0 0 20 20" fill="none">
            <path d="M13.3333 0H1.66675C0.750244 0 0 0.749512 0 1.66675V18.3333C0 19.2498 0.750244 20 1.66675 20H10V8.33325C10 6.49478 11.4947 5 13.3333 5H15V1.66675C15 0.749512 14.2498 0 13.3333 0ZM7.5 18.3333H5.83325C5.37275 18.3333 5 17.9607 5 17.5C5 17.0393 5.37275 16.6667 5.83325 16.6667H7.5C7.96074 16.6667 8.33325 17.0393 8.33325 17.5C8.33325 17.9607 7.96074 18.3333 7.5 18.3333Z" fill="#FFCB1E"/>
            <path d="M18.3325 6.66602H13.3325C12.4163 6.66602 11.666 7.41626 11.666 8.33252V18.3325C11.666 19.249 12.4163 19.9993 13.3325 19.9993H18.3325C19.249 19.9993 19.9993 19.249 19.9993 18.3325V8.33252C19.9993 7.41626 19.249 6.66602 18.3325 6.66602ZM15.8325 18.3325C15.372 18.3325 14.9993 17.96 14.9993 17.4993C14.9993 17.0385 15.372 16.666 15.8325 16.666C16.2933 16.666 16.666 17.0385 16.666 17.4993C16.666 17.96 16.2933 18.3325 15.8325 18.3325Z" fill="#FFCB1E"/>
        </symbol>
        <symbol id="download-images"  viewBox="0 0 30 26" fill="none">
            <path d="M7.44295 20.7855C6.59376 20.784 5.76643 20.5162 5.07736 20.0199C4.38828 19.5236 3.87214 18.8238 3.60155 18.0189L3.56359 17.8942C3.44211 17.514 3.37886 17.1176 3.37597 16.7185V9.32422L0.744905 18.1067C0.583876 18.7317 0.674557 19.3948 0.997442 19.9536C1.32033 20.5124 1.84962 20.9221 2.47147 21.0946L19.2415 25.5856C19.4508 25.6399 19.6602 25.6659 19.8662 25.6659C20.9464 25.6659 21.9333 24.949 22.2099 23.8927L23.187 20.7855H7.44295Z" fill="#FFCB1E"/>
            <rect x="6.01009" y="1.58333" width="21.921" height="16.7514" rx="2.83333" stroke="#FFCB1E" stroke-width="2.83333"/>
            <path d="M15.4686 11.0154C16.0713 10.4185 16.4045 9.62454 16.4075 8.77875C16.4082 8.56028 16.5742 8.37183 16.7923 8.35964C17.0284 8.34647 17.224 8.53402 17.224 8.76724C17.224 10.5141 18.6478 11.9353 20.3979 11.9353C22.9857 11.9574 24.5063 8.89799 22.9228 6.85333C22.9188 6.84818 22.9154 6.84252 22.9117 6.83713C22.9071 6.83052 22.9023 6.82401 22.8982 6.81724C22.19 5.65775 21.895 4.35981 21.7725 3.51519C21.7301 3.22291 21.4786 3.00667 21.1833 3.00642L12.4666 3C12.1713 2.99978 11.9202 3.2155 11.8767 3.50751C11.7513 4.4684 11.3156 6.00637 10.5939 7.01456C10.2482 7.5341 10.0654 8.14014 10.0654 8.76716C10.0654 9.6099 10.3904 10.4023 10.9805 10.9983C11.5705 11.5943 12.3595 11.927 13.2021 11.9351C14.0563 11.9421 14.8614 11.6167 15.4686 11.0154ZM19.5364 8.73218C19.377 8.57275 19.377 8.31427 19.5364 8.15483C19.6958 7.99543 19.9543 7.9954 20.1137 8.15483L20.5854 8.62653L21.0571 8.15483C21.2165 7.9954 21.475 7.9954 21.6345 8.15483C21.7939 8.31424 21.7939 8.57275 21.6345 8.73218L21.1628 9.20388L21.6345 9.67557C21.7939 9.83501 21.7939 10.0935 21.6345 10.2529C21.475 10.4124 21.2166 10.4124 21.0571 10.2529L20.5854 9.78123L20.1137 10.2529C19.9543 10.4124 19.6958 10.4124 19.5364 10.2529C19.377 10.0935 19.377 9.83501 19.5364 9.67557L20.0081 9.20388L19.5364 8.73218ZM12.6398 10.2529C12.4804 10.4124 12.2219 10.4124 12.0625 10.2529C11.9031 10.0935 11.9031 9.83501 12.0625 9.67557L12.5342 9.20388L12.0625 8.73218C11.9031 8.57275 11.9031 8.31427 12.0625 8.15483C12.2219 7.9954 12.4804 7.9954 12.6398 8.15483L13.1115 8.62653L13.5832 8.15483C13.7426 7.9954 14.0011 7.9954 14.1606 8.15483C14.32 8.31424 14.32 8.57275 14.1606 8.73218L13.6889 9.20388L14.1606 9.67557C14.32 9.83501 14.32 10.0935 14.1606 10.2529C14.0011 10.4124 13.7427 10.4124 13.5832 10.2529L13.1115 9.78123L12.6398 10.2529Z" fill="#FFCB1E"/>
            <path d="M20.398 12.7514C18.8287 12.7514 17.4683 11.8421 16.8169 10.5234C16.1662 11.8653 14.7305 12.7686 13.234 12.7514C13.2207 12.7514 13.2076 12.7514 13.1943 12.7512C12.4346 12.7439 11.7093 12.5264 11.0859 12.1273C11.3453 12.9433 11.7171 14.422 11.7812 16.3425C11.7919 16.6634 12.0558 16.9178 12.3768 16.9178H21.3792C21.7003 16.9178 21.9643 16.6632 21.9748 16.3423C22.0383 14.4072 22.4082 12.884 22.6646 12.042C22.0207 12.489 21.2395 12.7514 20.398 12.7514Z" fill="#FFCB1E"/>
        </symbol>
        <symbol id="download-subtitles" viewBox="0 0 26 21" fill="none">
            <rect x="2.25033" y="1.91536" width="21.921" height="16.7514" rx="2.83333" stroke="#FFCB1E" stroke-width="2.83333"/>
            <path d="M7 14.666H9" stroke="#FFCB1E" stroke-width="2" stroke-linecap="round"/>
            <path d="M17.667 10.666H19.667" stroke="#FFCB1E" stroke-width="2" stroke-linecap="round"/>
            <path d="M12.334 14.666H19.6673" stroke="#FFCB1E" stroke-width="2" stroke-linecap="round"/>
            <path d="M7 10.666H14.3333" stroke="#FFCB1E" stroke-width="2" stroke-linecap="round"/>
        </symbol>
        <!-- End download icons -->
    </defs>
</svg>