<svg width="0" height="0" class="hidden sprite" xmlns="http://www.w3.org/2000/svg" xmlns:xlink="http://www.w3.org/1999/xlink">
    <defs>
        <symbol id="logo" viewBox="0 0 270 54" fill="none">
            <g clip-path="url(#clip0_78_29744)">
            <path d="M267.945 0H196.383C195.358 0 194.527 0.832037 194.527 1.85841V51.7699C194.527 52.7963 195.358 53.6283 196.383 53.6283H267.945C268.97 53.6283 269.801 52.7963 269.801 51.7699V1.85841C269.801 0.832037 268.97 0 267.945 0Z" fill="#F1AC2B"/>
            <mask id="mask0_78_29744" style="mask-type:luminance" maskUnits="userSpaceOnUse" x="194" y="0" width="76" height="54">
            <path d="M267.945 0H196.383C195.358 0 194.527 0.832037 194.527 1.85841V51.7699C194.527 52.7963 195.358 53.6283 196.383 53.6283H267.945C268.97 53.6283 269.801 52.7963 269.801 51.7699V1.85841C269.801 0.832037 268.97 0 267.945 0Z" fill="white"/>
            </mask>
            <g mask="url(#mask0_78_29744)">
            <path d="M265.295 3.18555H199.033C198.301 3.18555 197.708 3.77986 197.708 4.51298V49.1148C197.708 49.8479 198.301 50.4422 199.033 50.4422H265.295C266.027 50.4422 266.62 49.8479 266.62 49.1148V4.51298C266.62 3.77986 266.027 3.18555 265.295 3.18555Z" fill="#222727"/>
            </g>
            <mask id="mask1_78_29744" style="mask-type:luminance" maskUnits="userSpaceOnUse" x="194" y="0" width="76" height="54">
            <path d="M267.945 0H196.383C195.358 0 194.527 0.832037 194.527 1.85841V51.7699C194.527 52.7963 195.358 53.6283 196.383 53.6283H267.945C268.97 53.6283 269.801 52.7963 269.801 51.7699V1.85841C269.801 0.832037 268.97 0 267.945 0Z" fill="white"/>
            </mask>
            <g mask="url(#mask1_78_29744)">
            <path d="M226.882 44.071V37.3866H229.518V29.4361H226.882V20.2197L217.708 25.8913V29.4361H212.842L225.869 7.96484H214.312L203.009 29.8919V37.3866H217.708V44.071H226.882ZM241.793 44.071V33.8418L244.53 29.9425L249.751 44.071H261.054L252.387 22.2453L260.953 7.96484H250.815L241.793 23.6632V7.96484H231.352V44.071H241.793Z" fill="#EFC127"/>
            </g>
            <mask id="mask2_78_29744" style="mask-type:luminance" maskUnits="userSpaceOnUse" x="194" y="0" width="76" height="54">
            <path d="M267.945 0H196.383C195.358 0 194.527 0.832037 194.527 1.85841V51.7699C194.527 52.7963 195.358 53.6283 196.383 53.6283H267.945C268.97 53.6283 269.801 52.7963 269.801 51.7699V1.85841C269.801 0.832037 268.97 0 267.945 0Z" fill="white"/>
            </mask>
            <g mask="url(#mask2_78_29744)">
            <path opacity="0.0594076" fill-rule="evenodd" clip-rule="evenodd" d="M265.132 0H267.945C268.97 0 269.8 0.832037 269.8 1.85841V58.1416C269.801 59.168 268.971 60 267.946 60L267.945 59.9991L230.573 59.9808L265.132 0Z" fill="black"/>
            </g>
            <path d="M59.6912 44.0827C66.3731 44.0827 74.2655 40.8332 74.2655 32.1517C74.2655 27.5442 71.3119 24.1007 65.5984 22.5002L60.6111 21.0937C58.1417 20.4147 56.3018 20.2207 56.3018 18.6202C56.3018 17.0197 57.9481 16.5347 60.1754 16.5347C62.2574 16.5347 65.5015 17.4562 67.3415 18.9112L73.055 11.7817C69.133 9.45372 66.0342 8.38672 59.6428 8.38672C50.9756 8.38672 45.601 13.9157 45.601 20.3177C45.601 25.3617 48.942 28.7082 53.6871 30.0177L59.788 31.7152C61.4343 32.1517 62.79 32.5397 62.79 34.1887C62.79 35.8377 60.4659 36.1772 58.7712 36.1772C55.3818 36.1772 51.7988 34.3342 49.5715 32.6367L44.439 40.2027C49.1841 43.5007 53.9292 44.0827 59.6912 44.0827Z" fill="#18303D"/>
            <path fill-rule="evenodd" clip-rule="evenodd" d="M59.6426 8.13672C66.2289 8.13672 69.3509 9.26172 73.429 11.7142L67.3778 19.2651C65.6192 17.7505 62.2861 16.7847 60.1752 16.7847C59.0331 16.7847 58.0471 16.9091 57.3794 17.2686C57.1109 17.4131 56.8968 17.5962 56.7542 17.8298C56.6206 18.0486 56.5512 18.3106 56.5512 18.6202C56.5512 19.1244 56.77 19.4614 57.1494 19.7171C57.7093 20.0943 58.5801 20.3095 59.6267 20.577C59.9605 20.6624 60.312 20.7522 60.6787 20.8531L65.6655 22.2595C68.5527 23.0682 70.7446 24.3434 72.2239 25.9908C73.7415 27.6807 74.515 29.7637 74.515 32.1517C74.515 36.1063 72.9109 38.9569 70.532 40.9043C67.5915 43.3115 63.4538 44.3327 59.691 44.3327C53.7916 44.3327 48.9513 43.72 44.0942 40.2659L49.5141 32.2763C51.6851 33.9877 55.3279 35.9272 58.7711 35.9272C59.7099 35.9272 60.8516 35.8253 61.6503 35.4301C61.9312 35.2912 62.1683 35.1159 62.3277 34.8889C62.4638 34.6951 62.5403 34.4636 62.5403 34.1887C62.5403 33.5668 62.3244 33.1468 61.9556 32.843C61.4262 32.4068 60.617 32.1937 59.7211 31.9561L53.6207 30.2587C51.1123 29.5665 48.9909 28.3137 47.5254 26.5557C46.1519 24.9081 45.3513 22.8163 45.3513 20.3177C45.3513 16.9321 46.8209 13.7847 49.4676 11.5357C51.9216 9.45064 55.391 8.13672 59.6426 8.13672Z" fill="white"/>
            <path d="M83.6585 43.5489H93.3909L98.3781 24.2459H98.5718L103.414 43.5489H113.679L122.104 8.91992H112.081L108.062 26.9134H108.014L104.092 8.91992H94.3593L90.0983 26.9134H89.9531L85.8374 8.91992H75.1851L83.6585 43.5489Z" fill="#18303D"/>
            <path fill-rule="evenodd" clip-rule="evenodd" d="M86.036 8.66992L89.9611 25.8302L94.1633 8.66992H104.292L108.018 25.7617L111.881 8.66992H122.421L113.875 43.7989H103.219L98.5634 25.2393L93.582 43.7989H83.4625L74.8667 8.66992H86.036Z" fill="white"/>
            <path d="M119.877 43.5001H129.948L131.595 37.9711H143.07L144.716 43.5001H155.611L144.184 8.87109H131.546L119.877 43.5001ZM133.967 29.9686L137.26 18.7651H137.405L140.697 29.9686H133.967Z" fill="#18303D"/>
            <path fill-rule="evenodd" clip-rule="evenodd" d="M144.364 8.62109L155.956 43.7501H144.53L142.884 38.2211H131.781L130.134 43.7501H119.529L131.367 8.62109H144.364ZM137.265 19.6328L134.301 29.7186H140.36L137.265 19.6328Z" fill="white"/>
            <path d="M158.322 43.5004H169.168V32.5394H175.511C184.468 32.5394 187.906 26.3314 187.906 20.3174C187.906 14.5459 184.129 8.91992 175.511 8.91992H158.322V43.5004ZM169.168 24.6339V17.0679H173.526C176.14 17.0679 177.351 18.9594 177.351 20.8509C177.351 22.7909 175.995 24.6339 173.477 24.6339H169.168Z" fill="#18303D"/>
            <path fill-rule="evenodd" clip-rule="evenodd" d="M175.511 8.66992C179.565 8.66992 182.564 9.89841 184.622 11.7906C187.032 14.0062 188.156 17.139 188.156 20.3174C188.156 23.6695 187.103 27.0769 184.665 29.4811C182.683 31.4351 179.784 32.7333 175.774 32.7876L175.511 32.7894H169.417V43.7504H158.072V8.66992H175.511ZM173.526 17.3179H169.417V24.3839H173.477L173.642 24.3811C174.673 24.3456 175.488 23.9766 176.066 23.4116C176.749 22.7446 177.101 21.8097 177.101 20.8509C177.101 19.9 176.778 18.9466 176.094 18.2701C175.506 17.6891 174.654 17.3179 173.526 17.3179Z" fill="white"/>
            </g>
            <path d="M14.7188 11.1074H22.0295C22.285 11.1074 22.538 11.1577 22.7741 11.2555C23.0101 11.3533 23.2246 11.4966 23.4053 11.6773C23.586 11.858 23.7293 12.0725 23.8271 12.3085C23.9249 12.5446 23.9752 12.7976 23.9752 13.0531V25.5599L21.1718 25.0198C20.2015 25.0198 19.7125 26.19 20.3975 26.8788L22.3503 28.8317L26.1156 32.597C26.3323 32.8098 26.6092 32.9204 26.8899 32.9204C27.179 32.918 27.4556 32.8018 27.6596 32.597L31.4249 28.8317L33.3778 26.8788C34.0628 26.19 33.5738 25.0198 32.6035 25.0198L29.8001 25.5599V10.7348C29.8001 9.28897 29.2257 7.90232 28.2033 6.87995C27.1809 5.85757 25.7943 5.2832 24.3484 5.2832H14.5972C14.2073 5.28328 13.8214 5.36165 13.4623 5.51365C13.1032 5.66566 12.7783 5.88821 12.5069 6.16811C12.2354 6.44802 12.0229 6.77957 11.882 7.14313C11.7411 7.50668 11.6745 7.89484 11.6864 8.28457C11.7343 9.8784 13.1243 11.1074 14.7188 11.1074Z" fill="white"/>
            <path d="M18.978 42.5454H11.6673C11.1513 42.5454 10.6564 42.3404 10.2915 41.9755C9.92658 41.6106 9.72159 41.1157 9.72159 40.5997V28.0929L12.525 28.633C13.4953 28.633 13.9843 27.4629 13.2993 26.774L11.3465 24.8211L7.58117 21.0558C7.37577 20.8502 7.09752 20.734 6.80689 20.7324C6.51777 20.7348 6.24123 20.851 6.03715 21.0558L2.27185 24.8211L0.319667 26.774C-0.365344 27.4629 0.123672 28.633 1.09394 28.633L3.89738 28.0929V42.9186C3.89738 44.3645 4.47174 45.7511 5.49412 46.7735C6.5165 47.7959 7.90314 48.3703 9.349 48.3703H19.0996C19.4895 48.3702 19.8754 48.2918 20.2345 48.1398C20.5936 47.9878 20.9184 47.7653 21.1899 47.4854C21.4614 47.2054 21.6739 46.8739 21.8148 46.5103C21.9557 46.1468 22.0222 45.7586 22.0104 45.3689C21.9625 43.7744 20.5724 42.5454 18.978 42.5454Z" fill="#FFCB1E"/>
            <defs>
            <clipPath id="clip0_78_29744">
            <rect width="226.125" height="54" fill="white" transform="translate(43.6975)"/>
            </clipPath>
            </defs>
        </symbol>
        <symbol id="user" viewBox="0 0 12 13">
            <path d="M5.99999 5.8335C6.35451 5.84037 6.70683 5.77647 7.03636 5.64555C7.36589 5.51463 7.666 5.31931 7.91914 5.07102C8.17228 4.82274 8.37337 4.52646 8.51065 4.19953C8.64793 3.8726 8.71863 3.52158 8.71863 3.167C8.71863 2.81242 8.64793 2.4614 8.51065 2.13447C8.37337 1.80754 8.17228 1.51126 7.91914 1.26298C7.666 1.01469 7.36589 0.819372 7.03636 0.688451C6.70683 0.557531 6.35451 0.493634 5.99999 0.5005C5.30173 0.514023 4.63664 0.8009 4.14761 1.29949C3.65858 1.79809 3.38463 2.46861 3.38463 3.167C3.38463 3.86539 3.65858 4.53591 4.14761 5.03451C4.63664 5.5331 5.30173 5.81998 5.99999 5.8335ZM5.99999 7.1675C7.03498 7.16672 8.05589 7.40728 8.98165 7.87007C9.9074 8.33286 10.7125 9.00514 11.333 9.8335V12.5005H0.666992V9.8335C1.28749 9.00514 2.09258 8.33286 3.01834 7.87007C3.94409 7.40728 4.96501 7.16672 5.99999 7.1675Z"/>
        </symbol>
        <symbol id="arrow-down" viewBox="0 0 11 6" fill="none">
            <path d="M5.50096 5.99944C5.68534 5.9951 5.86156 5.922 5.99552 5.7943L10.6503 1.29294C10.7923 1.15444 10.8741 0.964852 10.8776 0.765738C10.8811 0.566625 10.8061 0.374234 10.669 0.230727C10.532 0.0872206 10.344 0.0043015 10.1463 0.000162538C9.94869 -0.00397595 9.75747 0.071 9.6146 0.208645L5.47769 4.2118L1.34077 0.208644C1.1979 0.0709993 1.00669 -0.00397673 0.809034 0.000161721C0.611382 0.00430065 0.423421 0.0872198 0.286353 0.230726C0.149283 0.374233 0.0742869 0.566624 0.0778041 0.765738C0.0813202 0.964851 0.163062 1.15444 0.305111 1.29294L4.95986 5.7943C5.03192 5.8631 5.11692 5.91669 5.20984 5.95192C5.30277 5.98715 5.40175 6.0033 5.50096 5.99944Z" fill="white"/>
          </symbol>
        <symbol id="rta-logo" fill="none" viewBox="0 0 46 22">
            <g fill="#A3A0A4" clip-path="url(#a)">
              <path d="M40.25 16.795c-.285-.867-.57-1.75-.855-2.664h-5.82c-.286.914-.57 1.78-.854 2.68h-4.875c.103-.373.224-.698.33-1.008C29.48 12.207 30.74 8.63 32.045 5.02c.105-.28.166-.575.27-.93-2.325 0-4.635.015-6.975.015 0 .465-.03 12.21-.045 12.534-.645.047-3.795.047-4.846.047-.045-4.121.016-8.274-.03-12.502h-5.144c-.015 1.209-.18 2.402-.93 3.408-.736.976-1.74 1.486-2.91 1.828.6.45 1.17.76 1.575 1.209.496.54.9 1.178 1.26 1.812.736 1.38 1.425 2.912 2.13 4.307-.525.047-4.2.016-5.43.016-.134-.233-.3-.48-.435-.744-.824-1.565-1.635-3.13-2.46-4.696-.48-.896-1.184-1.379-2.206-1.285-.045 0-.09.031-.238.094-.092.324-.092.59-.092.914-.014 1.58.076 5.437.06 5.717-.599 0-4.048-.016-4.98-.016C.62 16.019.65 1.086.65.138h38.625c1.995 5.485 4.02 11.063 6.045 16.67-1.74-.013-3.36-.013-5.07-.013Zm-1.86-6.276c-.615-2.076-1.2-4.027-1.816-6.087-.375.992-1.724 5.406-1.92 6.088h3.737ZM5.6 6.974c1.275.076 2.925.154 3.9-.157.682-.216.81-.93.81-1.765 0-.776-.42-1.303-1.11-1.489-1.17-.324-2.444-.2-3.6-.154v3.565Z"/>
              <path fill-rule="evenodd" d="M.5 19.44c.174-.03.35-.05.527-.055.057-.002.11-.004.157-.004.113 0 .222.01.33.031.103.02.2.057.29.11a.58.58 0 0 1 .206.212c.05.092.078.205.078.342a.823.823 0 0 1-.139.494.693.693 0 0 1-.365.266l.168.11.547.943h-.54l-.544-.967-.246-.047v1.014H.5v-2.45Zm.719.37c-.05 0-.096.003-.143.005a.642.642 0 0 0-.107.013v.719h.199a.483.483 0 0 0 .31-.094c.079-.058.118-.16.118-.303a.332.332 0 0 0-.098-.25c-.062-.058-.156-.09-.28-.09Zm1.867-.394h1.42v.43h-.951v.578h.865v.43h-.865v.603h.966v.432H3.086v-2.473Zm3.344 1.809a.233.233 0 0 0-.08-.184.912.912 0 0 0-.202-.13c-.087-.042-.175-.08-.263-.12a1.46 1.46 0 0 1-.264-.15.744.744 0 0 1-.201-.227.632.632 0 0 1-.08-.342c0-.119.02-.224.056-.312a.594.594 0 0 1 .167-.22.738.738 0 0 1 .255-.132c.098-.027.207-.043.328-.043.14 0 .27.014.393.037.123.026.225.06.305.11l-.147.406a.788.788 0 0 0-.226-.092c-.1-.025-.21-.039-.325-.039a.409.409 0 0 0-.251.067.217.217 0 0 0-.086.18c0 .07.025.13.08.177.052.047.119.09.2.13.08.04.169.083.265.124.093.043.181.094.261.154.082.06.15.135.203.223a.63.63 0 0 1 .08.33.881.881 0 0 1-.062.34.696.696 0 0 1-.178.24.778.778 0 0 1-.277.14c-.11.03-.229.046-.358.046-.171 0-.322-.016-.45-.05a1.301 1.301 0 0 1-.29-.099l.15-.412a1.364 1.364 0 0 0 .393.127 1 1 0 0 0 .172.014.58.58 0 0 0 .32-.073.247.247 0 0 0 .112-.22Zm3.006-1.377h-.698v2.04H8.27v-2.04h-.702v-.432h1.868v.432Zm.77-.409c.175-.029.349-.048.526-.054.057-.002.11-.004.157-.004.113 0 .222.01.33.031.103.02.2.057.29.11a.579.579 0 0 1 .206.212.675.675 0 0 1 .078.342.822.822 0 0 1-.139.494.693.693 0 0 1-.365.266l.168.11.547.943h-.54l-.544-.967-.246-.047v1.014h-.469v-2.45Zm.718.372c-.049 0-.096.002-.143.003a.67.67 0 0 0-.107.014v.719h.197c.131 0 .234-.031.313-.094.078-.058.117-.16.117-.303a.332.332 0 0 0-.098-.25c-.062-.058-.156-.09-.28-.09Zm1.914-.395h.469v2.473h-.47v-2.473Zm3.074 2.37a.659.659 0 0 1-.277.116c-.115.024-.23.035-.348.035-.144 0-.28-.023-.408-.068a.886.886 0 0 1-.342-.223 1.1 1.1 0 0 1-.232-.4 1.751 1.751 0 0 1-.088-.594c0-.242.031-.447.098-.609.064-.164.15-.297.251-.396.106-.1.221-.172.348-.215.123-.043.252-.065.383-.067.137 0 .254.012.348.03.093.02.171.04.234.068l-.094.408a.676.676 0 0 0-.185-.056 1.928 1.928 0 0 0-.262-.018.56.56 0 0 0-.455.209c-.117.139-.174.353-.174.646 0 .127.014.242.041.348a.77.77 0 0 0 .125.27.586.586 0 0 0 .498.234c.102 0 .19-.012.26-.031a.775.775 0 0 0 .183-.082l.096.394Zm2.367-1.94h-.697v2.043h-.469v-2.041h-.7v-.432h1.866v.43Zm.77-.43h1.42v.43h-.951v.578h.865v.43h-.865v.603h.966v.432H19.05v-2.473Zm2.31 0c.178-.021.358-.033.535-.033l.165-.002c.21 0 .392.03.543.092a.932.932 0 0 1 .572.654c.043.152.064.32.064.504 0 .168-.02.33-.062.484a1.03 1.03 0 0 1-.582.703c-.157.073-.352.11-.58.11l-.147-.004a14.948 14.948 0 0 1-.508-.031v-2.477Zm.737.395-.153.003a1.15 1.15 0 0 0-.115.01v1.658l.047.006c.064.004.129.006.193.008a.668.668 0 0 0 .33-.072.577.577 0 0 0 .21-.192.795.795 0 0 0 .107-.279c.039-.201.039-.41.004-.613a.748.748 0 0 0-.102-.264.545.545 0 0 0-.199-.19.619.619 0 0 0-.322-.075Zm4.927.037h-.697v2.04h-.469v-2.04h-.7v-.432h1.866v.432Zm.559.804c0-.412.09-.73.266-.953.175-.222.425-.334.752-.334.17 0 .32.032.449.092.125.06.234.15.316.262.084.113.149.25.19.408.04.156.06.332.06.525 0 .412-.088.73-.263.951-.178.223-.428.334-.752.334-.174 0-.325-.029-.452-.091a.834.834 0 0 1-.316-.26 1.22 1.22 0 0 1-.188-.406 2.093 2.093 0 0 1-.06-.528h-.002Zm.494 0c0 .125.01.24.031.344.02.106.051.195.094.272.04.07.094.132.162.175a.427.427 0 0 0 .237.065.443.443 0 0 0 .386-.201c.09-.135.137-.354.137-.655 0-.12-.01-.232-.03-.336a.967.967 0 0 0-.09-.271.434.434 0 0 0-.404-.248.437.437 0 0 0-.386.207c-.092.139-.137.353-.137.648Zm4.791.69h-.734l-.182.547h-.469l.862-2.49h.346l.86 2.49h-.491l-.192-.547Zm-.615-.39h.514l-.178-.55-.072-.39h-.018l-.072.392-.174.547Zm2.031-1.536a3.952 3.952 0 0 1 .535-.033l.163-.002c.212 0 .392.03.544.092a.91.91 0 0 1 .366.258c.093.109.162.242.205.396.043.152.064.32.064.504 0 .168-.02.33-.06.484a1.033 1.033 0 0 1-.584.703 1.38 1.38 0 0 1-.58.11l-.145-.004c-.17-.008-.34-.018-.508-.031v-2.477Zm.735.395-.153.003a1.108 1.108 0 0 0-.113.01v1.658c.01.002.023.004.047.006.062.004.127.006.191.008a.663.663 0 0 0 .33-.072.548.548 0 0 0 .21-.192.8.8 0 0 0 .107-.279c.039-.201.04-.41.004-.613a.713.713 0 0 0-.102-.264.545.545 0 0 0-.2-.19.614.614 0 0 0-.321-.075Zm3.304-.395h.446v1.598c0 .16-.022.297-.063.412a.78.78 0 0 1-.17.287.66.66 0 0 1-.267.166c-.106.033-.221.053-.346.053-.607 0-.91-.287-.91-.86v-1.656h.468v1.56c0 .098.008.18.026.247.014.06.04.115.08.162a.34.34 0 0 0 .137.09.635.635 0 0 0 .191.025c.145 0 .248-.041.313-.123.062-.082.095-.217.095-.4v-1.561Zm2.885 2.473h-1.514v-2.473h.47v2.041h1.044v.432Zm2.021-2.041h-.697v2.04h-.468v-2.04h-.702v-.432h1.867v.432Zm1.803 1.377a.233.233 0 0 0-.08-.184.88.88 0 0 0-.203-.13c-.086-.042-.174-.08-.262-.12a1.35 1.35 0 0 1-.263-.15.767.767 0 0 1-.201-.227.65.65 0 0 1-.08-.342c0-.119.019-.224.056-.312a.594.594 0 0 1 .166-.22.722.722 0 0 1 .256-.132c.098-.027.207-.043.326-.043.14 0 .272.014.395.037.123.026.224.06.304.11l-.146.406a.788.788 0 0 0-.227-.092 1.32 1.32 0 0 0-.326-.039.406.406 0 0 0-.25.067.218.218 0 0 0-.088.18c0 .07.027.13.08.177.055.047.121.09.203.13.08.04.168.083.262.124.096.043.184.094.266.154.08.06.146.135.2.223a.63.63 0 0 1 .081.33.815.815 0 0 1-.063.34.696.696 0 0 1-.177.24.779.779 0 0 1-.278.14c-.109.03-.228.046-.359.046-.17 0-.32-.016-.45-.05a1.356 1.356 0 0 1-.286-.099l.148-.412a1.364 1.364 0 0 0 .393.127c.056.01.113.014.172.014a.58.58 0 0 0 .32-.073.247.247 0 0 0 .111-.22Z" clip-rule="evenodd"/>
            </g>
            <defs>
              <clipPath id="a">
                <path fill="#fff" d="M.5 0h45v22H.5z"/>
              </clipPath>
            </defs>
        </symbol>
        <symbol id="btn-arrow-right" viewBox="0 0 15 15">
            <path d="M9.95289 7.99114L5.95239 11.9736C5.82942 12.0909 5.66634 12.1569 5.49639 12.1581C5.32414 12.1605 5.158 12.0944 5.03451 11.9742C4.91103 11.8541 4.8403 11.6899 4.83789 11.5176L4.83789 11.5086C4.83871 11.4202 4.85702 11.3328 4.89177 11.2514C4.92653 11.1701 4.97704 11.0964 5.04039 11.0346L8.58789 7.49914L5.04039 3.96514C4.91393 3.83941 4.84131 3.66944 4.83789 3.49114C4.83789 3.40585 4.85469 3.32139 4.88733 3.24259C4.91997 3.16379 4.96781 3.09219 5.02812 3.03188C5.08844 2.97156 5.16004 2.92372 5.23884 2.89108C5.31764 2.85844 5.4021 2.84164 5.48739 2.84164L5.49639 2.84164C5.57989 2.84095 5.6627 2.85691 5.73996 2.88859C5.81723 2.92027 5.88741 2.96703 5.94639 3.02614L9.95289 7.00864C10.0197 7.07157 10.0729 7.14761 10.109 7.232C10.1452 7.3164 10.1635 7.40734 10.1629 7.49914C10.1621 7.59095 10.1431 7.68168 10.107 7.76612C10.071 7.85056 10.0186 7.92704 9.95289 7.99114Z" />
        </symbol>
          
        <!-- Home slider -->
        <symbol id="home-slider-prev" viewBox="0 0 10 15" fill="none" xmlns="http://www.w3.org/2000/svg">
            <path d="M0.45459 7.54564L1.32821 8.43854L7.33493 14.5454L9.36368 12.7596L4.23775 7.54541L9.36368 2.3312L7.33493 0.54541L1.32821 6.65228L0.45459 7.54564Z" fill="white"/>
        </symbol>
        <symbol id="home-slider-next" viewBox="0 0 10 15" fill="none" xmlns="http://www.w3.org/2000/svg">
            <path d="M9.54541 7.45436L8.67179 6.56146L2.66507 0.45459L0.636318 2.24038L5.76225 7.45459L0.636319 12.6688L2.66507 14.4546L8.67179 8.34772L9.54541 7.45436Z" fill="white"/>
        </symbol>
        <!-- End Home slider -->
    
        <!-- <symbol id="arrow-down" viewBox="0 0 6 8" fill="none" xmlns="http://www.w3.org/2000/svg">
            <path d="M0 0L3.04478 0.223788L6 2.93462e-07L3.04478 7.83258L0 0Z" fill="#231F20"/>
        </symbol>
        <symbol id="arrow-down" viewBox="0 0 14 8" fill="none" xmlns="http://www.w3.org/2000/svg">
            <path d="M13.7437 0.260331C13.5795 0.0936581 13.3568 0 13.1246 0C12.8924 0 12.6698 0.0936581 12.5056 0.260331L6.9948 5.85401L1.48401 0.260331C1.26157 0.0422625 0.942389 -0.0406776 0.644106 0.0422625C0.346024 0.125401 0.113043 0.361923 0.0311294 0.664516C-0.0505741 0.967308 0.0311294 1.29134 0.245947 1.51713L6.37572 7.73967C6.5399 7.90634 6.76254 8 6.99475 8C7.22695 8 7.44959 7.90634 7.61378 7.73967L13.7436 1.51713C13.9077 1.35046 14 1.12445 14 0.888731C14 0.653011 13.9077 0.427003 13.7436 0.260331H13.7437Z" fill="#EFD5A4"/>
        </symbol> -->
        <symbol id="arrow-down-mobile" viewBox="0 0 7 4" fill="none" xmlns="http://www.w3.org/2000/svg">
            <path d="M0.524002 0.606091C0.471586 0.606091 0.424266 0.63749 0.403821 0.685766C0.383505 0.733915 0.393822 0.789897 0.430507 0.827473L3.30007 3.77887C3.32459 3.80409 3.35834 3.81836 3.39356 3.81836C3.42878 3.81836 3.46254 3.80409 3.48706 3.77887L6.35662 0.82741C6.38082 0.802571 6.39355 0.769771 6.39355 0.736462C6.39355 0.71933 6.39018 0.70207 6.3833 0.685702C6.36286 0.637426 6.31554 0.606028 6.26312 0.606028L0.524002 0.606091Z" fill="#EFD5A4"/>
        </symbol>

        <!-- Info icons -->
        <symbol id="video-duration" viewBox="0 0 21 20" fill="none">
            <path d="M10.5 20C16.0133 20 20.5 15.5133 20.5 10C20.5 4.48668 16.0134 0 10.5 0C4.98662 0 0.5 4.48668 0.5 10C0.5 15.5133 4.98668 20 10.5 20ZM10.5 1.33331C15.28 1.33331 19.1667 5.21996 19.1667 10C19.1667 14.78 15.28 18.6667 10.5 18.6667C5.71996 18.6667 1.83331 14.78 1.83331 10C1.83331 5.21996 5.72002 1.33331 10.5 1.33331Z" fill="white"/>
            <path d="M13.4166 13.1867C13.5399 13.2866 13.6866 13.3333 13.8332 13.3333C13.9331 13.3335 14.0318 13.3112 14.1218 13.2679C14.2119 13.2246 14.291 13.1615 14.3532 13.0833C14.5832 12.7967 14.5365 12.3767 14.2499 12.1467L11.1666 9.67999V4.66666C11.1666 4.29998 10.8666 4 10.4999 4C10.1332 4 9.83325 4.29998 9.83325 4.66666V10C9.83325 10.2034 9.9266 10.3933 10.0832 10.52L13.4166 13.1867Z" fill="white"/>
        </symbol>
        <symbol id="video-viewed" viewBox="0 0 21 20" fill="none">
            <path d="M10.5272 16.5C4.73134 16.5 1.49759 10.5092 1.36217 10.2329C1.32137 10.1552 1.30005 10.0688 1.30005 9.98104C1.30005 9.89329 1.32137 9.80685 1.36217 9.72917C1.49759 9.49625 4.73134 3.5 10.5272 3.5C16.323 3.5 19.5188 9.49625 19.6543 9.75083C19.6951 9.82852 19.7164 9.91496 19.7164 10.0027C19.7164 10.0905 19.6951 10.1769 19.6543 10.2546C19.5188 10.5092 16.2851 16.5 10.5272 16.5ZM2.48342 10C3.14967 11.0833 6.04217 15.4167 10.5272 15.4167C15.0122 15.4167 17.8993 11.0833 18.5655 10C17.8993 8.91667 15.0122 4.58333 10.5272 4.58333C6.04217 4.58333 3.13342 8.90042 2.46717 10H2.48342Z" fill="white"/>
            <path d="M10.5267 12.7788C9.77281 12.7948 9.04335 12.5113 8.49813 11.9905C7.95291 11.4696 7.63639 10.7539 7.61792 10.0001C7.63779 9.2472 7.95493 8.53284 8.5 8.01315C9.04507 7.49346 9.77373 7.21071 10.5267 7.22672C11.2787 7.21216 12.006 7.49555 12.5498 8.01509C13.0937 8.53463 13.4101 9.24816 13.43 10.0001C13.4115 10.7529 13.0958 11.4678 12.5517 11.9885C12.0077 12.5092 11.2796 12.7933 10.5267 12.7788ZM10.5267 8.31005C10.061 8.29391 9.60779 8.46249 9.26586 8.77906C8.92393 9.09562 8.72098 9.5345 8.70125 10.0001C8.71959 10.4666 8.92193 10.9068 9.26401 11.2245C9.6061 11.5423 10.0601 11.7116 10.5267 11.6955C10.9927 11.7116 11.4461 11.5421 11.7873 11.2242C12.1286 10.9063 12.3297 10.4661 12.3467 10.0001C12.3283 9.53498 12.1266 9.0961 11.7855 8.77939C11.4444 8.46269 10.9918 8.29394 10.5267 8.31005Z" fill="white"/>
          </symbol>
        <symbol id="video-publisher" viewBox="0 0 21 20" fill="none">
            <path d="M10.5 18.2259C10.0209 18.2264 9.55181 18.0891 9.14851 17.8305C8.00435 17.0951 5.80389 15.5857 3.94256 13.7427C1.65835 11.479 0.5 9.34723 0.5 7.40489C0.5 6.05524 0.899085 4.81862 1.65423 3.82915C2.37033 2.88831 3.38189 2.21547 4.52641 1.91874C5.67093 1.62201 6.88197 1.7186 7.96499 2.19299C8.93433 2.6113 9.79886 3.31656 10.5 4.25249C11.2011 3.31428 12.0657 2.60901 13.035 2.19299C14.118 1.7186 15.3291 1.62201 16.4736 1.91874C17.6181 2.21547 18.6297 2.88831 19.3458 3.82915C20.1009 4.81862 20.5 6.05524 20.5 7.40489C20.5 9.34723 19.3416 11.4781 17.0574 13.7408C15.1961 15.5838 12.9966 17.0932 11.8515 17.8287C11.4484 18.0879 10.9793 18.2258 10.5 18.2259ZM5.83913 2.89688C5.47714 2.89656 5.11671 2.94427 4.76728 3.03876C3.89022 3.27955 3.1162 3.80103 2.56362 4.52343C1.96224 5.31153 1.64416 6.30833 1.64416 7.40672C1.64416 9.03235 2.6881 10.8905 4.7476 12.9298C6.53249 14.6992 8.65927 16.1564 9.76682 16.8658C9.9855 17.0055 10.2396 17.0797 10.4991 17.0797C10.7586 17.0797 11.0127 17.0055 11.2314 16.8658C12.3389 16.1545 14.4638 14.6973 16.2506 12.9298C18.3101 10.8905 19.354 9.03235 19.354 7.40672C19.354 6.30833 19.0359 5.31336 18.4346 4.52343C17.882 3.80103 17.1079 3.27955 16.2309 3.03876C14.667 2.61405 12.4698 3.05798 10.9915 5.57789C10.9411 5.66401 10.8691 5.73543 10.7825 5.78507C10.696 5.8347 10.5979 5.86082 10.4982 5.86082C10.3984 5.86082 10.3004 5.8347 10.2138 5.78507C10.1273 5.73543 10.0552 5.66401 10.0048 5.57789C8.84325 3.59437 7.2341 2.89688 5.83913 2.89688Z" fill="white"/>
          </symbol>
        <symbol id="4k-icon" viewBox="0 0 45 24" fill="none">
            <path d="M23.1506 23.2727V0H29.4688V9.40909H29.787L36.787 0H44.1506L36.287 10.3636L44.3325 23.2727H36.787L31.5597 14.5455L29.4688 17.2727V23.2727H23.1506Z" fill="black"/>
            <path d="M0.5 19.6364V14.7273L9.86364 0H14.3182V6.54545H11.7727L6.72727 14.5455V14.7273H20.5455V19.6364H0.5ZM11.8182 23.2727V18.1364L11.9545 16V0H17.8636V23.2727H11.8182Z" fill="black"/>
        </symbol>
        <symbol id="video-like" viewBox="0 0 19 18" fill="none">
            <path d="M17.7321 7.61086C17.172 6.88542 16.2312 6.41665 15.3352 6.41665H12.767L14.2966 3.20863C14.7543 2.24869 14.3663 1.14618 13.3311 0.465216C12.3587 -0.174442 11.2694 -0.152446 10.6823 0.51871L5.29221 6.67932C4.99044 6.29679 4.52326 6.05056 3.99941 6.05056H1.64647C0.73862 6.05056 0 6.78918 0 7.69707V16.3515C0 17.2593 0.73862 17.998 1.64647 17.998H3.99941C4.4625 17.998 4.88125 17.8055 5.18071 17.4967C5.9071 17.9575 7.01965 18 7.94435 18C8.05164 18 8.15658 17.9994 8.25789 17.9989C8.34675 17.9984 8.43219 17.9979 8.51336 17.9979H13.896C15.2409 17.9979 16.2496 16.9729 16.7365 15.1117L18.1757 9.60941C18.3551 8.92349 18.1976 8.21372 17.7321 7.61086ZM4.43441 16.3514C4.43441 16.5913 4.23928 16.7864 3.99941 16.7864H1.64647C1.4066 16.7864 1.21147 16.5913 1.21147 16.3514V7.69703C1.21147 7.45716 1.4066 7.262 1.64647 7.262H3.99941C4.23928 7.262 4.43441 7.45716 4.43441 7.69703V16.3514ZM17.0036 9.30287L15.5644 14.8052C15.328 15.709 14.8466 16.7864 13.896 16.7864H8.51336C8.43011 16.7864 8.34243 16.7869 8.2513 16.7874C7.51189 16.7913 6.13607 16.7989 5.73655 16.4016C5.68946 16.3548 5.64584 16.2932 5.64584 16.1612V8.11491L11.5941 1.31643C11.7577 1.12933 12.2483 1.203 12.6654 1.47733C12.807 1.57053 13.4989 2.0669 13.203 2.68721L11.2603 6.76166C11.2163 6.85399 11.1964 6.95596 11.2025 7.05806C11.2085 7.16017 11.2403 7.25908 11.2949 7.34558C11.3495 7.43208 11.4251 7.50335 11.5146 7.55275C11.6042 7.60215 11.7048 7.62806 11.8071 7.62809H15.3352C15.8614 7.62809 16.4392 7.91865 16.7731 8.35119C16.9366 8.56278 17.1091 8.8996 17.0036 9.30287Z" fill="white"/>
          </symbol>
        <symbol id="video-download" viewBox="0 0 19 18" fill="none">
            <path d="M18.2478 14.1429V16.7143C18.2478 17.4234 17.6712 18 16.9621 18H1.53352C0.824446 18 0.247803 17.4234 0.247803 16.7143V14.1429C0.247803 13.9724 0.315532 13.8088 0.436091 13.6883C0.55665 13.5677 0.720164 13.5 0.89066 13.5C1.06116 13.5 1.22467 13.5677 1.34523 13.6883C1.46579 13.8088 1.53352 13.9724 1.53352 14.1429V16.7143H16.9621V14.1429C16.9621 13.9724 17.0298 13.8088 17.1504 13.6883C17.2709 13.5677 17.4344 13.5 17.6049 13.5C17.7754 13.5 17.939 13.5677 18.0595 13.6883C18.1801 13.8088 18.2478 13.9724 18.2478 14.1429Z" fill="white"/>
            <path d="M4.29324 9.4545C4.1727 9.33396 4.10498 9.17047 4.10498 9C4.10498 8.82953 4.1727 8.66604 4.29324 8.5455C4.41378 8.42496 4.57727 8.35724 4.74774 8.35724C4.91821 8.35724 5.0817 8.42496 5.20224 8.5455L8.60488 11.9481V0.642857C8.60488 0.472361 8.67261 0.308848 8.79317 0.188288C8.91373 0.0677294 9.07724 0 9.24774 0C9.41824 0 9.58175 0.0677294 9.70231 0.188288C9.82287 0.308848 9.8906 0.472361 9.8906 0.642857V11.9481L13.2932 8.5455C13.3529 8.48581 13.4238 8.43847 13.5018 8.40617C13.5798 8.37387 13.6633 8.35724 13.7477 8.35724C13.8321 8.35724 13.9157 8.37387 13.9937 8.40617C14.0717 8.43847 14.1426 8.48581 14.2022 8.5455C14.2619 8.60519 14.3093 8.67604 14.3416 8.75403C14.3739 8.83201 14.3905 8.91559 14.3905 9C14.3905 9.08441 14.3739 9.16799 14.3416 9.24597C14.3093 9.32396 14.2619 9.39481 14.2022 9.4545L9.70224 13.9545C9.58158 14.0751 9.41799 14.1428 9.24742 14.1428C9.07685 14.1428 8.91326 14.0751 8.7926 13.9545L4.29324 9.4545Z" fill="white"/>
        </symbol>
        <symbol id="video-heart" viewBox="0 0 18 17" fill="none" xmlns="http://www.w3.org/2000/svg">
            <path d="M8.23555 16.5235L8.71613 16.9093C8.78166 16.9774 8.89091 17 8.97822 17H9.04374H9.06553C9.15285 17 9.2621 16.9546 9.32762 16.9093L9.61165 16.6822C12.539 14.2992 18 9.82777 18 5.10681C18 2.29235 15.7937 0 13.085 0C11.4029 0 9.89555 0.862524 8.97816 2.29235C8.08249 0.88518 6.53159 0 4.8932 0C2.18454 0 0 2.29235 0 5.10681C0 9.80507 5.15534 14.004 8.23544 16.5234L8.23555 16.5235ZM4.89332 0.907962C6.44437 0.907962 7.86419 1.83858 8.54138 3.29118C8.56316 3.33662 8.58511 3.4047 8.58511 3.4047C8.67242 3.58629 8.86914 3.69981 9.04392 3.65437C9.19691 3.63173 9.32795 3.54086 9.37153 3.38206C9.37153 3.38206 9.41526 3.29134 9.43705 3.2459C10.1142 1.7933 11.5123 0.885501 13.0633 0.885501C15.2915 0.885501 17.1046 2.76935 17.1046 5.08443C17.1046 9.37415 11.8618 13.6639 9.02204 15.9563L8.97831 15.9789L8.78159 15.8199C5.81072 13.3913 0.873826 9.35132 0.873826 5.107C0.873826 2.79187 2.66517 0.908063 4.89324 0.908063L4.89332 0.907962Z" fill="white" fill-opacity="0.6"/>
        </symbol>
        <symbol id="rating-star" viewBox="0 0 22 20" fill="none">
            <path d="M21.3052 8.10074L15.3482 12.4168L17.6419 19.4342C17.7786 19.8517 17.2736 20.1786 16.9472 19.8892L11.0232 15.5621L5.06844 19.9157C4.71997 20.1697 4.25903 19.8053 4.41561 19.4099L6.69829 12.4168L0.72584 8.08749C0.370761 7.83125 0.586894 7.27243 1.01697 7.31219L8.3502 7.32544L10.6152 0.296963C10.7498 -0.118296 11.3408 -0.0895805 11.4423 0.330101L13.6963 7.32544L21.0692 7.30998C21.4993 7.30777 21.6603 7.86881 21.3052 8.10074Z" fill="#FFCC00"/>
          </symbol>
        <!-- End info icons -->
        <!-- Features -->
        <symbol id="4k-display" viewBox="0 0 30 16">
            <path d="M26.9229 7.75012L30.0002 15.9561H23.8685L22.1817 9.98397H21.2471V15.9561H15.5713V0H21.2471V5.69862H22.1817L23.7089 0H29.7494L26.9229 7.75012Z" />
            <path d="M7.11187 15.956V13.745H0V9.8927L6.76996 0.273438H12.537V9.57358H14.087V13.745H12.537V15.956H7.11187ZM4.96919 9.57358H7.11187V6.63309L4.96919 9.57358Z"/>
        </symbol>
        <symbol id="hd-definition" viewBox="0 0 31 16">
            <path d="M23.4318 0C25.7694 0 27.5596 0.540022 28.8024 1.62007C30.0452 2.68531 30.6666 4.20182 30.6666 6.16957V9.38751C30.6666 11.3553 30.0452 12.8718 28.8024 13.937C27.5596 15.0023 25.7694 15.5349 23.4318 15.5349H16.5742V0H23.4318ZM25.074 9.29873V6.21395C25.074 5.62215 24.9483 5.20788 24.6967 4.97116C24.4452 4.71964 24.0236 4.59389 23.4318 4.59389H22.1002V10.8966H23.4318C24.0236 10.8966 24.4452 10.7782 24.6967 10.5415C24.9483 10.29 25.074 9.87574 25.074 9.29873Z" />
            <path d="M9.14411 0H14.6479V15.5349H9.14411V9.85355H6.19248V15.5349H0.666504V0H6.19248V5.39282H9.14411V0Z" />
        </symbol>
        <symbol id="responsive-for-devices" viewBox="0 0 26 25" >
            <g clip-path="url(#clip0_82_54334)">
            <path d="M17.0001 0H2.41693C1.2713 0 0.333496 0.93689 0.333496 2.08344V22.9166C0.333496 24.0622 1.2713 25 2.41693 25H12.8335V10.4166C12.8335 8.11847 14.7019 6.25 17.0001 6.25H19.0835V2.08344C19.0835 0.93689 18.1457 0 17.0001 0ZM9.7085 22.9166H7.62506C7.04944 22.9166 6.5835 22.4509 6.5835 21.875C6.5835 21.2991 7.04944 20.8334 7.62506 20.8334H9.7085C10.2844 20.8334 10.7501 21.2991 10.7501 21.875C10.7501 22.4509 10.2844 22.9166 9.7085 22.9166Z" />
            <path d="M23.2501 8.33203H17.0001C15.8548 8.33203 14.917 9.26984 14.917 10.4152V22.9152C14.917 24.0608 15.8548 24.9986 17.0001 24.9986H23.2501C24.3958 24.9986 25.3336 24.0608 25.3336 22.9152V10.4152C25.3336 9.26984 24.3958 8.33203 23.2501 8.33203ZM20.1251 22.9152C19.5495 22.9152 19.0836 22.4495 19.0836 21.8736C19.0836 21.2977 19.5495 20.832 20.1251 20.832C20.7011 20.832 21.167 21.2977 21.167 21.8736C21.167 22.4495 20.7011 22.9152 20.1251 22.9152Z" />
            </g>
            <defs>
            <clipPath id="clip0_82_54334">
            <rect width="25" height="25" fill="white" transform="translate(0.333496)"/>
            </clipPath>
            </defs>
        </symbol>
        <symbol id="50-mp-photos" viewBox="0 0 45 40" fill="none">
            <path d="M11.001 31.8768C9.62229 31.8743 8.27909 31.4396 7.16036 30.6338C6.04162 29.8281 5.20365 28.6919 4.76435 27.3851L4.70272 27.1826C4.50549 26.5654 4.40279 25.9219 4.39811 25.2739V13.269L0.126495 27.5277C-0.134941 28.5423 0.0122817 29.619 0.536496 30.5261C1.06071 31.4333 1.92003 32.0985 2.92963 32.3786L30.1563 39.6699C30.4961 39.758 30.836 39.8002 31.1705 39.8002C32.9242 39.8002 34.5265 38.6364 34.9755 36.9214L36.562 31.8768H11.001Z" fill="#FFCC00"/>
            <rect x="9.67559" y="1.7" width="33.5895" height="25.1965" rx="2.1" stroke="#FFCC00" stroke-width="2.6"/>
            <path d="M24.031 16.0132C25.0095 15.0441 25.5504 13.7551 25.5553 12.382C25.5565 12.0273 25.826 11.7213 26.1801 11.7015C26.5634 11.6802 26.8809 11.9846 26.8809 12.3633C26.8809 15.1994 29.1925 17.5067 32.0339 17.5067C36.2353 17.5427 38.7039 12.5756 36.133 9.25599C36.1267 9.24764 36.1211 9.23845 36.1151 9.2297C36.1077 9.21896 36.0999 9.2084 36.0932 9.1974C34.9434 7.31493 34.4645 5.20769 34.2656 3.83642C34.1967 3.36189 33.7885 3.01083 33.309 3.01043L19.1571 3C18.6778 2.99965 18.2701 3.34988 18.1995 3.82396C17.9958 5.38399 17.2885 7.88093 16.1168 9.51776C15.5555 10.3613 15.2588 11.3452 15.2588 12.3632C15.2588 13.7314 15.7863 15.0178 16.7444 15.9854C17.7024 16.9531 18.9833 17.4933 20.3512 17.5065C21.738 17.5178 23.0451 16.9895 24.031 16.0132ZM30.6352 12.3064C30.3763 12.0475 30.3763 11.6279 30.6352 11.369C30.894 11.1102 31.3137 11.1102 31.5725 11.369L32.3383 12.1348L33.1041 11.369C33.3629 11.1102 33.7826 11.1102 34.0415 11.369C34.3003 11.6278 34.3003 12.0475 34.0415 12.3064L33.2757 13.0722L34.0415 13.838C34.3003 14.0968 34.3003 14.5165 34.0415 14.7753C33.7826 15.0342 33.363 15.0342 33.1041 14.7753L32.3383 14.0095L31.5725 14.7753C31.3137 15.0342 30.894 15.0342 30.6352 14.7753C30.3763 14.5165 30.3763 14.0968 30.6352 13.838L31.401 13.0722L30.6352 12.3064ZM19.4384 14.7753C19.1796 15.0342 18.7599 15.0342 18.5011 14.7753C18.2422 14.5165 18.2422 14.0968 18.5011 13.838L19.2669 13.0722L18.5011 12.3064C18.2422 12.0475 18.2422 11.6279 18.5011 11.369C18.7599 11.1102 19.1796 11.1102 19.4384 11.369L20.2042 12.1348L20.97 11.369C21.2288 11.1102 21.6485 11.1102 21.9074 11.369C22.1662 11.6278 22.1662 12.0475 21.9074 12.3064L21.1416 13.0722L21.9074 13.838C22.1662 14.0968 22.1662 14.5165 21.9074 14.7753C21.6485 15.0342 21.2289 15.0342 20.97 14.7753L20.2042 14.0095L19.4384 14.7753Z" fill="#FFCC00"/>
            <path d="M32.0344 18.8316C29.4866 18.8316 27.2779 17.3552 26.2204 15.2144C25.1639 17.393 22.8331 18.8595 20.4035 18.8316C20.3819 18.8316 20.3605 18.8315 20.3389 18.8313C19.1055 18.8193 17.9281 18.4662 16.916 17.8183C17.3372 19.143 17.9407 21.5438 18.0448 24.6618C18.0622 25.1827 18.4905 25.5957 19.0117 25.5957H33.6274C34.1488 25.5957 34.5773 25.1825 34.5944 24.6614C34.6975 21.5197 35.298 19.0468 35.7143 17.6798C34.6689 18.4055 33.4006 18.8316 32.0344 18.8316Z" fill="#FFCC00"/>
          </symbol>
        <symbol id="fast-runtime" viewBox="0 0 26 19">
            <path d="M25.4527 8.60901L17.9535 0.276635C17.7935 0.0999883 17.5702 0 17.3336 0H12.3342C12.1732 0.000174419 12.0157 0.0468136 11.8806 0.134316C11.7455 0.221818 11.6386 0.346463 11.5726 0.493277C11.4393 0.794909 11.4943 1.14653 11.7142 1.38984L18.7118 9.16561L11.7142 16.9397C11.4943 17.1847 11.4376 17.5363 11.5726 17.8363C11.7076 18.1379 12.0059 18.3312 12.3342 18.3312H17.3336C17.5702 18.3312 17.7935 18.2296 17.9535 18.0563L25.4527 9.72388C25.7376 9.40725 25.7376 8.92397 25.4527 8.60901Z" />
            <path d="M14.6192 8.60901L7.12003 0.276635C6.96005 0.0999883 6.73674 0 6.50011 0H1.50068C1.33972 0.000174419 1.18223 0.0468136 1.04714 0.134316C0.912041 0.221818 0.805079 0.346463 0.739099 0.493277C0.605781 0.794909 0.660775 1.14653 0.88075 1.38984L7.87828 9.16561L0.88075 16.9397C0.660775 17.1847 0.604115 17.5363 0.739099 17.8363C0.874084 18.1379 1.17238 18.3312 1.50068 18.3312H6.50011C6.73674 18.3312 6.96005 18.2296 7.12003 18.0563L14.6192 9.72388C14.9041 9.40725 14.9041 8.92397 14.6192 8.60901Z"/>
        </symbol>
        <symbol id="support"  viewBox="0 0 26 25" >
            <path d="M23.9163 10.9552C23.0486 10.6716 22.373 10.018 22.0636 9.1619C21.7608 8.32523 21.8516 7.40717 22.3127 6.64327C22.8122 5.81633 22.7352 4.80299 22.1211 4.12159L22.0252 4.01659C21.401 3.33937 20.3938 3.15659 19.5771 3.57103C18.7627 3.98409 17.8235 3.99937 16.9994 3.61298C16.1752 3.22686 15.586 2.49464 15.3827 1.60463C15.1785 0.711571 14.3938 0.0549006 13.4743 0.00795587L13.3304 0.00156701C12.4085 -0.0342665 11.5724 0.547681 11.2885 1.41713C11.0049 2.28519 10.3515 2.96047 9.49542 3.2702C8.65847 3.57242 7.74041 3.48187 6.97652 3.02103C6.1504 2.52186 5.1365 2.59797 4.45595 3.21186L4.35011 3.30825C3.67316 3.93242 3.48983 4.9391 3.90455 5.75632C4.31733 6.5705 4.33289 7.50995 3.9465 8.3344C3.56011 9.15857 2.82816 9.74774 1.93815 9.95107C1.04481 10.1552 0.388143 10.94 0.341476 11.8597L0.335087 12.0036C0.298976 12.9216 0.880924 13.7614 1.75065 14.0453C2.61843 14.3289 3.29399 14.9825 3.60344 15.8386C3.90622 16.6753 3.81539 17.5933 3.35427 18.3572C2.8551 19.1842 2.93177 20.1975 3.54594 20.8789L3.64177 20.9839C4.26594 21.6609 5.27289 21.8436 6.08984 21.4295C6.90346 21.0164 7.84291 21.0011 8.66764 21.3875C9.49181 21.7736 10.081 22.5059 10.2843 23.3959C10.4885 24.2892 11.2732 24.9456 12.1927 24.9923L12.3365 24.9987C12.3638 24.9995 12.3904 25.0001 12.4171 25.0001C13.3032 25.0001 14.1027 24.427 14.3782 23.5828C14.6618 22.715 15.3152 22.0398 16.1713 21.7298C17.008 21.427 17.926 21.5178 18.6902 21.9792C19.5174 22.4781 20.5308 22.4017 21.2116 21.7875L21.3166 21.6917C21.9936 21.0675 22.1769 20.0609 21.7622 19.2436C21.3494 18.4297 21.3338 17.49 21.7202 16.6658C22.1066 15.8417 22.8388 15.2525 23.7286 15.0492C24.6219 14.8453 25.2786 14.0605 25.3252 13.1405L25.3319 12.9966C25.368 12.0789 24.7861 11.2391 23.9163 10.9552ZM12.8335 6.47744C14.4841 6.47744 15.8271 7.82023 15.8271 9.47079C15.8271 11.1214 14.4843 12.4644 12.8335 12.4644C11.1829 12.4644 9.84014 11.1216 9.84014 9.47079C9.84014 7.8205 11.1829 6.47744 12.8335 6.47744ZM17.8252 18.027V18.0397C17.8252 18.3064 17.6091 18.5228 17.3421 18.5228H16.8594H8.80736H8.32458C8.05791 18.5228 7.84152 18.3067 7.84152 18.0397V18.027V17.2908C7.84152 15.2572 9.46153 13.5989 11.4785 13.5289C11.5227 13.5272 11.5657 13.5222 11.6102 13.5222H14.056C14.1004 13.5222 14.1435 13.5272 14.1877 13.5289C16.2046 13.5992 17.8249 15.2572 17.8249 17.2911L17.8252 18.027Z" />
        </symbol>
        <!-- End Features -->
    
        <!-- Get access icons -->
        <symbol id="19-series" viewBox="0 0 24 18" fill="none">
            <path d="M16.1011 0.673828C17.5884 0.673828 18.8688 0.980494 19.9421 1.59383C21.0154 2.20716 21.8434 3.10416 22.4261 4.28483C23.0088 5.45016 23.3001 6.90683 23.3001 8.65483C23.3001 10.5102 22.9474 12.0818 22.2421 13.3698C21.5521 14.6578 20.5938 15.6392 19.3671 16.3138C18.1404 16.9885 16.7144 17.3258 15.0891 17.3258C14.2458 17.3258 13.4331 17.2338 12.6511 17.0498C11.8691 16.8658 11.1944 16.5898 10.6271 16.2218L12.0071 13.4848C12.4518 13.7915 12.9271 14.0062 13.4331 14.1288C13.9391 14.2362 14.4681 14.2898 15.0201 14.2898C16.4001 14.2898 17.4964 13.8682 18.3091 13.0248C19.1371 12.1815 19.5511 10.9318 19.5511 9.27583C19.5511 8.99983 19.5434 8.69316 19.5281 8.35583C19.5128 8.0185 19.4744 7.68116 19.4131 7.34383L20.4251 8.30983C20.1644 8.90783 19.7964 9.41383 19.3211 9.82783C18.8458 10.2265 18.2938 10.5332 17.6651 10.7478C17.0364 10.9472 16.3311 11.0468 15.5491 11.0468C14.5218 11.0468 13.5864 10.8398 12.7431 10.4258C11.9151 10.0118 11.2481 9.42916 10.7421 8.67783C10.2514 7.92649 10.0061 7.04483 10.0061 6.03283C10.0061 4.92883 10.2744 3.97816 10.8111 3.18083C11.3631 2.38349 12.0991 1.77016 13.0191 1.34083C13.9544 0.896162 14.9818 0.673828 16.1011 0.673828ZM16.3311 3.45683C15.7944 3.45683 15.3268 3.55649 14.9281 3.75583C14.5294 3.93983 14.2151 4.21583 13.9851 4.58383C13.7551 4.93649 13.6401 5.35816 13.6401 5.84883C13.6401 6.58483 13.8854 7.17516 14.3761 7.61983C14.8821 8.04916 15.5491 8.26383 16.3771 8.26383C16.9138 8.26383 17.3891 8.16416 17.8031 7.96483C18.2324 7.75016 18.5621 7.45883 18.7921 7.09083C19.0221 6.72283 19.1371 6.30883 19.1371 5.84883C19.1371 5.38883 19.0221 4.9825 18.7921 4.62983C18.5774 4.26183 18.2631 3.97816 17.8491 3.77883C17.4351 3.56416 16.9291 3.45683 16.3311 3.45683Z" fill="#FFCC00"/>
            <path d="M3.9202 17.0492V2.32922L5.5302 3.93922H0.700195V0.949219H7.6462V17.0492H3.9202Z" fill="#FFCC00"/>
        </symbol>
        <symbol id="unlim-downloads" viewBox="0 0 24 22" fill="none">
            <path d="M21.1336 12.9129C19.8955 14.1596 18.2589 14.9318 16.5095 15.0947C16.2728 15.0947 16.0321 15.1263 15.7875 15.1263H15.7165C14.3581 15.1188 13.0277 14.7395 11.8696 14.0294C11.5155 13.8183 11.1814 13.5753 10.8714 13.3035C10.7268 13.1825 10.5847 13.0509 10.4453 12.9089C10.1316 12.5956 9.84643 12.2549 9.59312 11.891C9.23774 11.6963 8.84505 11.5793 8.44104 11.5477H8.18064C7.60536 11.5472 7.04283 11.7173 6.56424 12.0365C6.08565 12.3557 5.71251 12.8097 5.49202 13.3411C5.27154 13.8724 5.21362 14.4573 5.3256 15.0215C5.43759 15.5858 5.71444 16.1042 6.12112 16.5111C6.52604 16.921 7.04347 17.2015 7.6079 17.3172C8.17234 17.4329 8.7584 17.3785 9.29192 17.161C9.82544 16.9434 10.2824 16.5725 10.605 16.0951C10.9276 15.6177 11.1014 15.0554 11.1042 14.4792C12.434 15.3833 13.9982 15.881 15.606 15.9114C15.334 17.2855 14.6854 18.5569 13.7327 19.5837C12.7799 20.6105 11.5605 21.3522 10.2105 21.726C8.86058 22.0998 7.43331 22.091 6.08809 21.7005C4.74288 21.3101 3.53269 20.5533 2.59268 19.5149C1.65267 18.4764 1.01985 17.197 0.764887 15.8197C0.509929 14.4424 0.642872 13.0213 1.14887 11.7151C1.65487 10.409 2.514 9.26919 3.63031 8.42308C4.74662 7.57697 6.07617 7.05784 7.47046 6.92366C7.71113 6.89999 7.95181 6.88815 8.19642 6.88815H8.26744C9.63838 6.89615 10.9805 7.28253 12.1458 8.00471C12.5114 8.22382 12.8561 8.47608 13.1756 8.75829C13.3018 8.86482 13.4281 8.98318 13.5465 9.10155C13.8359 9.39705 14.0999 9.71645 14.3356 10.0563C14.6952 10.2755 15.0999 10.4104 15.5192 10.4509C15.9188 10.49 16.3221 10.445 16.7033 10.3188C17.0844 10.1927 17.4349 9.98807 17.7322 9.71826C18.0295 9.44845 18.2671 9.11938 18.4295 8.75223C18.592 8.38508 18.6758 7.98798 18.6756 7.58649C18.648 6.84159 18.3327 6.13639 17.7959 5.61914C17.2591 5.1019 16.5428 4.8129 15.7973 4.8129C15.0519 4.8129 14.3355 5.1019 13.7988 5.61914C13.262 6.13639 12.9467 6.84159 12.9191 7.58649C11.5853 6.66344 10.0077 6.15678 8.38581 6.13062C8.60888 4.96904 9.10154 3.87606 9.82415 2.93965C10.5468 2.00324 11.4791 1.24956 12.5462 0.739285C13.6133 0.229005 14.7852 -0.0236224 15.9678 0.001737C17.1503 0.0270964 18.3104 0.329734 19.3546 0.885291C20.3988 1.44085 21.298 2.2338 21.9798 3.20033C22.6616 4.16686 23.1069 5.27995 23.28 6.45003C23.4531 7.6201 23.349 8.81446 22.9762 9.93698C22.6034 11.0595 21.9722 12.0788 21.1336 12.9129Z" fill="#FFCB1E"/>
        </symbol>
        <symbol id="premium-membership" viewBox="0 0 24 24" fill="none">
            <path d="M14.5513 18.6001H13.4737L13.1413 17.5754C12.9805 17.081 12.5197 16.7461 12 16.7461C11.4805 16.7461 11.0197 17.081 10.8588 17.5754L10.5255 18.6001H9.44908C8.92954 18.6001 8.46875 18.935 8.30783 19.4282C8.14711 19.9226 8.32349 20.4639 8.74336 20.7698L9.61585 21.4034L9.28216 22.4282C9.12145 22.9214 9.29783 23.4638 9.7177 23.7685C10.139 24.0757 10.7077 24.0757 11.1278 23.7697L12.0003 23.1375L12.8727 23.7711C13.0827 23.9236 13.33 23.9991 13.5771 23.9991C13.8254 23.9991 14.0727 23.9236 14.2826 23.7699C14.7039 23.4651 14.8791 22.9227 14.7181 22.4296L14.3845 21.4048L15.2569 20.7712C15.6782 20.4652 15.8534 19.924 15.6925 19.4296C15.532 18.935 15.0723 18.6001 14.5514 18.6001L14.5513 18.6001Z" fill="#FFCC00"/>
            <path d="M6.30368 18.6001H5.22609L4.89362 17.5754C4.73291 17.081 4.27205 16.7461 3.75237 16.7461C3.23284 16.7461 2.77204 17.081 2.61112 17.5754L2.27763 18.6001H1.20005C0.680521 18.6001 0.219722 18.935 0.0588019 19.4282C-0.101912 19.9226 0.0744716 20.4639 0.49434 20.7698L1.36683 21.4034L1.03314 22.4282C0.872427 22.9214 1.04881 23.4638 1.46868 23.7685C1.88995 24.0757 2.45868 24.0757 2.87875 23.7697L3.75123 23.1361L4.62372 23.7697C4.83486 23.9246 5.08216 24.0001 5.32927 24.0001C5.57757 24.0001 5.82487 23.9246 6.03481 23.7709C6.45609 23.4662 6.63128 22.9237 6.47035 22.4306L6.13667 21.4058L7.00915 20.7722C7.43043 20.4663 7.60562 19.925 7.44469 19.4307C7.28418 18.9351 6.82333 18.6002 6.3038 18.6002L6.30368 18.6001Z" fill="#FFCC00"/>
            <path d="M23.941 19.4282C23.7801 18.9351 23.3193 18.6001 22.7998 18.6001H21.7222L21.3897 17.5754C21.229 17.081 20.7681 16.7461 20.2485 16.7461C19.7289 16.7461 19.2681 17.081 19.1072 17.5754L18.7737 18.6001H17.6961C17.1766 18.6001 16.7158 18.935 16.5549 19.4282C16.3942 19.9226 16.5706 20.4639 16.9904 20.7698L17.8629 21.4034L17.5292 22.4282C17.3685 22.9214 17.5449 23.4638 17.9648 23.7685C18.386 24.0757 18.9548 24.0757 19.3748 23.7697L20.2473 23.1361L21.1198 23.7697C21.3297 23.9222 21.577 23.9977 21.8241 23.9977C22.0724 23.9977 22.3197 23.9222 22.5297 23.7685C22.9509 23.4638 23.1261 22.9213 22.9652 22.4282L22.6315 21.4034L23.504 20.7698C23.9255 20.4651 24.1019 19.9239 23.9412 19.4282L23.941 19.4282Z" fill="#FFCC00"/>
            <path d="M17.9997 8.40018V11.0174L13.9606 11.825C13.5248 11.2071 12.8109 10.8003 11.9997 10.8003C10.676 10.8003 9.5996 11.8766 9.5996 13.2003C9.5996 14.524 10.676 15.6004 11.9997 15.6004C12.9525 15.6004 13.7697 15.0377 14.1572 14.2323L19.4348 13.1762C19.9963 13.0645 20.3995 12.5725 20.3995 12.0002C21.0619 12.0002 21.5995 11.4638 21.5995 10.8003L21.5997 8.40018C21.5997 7.73665 21.0621 7.20025 20.3997 7.20025C20.3674 7.20025 20.3385 7.21713 20.3061 7.21954C19.7287 3.14666 16.2296 0 11.9994 0C7.76919 0 4.27019 3.1464 3.69317 7.21902C3.66062 7.21661 3.63189 7.19994 3.59955 7.19994C2.937 7.19994 2.39941 7.73634 2.39941 8.39987V10.7999C2.39941 11.4635 2.937 11.9999 3.59934 11.9999C3.59934 12.6634 4.13693 13.1998 4.79928 13.1998C5.46162 13.1998 5.99921 12.6634 5.99921 11.9999L5.99941 8.39987C5.99941 5.09158 8.69097 2.3997 11.9996 2.3997C15.3079 2.3997 17.9997 5.09147 17.9997 8.39987L17.9997 8.40018Z" fill="#FFCC00"/>
        </symbol>
        <symbol id="special-offer" viewBox="0 0 26 24" fill="none">
            <path d="M25.75 12C25.75 10.7831 23.2268 9.96312 22.851 8.85213C22.4753 7.71477 24.0321 5.57199 23.3073 4.61966C22.5825 3.64097 20.0593 4.46097 19.0663 3.74673C18.0999 3.05902 18.0732 0.413781 16.9188 0.0434957C15.7915 -0.326828 14.2346 1.7894 12.973 1.7894C11.7382 1.7894 10.1546 -0.326837 9.02723 0.0434957C7.87312 0.413819 7.84613 3.03266 6.87981 3.74673C5.8867 4.46099 3.36353 3.641 2.63874 4.61966C1.94089 5.57194 3.4708 7.71458 3.09503 8.85213C2.77318 9.96312 0.25 10.7831 0.25 12C0.25 13.2169 2.77322 14.0369 3.14896 15.1479C3.52474 16.2852 1.96785 18.428 2.69266 19.3803C3.41745 20.359 5.94067 19.539 6.93373 20.2533C7.90005 20.941 7.92685 23.5862 9.08116 23.9565C10.2085 24.3268 11.7654 22.2106 13.027 22.2106C14.2618 22.2106 15.8454 24.3268 16.9728 23.9565C18.1269 23.5862 18.1539 20.9673 19.1202 20.2533C20.1133 19.539 22.6365 20.359 23.3613 19.3803C24.0591 18.4281 22.5292 16.2854 22.905 15.1479C23.2268 14.0369 25.75 13.2169 25.75 12ZM9.69836 6.97406C10.6915 6.97406 11.4968 7.76767 11.4968 8.74636C11.4968 9.72505 10.6915 10.5187 9.69836 10.5187C8.70525 10.5187 7.89993 9.72505 7.89993 8.74636C7.89993 7.76748 8.70506 6.97406 9.69836 6.97406ZM16.3015 17.0259C15.3084 17.0259 14.5031 16.2323 14.5031 15.2536C14.5031 14.2749 15.3084 13.4813 16.3015 13.4813C17.2947 13.4813 18.1 14.2749 18.1 15.2536C18.1 16.2325 17.2948 17.0259 16.3015 17.0259ZM17.8047 8.93153L9.88621 16.735C9.64467 16.973 9.34941 17.0789 9.02716 17.0789C8.73189 17.0789 8.40984 16.9732 8.16812 16.735C7.71182 16.2853 7.71182 15.5181 8.16812 15.0684L16.0866 7.26498C16.5429 6.81532 17.3214 6.81532 17.7777 7.26498C18.2611 7.74122 18.2611 8.48189 17.8046 8.93153H17.8047Z" fill="#FFCC00"/>
        </symbol>
        <symbol id="early-access" viewBox="0 0 24 22" fill="none">
            <path fill-rule="evenodd" clip-rule="evenodd" d="M1.50103 9.30244C1.42531 9.30382 1.35018 9.2889 1.28074 9.25869C1.21129 9.22848 1.14916 9.18368 1.09856 9.12734C1.04795 9.071 1.01006 9.00443 0.987455 8.93215C0.964847 8.85987 0.958052 8.78357 0.967531 8.70844C1.27733 6.50918 2.29437 4.47045 3.86504 2.90019C5.4357 1.32992 7.47468 0.313398 9.67402 0.00414999C9.74906 -0.00531452 9.82526 0.00145432 9.89746 0.0239981C9.96966 0.0465419 10.0362 0.0843345 10.0925 0.134817C10.1488 0.1853 10.1936 0.247295 10.2239 0.316605C10.2542 0.385915 10.2692 0.460922 10.268 0.536549V1.27135C10.268 1.49103 10.3553 1.70171 10.5106 1.85704C10.666 2.01238 10.8766 2.09965 11.0963 2.09965C11.316 2.09965 11.5267 2.01238 11.682 1.85704C11.8373 1.70171 11.9246 1.49103 11.9246 1.27135V0.536549C11.9234 0.460922 11.9384 0.385915 11.9687 0.316605C11.999 0.247295 12.0438 0.1853 12.1001 0.134817C12.1565 0.0843345 12.223 0.0465419 12.2952 0.0239981C12.3674 0.00145432 12.4436 -0.00531452 12.5186 0.00414999C17.4917 0.697149 21.3186 4.96734 21.3186 10.1307V10.2803C21.3131 10.6818 20.8731 10.9106 20.5024 10.7555C19.2737 10.2396 17.9191 10.1012 16.6114 10.358C15.3037 10.6148 14.1021 11.2552 13.1598 12.1975C12.2175 13.1399 11.5771 14.3415 11.3202 15.6492C11.0634 16.9568 11.2018 18.3114 11.7178 19.5401C11.874 19.9097 11.6452 20.3497 11.2448 20.3541C11.1942 20.3563 11.1447 20.3563 11.0941 20.3563C5.92963 20.3563 1.65833 16.5261 0.967531 11.5519C0.958067 11.4769 0.964835 11.4007 0.987379 11.3285C1.00992 11.2563 1.04772 11.1898 1.0982 11.1335C1.14868 11.0771 1.21068 11.0323 1.27999 11.002C1.3493 10.9717 1.4243 10.9567 1.49993 10.9579H2.23803C2.45785 10.9579 2.66868 10.8706 2.82411 10.7152C2.97955 10.5597 3.06688 10.3489 3.06688 10.1291C3.06688 9.90926 2.97955 9.69844 2.82411 9.543C2.66868 9.38756 2.45785 9.30024 2.23803 9.30024L1.50103 9.30244ZM11.9235 6.01784C11.9235 5.79816 11.8363 5.58748 11.6809 5.43215C11.5256 5.27681 11.3149 5.18954 11.0952 5.18954C10.8755 5.18954 10.6649 5.27681 10.5095 5.43215C10.3542 5.58748 10.2669 5.79816 10.2669 6.01784V9.81394C10.2669 9.96684 10.2042 10.112 10.0931 10.2165L7.99432 12.1877C7.91502 12.2622 7.85116 12.3516 7.80638 12.4507C7.76161 12.5499 7.73681 12.6568 7.73339 12.7656C7.72996 12.8743 7.74799 12.9827 7.78644 13.0844C7.82489 13.1862 7.88301 13.2794 7.95747 13.3587C8.03194 13.438 8.1213 13.5019 8.22044 13.5466C8.31959 13.5914 8.42658 13.6162 8.53532 13.6196C8.64405 13.623 8.75239 13.605 8.85415 13.5666C8.95592 13.5281 9.04912 13.47 9.12842 13.3955L11.4879 11.179C11.7662 10.9183 11.9235 10.5531 11.9235 10.1725V6.01784Z" fill="#FFCB1E"/>
            <path fill-rule="evenodd" clip-rule="evenodd" d="M17.9088 21.9988C18.5786 22.0087 19.2437 21.8853 19.8654 21.6358C20.4871 21.3863 21.053 21.0157 21.5302 20.5455C22.0073 20.0753 22.3862 19.515 22.6449 18.897C22.9035 18.2791 23.0367 17.6159 23.0367 16.946C23.0367 16.2761 22.9035 15.6129 22.6449 14.9949C22.3862 14.377 22.0073 13.8166 21.5302 13.3464C21.053 12.8762 20.4871 12.5056 19.8654 12.2561C19.2437 12.0066 18.5786 11.8832 17.9088 11.8931C16.5816 11.9127 15.3154 12.4537 14.3838 13.3991C13.4522 14.3446 12.9299 15.6186 12.9299 16.946C12.9299 18.2733 13.4522 19.5473 14.3838 20.4928C15.3154 21.4383 16.5816 21.9792 17.9088 21.9988ZM20.595 16.2535C20.7338 16.0839 20.7997 15.8662 20.7784 15.6481C20.757 15.43 20.65 15.2292 20.4809 15.0898C20.3118 14.9503 20.0943 14.8836 19.8761 14.9042C19.6579 14.9248 19.4568 15.0311 19.3168 15.1997L18.0232 16.7672C17.9757 16.825 17.9169 16.8726 17.8505 16.9069C17.7841 16.9413 17.7113 16.9618 17.6367 16.9672C17.5621 16.9725 17.4872 16.9626 17.4165 16.9381C17.3458 16.9135 17.2809 16.8749 17.2257 16.8244L16.7879 16.4251C16.6247 16.2831 16.4125 16.2106 16.1966 16.223C15.9806 16.2354 15.7781 16.3318 15.6323 16.4915C15.4865 16.6513 15.409 16.8617 15.4163 17.0779C15.4236 17.294 15.5151 17.4988 15.6714 17.6483L16.8044 18.6823C17.3346 19.1663 18.2157 19.1388 18.6942 18.558L20.595 16.2535Z" fill="#FFCB1E"/>
        </symbol>
        <!-- End Get access icons -->
    
        <!-- Hamburger -->
        <symbol id="hamburger" viewBox="0 0 24 20" fill="none">
            <path fill-rule="evenodd" clip-rule="evenodd" d="M10 18.3333C10 17.8913 10.1756 17.4674 10.4882 17.1548C10.8007 16.8423 11.2246 16.6667 11.6667 16.6667H21.6667C22.1087 16.6667 22.5326 16.8423 22.8452 17.1548C23.1577 17.4674 23.3333 17.8913 23.3333 18.3333C23.3333 18.7754 23.1577 19.1993 22.8452 19.5118C22.5326 19.8244 22.1087 20 21.6667 20H11.6667C11.2246 20 10.8007 19.8244 10.4882 19.5118C10.1756 19.1993 10 18.7754 10 18.3333ZM0 1.66667C0 1.22464 0.175595 0.800716 0.488155 0.488156C0.800716 0.175595 1.22464 0 1.66667 0H21.6667C22.1087 0 22.5326 0.175595 22.8452 0.488156C23.1577 0.800716 23.3333 1.22464 23.3333 1.66667C23.3333 2.10869 23.1577 2.53262 22.8452 2.84518C22.5326 3.15774 22.1087 3.33333 21.6667 3.33333H1.66667C1.22464 3.33333 0.800716 3.15774 0.488155 2.84518C0.175595 2.53262 0 2.10869 0 1.66667ZM0 10C0 9.55797 0.175595 9.13405 0.488155 8.82149C0.800716 8.50893 1.22464 8.33333 1.66667 8.33333H21.6667C22.1087 8.33333 22.5326 8.50893 22.8452 8.82149C23.1577 9.13405 23.3333 9.55797 23.3333 10C23.3333 10.442 23.1577 10.8659 22.8452 11.1785C22.5326 11.4911 22.1087 11.6667 21.6667 11.6667H1.66667C1.22464 11.6667 0.800716 11.4911 0.488155 11.1785C0.175595 10.8659 0 10.442 0 10Z" fill="white"/>
          </symbol>
        <!-- End hamburger -->
    
        <!-- Download icons -->
        <symbol id="download-4k" viewBox="0 0 40 22" fill="none" xmlns="http://www.w3.org/2000/svg">
            <path d="M0.54 11.98V17.05H9.6V22H15.39V17.05H18.03V11.98H15.39V0.159999H9.6L0.54 11.62L0.69 11.98H0.54ZM6.96 11.98L9.6 8.77V11.98H6.96ZM27.8079 22V12.85L32.7579 22H39.2979L33.1179 11.02L39.2979 0.159999H32.7579L27.8079 9.25V0.159999H22.0179V22H27.8079Z" fill="white"/>
        </symbol>
        <symbol id="download-hd-sm" viewBox="0 0 54 42" fill="none" xmlns="http://www.w3.org/2000/svg">
            <path d="M12.75 31V22.12H19.02V31H25.02V9.16H19.02V17.77H12.75V9.16H6.78V31H12.75ZM28.9847 9.16V31H38.1647V30.97C43.9247 30.55 47.7647 26.32 47.7647 20.08C47.7647 13.81 43.9247 9.55 38.1047 9.19V9.16H28.9847ZM34.7747 14.56H37.6847C39.8447 14.83 41.3147 17.05 41.3147 20.14C41.3147 23.2 39.8147 25.33 37.7147 25.6H34.7747V14.56Z" fill="white"/>
            <path d="M3.96 40H3.024V37.432H1.472V40H0.536V34.288H1.472V36.616H3.024V34.288H3.96V40ZM6.72419 40H4.74019V39.488L5.26819 39.296V34.992L4.74019 34.8V34.288H6.72419V34.8L6.20419 34.992V39.296L6.72419 39.488V40ZM9.39275 36.856H11.0568V39.776C10.8008 39.8773 10.5368 39.952 10.2648 40C9.99275 40.0533 9.71542 40.08 9.43275 40.08C8.96342 40.08 8.57142 39.9573 8.25675 39.712C7.94742 39.4613 7.71542 39.1147 7.56075 38.672C7.41142 38.2293 7.33675 37.7147 7.33675 37.128C7.33675 36.5413 7.42208 36.032 7.59275 35.6C7.76342 35.1627 8.01675 34.8213 8.35275 34.576C8.69408 34.3307 9.11275 34.208 9.60875 34.208C9.87008 34.208 10.1154 34.24 10.3448 34.304C10.5794 34.368 10.7928 34.456 10.9848 34.568L10.6888 35.352C10.5234 35.24 10.3528 35.1573 10.1768 35.104C10.0008 35.0507 9.82208 35.024 9.64075 35.024C9.34742 35.024 9.10208 35.1067 8.90475 35.272C8.70742 35.432 8.55808 35.672 8.45675 35.992C8.35542 36.3067 8.30475 36.6933 8.30475 37.152C8.30475 37.568 8.34742 37.936 8.43275 38.256C8.51808 38.5707 8.64608 38.816 8.81675 38.992C8.99275 39.168 9.21942 39.256 9.49675 39.256C9.57675 39.256 9.65408 39.2533 9.72875 39.248C9.80342 39.2373 9.87542 39.224 9.94475 39.208C10.0141 39.192 10.0808 39.176 10.1448 39.16V37.664H9.39275V36.856ZM15.4366 40H14.5006V37.432H12.9486V40H12.0126V34.288H12.9486V36.616H14.5006V34.288H15.4366V40ZM21.3981 37.056C21.3981 37.696 21.3127 38.2347 21.1421 38.672C20.9767 39.1093 20.7341 39.44 20.4141 39.664C20.0941 39.888 19.6967 40 19.2221 40H17.9501V34.288H19.2941C19.7474 34.288 20.1287 34.3947 20.4381 34.608C20.7527 34.816 20.9901 35.1253 21.1501 35.536C21.3154 35.9467 21.3981 36.4533 21.3981 37.056ZM20.4301 37.096C20.4301 36.6427 20.3847 36.2693 20.2941 35.976C20.2087 35.6827 20.0807 35.464 19.9101 35.32C19.7394 35.176 19.5261 35.104 19.2701 35.104H18.8861V39.176H19.2141C19.6301 39.176 19.9367 39.0053 20.1341 38.664C20.3314 38.3173 20.4301 37.7947 20.4301 37.096ZM24.7498 40H22.2938V34.288H24.7498V35.096H23.2298V36.624H24.6538V37.432H23.2298V39.176H24.7498V40ZM26.5736 40H25.6376V34.288H28.0856V35.096H26.5736V36.84H27.9896V37.656H26.5736V40ZM30.5445 40H28.5605V39.488L29.0885 39.296V34.992L28.5605 34.8V34.288H30.5445V34.8L30.0245 34.992V39.296L30.5445 39.488V40ZM35.0691 40H33.9571L32.1811 35.76H32.1491C32.1597 35.888 32.1677 36.0107 32.1731 36.128C32.1837 36.2453 32.1891 36.3573 32.1891 36.464C32.1944 36.5707 32.1971 36.672 32.1971 36.768C32.2024 36.864 32.2051 36.952 32.2051 37.032V40H31.3251V34.288H32.4371L34.2051 38.44H34.2371C34.2317 38.3173 34.2237 38.1973 34.2131 38.08C34.2077 37.9627 34.2024 37.8533 34.1971 37.752C34.1917 37.6453 34.1864 37.5467 34.1811 37.456C34.1811 37.36 34.1811 37.2747 34.1811 37.2V34.288H35.0691V40ZM37.8336 40H35.8496V39.488L36.3776 39.296V34.992L35.8496 34.8V34.288H37.8336V34.8L37.3136 34.992V39.296L37.8336 39.488V40ZM40.1821 40H39.2541V35.112H38.1741V34.288H41.2541V35.112H40.1821V40ZM43.5992 40H41.6152V39.488L42.1432 39.296V34.992L41.6152 34.8V34.288H43.5992V34.8L43.0792 34.992V39.296L43.5992 39.488V40ZM48.0998 37.136C48.0998 37.5733 48.0598 37.9733 47.9798 38.336C47.9051 38.6933 47.7878 39.0027 47.6278 39.264C47.4678 39.5253 47.2651 39.728 47.0198 39.872C46.7798 40.0107 46.4918 40.08 46.1558 40.08C45.8198 40.08 45.5291 40.008 45.2838 39.864C45.0384 39.72 44.8358 39.5173 44.6758 39.256C44.5158 38.9947 44.3984 38.6853 44.3238 38.328C44.2491 37.9653 44.2118 37.5653 44.2118 37.128C44.2118 36.4827 44.2838 35.944 44.4278 35.512C44.5771 35.08 44.7958 34.7547 45.0838 34.536C45.3718 34.312 45.7291 34.2 46.1558 34.2C46.6038 34.2 46.9691 34.3253 47.2518 34.576C47.5398 34.8213 47.7531 35.1627 47.8918 35.6C48.0304 36.0373 48.0998 36.5493 48.0998 37.136ZM45.1798 37.136C45.1798 37.6 45.2171 37.9893 45.2918 38.304C45.3664 38.6133 45.4758 38.848 45.6198 39.008C45.7638 39.168 45.9424 39.248 46.1558 39.248C46.3691 39.248 46.5451 39.1707 46.6838 39.016C46.8278 38.8613 46.9371 38.6293 47.0118 38.32C47.0864 38.0053 47.1238 37.6107 47.1238 37.136C47.1238 36.4267 47.0438 35.8987 46.8838 35.552C46.7238 35.2 46.4811 35.024 46.1558 35.024C45.9424 35.024 45.7611 35.104 45.6118 35.264C45.4678 35.424 45.3584 35.6613 45.2838 35.976C45.2144 36.2853 45.1798 36.672 45.1798 37.136ZM52.7409 40H51.6289L49.8529 35.76H49.8209C49.8316 35.888 49.8396 36.0107 49.8449 36.128C49.8556 36.2453 49.8609 36.3573 49.8609 36.464C49.8663 36.5707 49.8689 36.672 49.8689 36.768C49.8743 36.864 49.8769 36.952 49.8769 37.032V40H48.9969V34.288H50.1089L51.8769 38.44H51.9089C51.9036 38.3173 51.8956 38.1973 51.8849 38.08C51.8796 37.9627 51.8743 37.8533 51.8689 37.752C51.8636 37.6453 51.8583 37.5467 51.8529 37.456C51.8529 37.36 51.8529 37.2747 51.8529 37.2V34.288H52.7409V40Z" fill="white"/>
        </symbol>
        <symbol id="download-hd" viewBox="0 0 42 22" fill="none" xmlns="http://www.w3.org/2000/svg">
            <path d="M6.75 22V13.12H13.02V22H19.02V0.159999H13.02V8.77H6.75V0.159999H0.78V22H6.75ZM22.9847 0.159999V22H32.1647V21.97C37.9247 21.55 41.7647 17.32 41.7647 11.08C41.7647 4.81 37.9247 0.549999 32.1047 0.189998V0.159999H22.9847ZM28.7747 5.56H31.6847C33.8447 5.83 35.3147 8.05 35.3147 11.14C35.3147 14.2 33.8147 16.33 31.7147 16.6H28.7747V5.56Z" fill="white"/>
        </symbol>
        <symbol id="download-sd" viewBox="0 0 39 24" fill="none" xmlns="http://www.w3.org/2000/svg">
            <path d="M0.21 21.08C1.8 22.79 5.52 23.42 8.01 23.42C12.39 23.42 16.35 20.54 16.11 15.98C15.9 11.9 11.85 10.16 8.85 8.75C7.29 8 8.76 6.5 9.81 6.32C11.7 5.96 13.47 7.13 13.92 7.76L15.9 2.3C14.4 1.4 11.88 0.769998 10.02 0.769998C5.19 0.769998 1.29 3.17 1.32 7.82C1.35 12.5 7.92 13.31 9.33 16.01C9.93 17.15 8.97 18.05 7.5 18.02C5.76 17.99 3.66 16.82 2.31 15.56L0.21 21.08ZM19.7327 1.16V23H28.9127V22.97C34.6727 22.55 38.5127 18.32 38.5127 12.08C38.5127 5.81 34.6727 1.55 28.8527 1.19V1.16H19.7327ZM25.5227 6.56H28.4327C30.5927 6.83 32.0627 9.05 32.0627 12.14C32.0627 15.2 30.5627 17.33 28.4627 17.6H25.5227V6.56Z" fill="white"/>
        </symbol>
        <symbol id="download-mobile-video" viewBox="0 0 21 30" fill="none" xmlns="http://www.w3.org/2000/svg">
            <path d="M20.922 2.214V24.6H0V2.214C0 0.99615 0.989925 0 2.20807 0H18.7081C19.9259 0 20.9221 0.996075 20.9221 2.214H20.922Z" fill="white"/>
            <path d="M0 27.7858C0 29.0098 0.989925 29.9998 2.20807 29.9998H18.7081C19.9259 29.9998 20.9221 29.0099 20.9221 27.7858V25.7998H7.43866e-05L0 27.7858ZM8.7 26.6998H12.2221C12.552 26.6998 12.8221 26.9699 12.8221 27.2998C12.8221 27.6358 12.552 27.8998 12.2221 27.8998H8.7C8.36396 27.8998 8.1 27.6358 8.1 27.2998C8.1 26.9699 8.36396 26.6998 8.7 26.6998Z" fill="white"/>
        </symbol>
        <symbol id="download-images" viewBox="0 0 37 30" fill="none" xmlns="http://www.w3.org/2000/svg">
            <g clip-path="url(#clip0_41_12)">
            <path d="M11.1847 0.856944C10.1317 1.48552 9.39175 2.77123 9.39175 3.91409C9.39175 5.08552 10.3878 6.54266 11.5262 7.02837C12.7785 7.54266 13.2054 7.54266 14.4007 6.97123C16.9621 5.74266 16.9051 1.77123 14.3153 0.685515C13.0631 0.142658 12.2662 0.199801 11.1847 0.856944Z" fill="white"/>
            <path d="M16.4498 6.54244L15.5106 7.37101L15.3683 12.3139L15.226 17.2567L11.7539 17.8567C7.05804 18.6853 7.11496 18.6282 7.11496 22.771V25.9996H4.26897C1.79297 25.9996 1.33761 26.0853 0.853795 26.571C0.113839 27.3139 0.113839 28.3996 0.853795 29.1424C1.36607 29.6567 1.79297 29.7139 5.37891 29.7139C10.4732 29.7139 10.5017 29.7139 10.5871 26.1424L10.6724 23.571L15.596 23.4853L20.4911 23.4282V25.8567C20.4911 28.0853 20.548 28.371 21.2026 28.9996L21.8856 29.7139H28.3175H34.7494L35.4325 28.9996C36.1155 28.3139 36.3147 27.371 35.9732 26.4282C35.6602 25.6282 34.2656 25.1424 32.3019 25.1424H30.452V20.1139C30.452 15.9996 30.3666 14.9139 29.9682 14.0853C29.6267 13.3424 28.3175 12.171 25.2154 9.85672C22.8532 8.08529 20.5195 6.42815 20.0073 6.17101C18.6412 5.48529 17.5028 5.59958 16.4498 6.54244ZM23.1094 15.3424C25.7277 17.4282 25.9838 17.9996 26.1261 21.9139C26.24 25.0567 26.24 25.1424 25.6423 25.1424C25.0731 25.1424 25.0446 24.9996 25.0446 22.3424C25.0446 19.1139 24.6178 17.971 23.0525 16.9139C22.1987 16.3424 21.8287 16.2567 20.5765 16.3996L19.0681 16.571V14.3996V12.2282L20.1496 13.0282C20.7188 13.4567 22.0564 14.5139 23.1094 15.3424Z" fill="white"/>
            <path d="M1.96374 13.8569C1.1384 14.2854 0.284607 15.8569 0.284607 16.8569C0.284607 19.6569 3.84208 21.3426 5.94811 19.5426C8.39566 17.4854 7.02958 13.3997 3.899 13.4283C3.24443 13.4569 2.36217 13.6283 1.96374 13.8569Z" fill="white"/>
            </g>
            <defs>
            <clipPath id="clip0_41_12">
            <rect width="36.4286" height="30" fill="white"/>
            </clipPath>
            </defs>
        </symbol>
        <symbol id="download-subtitles" viewBox="0 0 35 31" fill="none" xmlns="http://www.w3.org/2000/svg">
            <path d="M31.7306 1.21578e-05H2.60383C1.91326 1.21578e-05 1.25092 0.274318 0.762496 0.76251C0.274332 1.25094 0 1.91328 0 2.60385V27.4662C0 28.1567 0.274305 28.8191 0.762496 29.3075C1.25093 29.7957 1.91326 30.07 2.60383 30.07H31.7306C32.4225 30.0721 33.0867 29.7986 33.5767 29.3101C34.0667 28.8215 34.3421 28.1581 34.3421 27.4662V2.60385C34.3421 1.91198 34.0668 1.24855 33.5767 0.759851C33.0867 0.27142 32.4225 -0.00210135 31.7306 1.21578e-05ZM5.17685 19.7122H13.1032C13.4765 19.6922 13.8419 19.827 14.1133 20.0842C14.3844 20.3415 14.5383 20.6992 14.5383 21.0731C14.5383 21.4473 14.3844 21.8046 14.1133 22.0622C13.8419 22.3195 13.4765 22.4539 13.1032 22.4342H5.17685C4.70786 22.4095 4.28441 22.1448 4.05669 21.7339C3.82898 21.323 3.82899 20.8235 4.05669 20.4126C4.28439 20.0017 4.70784 19.737 5.17685 19.7123V19.7122ZM21.5442 26.2522H5.17685C4.70786 26.2274 4.28441 25.9627 4.05669 25.5518C3.82898 25.1409 3.82899 24.6415 4.05669 24.2306C4.28439 23.8197 4.70784 23.5549 5.17685 23.5302H21.5442C21.9176 23.5102 22.2827 23.645 22.5541 23.9022C22.8254 24.1595 22.9791 24.5172 22.9791 24.8911C22.9791 25.2653 22.8254 25.6226 22.5541 25.8802C22.2827 26.1375 21.9176 26.272 21.5442 26.2523V26.2522Z" fill="white"/>
        </symbol>
        <!-- End download icons -->
    </defs>
</svg>