<svg width="0" height="0" class="hidden sprite" xmlns="http://www.w3.org/2000/svg" xmlns:xlink="http://www.w3.org/1999/xlink">
    <defs>
        <symbol id="logo" viewBox="0 0 270 54" fill="none">
            <g clip-path="url(#clip0_78_29744)">
            <path d="M267.945 0H196.383C195.358 0 194.527 0.832037 194.527 1.85841V51.7699C194.527 52.7963 195.358 53.6283 196.383 53.6283H267.945C268.97 53.6283 269.801 52.7963 269.801 51.7699V1.85841C269.801 0.832037 268.97 0 267.945 0Z" fill="#F1AC2B"/>
            <mask id="mask0_78_29744" style="mask-type:luminance" maskUnits="userSpaceOnUse" x="194" y="0" width="76" height="54">
            <path d="M267.945 0H196.383C195.358 0 194.527 0.832037 194.527 1.85841V51.7699C194.527 52.7963 195.358 53.6283 196.383 53.6283H267.945C268.97 53.6283 269.801 52.7963 269.801 51.7699V1.85841C269.801 0.832037 268.97 0 267.945 0Z" fill="white"/>
            </mask>
            <g mask="url(#mask0_78_29744)">
            <path d="M265.295 3.18555H199.033C198.301 3.18555 197.708 3.77986 197.708 4.51298V49.1148C197.708 49.8479 198.301 50.4422 199.033 50.4422H265.295C266.027 50.4422 266.62 49.8479 266.62 49.1148V4.51298C266.62 3.77986 266.027 3.18555 265.295 3.18555Z" fill="#222727"/>
            </g>
            <mask id="mask1_78_29744" style="mask-type:luminance" maskUnits="userSpaceOnUse" x="194" y="0" width="76" height="54">
            <path d="M267.945 0H196.383C195.358 0 194.527 0.832037 194.527 1.85841V51.7699C194.527 52.7963 195.358 53.6283 196.383 53.6283H267.945C268.97 53.6283 269.801 52.7963 269.801 51.7699V1.85841C269.801 0.832037 268.97 0 267.945 0Z" fill="white"/>
            </mask>
            <g mask="url(#mask1_78_29744)">
            <path d="M226.882 44.071V37.3866H229.518V29.4361H226.882V20.2197L217.708 25.8913V29.4361H212.842L225.869 7.96484H214.312L203.009 29.8919V37.3866H217.708V44.071H226.882ZM241.793 44.071V33.8418L244.53 29.9425L249.751 44.071H261.054L252.387 22.2453L260.953 7.96484H250.815L241.793 23.6632V7.96484H231.352V44.071H241.793Z" fill="#EFC127"/>
            </g>
            <mask id="mask2_78_29744" style="mask-type:luminance" maskUnits="userSpaceOnUse" x="194" y="0" width="76" height="54">
            <path d="M267.945 0H196.383C195.358 0 194.527 0.832037 194.527 1.85841V51.7699C194.527 52.7963 195.358 53.6283 196.383 53.6283H267.945C268.97 53.6283 269.801 52.7963 269.801 51.7699V1.85841C269.801 0.832037 268.97 0 267.945 0Z" fill="white"/>
            </mask>
            <g mask="url(#mask2_78_29744)">
            <path opacity="0.0594076" fill-rule="evenodd" clip-rule="evenodd" d="M265.132 0H267.945C268.97 0 269.8 0.832037 269.8 1.85841V58.1416C269.801 59.168 268.971 60 267.946 60L267.945 59.9991L230.573 59.9808L265.132 0Z" fill="black"/>
            </g>
            <path d="M59.6912 44.0827C66.3731 44.0827 74.2655 40.8332 74.2655 32.1517C74.2655 27.5442 71.3119 24.1007 65.5984 22.5002L60.6111 21.0937C58.1417 20.4147 56.3018 20.2207 56.3018 18.6202C56.3018 17.0197 57.9481 16.5347 60.1754 16.5347C62.2574 16.5347 65.5015 17.4562 67.3415 18.9112L73.055 11.7817C69.133 9.45372 66.0342 8.38672 59.6428 8.38672C50.9756 8.38672 45.601 13.9157 45.601 20.3177C45.601 25.3617 48.942 28.7082 53.6871 30.0177L59.788 31.7152C61.4343 32.1517 62.79 32.5397 62.79 34.1887C62.79 35.8377 60.4659 36.1772 58.7712 36.1772C55.3818 36.1772 51.7988 34.3342 49.5715 32.6367L44.439 40.2027C49.1841 43.5007 53.9292 44.0827 59.6912 44.0827Z" fill="#18303D"/>
            <path fill-rule="evenodd" clip-rule="evenodd" d="M59.6426 8.13672C66.2289 8.13672 69.3509 9.26172 73.429 11.7142L67.3778 19.2651C65.6192 17.7505 62.2861 16.7847 60.1752 16.7847C59.0331 16.7847 58.0471 16.9091 57.3794 17.2686C57.1109 17.4131 56.8968 17.5962 56.7542 17.8298C56.6206 18.0486 56.5512 18.3106 56.5512 18.6202C56.5512 19.1244 56.77 19.4614 57.1494 19.7171C57.7093 20.0943 58.5801 20.3095 59.6267 20.577C59.9605 20.6624 60.312 20.7522 60.6787 20.8531L65.6655 22.2595C68.5527 23.0682 70.7446 24.3434 72.2239 25.9908C73.7415 27.6807 74.515 29.7637 74.515 32.1517C74.515 36.1063 72.9109 38.9569 70.532 40.9043C67.5915 43.3115 63.4538 44.3327 59.691 44.3327C53.7916 44.3327 48.9513 43.72 44.0942 40.2659L49.5141 32.2763C51.6851 33.9877 55.3279 35.9272 58.7711 35.9272C59.7099 35.9272 60.8516 35.8253 61.6503 35.4301C61.9312 35.2912 62.1683 35.1159 62.3277 34.8889C62.4638 34.6951 62.5403 34.4636 62.5403 34.1887C62.5403 33.5668 62.3244 33.1468 61.9556 32.843C61.4262 32.4068 60.617 32.1937 59.7211 31.9561L53.6207 30.2587C51.1123 29.5665 48.9909 28.3137 47.5254 26.5557C46.1519 24.9081 45.3513 22.8163 45.3513 20.3177C45.3513 16.9321 46.8209 13.7847 49.4676 11.5357C51.9216 9.45064 55.391 8.13672 59.6426 8.13672Z" fill="white"/>
            <path d="M83.6585 43.5489H93.3909L98.3781 24.2459H98.5718L103.414 43.5489H113.679L122.104 8.91992H112.081L108.062 26.9134H108.014L104.092 8.91992H94.3593L90.0983 26.9134H89.9531L85.8374 8.91992H75.1851L83.6585 43.5489Z" fill="#18303D"/>
            <path fill-rule="evenodd" clip-rule="evenodd" d="M86.036 8.66992L89.9611 25.8302L94.1633 8.66992H104.292L108.018 25.7617L111.881 8.66992H122.421L113.875 43.7989H103.219L98.5634 25.2393L93.582 43.7989H83.4625L74.8667 8.66992H86.036Z" fill="white"/>
            <path d="M119.877 43.5001H129.948L131.595 37.9711H143.07L144.716 43.5001H155.611L144.184 8.87109H131.546L119.877 43.5001ZM133.967 29.9686L137.26 18.7651H137.405L140.697 29.9686H133.967Z" fill="#18303D"/>
            <path fill-rule="evenodd" clip-rule="evenodd" d="M144.364 8.62109L155.956 43.7501H144.53L142.884 38.2211H131.781L130.134 43.7501H119.529L131.367 8.62109H144.364ZM137.265 19.6328L134.301 29.7186H140.36L137.265 19.6328Z" fill="white"/>
            <path d="M158.322 43.5004H169.168V32.5394H175.511C184.468 32.5394 187.906 26.3314 187.906 20.3174C187.906 14.5459 184.129 8.91992 175.511 8.91992H158.322V43.5004ZM169.168 24.6339V17.0679H173.526C176.14 17.0679 177.351 18.9594 177.351 20.8509C177.351 22.7909 175.995 24.6339 173.477 24.6339H169.168Z" fill="#18303D"/>
            <path fill-rule="evenodd" clip-rule="evenodd" d="M175.511 8.66992C179.565 8.66992 182.564 9.89841 184.622 11.7906C187.032 14.0062 188.156 17.139 188.156 20.3174C188.156 23.6695 187.103 27.0769 184.665 29.4811C182.683 31.4351 179.784 32.7333 175.774 32.7876L175.511 32.7894H169.417V43.7504H158.072V8.66992H175.511ZM173.526 17.3179H169.417V24.3839H173.477L173.642 24.3811C174.673 24.3456 175.488 23.9766 176.066 23.4116C176.749 22.7446 177.101 21.8097 177.101 20.8509C177.101 19.9 176.778 18.9466 176.094 18.2701C175.506 17.6891 174.654 17.3179 173.526 17.3179Z" fill="white"/>
            </g>
            <path d="M14.7188 11.1074H22.0295C22.285 11.1074 22.538 11.1577 22.7741 11.2555C23.0101 11.3533 23.2246 11.4966 23.4053 11.6773C23.586 11.858 23.7293 12.0725 23.8271 12.3085C23.9249 12.5446 23.9752 12.7976 23.9752 13.0531V25.5599L21.1718 25.0198C20.2015 25.0198 19.7125 26.19 20.3975 26.8788L22.3503 28.8317L26.1156 32.597C26.3323 32.8098 26.6092 32.9204 26.8899 32.9204C27.179 32.918 27.4556 32.8018 27.6596 32.597L31.4249 28.8317L33.3778 26.8788C34.0628 26.19 33.5738 25.0198 32.6035 25.0198L29.8001 25.5599V10.7348C29.8001 9.28897 29.2257 7.90232 28.2033 6.87995C27.1809 5.85757 25.7943 5.2832 24.3484 5.2832H14.5972C14.2073 5.28328 13.8214 5.36165 13.4623 5.51365C13.1032 5.66566 12.7783 5.88821 12.5069 6.16811C12.2354 6.44802 12.0229 6.77957 11.882 7.14313C11.7411 7.50668 11.6745 7.89484 11.6864 8.28457C11.7343 9.8784 13.1243 11.1074 14.7188 11.1074Z" fill="white"/>
            <path d="M18.978 42.5454H11.6673C11.1513 42.5454 10.6564 42.3404 10.2915 41.9755C9.92658 41.6106 9.72159 41.1157 9.72159 40.5997V28.0929L12.525 28.633C13.4953 28.633 13.9843 27.4629 13.2993 26.774L11.3465 24.8211L7.58117 21.0558C7.37577 20.8502 7.09752 20.734 6.80689 20.7324C6.51777 20.7348 6.24123 20.851 6.03715 21.0558L2.27185 24.8211L0.319667 26.774C-0.365344 27.4629 0.123672 28.633 1.09394 28.633L3.89738 28.0929V42.9186C3.89738 44.3645 4.47174 45.7511 5.49412 46.7735C6.5165 47.7959 7.90314 48.3703 9.349 48.3703H19.0996C19.4895 48.3702 19.8754 48.2918 20.2345 48.1398C20.5936 47.9878 20.9184 47.7653 21.1899 47.4854C21.4614 47.2054 21.6739 46.8739 21.8148 46.5103C21.9557 46.1468 22.0222 45.7586 22.0104 45.3689C21.9625 43.7744 20.5724 42.5454 18.978 42.5454Z" fill="#FFCB1E"/>
            <defs>
            <clipPath id="clip0_78_29744">
            <rect width="226.125" height="54" fill="white" transform="translate(43.6975)"/>
            </clipPath>
            </defs>
        </symbol>
        <symbol id="user" viewBox="0 0 12 13">
            <path d="M5.99999 5.8335C6.35451 5.84037 6.70683 5.77647 7.03636 5.64555C7.36589 5.51463 7.666 5.31931 7.91914 5.07102C8.17228 4.82274 8.37337 4.52646 8.51065 4.19953C8.64793 3.8726 8.71863 3.52158 8.71863 3.167C8.71863 2.81242 8.64793 2.4614 8.51065 2.13447C8.37337 1.80754 8.17228 1.51126 7.91914 1.26298C7.666 1.01469 7.36589 0.819372 7.03636 0.688451C6.70683 0.557531 6.35451 0.493634 5.99999 0.5005C5.30173 0.514023 4.63664 0.8009 4.14761 1.29949C3.65858 1.79809 3.38463 2.46861 3.38463 3.167C3.38463 3.86539 3.65858 4.53591 4.14761 5.03451C4.63664 5.5331 5.30173 5.81998 5.99999 5.8335ZM5.99999 7.1675C7.03498 7.16672 8.05589 7.40728 8.98165 7.87007C9.9074 8.33286 10.7125 9.00514 11.333 9.8335V12.5005H0.666992V9.8335C1.28749 9.00514 2.09258 8.33286 3.01834 7.87007C3.94409 7.40728 4.96501 7.16672 5.99999 7.1675Z"/>
        </symbol>
        <symbol id="arrow-down" viewBox="0 0 11 6" fill="none">
            <path d="M5.50096 5.99944C5.68534 5.9951 5.86156 5.922 5.99552 5.7943L10.6503 1.29294C10.7923 1.15444 10.8741 0.964852 10.8776 0.765738C10.8811 0.566625 10.8061 0.374234 10.669 0.230727C10.532 0.0872206 10.344 0.0043015 10.1463 0.000162538C9.94869 -0.00397595 9.75747 0.071 9.6146 0.208645L5.47769 4.2118L1.34077 0.208644C1.1979 0.0709993 1.00669 -0.00397673 0.809034 0.000161721C0.611382 0.00430065 0.423421 0.0872198 0.286353 0.230726C0.149283 0.374233 0.0742869 0.566624 0.0778041 0.765738C0.0813202 0.964851 0.163062 1.15444 0.305111 1.29294L4.95986 5.7943C5.03192 5.8631 5.11692 5.91669 5.20984 5.95192C5.30277 5.98715 5.40175 6.0033 5.50096 5.99944Z" fill="white"/>
        </symbol>
          <symbol id="rta-logo" viewBox="0 0 46 22" fill="none">
            <g clip-path="url(#clip0_28_11281)">
              <path d="M40.75 16.6562C40.4648 15.7891 40.1797 14.9062 39.8945 13.9922H34.0742C33.7891 14.9062 33.5059 15.7715 33.2207 16.6719H28.3457C28.4492 16.2988 28.5703 15.9746 28.6758 15.6641C29.9805 12.0684 31.2402 8.49219 32.5449 4.88086C32.6504 4.60156 32.7109 4.30664 32.8145 3.95117C30.4902 3.95117 28.1797 3.9668 25.8398 3.9668C25.8398 4.43164 25.8105 16.1758 25.7949 16.5C25.1504 16.5469 22 16.5469 20.9492 16.5469C20.9043 12.4258 20.9648 8.27344 20.9199 4.04492H15.7754C15.7598 5.25391 15.5957 6.44727 14.8457 7.45312C14.1094 8.42969 13.1055 8.93945 11.9355 9.28125C12.5352 9.73047 13.1055 10.041 13.5098 10.4902C14.0059 11.0312 14.4102 11.668 14.7695 12.3027C15.5059 13.6816 16.1953 15.2148 16.9004 16.6094C16.375 16.6562 12.6992 16.625 11.4707 16.625C11.3359 16.3926 11.1699 16.1445 11.0352 15.8809C10.2109 14.3164 9.40039 12.752 8.57422 11.1855C8.0957 10.2891 7.39062 9.80664 6.36914 9.90039C6.32422 9.90039 6.2793 9.93164 6.13086 9.99414C6.03906 10.3184 6.03906 10.584 6.03906 10.9082C6.02539 12.4883 6.11523 16.3457 6.09961 16.625C5.5 16.625 2.05078 16.6094 1.11914 16.6094C1.11914 15.8809 1.15039 0.947266 1.15039 0H39.7754C41.7695 5.48438 43.7949 11.0625 45.8203 16.6699C44.0801 16.6562 42.4609 16.6562 40.75 16.6562ZM38.8906 10.3809C38.2754 8.30469 37.6895 6.35352 37.0742 4.29297C36.6992 5.28516 35.3496 9.69922 35.1543 10.3809H38.8906ZM6.09961 6.83398C7.375 6.91016 9.02539 6.98828 10 6.67773C10.6816 6.46094 10.8105 5.74805 10.8105 4.91211C10.8105 4.13672 10.3906 3.60938 9.69922 3.42383C8.5293 3.09961 7.25586 3.22266 6.09961 3.26953V6.83398Z" fill="white" fill-opacity="0.4"/>
              <path fill-rule="evenodd" clip-rule="evenodd" d="M1 19.3008C1.17383 19.2715 1.34961 19.252 1.52734 19.2461C1.58398 19.2441 1.63672 19.2422 1.68359 19.2422C1.79688 19.2422 1.90625 19.252 2.01367 19.2734C2.11719 19.293 2.21484 19.3301 2.30469 19.3828C2.39062 19.4355 2.46094 19.5078 2.50977 19.5957C2.56055 19.6875 2.58789 19.8008 2.58789 19.9375C2.5957 20.1133 2.54688 20.2852 2.44922 20.4316C2.35938 20.5586 2.23242 20.6523 2.08398 20.6973L2.25195 20.8066L2.79883 21.75H2.25977L1.71484 20.7832L1.46875 20.7363V21.75H1V19.3008ZM1.71875 19.6719C1.66992 19.6719 1.62305 19.6738 1.57617 19.6758C1.53906 19.6777 1.50391 19.6816 1.46875 19.6895V20.4082H1.66797C1.79688 20.4082 1.90039 20.377 1.97852 20.3145C2.05664 20.2559 2.0957 20.1543 2.0957 20.0117C2.09961 19.918 2.06445 19.8281 1.99805 19.7617C1.93555 19.7031 1.8418 19.6719 1.71875 19.6719ZM3.58594 19.2773H5.00586V19.707H4.05469V20.2852H4.91992V20.7148H4.05469V21.3184H5.02148V21.75H3.58594V19.2773ZM6.92969 21.0859C6.93164 21.0156 6.90234 20.9473 6.84961 20.9023C6.78906 20.8496 6.7207 20.8066 6.64844 20.7715C6.56055 20.7305 6.47266 20.6914 6.38477 20.6523C6.29102 20.6113 6.20312 20.5605 6.12109 20.502C6.03906 20.4414 5.9707 20.3633 5.91992 20.2754C5.86133 20.1719 5.83398 20.0527 5.83984 19.9336C5.83984 19.8145 5.85938 19.709 5.89648 19.6211C5.93359 19.5352 5.99023 19.4609 6.0625 19.4004C6.13867 19.3398 6.22461 19.2969 6.31836 19.2695C6.41602 19.2422 6.52539 19.2266 6.64648 19.2266C6.78516 19.2266 6.91602 19.2402 7.03906 19.2637C7.16211 19.2891 7.26367 19.3242 7.34375 19.373L7.19727 19.7793C7.12695 19.7363 7.05078 19.707 6.9707 19.6875C6.87109 19.6621 6.76172 19.6484 6.64648 19.6484C6.55664 19.6426 6.46875 19.666 6.39453 19.7148C6.33789 19.7578 6.30664 19.8242 6.30859 19.8945C6.30859 19.9648 6.33398 20.0254 6.38867 20.0723C6.44141 20.1191 6.50781 20.1621 6.58984 20.2031C6.66992 20.2422 6.75781 20.2852 6.85352 20.3262C6.94727 20.3691 7.03516 20.4199 7.11523 20.4805C7.19727 20.541 7.26562 20.6152 7.31836 20.7031C7.37109 20.791 7.39844 20.9004 7.39844 21.0332C7.40039 21.1484 7.37891 21.2656 7.33594 21.373C7.29492 21.4648 7.23438 21.5469 7.1582 21.6133C7.07617 21.6777 6.98242 21.7266 6.88086 21.7539C6.77148 21.7832 6.65234 21.7988 6.52344 21.7988C6.35156 21.7988 6.20117 21.7832 6.07227 21.75C5.97266 21.7285 5.87695 21.6953 5.7832 21.6504L5.93359 21.2383C6.00781 21.2754 6.08594 21.3066 6.16797 21.3301C6.2168 21.3438 6.26953 21.3555 6.32617 21.3652C6.38281 21.375 6.43945 21.3789 6.49805 21.3789C6.63867 21.3789 6.74414 21.3555 6.81836 21.3066C6.89258 21.2578 6.92969 21.1836 6.92969 21.0859ZM9.93555 19.709H9.23828V21.75H8.76953V19.709H8.06836V19.2773H9.93555V19.709ZM10.7051 19.3008C10.8809 19.2715 11.0547 19.252 11.2324 19.2461C11.2891 19.2441 11.3418 19.2422 11.3887 19.2422C11.502 19.2422 11.6113 19.252 11.7188 19.2734C11.8223 19.293 11.9199 19.3301 12.0098 19.3828C12.0957 19.4355 12.166 19.5078 12.2148 19.5957C12.2676 19.6875 12.293 19.8008 12.293 19.9375C12.3008 20.1133 12.252 20.2852 12.1543 20.4316C12.0645 20.5586 11.9375 20.6523 11.7891 20.6973L11.957 20.8066L12.5039 21.75H11.9648L11.4199 20.7832L11.1738 20.7363V21.75H10.7051V19.3008ZM11.4238 19.6719C11.375 19.6719 11.3281 19.6738 11.2812 19.6758C11.2461 19.6777 11.209 19.6816 11.1738 19.6895V20.4082H11.3711C11.502 20.4082 11.6055 20.377 11.6836 20.3145C11.7617 20.2559 11.8008 20.1543 11.8008 20.0117C11.8047 19.918 11.7695 19.8281 11.7031 19.7617C11.6406 19.7031 11.5469 19.6719 11.4238 19.6719ZM13.3379 19.2773H13.8066V21.75H13.3379V19.2773ZM16.4121 21.6465C16.3301 21.707 16.2344 21.7461 16.1348 21.7637C16.0195 21.7871 15.9043 21.7988 15.7871 21.7988C15.6426 21.7988 15.5078 21.7754 15.3789 21.7305C15.248 21.6836 15.1328 21.6074 15.0371 21.5078C14.9316 21.3926 14.8535 21.2559 14.8047 21.1074C14.7422 20.916 14.7109 20.7148 14.7168 20.5137C14.7168 20.2715 14.748 20.0664 14.8145 19.9043C14.8789 19.7402 14.9648 19.6074 15.0664 19.5078C15.1719 19.4082 15.2871 19.3359 15.4141 19.293C15.5371 19.25 15.666 19.2285 15.7969 19.2266C15.9336 19.2266 16.0508 19.2383 16.1445 19.2559C16.2383 19.2754 16.3164 19.2969 16.3789 19.3242L16.2852 19.7324C16.2266 19.7051 16.1641 19.6855 16.0996 19.6758C16.0137 19.6641 15.9258 19.6582 15.8379 19.6582C15.6484 19.6582 15.4961 19.7285 15.3828 19.8672C15.2656 20.0059 15.209 20.2207 15.209 20.5137C15.209 20.6406 15.2227 20.7559 15.25 20.8613C15.2734 20.959 15.3164 21.0488 15.375 21.1309C15.4297 21.2031 15.502 21.2637 15.582 21.3027C15.668 21.3438 15.7637 21.3652 15.873 21.3652C15.9746 21.3652 16.0625 21.3535 16.1328 21.334C16.1973 21.3145 16.2598 21.2871 16.3164 21.252L16.4121 21.6465ZM18.7793 19.707H18.082V21.75H17.6133V19.709H16.9121V19.2773H18.7793V19.707ZM19.5488 19.2773H20.9688V19.707H20.0176V20.2852H20.8828V20.7148H20.0176V21.3184H20.9844V21.75H19.5488V19.2773ZM21.8594 19.2773C22.0371 19.2559 22.2168 19.2441 22.3945 19.2441L22.5586 19.2422C22.7695 19.2422 22.9512 19.2715 23.1016 19.334C23.252 19.3945 23.373 19.4805 23.4688 19.5918C23.5605 19.7012 23.6309 19.834 23.6738 19.9883C23.7168 20.1406 23.7383 20.3086 23.7383 20.4922C23.7383 20.6602 23.7188 20.8223 23.6758 20.9766C23.6016 21.2891 23.3867 21.5488 23.0938 21.6797C22.9375 21.752 22.7422 21.7891 22.5137 21.7891L22.3672 21.7852C22.1992 21.7773 22.0293 21.7676 21.8594 21.7539V19.2773ZM22.5957 19.6719C22.5469 19.6719 22.4941 19.6738 22.4434 19.6758C22.4043 19.6777 22.3672 19.6797 22.3281 19.6855V21.3438C22.3379 21.3457 22.3535 21.3477 22.375 21.3496C22.4395 21.3535 22.5039 21.3555 22.5684 21.3574C22.6816 21.3613 22.7969 21.3379 22.8984 21.2852C22.9824 21.2402 23.0547 21.1738 23.1074 21.0938C23.1602 21.0078 23.1973 20.9141 23.2148 20.8145C23.2539 20.6133 23.2539 20.4043 23.2188 20.2012C23.2012 20.1074 23.168 20.0176 23.1172 19.9375C23.0684 19.8594 23 19.793 22.918 19.748C22.8184 19.6934 22.709 19.668 22.5957 19.6719ZM27.5234 19.709H26.8262V21.75H26.3574V19.709H25.6562V19.2773H27.5234V19.709ZM28.082 20.5137C28.082 20.1016 28.1719 19.7832 28.3477 19.5605C28.5234 19.3379 28.7734 19.2266 29.0996 19.2266C29.2695 19.2266 29.4199 19.2578 29.5488 19.3184C29.6738 19.3789 29.7832 19.4688 29.8652 19.5801C29.9492 19.6934 30.0137 19.8301 30.0547 19.9883C30.0957 20.1445 30.1152 20.3203 30.1152 20.5137C30.1152 20.9258 30.0273 21.2441 29.8516 21.4648C29.6738 21.6875 29.4238 21.7988 29.0996 21.7988C28.9258 21.7988 28.7754 21.7695 28.6484 21.707C28.5234 21.6484 28.4141 21.5586 28.332 21.4473C28.2441 21.3242 28.1816 21.1855 28.1445 21.041C28.1016 20.8672 28.082 20.6914 28.084 20.5137H28.082ZM28.5762 20.5137C28.5762 20.6387 28.5859 20.7539 28.6074 20.8574C28.627 20.9629 28.6582 21.0527 28.7012 21.1289C28.7402 21.1992 28.7949 21.2617 28.8633 21.3047C28.9355 21.3496 29.0176 21.3711 29.0996 21.3691C29.2559 21.375 29.4023 21.2969 29.4863 21.168C29.5762 21.0332 29.623 20.8145 29.623 20.5137C29.623 20.3926 29.6133 20.2813 29.5938 20.1777C29.5781 20.084 29.5469 19.9922 29.5039 19.9062C29.4668 19.832 29.4121 19.7695 29.3438 19.7246C29.2695 19.6777 29.1855 19.6563 29.0996 19.6582C28.9434 19.6523 28.7949 19.7324 28.7129 19.8652C28.6211 20.0039 28.5762 20.2187 28.5762 20.5137ZM33.3672 21.2031H32.6328L32.4512 21.75H31.9824L32.8438 19.2598H33.1895L34.0508 21.75H33.5586L33.3672 21.2031ZM32.752 20.8125H33.2656L33.0879 20.2637L33.0156 19.873H32.998L32.9258 20.2656L32.752 20.8125ZM34.7832 19.2773C34.8301 19.2695 34.8848 19.2637 34.9453 19.2598C35.0684 19.248 35.1934 19.2441 35.3184 19.2441L35.4805 19.2422C35.6934 19.2422 35.873 19.2715 36.0254 19.334C36.1758 19.3945 36.2969 19.4805 36.3906 19.5918C36.4844 19.7012 36.5527 19.834 36.5957 19.9883C36.6387 20.1406 36.6602 20.3086 36.6602 20.4922C36.6602 20.6602 36.6406 20.8223 36.5996 20.9766C36.5254 21.2891 36.3086 21.5488 36.0156 21.6797C35.8594 21.752 35.666 21.7891 35.4355 21.7891L35.291 21.7852C35.1211 21.7773 34.9512 21.7676 34.7832 21.7539V19.2773ZM35.5176 19.6719C35.4688 19.6719 35.418 19.6738 35.3652 19.6758C35.3281 19.6777 35.2891 19.6797 35.252 19.6855V21.3438C35.2617 21.3457 35.2754 21.3477 35.2988 21.3496C35.3613 21.3535 35.4258 21.3555 35.4902 21.3574C35.6055 21.3613 35.7188 21.3379 35.8203 21.2852C35.9062 21.2402 35.9785 21.1738 36.0293 21.0938C36.082 21.0078 36.1191 20.9141 36.1367 20.8145C36.1758 20.6133 36.1777 20.4043 36.1406 20.2012C36.125 20.1074 36.0898 20.0176 36.0391 19.9375C35.9902 19.8594 35.9219 19.793 35.8398 19.748C35.7422 19.6934 35.6309 19.668 35.5176 19.6719ZM38.8223 19.2773H39.2676V20.875C39.2676 21.0352 39.2461 21.1719 39.2051 21.2871C39.1699 21.3945 39.1113 21.4922 39.0352 21.5742C38.9609 21.6504 38.8691 21.707 38.7676 21.7402C38.6621 21.7734 38.5469 21.793 38.4219 21.793C37.8145 21.793 37.5117 21.5059 37.5117 20.9336V19.2773H37.9805V20.8379C37.9805 20.9355 37.9883 21.0176 38.0059 21.084C38.0195 21.1445 38.0469 21.1992 38.0859 21.2461C38.123 21.2871 38.1699 21.3164 38.2227 21.3359C38.2852 21.3535 38.3496 21.3633 38.4141 21.3613C38.5586 21.3613 38.6621 21.3203 38.7266 21.2383C38.7891 21.1563 38.8223 21.0215 38.8223 20.8379V19.2773ZM41.707 21.75H40.1934V19.2773H40.6621V21.3184H41.707V21.75ZM43.7285 19.709H43.0312V21.75H42.5625V19.709H41.8613V19.2773H43.7285V19.709ZM45.5312 21.0859C45.5332 21.0156 45.5039 20.9473 45.4512 20.9023C45.3906 20.8496 45.3223 20.8066 45.248 20.7715C45.1621 20.7305 45.0742 20.6914 44.9863 20.6523C44.8926 20.6113 44.8047 20.5625 44.7227 20.502C44.6406 20.4395 44.5723 20.3633 44.5215 20.2754C44.4648 20.1719 44.4355 20.0527 44.4414 19.9336C44.4414 19.8145 44.4609 19.709 44.498 19.6211C44.5352 19.5352 44.5918 19.4609 44.6641 19.4004C44.7383 19.3398 44.8262 19.2969 44.9199 19.2695C45.0176 19.2422 45.127 19.2266 45.2461 19.2266C45.3867 19.2266 45.5176 19.2402 45.6406 19.2637C45.7637 19.2891 45.8652 19.3242 45.9453 19.373L45.7988 19.7793C45.7285 19.7363 45.6523 19.707 45.5723 19.6875C45.4727 19.6621 45.3633 19.6484 45.2461 19.6484C45.1582 19.6426 45.0703 19.666 44.9961 19.7148C44.9395 19.7578 44.9062 19.8242 44.9082 19.8945C44.9082 19.9648 44.9355 20.0254 44.9883 20.0723C45.043 20.1191 45.1094 20.1621 45.1914 20.2031C45.2715 20.2422 45.3594 20.2852 45.4531 20.3262C45.5488 20.3691 45.6367 20.4199 45.7188 20.4805C45.7988 20.541 45.8652 20.6152 45.9199 20.7031C45.9727 20.791 46 20.9004 46 21.0332C46.0039 21.1484 45.9824 21.2656 45.9375 21.373C45.8965 21.4648 45.8359 21.5469 45.7598 21.6133C45.6777 21.6777 45.584 21.7266 45.4824 21.7539C45.373 21.7832 45.2539 21.7988 45.123 21.7988C44.9531 21.7988 44.8027 21.7832 44.6738 21.75C44.5742 21.7266 44.4785 21.6953 44.3867 21.6504L44.5352 21.2383C44.6094 21.2754 44.6875 21.3066 44.7695 21.3301C44.8184 21.3438 44.8711 21.3555 44.9277 21.3652C44.9844 21.375 45.041 21.3789 45.0996 21.3789C45.2402 21.3789 45.3457 21.3555 45.4199 21.3066C45.4941 21.2578 45.5312 21.1836 45.5312 21.0859Z" fill="white" fill-opacity="0.4"/>
              </g>
              <defs>
              <clipPath id="clip0_28_11281">
              <rect width="45" height="22" fill="white" transform="translate(0.5)"/>
              </clipPath>
              </defs>
          </symbol>
        <symbol id="btn-arrow-right" viewBox="0 0 15 15">
            <path d="M9.95289 7.99114L5.95239 11.9736C5.82942 12.0909 5.66634 12.1569 5.49639 12.1581C5.32414 12.1605 5.158 12.0944 5.03451 11.9742C4.91103 11.8541 4.8403 11.6899 4.83789 11.5176L4.83789 11.5086C4.83871 11.4202 4.85702 11.3328 4.89177 11.2514C4.92653 11.1701 4.97704 11.0964 5.04039 11.0346L8.58789 7.49914L5.04039 3.96514C4.91393 3.83941 4.84131 3.66944 4.83789 3.49114C4.83789 3.40585 4.85469 3.32139 4.88733 3.24259C4.91997 3.16379 4.96781 3.09219 5.02812 3.03188C5.08844 2.97156 5.16004 2.92372 5.23884 2.89108C5.31764 2.85844 5.4021 2.84164 5.48739 2.84164L5.49639 2.84164C5.57989 2.84095 5.6627 2.85691 5.73996 2.88859C5.81723 2.92027 5.88741 2.96703 5.94639 3.02614L9.95289 7.00864C10.0197 7.07157 10.0729 7.14761 10.109 7.232C10.1452 7.3164 10.1635 7.40734 10.1629 7.49914C10.1621 7.59095 10.1431 7.68168 10.107 7.76612C10.071 7.85056 10.0186 7.92704 9.95289 7.99114Z" />
        </symbol>
          
        <!-- Home slider -->
        <symbol id="home-slider-prev" viewBox="0 0 10 15" fill="none" xmlns="http://www.w3.org/2000/svg">
            <path d="M0.45459 7.54564L1.32821 8.43854L7.33493 14.5454L9.36368 12.7596L4.23775 7.54541L9.36368 2.3312L7.33493 0.54541L1.32821 6.65228L0.45459 7.54564Z" fill="white"/>
        </symbol>
        <symbol id="home-slider-next" viewBox="0 0 10 15" fill="none" xmlns="http://www.w3.org/2000/svg">
            <path d="M9.54541 7.45436L8.67179 6.56146L2.66507 0.45459L0.636318 2.24038L5.76225 7.45459L0.636319 12.6688L2.66507 14.4546L8.67179 8.34772L9.54541 7.45436Z" fill="white"/>
        </symbol>
        <!-- End Home slider -->
    
        <!-- <symbol id="arrow-down" viewBox="0 0 6 8" fill="none" xmlns="http://www.w3.org/2000/svg">
            <path d="M0 0L3.04478 0.223788L6 2.93462e-07L3.04478 7.83258L0 0Z" fill="#231F20"/>
        </symbol>
        <symbol id="arrow-down" viewBox="0 0 14 8" fill="none" xmlns="http://www.w3.org/2000/svg">
            <path d="M13.7437 0.260331C13.5795 0.0936581 13.3568 0 13.1246 0C12.8924 0 12.6698 0.0936581 12.5056 0.260331L6.9948 5.85401L1.48401 0.260331C1.26157 0.0422625 0.942389 -0.0406776 0.644106 0.0422625C0.346024 0.125401 0.113043 0.361923 0.0311294 0.664516C-0.0505741 0.967308 0.0311294 1.29134 0.245947 1.51713L6.37572 7.73967C6.5399 7.90634 6.76254 8 6.99475 8C7.22695 8 7.44959 7.90634 7.61378 7.73967L13.7436 1.51713C13.9077 1.35046 14 1.12445 14 0.888731C14 0.653011 13.9077 0.427003 13.7436 0.260331H13.7437Z" fill="#EFD5A4"/>
        </symbol> -->
        <symbol id="arrow-down-mobile" viewBox="0 0 7 4" fill="none" xmlns="http://www.w3.org/2000/svg">
            <path d="M0.524002 0.606091C0.471586 0.606091 0.424266 0.63749 0.403821 0.685766C0.383505 0.733915 0.393822 0.789897 0.430507 0.827473L3.30007 3.77887C3.32459 3.80409 3.35834 3.81836 3.39356 3.81836C3.42878 3.81836 3.46254 3.80409 3.48706 3.77887L6.35662 0.82741C6.38082 0.802571 6.39355 0.769771 6.39355 0.736462C6.39355 0.71933 6.39018 0.70207 6.3833 0.685702C6.36286 0.637426 6.31554 0.606028 6.26312 0.606028L0.524002 0.606091Z" fill="#EFD5A4"/>
        </symbol>

        <!-- Info icons -->
        <symbol id="video-duration" viewBox="0 0 21 20" fill="none">
            <path d="M10.5 20C16.0133 20 20.5 15.5133 20.5 10C20.5 4.48668 16.0134 0 10.5 0C4.98662 0 0.5 4.48668 0.5 10C0.5 15.5133 4.98668 20 10.5 20ZM10.5 1.33331C15.28 1.33331 19.1667 5.21996 19.1667 10C19.1667 14.78 15.28 18.6667 10.5 18.6667C5.71996 18.6667 1.83331 14.78 1.83331 10C1.83331 5.21996 5.72002 1.33331 10.5 1.33331Z" fill="white"/>
            <path d="M13.4166 13.1867C13.5399 13.2866 13.6866 13.3333 13.8332 13.3333C13.9331 13.3335 14.0318 13.3112 14.1218 13.2679C14.2119 13.2246 14.291 13.1615 14.3532 13.0833C14.5832 12.7967 14.5365 12.3767 14.2499 12.1467L11.1666 9.67999V4.66666C11.1666 4.29998 10.8666 4 10.4999 4C10.1332 4 9.83325 4.29998 9.83325 4.66666V10C9.83325 10.2034 9.9266 10.3933 10.0832 10.52L13.4166 13.1867Z" fill="white"/>
        </symbol>
        <symbol id="video-viewed" viewBox="0 0 21 20" fill="none">
            <path d="M10.5272 16.5C4.73134 16.5 1.49759 10.5092 1.36217 10.2329C1.32137 10.1552 1.30005 10.0688 1.30005 9.98104C1.30005 9.89329 1.32137 9.80685 1.36217 9.72917C1.49759 9.49625 4.73134 3.5 10.5272 3.5C16.323 3.5 19.5188 9.49625 19.6543 9.75083C19.6951 9.82852 19.7164 9.91496 19.7164 10.0027C19.7164 10.0905 19.6951 10.1769 19.6543 10.2546C19.5188 10.5092 16.2851 16.5 10.5272 16.5ZM2.48342 10C3.14967 11.0833 6.04217 15.4167 10.5272 15.4167C15.0122 15.4167 17.8993 11.0833 18.5655 10C17.8993 8.91667 15.0122 4.58333 10.5272 4.58333C6.04217 4.58333 3.13342 8.90042 2.46717 10H2.48342Z" fill="white"/>
            <path d="M10.5267 12.7788C9.77281 12.7948 9.04335 12.5113 8.49813 11.9905C7.95291 11.4696 7.63639 10.7539 7.61792 10.0001C7.63779 9.2472 7.95493 8.53284 8.5 8.01315C9.04507 7.49346 9.77373 7.21071 10.5267 7.22672C11.2787 7.21216 12.006 7.49555 12.5498 8.01509C13.0937 8.53463 13.4101 9.24816 13.43 10.0001C13.4115 10.7529 13.0958 11.4678 12.5517 11.9885C12.0077 12.5092 11.2796 12.7933 10.5267 12.7788ZM10.5267 8.31005C10.061 8.29391 9.60779 8.46249 9.26586 8.77906C8.92393 9.09562 8.72098 9.5345 8.70125 10.0001C8.71959 10.4666 8.92193 10.9068 9.26401 11.2245C9.6061 11.5423 10.0601 11.7116 10.5267 11.6955C10.9927 11.7116 11.4461 11.5421 11.7873 11.2242C12.1286 10.9063 12.3297 10.4661 12.3467 10.0001C12.3283 9.53498 12.1266 9.0961 11.7855 8.77939C11.4444 8.46269 10.9918 8.29394 10.5267 8.31005Z" fill="white"/>
          </symbol>
        <symbol id="video-publisher" viewBox="0 0 21 20">
            <path d="M10.5 18.2259C10.0209 18.2264 9.55181 18.0891 9.14851 17.8305C8.00435 17.0951 5.80389 15.5857 3.94256 13.7427C1.65835 11.479 0.5 9.34723 0.5 7.40489C0.5 6.05524 0.899085 4.81862 1.65423 3.82915C2.37033 2.88831 3.38189 2.21547 4.52641 1.91874C5.67093 1.62201 6.88197 1.7186 7.96499 2.19299C8.93433 2.6113 9.79886 3.31656 10.5 4.25249C11.2011 3.31428 12.0657 2.60901 13.035 2.19299C14.118 1.7186 15.3291 1.62201 16.4736 1.91874C17.6181 2.21547 18.6297 2.88831 19.3458 3.82915C20.1009 4.81862 20.5 6.05524 20.5 7.40489C20.5 9.34723 19.3416 11.4781 17.0574 13.7408C15.1961 15.5838 12.9966 17.0932 11.8515 17.8287C11.4484 18.0879 10.9793 18.2258 10.5 18.2259ZM5.83913 2.89688C5.47714 2.89656 5.11671 2.94427 4.76728 3.03876C3.89022 3.27955 3.1162 3.80103 2.56362 4.52343C1.96224 5.31153 1.64416 6.30833 1.64416 7.40672C1.64416 9.03235 2.6881 10.8905 4.7476 12.9298C6.53249 14.6992 8.65927 16.1564 9.76682 16.8658C9.9855 17.0055 10.2396 17.0797 10.4991 17.0797C10.7586 17.0797 11.0127 17.0055 11.2314 16.8658C12.3389 16.1545 14.4638 14.6973 16.2506 12.9298C18.3101 10.8905 19.354 9.03235 19.354 7.40672C19.354 6.30833 19.0359 5.31336 18.4346 4.52343C17.882 3.80103 17.1079 3.27955 16.2309 3.03876C14.667 2.61405 12.4698 3.05798 10.9915 5.57789C10.9411 5.66401 10.8691 5.73543 10.7825 5.78507C10.696 5.8347 10.5979 5.86082 10.4982 5.86082C10.3984 5.86082 10.3004 5.8347 10.2138 5.78507C10.1273 5.73543 10.0552 5.66401 10.0048 5.57789C8.84325 3.59437 7.2341 2.89688 5.83913 2.89688Z"/>
          </symbol>
        <symbol id="4k-icon" viewBox="0 0 45 24" fill="none">
            <path d="M23.1506 23.2727V0H29.4688V9.40909H29.787L36.787 0H44.1506L36.287 10.3636L44.3325 23.2727H36.787L31.5597 14.5455L29.4688 17.2727V23.2727H23.1506Z" fill="black"/>
            <path d="M0.5 19.6364V14.7273L9.86364 0H14.3182V6.54545H11.7727L6.72727 14.5455V14.7273H20.5455V19.6364H0.5ZM11.8182 23.2727V18.1364L11.9545 16V0H17.8636V23.2727H11.8182Z" fill="black"/>
        </symbol>
        <symbol id="video-like" viewBox="0 0 19 18">
            <path d="M17.7321 7.61086C17.172 6.88542 16.2312 6.41665 15.3352 6.41665H12.767L14.2966 3.20863C14.7543 2.24869 14.3663 1.14618 13.3311 0.465216C12.3587 -0.174442 11.2694 -0.152446 10.6823 0.51871L5.29221 6.67932C4.99044 6.29679 4.52326 6.05056 3.99941 6.05056H1.64647C0.73862 6.05056 0 6.78918 0 7.69707V16.3515C0 17.2593 0.73862 17.998 1.64647 17.998H3.99941C4.4625 17.998 4.88125 17.8055 5.18071 17.4967C5.9071 17.9575 7.01965 18 7.94435 18C8.05164 18 8.15658 17.9994 8.25789 17.9989C8.34675 17.9984 8.43219 17.9979 8.51336 17.9979H13.896C15.2409 17.9979 16.2496 16.9729 16.7365 15.1117L18.1757 9.60941C18.3551 8.92349 18.1976 8.21372 17.7321 7.61086ZM4.43441 16.3514C4.43441 16.5913 4.23928 16.7864 3.99941 16.7864H1.64647C1.4066 16.7864 1.21147 16.5913 1.21147 16.3514V7.69703C1.21147 7.45716 1.4066 7.262 1.64647 7.262H3.99941C4.23928 7.262 4.43441 7.45716 4.43441 7.69703V16.3514ZM17.0036 9.30287L15.5644 14.8052C15.328 15.709 14.8466 16.7864 13.896 16.7864H8.51336C8.43011 16.7864 8.34243 16.7869 8.2513 16.7874C7.51189 16.7913 6.13607 16.7989 5.73655 16.4016C5.68946 16.3548 5.64584 16.2932 5.64584 16.1612V8.11491L11.5941 1.31643C11.7577 1.12933 12.2483 1.203 12.6654 1.47733C12.807 1.57053 13.4989 2.0669 13.203 2.68721L11.2603 6.76166C11.2163 6.85399 11.1964 6.95596 11.2025 7.05806C11.2085 7.16017 11.2403 7.25908 11.2949 7.34558C11.3495 7.43208 11.4251 7.50335 11.5146 7.55275C11.6042 7.60215 11.7048 7.62806 11.8071 7.62809H15.3352C15.8614 7.62809 16.4392 7.91865 16.7731 8.35119C16.9366 8.56278 17.1091 8.8996 17.0036 9.30287Z"/>
          </symbol>
        <symbol id="video-download" viewBox="0 0 19 18">
            <path d="M18.2478 14.1429V16.7143C18.2478 17.4234 17.6712 18 16.9621 18H1.53352C0.824446 18 0.247803 17.4234 0.247803 16.7143V14.1429C0.247803 13.9724 0.315532 13.8088 0.436091 13.6883C0.55665 13.5677 0.720164 13.5 0.89066 13.5C1.06116 13.5 1.22467 13.5677 1.34523 13.6883C1.46579 13.8088 1.53352 13.9724 1.53352 14.1429V16.7143H16.9621V14.1429C16.9621 13.9724 17.0298 13.8088 17.1504 13.6883C17.2709 13.5677 17.4344 13.5 17.6049 13.5C17.7754 13.5 17.939 13.5677 18.0595 13.6883C18.1801 13.8088 18.2478 13.9724 18.2478 14.1429Z"/>
            <path d="M4.29324 9.4545C4.1727 9.33396 4.10498 9.17047 4.10498 9C4.10498 8.82953 4.1727 8.66604 4.29324 8.5455C4.41378 8.42496 4.57727 8.35724 4.74774 8.35724C4.91821 8.35724 5.0817 8.42496 5.20224 8.5455L8.60488 11.9481V0.642857C8.60488 0.472361 8.67261 0.308848 8.79317 0.188288C8.91373 0.0677294 9.07724 0 9.24774 0C9.41824 0 9.58175 0.0677294 9.70231 0.188288C9.82287 0.308848 9.8906 0.472361 9.8906 0.642857V11.9481L13.2932 8.5455C13.3529 8.48581 13.4238 8.43847 13.5018 8.40617C13.5798 8.37387 13.6633 8.35724 13.7477 8.35724C13.8321 8.35724 13.9157 8.37387 13.9937 8.40617C14.0717 8.43847 14.1426 8.48581 14.2022 8.5455C14.2619 8.60519 14.3093 8.67604 14.3416 8.75403C14.3739 8.83201 14.3905 8.91559 14.3905 9C14.3905 9.08441 14.3739 9.16799 14.3416 9.24597C14.3093 9.32396 14.2619 9.39481 14.2022 9.4545L9.70224 13.9545C9.58158 14.0751 9.41799 14.1428 9.24742 14.1428C9.07685 14.1428 8.91326 14.0751 8.7926 13.9545L4.29324 9.4545Z" />
        </symbol>
        <symbol id="video-heart" viewBox="0 0 18 17" fill="none" xmlns="http://www.w3.org/2000/svg">
            <path d="M8.23555 16.5235L8.71613 16.9093C8.78166 16.9774 8.89091 17 8.97822 17H9.04374H9.06553C9.15285 17 9.2621 16.9546 9.32762 16.9093L9.61165 16.6822C12.539 14.2992 18 9.82777 18 5.10681C18 2.29235 15.7937 0 13.085 0C11.4029 0 9.89555 0.862524 8.97816 2.29235C8.08249 0.88518 6.53159 0 4.8932 0C2.18454 0 0 2.29235 0 5.10681C0 9.80507 5.15534 14.004 8.23544 16.5234L8.23555 16.5235ZM4.89332 0.907962C6.44437 0.907962 7.86419 1.83858 8.54138 3.29118C8.56316 3.33662 8.58511 3.4047 8.58511 3.4047C8.67242 3.58629 8.86914 3.69981 9.04392 3.65437C9.19691 3.63173 9.32795 3.54086 9.37153 3.38206C9.37153 3.38206 9.41526 3.29134 9.43705 3.2459C10.1142 1.7933 11.5123 0.885501 13.0633 0.885501C15.2915 0.885501 17.1046 2.76935 17.1046 5.08443C17.1046 9.37415 11.8618 13.6639 9.02204 15.9563L8.97831 15.9789L8.78159 15.8199C5.81072 13.3913 0.873826 9.35132 0.873826 5.107C0.873826 2.79187 2.66517 0.908063 4.89324 0.908063L4.89332 0.907962Z" fill="white" fill-opacity="0.6"/>
        </symbol>
        <symbol id="rating-star" viewBox="0 0 22 20" fill="none">
            <path d="M21.3052 8.10074L15.3482 12.4168L17.6419 19.4342C17.7786 19.8517 17.2736 20.1786 16.9472 19.8892L11.0232 15.5621L5.06844 19.9157C4.71997 20.1697 4.25903 19.8053 4.41561 19.4099L6.69829 12.4168L0.72584 8.08749C0.370761 7.83125 0.586894 7.27243 1.01697 7.31219L8.3502 7.32544L10.6152 0.296963C10.7498 -0.118296 11.3408 -0.0895805 11.4423 0.330101L13.6963 7.32544L21.0692 7.30998C21.4993 7.30777 21.6603 7.86881 21.3052 8.10074Z" fill="#FFCC00"/>
          </symbol>
        <!-- End info icons -->
        <!-- Features -->
        <symbol id="4k-display" viewBox="0 0 46 24" fill="none">
            <path d="M40.4952 11.6571L45.1238 24H35.9009L33.3638 15.0171H31.958V24H23.4209V0H31.958V8.57143H33.3638L35.6609 0H44.7466L40.4952 11.6571Z" fill="#FFCC00"/>
            <path d="M10.6971 23.9999V20.6742H0V14.8799L10.1829 0.411377H18.8571V14.3999H21.1886V20.6742H18.8571V23.9999H10.6971ZM7.47429 14.3999H10.6971V9.97709L7.47429 14.3999Z" fill="#FFCC00"/>
          </symbol>
        <symbol id="hd-definition" viewBox="0 0 47 24" fill="none">
            <path d="M35.1705 0C38.7819 0 41.5476 0.834285 43.4676 2.50286C45.3876 4.14857 46.3476 6.49143 46.3476 9.53143V14.5029C46.3476 17.5429 45.3876 19.8857 43.4676 21.5314C41.5476 23.1771 38.7819 24 35.1705 24H24.5762V0H35.1705ZM37.7076 14.3657V9.6C37.7076 8.68571 37.5133 8.04571 37.1247 7.68C36.7362 7.29143 36.0847 7.09714 35.1705 7.09714H33.1133V16.8343H35.1705C36.0847 16.8343 36.7362 16.6514 37.1247 16.2857C37.5133 15.8971 37.7076 15.2571 37.7076 14.3657Z" fill="#FFCC00"/>
            <path d="M13.0971 0H21.6V24H13.0971V15.2229H8.53714V24H0V0H8.53714V8.33143H13.0971V0Z" fill="#FFCC00"/>
          </symbol>
        <symbol id="responsive-for-devices" viewBox="0 0 33 33" fill="none">
            <g clip-path="url(#clip0_37_11657)">
              <path d="M21.8665 0H2.73347C1.2304 0 0 1.2292 0 2.73347V30.0665C0 31.5696 1.2304 32.8 2.73347 32.8H16.4V13.6665C16.4 10.6514 18.8514 8.2 21.8665 8.2H24.6V2.73347C24.6 1.2292 23.3696 0 21.8665 0ZM12.3 30.0665H9.56653C8.81132 30.0665 8.2 29.4556 8.2 28.7C8.2 27.9444 8.81132 27.3335 9.56653 27.3335H12.3C13.0556 27.3335 13.6665 27.9444 13.6665 28.7C13.6665 29.4556 13.0556 30.0665 12.3 30.0665Z" fill="#FFCC00"/>
              <path d="M30.0669 10.9316H21.8669C20.3642 10.9316 19.1338 12.162 19.1338 13.6647V30.0647C19.1338 31.5678 20.3642 32.7982 21.8669 32.7982H30.0669C31.5699 32.7982 32.8003 31.5678 32.8003 30.0647V13.6647C32.8003 12.162 31.5699 10.9316 30.0669 10.9316ZM25.9669 30.0647C25.2116 30.0647 24.6003 29.4538 24.6003 28.6982C24.6003 27.9426 25.2116 27.3316 25.9669 27.3316C26.7225 27.3316 27.3338 27.9426 27.3338 28.6982C27.3338 29.4538 26.7225 30.0647 25.9669 30.0647Z" fill="#FFCC00"/>
            </g>
            <defs>
              <clipPath id="clip0_37_11657">
                <rect width="32.8" height="32.8" fill="white"/>
              </clipPath>
            </defs>
          </symbol>
        <symbol id="50-mp-photos" viewBox="0 0 45 40" fill="none">
            <path d="M11.001 31.8768C9.62229 31.8743 8.27909 31.4396 7.16036 30.6338C6.04162 29.8281 5.20365 28.6919 4.76435 27.3851L4.70272 27.1826C4.50549 26.5654 4.40279 25.9219 4.39811 25.2739V13.269L0.126495 27.5277C-0.134941 28.5423 0.0122817 29.619 0.536496 30.5261C1.06071 31.4333 1.92003 32.0985 2.92963 32.3786L30.1563 39.6699C30.4961 39.758 30.836 39.8002 31.1705 39.8002C32.9242 39.8002 34.5265 38.6364 34.9755 36.9214L36.562 31.8768H11.001Z" fill="#FFCC00"/>
            <rect x="9.67559" y="1.7" width="33.5895" height="25.1965" rx="2.1" stroke="#FFCC00" stroke-width="2.6"/>
            <path d="M24.031 16.0132C25.0095 15.0441 25.5504 13.7551 25.5553 12.382C25.5565 12.0273 25.826 11.7213 26.1801 11.7015C26.5634 11.6802 26.8809 11.9846 26.8809 12.3633C26.8809 15.1994 29.1925 17.5067 32.0339 17.5067C36.2353 17.5427 38.7039 12.5756 36.133 9.25599C36.1267 9.24764 36.1211 9.23845 36.1151 9.2297C36.1077 9.21896 36.0999 9.2084 36.0932 9.1974C34.9434 7.31493 34.4645 5.20769 34.2656 3.83642C34.1967 3.36189 33.7885 3.01083 33.309 3.01043L19.1571 3C18.6778 2.99965 18.2701 3.34988 18.1995 3.82396C17.9958 5.38399 17.2885 7.88093 16.1168 9.51776C15.5555 10.3613 15.2588 11.3452 15.2588 12.3632C15.2588 13.7314 15.7863 15.0178 16.7444 15.9854C17.7024 16.9531 18.9833 17.4933 20.3512 17.5065C21.738 17.5178 23.0451 16.9895 24.031 16.0132ZM30.6352 12.3064C30.3763 12.0475 30.3763 11.6279 30.6352 11.369C30.894 11.1102 31.3137 11.1102 31.5725 11.369L32.3383 12.1348L33.1041 11.369C33.3629 11.1102 33.7826 11.1102 34.0415 11.369C34.3003 11.6278 34.3003 12.0475 34.0415 12.3064L33.2757 13.0722L34.0415 13.838C34.3003 14.0968 34.3003 14.5165 34.0415 14.7753C33.7826 15.0342 33.363 15.0342 33.1041 14.7753L32.3383 14.0095L31.5725 14.7753C31.3137 15.0342 30.894 15.0342 30.6352 14.7753C30.3763 14.5165 30.3763 14.0968 30.6352 13.838L31.401 13.0722L30.6352 12.3064ZM19.4384 14.7753C19.1796 15.0342 18.7599 15.0342 18.5011 14.7753C18.2422 14.5165 18.2422 14.0968 18.5011 13.838L19.2669 13.0722L18.5011 12.3064C18.2422 12.0475 18.2422 11.6279 18.5011 11.369C18.7599 11.1102 19.1796 11.1102 19.4384 11.369L20.2042 12.1348L20.97 11.369C21.2288 11.1102 21.6485 11.1102 21.9074 11.369C22.1662 11.6278 22.1662 12.0475 21.9074 12.3064L21.1416 13.0722L21.9074 13.838C22.1662 14.0968 22.1662 14.5165 21.9074 14.7753C21.6485 15.0342 21.2289 15.0342 20.97 14.7753L20.2042 14.0095L19.4384 14.7753Z" fill="#FFCC00"/>
            <path d="M32.0344 18.8316C29.4866 18.8316 27.2779 17.3552 26.2204 15.2144C25.1639 17.393 22.8331 18.8595 20.4035 18.8316C20.3819 18.8316 20.3605 18.8315 20.3389 18.8313C19.1055 18.8193 17.9281 18.4662 16.916 17.8183C17.3372 19.143 17.9407 21.5438 18.0448 24.6618C18.0622 25.1827 18.4905 25.5957 19.0117 25.5957H33.6274C34.1488 25.5957 34.5773 25.1825 34.5944 24.6614C34.6975 21.5197 35.298 19.0468 35.7143 17.6798C34.6689 18.4055 33.4006 18.8316 32.0344 18.8316Z" fill="#FFCC00"/>
        </symbol>
        <symbol id="support" viewBox="0 0 30 30" fill="none">
            <path d="M27.922 12.971C26.8946 12.6352 26.0947 11.8613 25.7283 10.8477C25.3698 9.85705 25.4774 8.77007 26.0233 7.86562C26.6147 6.88651 26.5236 5.68672 25.7964 4.87995L25.6829 4.75563C24.9439 3.9538 23.7514 3.73739 22.7844 4.2281C21.8201 4.71715 20.7081 4.73524 19.7323 4.27776C18.7565 3.8206 18.0589 2.95364 17.8182 1.89988C17.5765 0.842499 16.6473 0.0650022 15.5587 0.00941973L15.3883 0.00185533C14.2968 -0.0405715 13.3068 0.648453 12.9707 1.67788C12.6349 2.70566 11.8613 3.50519 10.8477 3.87191C9.85675 4.22974 8.76976 4.12252 7.86532 3.57689C6.8872 2.98588 5.68675 3.07599 4.88097 3.80284L4.75566 3.91696C3.95416 4.65598 3.73709 5.84788 4.22812 6.81547C4.71685 7.77945 4.73527 8.89176 4.27778 9.8679C3.8203 10.8437 2.95367 11.5413 1.89991 11.782C0.842198 12.0238 0.0647014 12.9529 0.00944782 14.0418L0.00188343 14.2122C-0.0408723 15.2992 0.648153 16.2934 1.67791 16.6296C2.70536 16.9654 3.50522 17.7392 3.8716 18.7529C4.23009 19.7435 4.12255 20.8305 3.57659 21.7349C2.98557 22.714 3.07635 23.9138 3.80352 24.7206L3.91699 24.8449C4.65601 25.6464 5.84823 25.8628 6.8155 25.3724C7.77882 24.8834 8.89112 24.8653 9.8676 25.3228C10.8434 25.7799 11.541 26.6469 11.7817 27.7007C12.0235 28.7584 12.9526 29.5355 14.0412 29.5908L14.2116 29.5984C14.2438 29.5993 14.2754 29.6 14.307 29.6C15.3561 29.6 16.3027 28.9215 16.6289 27.922C16.9647 26.8946 17.7383 26.095 18.7519 25.728C19.7425 25.3695 20.8295 25.477 21.7343 26.0233C22.7137 26.614 23.9135 26.5236 24.7196 25.7964L24.8439 25.6829C25.6454 24.9439 25.8625 23.752 25.3715 22.7844C24.8827 21.8208 24.8643 20.7081 25.3218 19.7323C25.7793 18.7565 26.6463 18.0589 27.6997 17.8182C28.7574 17.5768 29.5349 16.6476 29.5902 15.5584L29.598 15.388C29.6408 14.3013 28.9518 13.3071 27.922 12.971ZM14.8 7.66927C16.7542 7.66927 18.3444 9.25913 18.3444 11.2134C18.3444 13.1677 16.7546 14.7578 14.8 14.7578C12.8457 14.7578 11.2558 13.168 11.2558 11.2134C11.2558 9.25946 12.8457 7.66927 14.8 7.66927ZM20.7101 21.3439V21.359C20.7101 21.6747 20.4542 21.9309 20.1382 21.9309H19.5666H10.033H9.46142C9.14569 21.9309 8.88948 21.6751 8.88948 21.359V21.3439V20.4723C8.88948 18.0645 10.8076 16.101 13.1956 16.0182C13.2479 16.0162 13.2989 16.0103 13.3515 16.0103H16.2474C16.3 16.0103 16.351 16.0162 16.4033 16.0182C18.7914 16.1014 20.7098 18.0645 20.7098 20.4726L20.7101 21.3439Z" fill="#FFCC00"/>
          </symbol>
        <symbol id="fast-runtime" viewBox="0 0 33 24" fill="none">
            <path d="M32.451 11.2713L22.6328 0.362182C22.4234 0.130909 22.131 0 21.8212 0H15.2757C15.065 0.000228356 14.8588 0.0612904 14.6819 0.175852C14.5051 0.290414 14.365 0.453603 14.2786 0.645818C14.1041 1.04073 14.1761 1.50109 14.4641 1.81964L23.6256 12L14.4641 22.1782C14.1761 22.4989 14.1019 22.9593 14.2786 23.352C14.4554 23.7469 14.8459 24 15.2757 24H21.8212C22.131 24 22.4234 23.8669 22.6328 23.64L32.451 12.7309C32.8241 12.3164 32.8241 11.6836 32.451 11.2713Z" fill="#FFCC00"/>
            <path d="M18.2674 11.2713L8.44923 0.362182C8.23977 0.130909 7.94741 0 7.63759 0H1.09214C0.881402 0.000228356 0.675215 0.0612904 0.498342 0.175852C0.321468 0.290414 0.181428 0.453603 0.095045 0.645818C-0.0795005 1.04073 -0.0075005 1.50109 0.2805 1.81964L9.44196 12L0.2805 22.1782C-0.0075005 22.4989 -0.0816823 22.9593 0.095045 23.352C0.271772 23.7469 0.662318 24 1.09214 24H7.63759C7.94741 24 8.23977 23.8669 8.44923 23.64L18.2674 12.7309C18.6405 12.3164 18.6405 11.6836 18.2674 11.2713Z" fill="#FFCC00"/>
          </symbol>
        <!-- End Features -->
    
        <!-- Get access icons -->
        <symbol id="19-series" viewBox="0 0 24 18" fill="none">
            <path d="M16.1011 0.673828C17.5884 0.673828 18.8688 0.980494 19.9421 1.59383C21.0154 2.20716 21.8434 3.10416 22.4261 4.28483C23.0088 5.45016 23.3001 6.90683 23.3001 8.65483C23.3001 10.5102 22.9474 12.0818 22.2421 13.3698C21.5521 14.6578 20.5938 15.6392 19.3671 16.3138C18.1404 16.9885 16.7144 17.3258 15.0891 17.3258C14.2458 17.3258 13.4331 17.2338 12.6511 17.0498C11.8691 16.8658 11.1944 16.5898 10.6271 16.2218L12.0071 13.4848C12.4518 13.7915 12.9271 14.0062 13.4331 14.1288C13.9391 14.2362 14.4681 14.2898 15.0201 14.2898C16.4001 14.2898 17.4964 13.8682 18.3091 13.0248C19.1371 12.1815 19.5511 10.9318 19.5511 9.27583C19.5511 8.99983 19.5434 8.69316 19.5281 8.35583C19.5128 8.0185 19.4744 7.68116 19.4131 7.34383L20.4251 8.30983C20.1644 8.90783 19.7964 9.41383 19.3211 9.82783C18.8458 10.2265 18.2938 10.5332 17.6651 10.7478C17.0364 10.9472 16.3311 11.0468 15.5491 11.0468C14.5218 11.0468 13.5864 10.8398 12.7431 10.4258C11.9151 10.0118 11.2481 9.42916 10.7421 8.67783C10.2514 7.92649 10.0061 7.04483 10.0061 6.03283C10.0061 4.92883 10.2744 3.97816 10.8111 3.18083C11.3631 2.38349 12.0991 1.77016 13.0191 1.34083C13.9544 0.896162 14.9818 0.673828 16.1011 0.673828ZM16.3311 3.45683C15.7944 3.45683 15.3268 3.55649 14.9281 3.75583C14.5294 3.93983 14.2151 4.21583 13.9851 4.58383C13.7551 4.93649 13.6401 5.35816 13.6401 5.84883C13.6401 6.58483 13.8854 7.17516 14.3761 7.61983C14.8821 8.04916 15.5491 8.26383 16.3771 8.26383C16.9138 8.26383 17.3891 8.16416 17.8031 7.96483C18.2324 7.75016 18.5621 7.45883 18.7921 7.09083C19.0221 6.72283 19.1371 6.30883 19.1371 5.84883C19.1371 5.38883 19.0221 4.9825 18.7921 4.62983C18.5774 4.26183 18.2631 3.97816 17.8491 3.77883C17.4351 3.56416 16.9291 3.45683 16.3311 3.45683Z" fill="#FFCC00"/>
            <path d="M3.9202 17.0492V2.32922L5.5302 3.93922H0.700195V0.949219H7.6462V17.0492H3.9202Z" fill="#FFCC00"/>
        </symbol>
        <symbol id="unlim-downloads" viewBox="0 0 24 22" fill="none">
            <path d="M21.1336 12.9129C19.8955 14.1596 18.2589 14.9318 16.5095 15.0947C16.2728 15.0947 16.0321 15.1263 15.7875 15.1263H15.7165C14.3581 15.1188 13.0277 14.7395 11.8696 14.0294C11.5155 13.8183 11.1814 13.5753 10.8714 13.3035C10.7268 13.1825 10.5847 13.0509 10.4453 12.9089C10.1316 12.5956 9.84643 12.2549 9.59312 11.891C9.23774 11.6963 8.84505 11.5793 8.44104 11.5477H8.18064C7.60536 11.5472 7.04283 11.7173 6.56424 12.0365C6.08565 12.3557 5.71251 12.8097 5.49202 13.3411C5.27154 13.8724 5.21362 14.4573 5.3256 15.0215C5.43759 15.5858 5.71444 16.1042 6.12112 16.5111C6.52604 16.921 7.04347 17.2015 7.6079 17.3172C8.17234 17.4329 8.7584 17.3785 9.29192 17.161C9.82544 16.9434 10.2824 16.5725 10.605 16.0951C10.9276 15.6177 11.1014 15.0554 11.1042 14.4792C12.434 15.3833 13.9982 15.881 15.606 15.9114C15.334 17.2855 14.6854 18.5569 13.7327 19.5837C12.7799 20.6105 11.5605 21.3522 10.2105 21.726C8.86058 22.0998 7.43331 22.091 6.08809 21.7005C4.74288 21.3101 3.53269 20.5533 2.59268 19.5149C1.65267 18.4764 1.01985 17.197 0.764887 15.8197C0.509929 14.4424 0.642872 13.0213 1.14887 11.7151C1.65487 10.409 2.514 9.26919 3.63031 8.42308C4.74662 7.57697 6.07617 7.05784 7.47046 6.92366C7.71113 6.89999 7.95181 6.88815 8.19642 6.88815H8.26744C9.63838 6.89615 10.9805 7.28253 12.1458 8.00471C12.5114 8.22382 12.8561 8.47608 13.1756 8.75829C13.3018 8.86482 13.4281 8.98318 13.5465 9.10155C13.8359 9.39705 14.0999 9.71645 14.3356 10.0563C14.6952 10.2755 15.0999 10.4104 15.5192 10.4509C15.9188 10.49 16.3221 10.445 16.7033 10.3188C17.0844 10.1927 17.4349 9.98807 17.7322 9.71826C18.0295 9.44845 18.2671 9.11938 18.4295 8.75223C18.592 8.38508 18.6758 7.98798 18.6756 7.58649C18.648 6.84159 18.3327 6.13639 17.7959 5.61914C17.2591 5.1019 16.5428 4.8129 15.7973 4.8129C15.0519 4.8129 14.3355 5.1019 13.7988 5.61914C13.262 6.13639 12.9467 6.84159 12.9191 7.58649C11.5853 6.66344 10.0077 6.15678 8.38581 6.13062C8.60888 4.96904 9.10154 3.87606 9.82415 2.93965C10.5468 2.00324 11.4791 1.24956 12.5462 0.739285C13.6133 0.229005 14.7852 -0.0236224 15.9678 0.001737C17.1503 0.0270964 18.3104 0.329734 19.3546 0.885291C20.3988 1.44085 21.298 2.2338 21.9798 3.20033C22.6616 4.16686 23.1069 5.27995 23.28 6.45003C23.4531 7.6201 23.349 8.81446 22.9762 9.93698C22.6034 11.0595 21.9722 12.0788 21.1336 12.9129Z" fill="#FFCB1E"/>
        </symbol>
        <symbol id="premium-membership" viewBox="0 0 24 24" fill="none">
            <path d="M14.5513 18.6001H13.4737L13.1413 17.5754C12.9805 17.081 12.5197 16.7461 12 16.7461C11.4805 16.7461 11.0197 17.081 10.8588 17.5754L10.5255 18.6001H9.44908C8.92954 18.6001 8.46875 18.935 8.30783 19.4282C8.14711 19.9226 8.32349 20.4639 8.74336 20.7698L9.61585 21.4034L9.28216 22.4282C9.12145 22.9214 9.29783 23.4638 9.7177 23.7685C10.139 24.0757 10.7077 24.0757 11.1278 23.7697L12.0003 23.1375L12.8727 23.7711C13.0827 23.9236 13.33 23.9991 13.5771 23.9991C13.8254 23.9991 14.0727 23.9236 14.2826 23.7699C14.7039 23.4651 14.8791 22.9227 14.7181 22.4296L14.3845 21.4048L15.2569 20.7712C15.6782 20.4652 15.8534 19.924 15.6925 19.4296C15.532 18.935 15.0723 18.6001 14.5514 18.6001L14.5513 18.6001Z" fill="#FFCC00"/>
            <path d="M6.30368 18.6001H5.22609L4.89362 17.5754C4.73291 17.081 4.27205 16.7461 3.75237 16.7461C3.23284 16.7461 2.77204 17.081 2.61112 17.5754L2.27763 18.6001H1.20005C0.680521 18.6001 0.219722 18.935 0.0588019 19.4282C-0.101912 19.9226 0.0744716 20.4639 0.49434 20.7698L1.36683 21.4034L1.03314 22.4282C0.872427 22.9214 1.04881 23.4638 1.46868 23.7685C1.88995 24.0757 2.45868 24.0757 2.87875 23.7697L3.75123 23.1361L4.62372 23.7697C4.83486 23.9246 5.08216 24.0001 5.32927 24.0001C5.57757 24.0001 5.82487 23.9246 6.03481 23.7709C6.45609 23.4662 6.63128 22.9237 6.47035 22.4306L6.13667 21.4058L7.00915 20.7722C7.43043 20.4663 7.60562 19.925 7.44469 19.4307C7.28418 18.9351 6.82333 18.6002 6.3038 18.6002L6.30368 18.6001Z" fill="#FFCC00"/>
            <path d="M23.941 19.4282C23.7801 18.9351 23.3193 18.6001 22.7998 18.6001H21.7222L21.3897 17.5754C21.229 17.081 20.7681 16.7461 20.2485 16.7461C19.7289 16.7461 19.2681 17.081 19.1072 17.5754L18.7737 18.6001H17.6961C17.1766 18.6001 16.7158 18.935 16.5549 19.4282C16.3942 19.9226 16.5706 20.4639 16.9904 20.7698L17.8629 21.4034L17.5292 22.4282C17.3685 22.9214 17.5449 23.4638 17.9648 23.7685C18.386 24.0757 18.9548 24.0757 19.3748 23.7697L20.2473 23.1361L21.1198 23.7697C21.3297 23.9222 21.577 23.9977 21.8241 23.9977C22.0724 23.9977 22.3197 23.9222 22.5297 23.7685C22.9509 23.4638 23.1261 22.9213 22.9652 22.4282L22.6315 21.4034L23.504 20.7698C23.9255 20.4651 24.1019 19.9239 23.9412 19.4282L23.941 19.4282Z" fill="#FFCC00"/>
            <path d="M17.9997 8.40018V11.0174L13.9606 11.825C13.5248 11.2071 12.8109 10.8003 11.9997 10.8003C10.676 10.8003 9.5996 11.8766 9.5996 13.2003C9.5996 14.524 10.676 15.6004 11.9997 15.6004C12.9525 15.6004 13.7697 15.0377 14.1572 14.2323L19.4348 13.1762C19.9963 13.0645 20.3995 12.5725 20.3995 12.0002C21.0619 12.0002 21.5995 11.4638 21.5995 10.8003L21.5997 8.40018C21.5997 7.73665 21.0621 7.20025 20.3997 7.20025C20.3674 7.20025 20.3385 7.21713 20.3061 7.21954C19.7287 3.14666 16.2296 0 11.9994 0C7.76919 0 4.27019 3.1464 3.69317 7.21902C3.66062 7.21661 3.63189 7.19994 3.59955 7.19994C2.937 7.19994 2.39941 7.73634 2.39941 8.39987V10.7999C2.39941 11.4635 2.937 11.9999 3.59934 11.9999C3.59934 12.6634 4.13693 13.1998 4.79928 13.1998C5.46162 13.1998 5.99921 12.6634 5.99921 11.9999L5.99941 8.39987C5.99941 5.09158 8.69097 2.3997 11.9996 2.3997C15.3079 2.3997 17.9997 5.09147 17.9997 8.39987L17.9997 8.40018Z" fill="#FFCC00"/>
        </symbol>
        
        <symbol id="special-offer" viewBox="0 0 26 24" fill="none">
            <path d="M25.75 12C25.75 10.7831 23.2268 9.96312 22.851 8.85213C22.4753 7.71477 24.0321 5.57199 23.3073 4.61966C22.5825 3.64097 20.0593 4.46097 19.0663 3.74673C18.0999 3.05902 18.0732 0.413781 16.9188 0.0434957C15.7915 -0.326828 14.2346 1.7894 12.973 1.7894C11.7382 1.7894 10.1546 -0.326837 9.02723 0.0434957C7.87312 0.413819 7.84613 3.03266 6.87981 3.74673C5.8867 4.46099 3.36353 3.641 2.63874 4.61966C1.94089 5.57194 3.4708 7.71458 3.09503 8.85213C2.77318 9.96312 0.25 10.7831 0.25 12C0.25 13.2169 2.77322 14.0369 3.14896 15.1479C3.52474 16.2852 1.96785 18.428 2.69266 19.3803C3.41745 20.359 5.94067 19.539 6.93373 20.2533C7.90005 20.941 7.92685 23.5862 9.08116 23.9565C10.2085 24.3268 11.7654 22.2106 13.027 22.2106C14.2618 22.2106 15.8454 24.3268 16.9728 23.9565C18.1269 23.5862 18.1539 20.9673 19.1202 20.2533C20.1133 19.539 22.6365 20.359 23.3613 19.3803C24.0591 18.4281 22.5292 16.2854 22.905 15.1479C23.2268 14.0369 25.75 13.2169 25.75 12ZM9.69836 6.97406C10.6915 6.97406 11.4968 7.76767 11.4968 8.74636C11.4968 9.72505 10.6915 10.5187 9.69836 10.5187C8.70525 10.5187 7.89993 9.72505 7.89993 8.74636C7.89993 7.76748 8.70506 6.97406 9.69836 6.97406ZM16.3015 17.0259C15.3084 17.0259 14.5031 16.2323 14.5031 15.2536C14.5031 14.2749 15.3084 13.4813 16.3015 13.4813C17.2947 13.4813 18.1 14.2749 18.1 15.2536C18.1 16.2325 17.2948 17.0259 16.3015 17.0259ZM17.8047 8.93153L9.88621 16.735C9.64467 16.973 9.34941 17.0789 9.02716 17.0789C8.73189 17.0789 8.40984 16.9732 8.16812 16.735C7.71182 16.2853 7.71182 15.5181 8.16812 15.0684L16.0866 7.26498C16.5429 6.81532 17.3214 6.81532 17.7777 7.26498C18.2611 7.74122 18.2611 8.48189 17.8046 8.93153H17.8047Z" fill="#FFCC00"/>
        </symbol>
        <symbol id="early-access" viewBox="0 0 24 22" fill="none">
            <path fill-rule="evenodd" clip-rule="evenodd" d="M1.50103 9.30244C1.42531 9.30382 1.35018 9.2889 1.28074 9.25869C1.21129 9.22848 1.14916 9.18368 1.09856 9.12734C1.04795 9.071 1.01006 9.00443 0.987455 8.93215C0.964847 8.85987 0.958052 8.78357 0.967531 8.70844C1.27733 6.50918 2.29437 4.47045 3.86504 2.90019C5.4357 1.32992 7.47468 0.313398 9.67402 0.00414999C9.74906 -0.00531452 9.82526 0.00145432 9.89746 0.0239981C9.96966 0.0465419 10.0362 0.0843345 10.0925 0.134817C10.1488 0.1853 10.1936 0.247295 10.2239 0.316605C10.2542 0.385915 10.2692 0.460922 10.268 0.536549V1.27135C10.268 1.49103 10.3553 1.70171 10.5106 1.85704C10.666 2.01238 10.8766 2.09965 11.0963 2.09965C11.316 2.09965 11.5267 2.01238 11.682 1.85704C11.8373 1.70171 11.9246 1.49103 11.9246 1.27135V0.536549C11.9234 0.460922 11.9384 0.385915 11.9687 0.316605C11.999 0.247295 12.0438 0.1853 12.1001 0.134817C12.1565 0.0843345 12.223 0.0465419 12.2952 0.0239981C12.3674 0.00145432 12.4436 -0.00531452 12.5186 0.00414999C17.4917 0.697149 21.3186 4.96734 21.3186 10.1307V10.2803C21.3131 10.6818 20.8731 10.9106 20.5024 10.7555C19.2737 10.2396 17.9191 10.1012 16.6114 10.358C15.3037 10.6148 14.1021 11.2552 13.1598 12.1975C12.2175 13.1399 11.5771 14.3415 11.3202 15.6492C11.0634 16.9568 11.2018 18.3114 11.7178 19.5401C11.874 19.9097 11.6452 20.3497 11.2448 20.3541C11.1942 20.3563 11.1447 20.3563 11.0941 20.3563C5.92963 20.3563 1.65833 16.5261 0.967531 11.5519C0.958067 11.4769 0.964835 11.4007 0.987379 11.3285C1.00992 11.2563 1.04772 11.1898 1.0982 11.1335C1.14868 11.0771 1.21068 11.0323 1.27999 11.002C1.3493 10.9717 1.4243 10.9567 1.49993 10.9579H2.23803C2.45785 10.9579 2.66868 10.8706 2.82411 10.7152C2.97955 10.5597 3.06688 10.3489 3.06688 10.1291C3.06688 9.90926 2.97955 9.69844 2.82411 9.543C2.66868 9.38756 2.45785 9.30024 2.23803 9.30024L1.50103 9.30244ZM11.9235 6.01784C11.9235 5.79816 11.8363 5.58748 11.6809 5.43215C11.5256 5.27681 11.3149 5.18954 11.0952 5.18954C10.8755 5.18954 10.6649 5.27681 10.5095 5.43215C10.3542 5.58748 10.2669 5.79816 10.2669 6.01784V9.81394C10.2669 9.96684 10.2042 10.112 10.0931 10.2165L7.99432 12.1877C7.91502 12.2622 7.85116 12.3516 7.80638 12.4507C7.76161 12.5499 7.73681 12.6568 7.73339 12.7656C7.72996 12.8743 7.74799 12.9827 7.78644 13.0844C7.82489 13.1862 7.88301 13.2794 7.95747 13.3587C8.03194 13.438 8.1213 13.5019 8.22044 13.5466C8.31959 13.5914 8.42658 13.6162 8.53532 13.6196C8.64405 13.623 8.75239 13.605 8.85415 13.5666C8.95592 13.5281 9.04912 13.47 9.12842 13.3955L11.4879 11.179C11.7662 10.9183 11.9235 10.5531 11.9235 10.1725V6.01784Z" fill="#FFCB1E"/>
            <path fill-rule="evenodd" clip-rule="evenodd" d="M17.9088 21.9988C18.5786 22.0087 19.2437 21.8853 19.8654 21.6358C20.4871 21.3863 21.053 21.0157 21.5302 20.5455C22.0073 20.0753 22.3862 19.515 22.6449 18.897C22.9035 18.2791 23.0367 17.6159 23.0367 16.946C23.0367 16.2761 22.9035 15.6129 22.6449 14.9949C22.3862 14.377 22.0073 13.8166 21.5302 13.3464C21.053 12.8762 20.4871 12.5056 19.8654 12.2561C19.2437 12.0066 18.5786 11.8832 17.9088 11.8931C16.5816 11.9127 15.3154 12.4537 14.3838 13.3991C13.4522 14.3446 12.9299 15.6186 12.9299 16.946C12.9299 18.2733 13.4522 19.5473 14.3838 20.4928C15.3154 21.4383 16.5816 21.9792 17.9088 21.9988ZM20.595 16.2535C20.7338 16.0839 20.7997 15.8662 20.7784 15.6481C20.757 15.43 20.65 15.2292 20.4809 15.0898C20.3118 14.9503 20.0943 14.8836 19.8761 14.9042C19.6579 14.9248 19.4568 15.0311 19.3168 15.1997L18.0232 16.7672C17.9757 16.825 17.9169 16.8726 17.8505 16.9069C17.7841 16.9413 17.7113 16.9618 17.6367 16.9672C17.5621 16.9725 17.4872 16.9626 17.4165 16.9381C17.3458 16.9135 17.2809 16.8749 17.2257 16.8244L16.7879 16.4251C16.6247 16.2831 16.4125 16.2106 16.1966 16.223C15.9806 16.2354 15.7781 16.3318 15.6323 16.4915C15.4865 16.6513 15.409 16.8617 15.4163 17.0779C15.4236 17.294 15.5151 17.4988 15.6714 17.6483L16.8044 18.6823C17.3346 19.1663 18.2157 19.1388 18.6942 18.558L20.595 16.2535Z" fill="#FFCB1E"/>
        </symbol>
        <!-- End Get access icons -->
    
        <!-- Hamburger -->
        <symbol id="hamburger" viewBox="0 0 24 20" fill="none">
            <path fill-rule="evenodd" clip-rule="evenodd" d="M10 18.3333C10 17.8913 10.1756 17.4674 10.4882 17.1548C10.8007 16.8423 11.2246 16.6667 11.6667 16.6667H21.6667C22.1087 16.6667 22.5326 16.8423 22.8452 17.1548C23.1577 17.4674 23.3333 17.8913 23.3333 18.3333C23.3333 18.7754 23.1577 19.1993 22.8452 19.5118C22.5326 19.8244 22.1087 20 21.6667 20H11.6667C11.2246 20 10.8007 19.8244 10.4882 19.5118C10.1756 19.1993 10 18.7754 10 18.3333ZM0 1.66667C0 1.22464 0.175595 0.800716 0.488155 0.488156C0.800716 0.175595 1.22464 0 1.66667 0H21.6667C22.1087 0 22.5326 0.175595 22.8452 0.488156C23.1577 0.800716 23.3333 1.22464 23.3333 1.66667C23.3333 2.10869 23.1577 2.53262 22.8452 2.84518C22.5326 3.15774 22.1087 3.33333 21.6667 3.33333H1.66667C1.22464 3.33333 0.800716 3.15774 0.488155 2.84518C0.175595 2.53262 0 2.10869 0 1.66667ZM0 10C0 9.55797 0.175595 9.13405 0.488155 8.82149C0.800716 8.50893 1.22464 8.33333 1.66667 8.33333H21.6667C22.1087 8.33333 22.5326 8.50893 22.8452 8.82149C23.1577 9.13405 23.3333 9.55797 23.3333 10C23.3333 10.442 23.1577 10.8659 22.8452 11.1785C22.5326 11.4911 22.1087 11.6667 21.6667 11.6667H1.66667C1.22464 11.6667 0.800716 11.4911 0.488155 11.1785C0.175595 10.8659 0 10.442 0 10Z" fill="white"/>
          </symbol>
        <!-- End hamburger -->
    
        <!-- Download icons -->
        <symbol id="download-4k" viewBox="0 0 25 13" fill="none">
            <path d="M21.6564 6.18641L24.0864 12.6664H19.2444L17.9124 7.95041H17.1744V12.6664H12.6924V0.0664062H17.1744V4.56641H17.9124L19.1184 0.0664062H23.8884L21.6564 6.18641Z" fill="#FFCB1E"/>
            <path d="M6.01249 12.6672V10.9212H0.396484V7.8792L5.74248 0.283203H10.2965V7.6272H11.5205V10.9212H10.2965V12.6672H6.01249ZM4.32048 7.6272H6.01249V5.3052L4.32048 7.6272Z" fill="#FFCB1E"/>
            </symbol>
        <symbol id="download-hd-sm" viewBox="0 0 34 20" fill="none">
            <path d="M23.5718 0.0664062C25.4678 0.0664062 26.9198 0.504407 27.9278 1.38041C28.9358 2.24441 29.4398 3.47441 29.4398 5.07041V7.68041C29.4398 9.27641 28.9358 10.5064 27.9278 11.3704C26.9198 12.2344 25.4678 12.6664 23.5718 12.6664H18.0098V0.0664062H23.5718ZM24.9038 7.60841V5.10641C24.9038 4.62641 24.8018 4.29041 24.5978 4.09841C24.3938 3.89441 24.0518 3.79241 23.5718 3.79241H22.4918V8.90441H23.5718C24.0518 8.90441 24.3938 8.80841 24.5978 8.61641C24.8018 8.41241 24.9038 8.07641 24.9038 7.60841Z" fill="#FFCB1E"/>
            <path d="M11.9834 0.0664062H16.4474V12.6664H11.9834V8.05841H9.58942V12.6664H5.10742V0.0664062H9.58942V4.44041H11.9834V0.0664062Z" fill="#FFCB1E"/>
            <path d="M31.5146 19.3331V16.0664H31.804L33.4466 18.6704H33.484C33.4684 18.5522 33.4606 18.4153 33.4606 18.2597V16.0664H33.7686V19.3331H33.484L31.832 16.7104H31.7946C31.8133 16.8286 31.8226 16.9655 31.8226 17.1211V19.3331H31.5146Z" fill="#FFCB1E"/>
            <path d="M29.6567 19.3795C29.2833 19.3795 29.0018 19.2784 28.812 19.0762C28.6222 18.8709 28.5273 18.5691 28.5273 18.1709V17.2095C28.5273 16.9482 28.5693 16.7289 28.6533 16.5515C28.7405 16.3742 28.8665 16.242 29.0313 16.1549C29.1993 16.0646 29.4078 16.0195 29.6567 16.0195C30.0269 16.0195 30.3069 16.1206 30.4967 16.3229C30.6896 16.522 30.786 16.8175 30.786 17.2095V18.1709C30.786 18.4353 30.7425 18.6578 30.6553 18.8382C30.5713 19.0186 30.4453 19.154 30.2773 19.2442C30.1093 19.3344 29.9025 19.3795 29.6567 19.3795ZM29.6567 19.0809C29.8371 19.0809 29.9865 19.0482 30.1047 18.9829C30.226 18.9144 30.3162 18.8118 30.3753 18.6749C30.4345 18.538 30.464 18.3653 30.464 18.1569V17.2235C30.464 17.0182 30.4345 16.8486 30.3753 16.7149C30.3162 16.5811 30.226 16.4815 30.1047 16.4162C29.9865 16.3509 29.8371 16.3182 29.6567 16.3182C29.1185 16.3182 28.8493 16.62 28.8493 17.2235V18.1569C28.8493 18.7729 29.1185 19.0809 29.6567 19.0809Z" fill="#FFCB1E"/>
            <path d="M27.4727 19.3331V16.0664H27.7993V19.3331H27.4727Z" fill="#FFCB1E"/>
            <path d="M26.9989 16.0664V16.3651H26.0469V19.3331H25.7342V16.3651H24.7822V16.0664H26.9989Z" fill="#FFCB1E"/>
            <path d="M23.9814 19.3331V16.0664H24.3081V19.3331H23.9814Z" fill="#FFCB1E"/>
            <path d="M20.9053 19.3331V16.0664H21.1946L22.8373 18.6704H22.8746C22.8591 18.5522 22.8513 18.4153 22.8513 18.2597V16.0664H23.1593V19.3331H22.8746L21.2226 16.7104H21.1853C21.2039 16.8286 21.2133 16.9655 21.2133 17.1211V19.3331H20.9053Z" fill="#FFCB1E"/>
            <path d="M19.7568 19.3331V16.0664H20.0835V19.3331H19.7568Z" fill="#FFCB1E"/>
            <path d="M19.2693 16.3511H17.664V17.6297H19.1013V17.9097H17.664V19.3331H17.3467V16.0664H19.2693V16.3511Z" fill="#FFCB1E"/>
            <path d="M15.1796 19.0437H16.8036V19.3331H14.8623V16.0664H16.743V16.3511H15.1796V17.5271H16.5703V17.8071H15.1796V19.0437Z" fill="#FFCB1E"/>
            <path d="M13.0062 16.0664C13.3826 16.0664 13.6657 16.1675 13.8555 16.3697C14.0453 16.5689 14.1402 16.8644 14.1402 17.2564V18.1197C14.1402 18.9286 13.7622 19.3331 13.0062 19.3331H11.8955V16.0664H13.0062ZM13.8228 18.1197V17.2611C13.8228 16.9562 13.756 16.7306 13.6222 16.5844C13.4884 16.4351 13.2831 16.3604 13.0062 16.3604H12.2128V19.0391H13.0062C13.2831 19.0391 13.4884 18.9644 13.6222 18.8151C13.756 18.6626 13.8228 18.4309 13.8228 18.1197Z" fill="#FFCB1E"/>
            <path d="M9.72171 16.0664H10.039V19.3331H9.72171V17.8117H8.12104V19.3331H7.80371V16.0664H8.12104V17.5271H9.72171V16.0664Z" fill="#FFCB1E"/>
            <path d="M5.93542 19.3795C5.58698 19.3795 5.31942 19.2769 5.13276 19.0715C4.9492 18.8631 4.85742 18.5629 4.85742 18.1709V17.2515C4.85742 16.4302 5.26342 16.0195 6.07542 16.0195C6.22476 16.0195 6.37098 16.0351 6.51409 16.0662C6.6572 16.0973 6.76453 16.1284 6.83609 16.1595L6.93876 16.2062L6.86409 16.5095C6.85787 16.5064 6.85009 16.5033 6.84076 16.5002C6.83453 16.494 6.81742 16.4846 6.78942 16.4722C6.76142 16.4598 6.73187 16.4473 6.70076 16.4349C6.67276 16.4224 6.63542 16.41 6.58876 16.3975C6.54209 16.382 6.49387 16.3695 6.44409 16.3602C6.39742 16.3478 6.34298 16.3384 6.28076 16.3322C6.22164 16.3229 6.16098 16.3182 6.09876 16.3182C5.78764 16.3182 5.55587 16.396 5.40342 16.5515C5.25409 16.7071 5.17942 16.9466 5.17942 17.2702V18.1475C5.17942 18.7666 5.44387 19.0762 5.97276 19.0762C6.23098 19.0762 6.42698 19.0015 6.56076 18.8522C6.69764 18.6998 6.76609 18.4789 6.76609 18.1895V17.8162H5.91209V17.5269H7.08342V19.3329H6.90142L6.82676 18.8989H6.79876C6.65564 19.2193 6.36787 19.3795 5.93542 19.3795Z" fill="#FFCB1E"/>
            <path d="M3.80176 19.3331V16.0664H4.12842V19.3331H3.80176Z" fill="#FFCB1E"/>
            <path d="M2.66214 16.0664H2.97947V19.3331H2.66214V17.8117H1.06147V19.3331H0.744141V16.0664H1.06147V17.5271H2.66214V16.0664Z" fill="#FFCB1E"/>
        </symbol>
        <symbol id="download-hd" viewBox="0 0 25 13" fill="none">
            <path d="M18.5718 0.398438C20.4678 0.398438 21.9198 0.836438 22.9278 1.71244C23.9358 2.57644 24.4398 3.80644 24.4398 5.40244V8.01244C24.4398 9.60844 23.9358 10.8384 22.9278 11.7024C21.9198 12.5664 20.4678 12.9984 18.5718 12.9984H13.0098V0.398438H18.5718ZM19.9038 7.94044V5.43844C19.9038 4.95844 19.8018 4.62244 19.5978 4.43044C19.3938 4.22644 19.0518 4.12444 18.5718 4.12444H17.4918V9.23644H18.5718C19.0518 9.23644 19.3938 9.14044 19.5978 8.94844C19.8018 8.74444 19.9038 8.40844 19.9038 7.94044Z" fill="#FFCB1E"/>
            <path d="M6.98342 0.398438H11.4474V12.9984H6.98342V8.39044H4.58942V12.9984H0.107422V0.398438H4.58942V4.77244H6.98342V0.398438Z" fill="#FFCB1E"/>
        </symbol>
        <symbol id="download-sd" viewBox="0 0 24 14" fill="none">
            <path d="M17.5337 0.398438C19.4297 0.398438 20.8817 0.836438 21.8897 1.71244C22.8977 2.57644 23.4017 3.80644 23.4017 5.40244V8.01244C23.4017 9.60844 22.8977 10.8384 21.8897 11.7024C20.8817 12.5664 19.4297 12.9984 17.5337 12.9984H11.9717V0.398438H17.5337ZM18.8657 7.94044V5.43844C18.8657 4.95844 18.7637 4.62244 18.5597 4.43044C18.3557 4.22644 18.0137 4.12444 17.5337 4.12444H16.4537V9.23644H17.5337C18.0137 9.23644 18.3557 9.14044 18.5597 8.94844C18.7637 8.74444 18.8657 8.40844 18.8657 7.94044Z" fill="#FFCB1E"/>
            <path d="M5.16648 13.1788C4.30248 13.1788 3.46848 13.1368 2.66448 13.0527C1.87248 12.9688 1.29648 12.8848 0.936484 12.8008L0.396484 12.6748L0.846484 8.96675C0.990484 9.01475 1.18248 9.07475 1.42248 9.14675C1.67448 9.20675 2.14848 9.29075 2.84448 9.39875C3.55248 9.50675 4.23048 9.56075 4.87849 9.56075C5.51448 9.56075 5.94048 9.52475 6.15648 9.45275C6.38449 9.36875 6.49849 9.21875 6.49849 9.00275C6.49849 8.82275 6.39648 8.69075 6.19248 8.60675C5.98848 8.51075 5.59848 8.41475 5.02248 8.31875L4.17648 8.15675C2.88048 7.94075 1.95048 7.55675 1.38648 7.00475C0.822484 6.44075 0.540484 5.58875 0.540484 4.44875C0.540484 1.62875 2.43648 0.21875 6.22848 0.21875C6.92448 0.21875 7.61448 0.26075 8.29848 0.344751C8.98248 0.416751 9.49249 0.48875 9.82849 0.56075L10.3145 0.66875L9.79249 4.35875C9.69648 4.31075 9.55249 4.25675 9.36049 4.19675C9.16848 4.12475 8.78448 4.03475 8.20849 3.92675C7.63249 3.81875 7.05648 3.76475 6.48048 3.76475C5.89248 3.76475 5.49648 3.80075 5.29248 3.87275C5.08848 3.94475 4.98648 4.07075 4.98648 4.25075C4.98648 4.31075 5.00448 4.37075 5.04048 4.43075C5.07648 4.47875 5.13048 4.52675 5.20248 4.57475C5.28648 4.61075 5.40049 4.65275 5.54449 4.70075C5.70049 4.73675 5.86848 4.77275 6.04848 4.80875C6.22848 4.84475 6.46248 4.89275 6.75049 4.95275L7.65049 5.15075C8.87449 5.39075 9.73848 5.79875 10.2425 6.37475C10.7585 6.93875 11.0165 7.78475 11.0165 8.91275C11.0165 11.7568 9.06649 13.1788 5.16648 13.1788Z" fill="#FFCB1E"/>
            </symbol>
        <symbol id="download-mobile-video" viewBox="0 0 20 20" fill="none">
            <path d="M13.3333 0H1.66675C0.750244 0 0 0.749512 0 1.66675V18.3333C0 19.2498 0.750244 20 1.66675 20H10V8.33325C10 6.49478 11.4947 5 13.3333 5H15V1.66675C15 0.749512 14.2498 0 13.3333 0ZM7.5 18.3333H5.83325C5.37275 18.3333 5 17.9607 5 17.5C5 17.0393 5.37275 16.6667 5.83325 16.6667H7.5C7.96074 16.6667 8.33325 17.0393 8.33325 17.5C8.33325 17.9607 7.96074 18.3333 7.5 18.3333Z" fill="#FFCB1E"/>
            <path d="M18.3325 6.66602H13.3325C12.4163 6.66602 11.666 7.41626 11.666 8.33252V18.3325C11.666 19.249 12.4163 19.9993 13.3325 19.9993H18.3325C19.249 19.9993 19.9993 19.249 19.9993 18.3325V8.33252C19.9993 7.41626 19.249 6.66602 18.3325 6.66602ZM15.8325 18.3325C15.372 18.3325 14.9993 17.96 14.9993 17.4993C14.9993 17.0385 15.372 16.666 15.8325 16.666C16.2933 16.666 16.666 17.0385 16.666 17.4993C16.666 17.96 16.2933 18.3325 15.8325 18.3325Z" fill="#FFCB1E"/>
        </symbol>
        <symbol id="download-images"  viewBox="0 0 30 26" fill="none">
            <path d="M7.44295 20.7855C6.59376 20.784 5.76643 20.5162 5.07736 20.0199C4.38828 19.5236 3.87214 18.8238 3.60155 18.0189L3.56359 17.8942C3.44211 17.514 3.37886 17.1176 3.37597 16.7185V9.32422L0.744905 18.1067C0.583876 18.7317 0.674557 19.3948 0.997442 19.9536C1.32033 20.5124 1.84962 20.9221 2.47147 21.0946L19.2415 25.5856C19.4508 25.6399 19.6602 25.6659 19.8662 25.6659C20.9464 25.6659 21.9333 24.949 22.2099 23.8927L23.187 20.7855H7.44295Z" fill="#FFCB1E"/>
            <rect x="6.01009" y="1.58333" width="21.921" height="16.7514" rx="2.83333" stroke="#FFCB1E" stroke-width="2.83333"/>
            <path d="M15.4686 11.0154C16.0713 10.4185 16.4045 9.62454 16.4075 8.77875C16.4082 8.56028 16.5742 8.37183 16.7923 8.35964C17.0284 8.34647 17.224 8.53402 17.224 8.76724C17.224 10.5141 18.6478 11.9353 20.3979 11.9353C22.9857 11.9574 24.5063 8.89799 22.9228 6.85333C22.9188 6.84818 22.9154 6.84252 22.9117 6.83713C22.9071 6.83052 22.9023 6.82401 22.8982 6.81724C22.19 5.65775 21.895 4.35981 21.7725 3.51519C21.7301 3.22291 21.4786 3.00667 21.1833 3.00642L12.4666 3C12.1713 2.99978 11.9202 3.2155 11.8767 3.50751C11.7513 4.4684 11.3156 6.00637 10.5939 7.01456C10.2482 7.5341 10.0654 8.14014 10.0654 8.76716C10.0654 9.6099 10.3904 10.4023 10.9805 10.9983C11.5705 11.5943 12.3595 11.927 13.2021 11.9351C14.0563 11.9421 14.8614 11.6167 15.4686 11.0154ZM19.5364 8.73218C19.377 8.57275 19.377 8.31427 19.5364 8.15483C19.6958 7.99543 19.9543 7.9954 20.1137 8.15483L20.5854 8.62653L21.0571 8.15483C21.2165 7.9954 21.475 7.9954 21.6345 8.15483C21.7939 8.31424 21.7939 8.57275 21.6345 8.73218L21.1628 9.20388L21.6345 9.67557C21.7939 9.83501 21.7939 10.0935 21.6345 10.2529C21.475 10.4124 21.2166 10.4124 21.0571 10.2529L20.5854 9.78123L20.1137 10.2529C19.9543 10.4124 19.6958 10.4124 19.5364 10.2529C19.377 10.0935 19.377 9.83501 19.5364 9.67557L20.0081 9.20388L19.5364 8.73218ZM12.6398 10.2529C12.4804 10.4124 12.2219 10.4124 12.0625 10.2529C11.9031 10.0935 11.9031 9.83501 12.0625 9.67557L12.5342 9.20388L12.0625 8.73218C11.9031 8.57275 11.9031 8.31427 12.0625 8.15483C12.2219 7.9954 12.4804 7.9954 12.6398 8.15483L13.1115 8.62653L13.5832 8.15483C13.7426 7.9954 14.0011 7.9954 14.1606 8.15483C14.32 8.31424 14.32 8.57275 14.1606 8.73218L13.6889 9.20388L14.1606 9.67557C14.32 9.83501 14.32 10.0935 14.1606 10.2529C14.0011 10.4124 13.7427 10.4124 13.5832 10.2529L13.1115 9.78123L12.6398 10.2529Z" fill="#FFCB1E"/>
            <path d="M20.398 12.7514C18.8287 12.7514 17.4683 11.8421 16.8169 10.5234C16.1662 11.8653 14.7305 12.7686 13.234 12.7514C13.2207 12.7514 13.2076 12.7514 13.1943 12.7512C12.4346 12.7439 11.7093 12.5264 11.0859 12.1273C11.3453 12.9433 11.7171 14.422 11.7812 16.3425C11.7919 16.6634 12.0558 16.9178 12.3768 16.9178H21.3792C21.7003 16.9178 21.9643 16.6632 21.9748 16.3423C22.0383 14.4072 22.4082 12.884 22.6646 12.042C22.0207 12.489 21.2395 12.7514 20.398 12.7514Z" fill="#FFCB1E"/>
        </symbol>
        <symbol id="download-subtitles" viewBox="0 0 26 21" fill="none">
            <rect x="2.25033" y="1.91536" width="21.921" height="16.7514" rx="2.83333" stroke="#FFCB1E" stroke-width="2.83333"/>
            <path d="M7 14.666H9" stroke="#FFCB1E" stroke-width="2" stroke-linecap="round"/>
            <path d="M17.667 10.666H19.667" stroke="#FFCB1E" stroke-width="2" stroke-linecap="round"/>
            <path d="M12.334 14.666H19.6673" stroke="#FFCB1E" stroke-width="2" stroke-linecap="round"/>
            <path d="M7 10.666H14.3333" stroke="#FFCB1E" stroke-width="2" stroke-linecap="round"/>
        </symbol>
        <!-- End download icons -->
    </defs>
</svg>