<svg width="278" height="55" viewBox="0 0 278 55" fill="none" xmlns="http://www.w3.org/2000/svg">
<path d="M0.404846 44.3053H11.47V9.08447H0.404846V44.3053Z" fill="white"/>
<path fill-rule="evenodd" clip-rule="evenodd" d="M11.2154 9.33887V44.0505H0.659485V9.33887H11.2154Z" fill="white"/>
<path d="M31.1799 44.8981C38.145 44.8981 46.4933 41.7367 46.4933 33.3884V24.5461H30.6859V31.7088H35.8233V32.6474C35.8233 35.4137 34.1438 36.5992 31.3281 36.5992C28.2654 36.5992 26.6846 34.5739 26.6846 31.61V21.187C26.6846 18.2231 28.7594 16.6918 31.5751 16.6918C33.798 16.6918 36.0703 18.0255 36.0703 20.7918V21.6316H46.4439V20.1497C46.4439 11.6532 37.9968 8.4917 31.0317 8.4917C23.1774 8.4917 15.5207 12.4929 15.5207 21.434V31.6594C15.5207 41.3909 23.2762 44.8981 31.1799 44.8981Z" fill="white"/>
<path fill-rule="evenodd" clip-rule="evenodd" d="M31.0317 8.74609C34.8529 8.74609 39.1294 9.70496 42.1702 12.005C44.5682 13.8189 46.1893 16.4723 46.1893 20.1494V21.3767H36.3249V20.7916C36.3249 19.4297 35.8042 18.3961 35.0152 17.6764C34.1069 16.848 32.8347 16.4369 31.5751 16.4369C30.0473 16.4369 28.7321 16.8745 27.8148 17.7177C26.9499 18.5127 26.43 19.6704 26.43 21.1868V31.6098C26.43 33.2051 26.8757 34.5359 27.7331 35.4572C28.5528 36.3379 29.752 36.8536 31.3281 36.8536C32.8513 36.8536 34.0513 36.5112 34.863 35.7975C35.6417 35.1129 36.0779 34.0838 36.0779 32.6472V31.454H30.9405V24.8005H46.2387V33.3881C46.2387 37.0095 44.6282 39.6304 42.2417 41.4241C39.229 43.6885 34.9928 44.6433 31.1799 44.6433C26.9336 44.6433 22.726 43.6246 19.7802 41.1342C17.3386 39.07 15.7753 35.9922 15.7753 31.6592V21.4338C15.7753 17.3898 17.3722 14.3759 19.8534 12.3056C22.7605 9.8799 26.8697 8.74609 31.0317 8.74609Z" fill="white"/>
<path d="M50.05 44.3053H60.0284V27.016H60.1272L72.3779 44.3053H82.3563V9.08447H72.3779V24.8919H72.2791L60.7694 9.08447H50.05V44.3053Z" fill="white"/>
<path fill-rule="evenodd" clip-rule="evenodd" d="M60.6398 9.33887L72.5289 25.6673L72.631 9.33887H82.1017V44.0505H72.5096L59.8771 26.2224L59.7752 44.0505H50.3046V9.33887H60.6398Z" fill="white"/>
<mask id="mask0_56_588" style="mask-type:alpha" maskUnits="userSpaceOnUse" x="201" y="0" width="77" height="55">
<path d="M276.03 0H203.022C201.976 0 201.129 0.847446 201.129 1.89282V52.7286C201.129 53.774 201.976 54.6215 203.022 54.6215H276.03C277.076 54.6215 277.923 53.774 277.923 52.7286V1.89282C277.923 0.847446 277.076 0 276.03 0Z" fill="white"/>
</mask>
<g mask="url(#mask0_56_588)">
<path d="M276.03 0H203.022C201.976 0 201.129 0.847446 201.129 1.89282V52.7286C201.129 53.774 201.976 54.6215 203.022 54.6215H276.03C277.076 54.6215 277.923 53.774 277.923 52.7286V1.89282C277.923 0.847446 277.076 0 276.03 0Z" fill="#F1AC2B"/>
<path d="M273.325 3.24463H205.724C204.977 3.24463 204.372 3.84995 204.372 4.59664V50.0244C204.372 50.7711 204.977 51.3764 205.724 51.3764H273.325C274.072 51.3764 274.677 50.7711 274.677 50.0244V4.59664C274.677 3.84995 274.072 3.24463 273.325 3.24463Z" fill="#222727"/>
<path d="M234.137 44.8871V38.0789H236.826V29.9812H234.137V20.5941L224.777 26.3708V29.9812H219.813L233.103 8.1123H221.312L209.781 30.4454V38.0789H224.777V44.8871H234.137ZM249.349 44.8871V34.4685L252.141 30.497L257.468 44.8871H268.999L260.157 22.6572L268.896 8.1123H258.553L249.349 24.1014V8.1123H238.696V44.8871H249.349Z" fill="#EFC127"/>
<path opacity="0.0594076" fill-rule="evenodd" clip-rule="evenodd" d="M273.158 0H276.029C277.074 0 277.922 0.847445 277.922 1.89282V59.2183C277.922 60.2637 277.075 61.1111 276.03 61.1111C276.029 61.1111 276.029 61.1111 276.029 61.1102L237.902 61.0916L273.158 0Z" fill="black"/>
</g>
<path fill-rule="evenodd" clip-rule="evenodd" d="M148.433 9.33936C152.703 9.33936 155.812 10.4544 157.916 12.2363C160.338 14.2881 161.417 17.2183 161.417 20.2981C161.417 22.5167 160.893 24.6704 159.787 26.5113C158.771 28.2019 157.264 29.6275 155.223 30.5977L154.994 30.7036L162.328 44.051H150.766L145.085 32.393H142.349V44.051H131.793V9.33936H148.433ZM147 17.129H142.349V25.3444H146.951L147.126 25.3416C148.337 25.3037 149.287 24.8711 149.96 24.2146C150.746 23.4489 151.158 22.373 151.158 21.2367C151.158 20.1319 150.772 19.0297 149.978 18.2457C149.297 17.573 148.313 17.129 147 17.129Z" fill="white"/>
<path fill-rule="evenodd" clip-rule="evenodd" d="M193.426 9.33936V17.376H177.076V22.7263H190.018V30.7135H177.076V35.965H193.426V44.051H166.52V9.33936H193.426Z" fill="white"/>
<path fill-rule="evenodd" clip-rule="evenodd" d="M102.885 19.7866C102.885 19.7866 102.212 20.2829 102.149 21.3927C102.149 21.3927 101.514 21.9232 100.57 21.7415C100.57 21.7415 100.949 22.6394 102.696 22.6492C102.696 22.6492 102.743 23.2182 103.075 23.4165C103.075 23.4165 102.929 23.5746 102.212 23.3936C102.212 23.3936 103.902 25.1117 106.353 23.2038C106.353 23.2038 102.076 23.1722 102.885 19.7866Z" fill="white"/>
<path fill-rule="evenodd" clip-rule="evenodd" d="M95.7781 25.3534C95.6598 25.4717 95.6163 25.7908 95.9972 25.9859C96.378 26.1809 96.7407 25.7241 96.7407 25.7241C96.7407 25.7241 97.2866 26.0817 97.6231 26.4091C97.6231 26.4091 96.692 24.4405 95.7781 25.3534Z" fill="white"/>
<path fill-rule="evenodd" clip-rule="evenodd" d="M106.693 17.3774C103.652 16.9186 102.537 17.4398 102.537 17.4398C102.537 17.4398 102.094 18.764 103.889 18.4931C105.685 18.2222 106.99 17.5652 108.893 19.7214L110.227 21.4101C110.227 21.4101 109.729 17.8351 106.693 17.3774Z" fill="white"/>
<path fill-rule="evenodd" clip-rule="evenodd" d="M101.754 39.7338C104.173 39.101 105.914 37.9804 105.914 37.9804C103.602 39.138 100.812 39.2416 100.811 39.2416C93.2232 39.2181 93.0998 37.0907 93.0261 35.9926C92.9522 34.8945 94.1259 33.9772 94.1259 33.9772C94.2431 33.5272 94.1373 33.0572 94.0069 32.7066C94.2943 32.9617 94.8891 33.1071 96.1233 32.5958C96.1233 32.5958 94.4667 32.6826 93.7384 32.1501C93.7188 31.4121 94.3894 30.9252 94.5576 30.8149C94.5665 30.8219 94.575 30.8293 94.5839 30.8359C94.5839 30.8359 95.7001 30.9917 96.8055 31.9028C97.7452 32.6772 98.3785 32.7684 98.4165 32.346C98.4961 31.4613 97.6917 32.2726 97.2215 31.8857C96.4118 31.2194 95.8654 29.4328 94.4589 29.5552C94.4589 29.5552 93.9925 29.4314 93.857 29.152C93.8425 29.0643 93.8362 29.011 93.8362 29.011C95.2619 28.2313 95.475 27.136 95.475 27.136C95.475 27.136 93.4481 24.4618 94.2609 23.7599C95.2714 22.8877 96.6958 22.0257 98.2782 20.6955C98.2777 20.6956 98.2774 20.6958 98.2771 20.6959C97.3007 20.9196 96.5156 19.5676 96.5156 19.5676C98.5248 20.3759 99.3178 19.4206 99.3306 19.4049C99.7784 18.3394 99.2999 17.4148 99.2999 17.4148V17.4147C102.199 13.2219 105.278 11.514 107.938 10.9773C107.959 13.2239 108.592 17.1553 111.681 22.6209C117.943 33.2931 107.71 42.5341 103.95 44.0967C104.091 41.7111 102.73 40.3755 101.754 39.7338ZM112.321 7.82347C101.633 5.0416 90.7136 11.4508 87.9318 22.139C85.4802 31.5581 90.1676 41.1558 98.6303 45.2064C98.6303 45.2064 98.8722 45.212 99.2957 45.1955C113.548 44.7831 117.079 32.5958 117.079 32.5958C117.998 39.2788 115.328 43.783 111.924 46.6304C118.878 44.9655 124.71 39.6164 126.637 32.2131C129.419 21.5249 123.01 10.6053 112.321 7.82347Z" fill="white"/>
</svg>
